<svg width="166" height="56" viewBox="0 0 166 56" fill="none" xmlns="http://www.w3.org/2000/svg">
<g clip-path="url(#clip0_1555:28920)">
<path d="M17.1865 18.1258L26.3132 15.9934L23.1593 25.7473L28.1356 28.1073L14.0242 39.0405L15.589 45.3099L1.64857 43.0532V56H0V0L5.22421 8.04333L11.4949 5.85156L9.37146 19.0486L16.7019 12.4093L17.1865 18.1258Z" fill="white"/>
<path d="M53.0322 7.08043C52.6103 3.70001 49.9603 1.75609 46.4516 1.75609C42.447 1.75609 39.3899 4.48615 39.3899 9.27448C39.3899 14.0485 42.3952 16.7929 46.4516 16.7929C50.3378 16.7929 52.6843 14.2987 53.0322 11.6043L49.79 11.59C49.4865 13.1552 48.2133 14.0557 46.5034 14.0557C44.2013 14.0557 42.6395 12.4048 42.6395 9.27448C42.6395 6.22996 44.1791 4.4933 46.5256 4.4933C48.28 4.4933 49.5457 5.4724 49.79 7.08043H53.0322Z" fill="white"/>
<path d="M58.5135 16.8C60.1938 16.8 61.282 16.0925 61.8371 15.0705H61.926V16.5928H64.9164V9.18872C64.9164 6.57301 62.6218 5.4724 60.0902 5.4724C57.3662 5.4724 55.5748 6.73023 55.1381 8.73133L58.0546 8.96002C58.2693 8.23105 58.9429 7.69505 60.0754 7.69505C61.1487 7.69505 61.7631 8.21676 61.7631 9.11725V9.16013C61.7631 9.86766 60.9859 9.96057 59.0095 10.1464C56.7592 10.3465 54.7384 11.0755 54.7384 13.5268C54.7384 15.6994 56.3447 16.8 58.5135 16.8ZM59.4166 14.6989C58.4469 14.6989 57.7511 14.2629 57.7511 13.4268C57.7511 12.5691 58.4839 12.1475 59.5942 11.9974C60.2827 11.9045 61.4078 11.7473 61.7853 11.5043V12.6692C61.7853 13.8198 60.8008 14.6989 59.4166 14.6989Z" fill="white"/>
<path d="M70.5162 10.2464C70.5236 8.83138 71.3971 8.00236 72.6703 8.00236C73.9361 8.00236 74.6985 8.8028 74.6911 10.1464V16.5928H77.8444V9.60323C77.8444 7.04469 76.29 5.4724 73.9212 5.4724C72.2335 5.4724 71.0122 6.27284 70.5014 7.55211H70.3682V5.61534H67.3629V16.5928H70.5162V10.2464Z" fill="white"/>
<path d="M83.5719 16.8C85.2522 16.8 86.3403 16.0925 86.8955 15.0705H86.9843V16.5928H89.9748V9.18872C89.9748 6.57301 87.6801 5.4724 85.1486 5.4724C82.4245 5.4724 80.6332 6.73023 80.1965 8.73133L83.113 8.96002C83.3276 8.23105 84.0012 7.69505 85.1338 7.69505C86.2071 7.69505 86.8215 8.21676 86.8215 9.11725V9.16013C86.8215 9.86766 86.0442 9.96057 84.0678 10.1464C81.8176 10.3465 79.7968 11.0755 79.7968 13.5268C79.7968 15.6994 81.403 16.8 83.5719 16.8ZM84.475 14.6989C83.5053 14.6989 82.8095 14.2629 82.8095 13.4268C82.8095 12.5691 83.5423 12.1475 84.6526 11.9974C85.341 11.9045 86.4662 11.7473 86.8437 11.5043V12.6692C86.8437 13.8198 85.8592 14.6989 84.475 14.6989Z" fill="white"/>
<path d="M96.6109 16.7714C98.4467 16.7714 99.4015 15.7494 99.8383 14.8347H99.9715V16.5928H103.08V1.9562H99.9345V7.4592H99.8383C99.4163 6.56586 98.5059 5.4724 96.6035 5.4724C94.109 5.4724 91.9993 7.34486 91.9993 11.1183C91.9993 14.7918 94.0201 16.7714 96.6109 16.7714ZM97.6102 14.3487C96.0631 14.3487 95.2193 13.0194 95.2193 11.1041C95.2193 9.20301 96.0483 7.89516 97.6102 7.89516C99.1425 7.89516 100.001 9.14584 100.001 11.1041C100.001 13.0623 99.1277 14.3487 97.6102 14.3487Z" fill="white"/>
<path d="M105.673 16.5928H108.826V5.61534H105.673V16.5928ZM107.257 4.20028C108.197 4.20028 108.967 3.50704 108.967 2.65658C108.967 1.81326 108.197 1.12003 107.257 1.12003C106.324 1.12003 105.555 1.81326 105.555 2.65658C105.555 3.50704 106.324 4.20028 107.257 4.20028Z" fill="white"/>
<path d="M114.595 16.8C116.275 16.8 117.363 16.0925 117.918 15.0705H118.007V16.5928H120.998V9.18872C120.998 6.57301 118.703 5.4724 116.171 5.4724C113.447 5.4724 111.656 6.73023 111.219 8.73133L114.136 8.96002C114.35 8.23105 115.024 7.69505 116.156 7.69505C117.23 7.69505 117.844 8.21676 117.844 9.11725V9.16013C117.844 9.86766 117.067 9.96057 115.091 10.1464C112.84 10.3465 110.819 11.0755 110.819 13.5268C110.819 15.6994 112.426 16.8 114.595 16.8ZM115.498 14.6989C114.528 14.6989 113.832 14.2629 113.832 13.4268C113.832 12.5691 114.565 12.1475 115.675 11.9974C116.364 11.9045 117.489 11.7473 117.866 11.5043V12.6692C117.866 13.8198 116.882 14.6989 115.498 14.6989Z" fill="white"/>
<path d="M126.597 10.2464C126.605 8.83138 127.478 8.00236 128.751 8.00236C130.017 8.00236 130.78 8.8028 130.772 10.1464V16.5928H133.925V9.60323C133.925 7.04469 132.371 5.4724 130.002 5.4724C128.315 5.4724 127.093 6.27284 126.582 7.55211H126.449V5.61534H123.444V16.5928H126.597V10.2464Z" fill="white"/>
<path d="M43.6686 18.7558H40.5154V33.3857H43.6686V18.7558Z" fill="white"/>
<path d="M49.3069 27.0423C49.3142 25.6279 50.1735 24.7992 51.4261 24.7992C52.6713 24.7992 53.4214 25.5993 53.4141 26.9423V33.3857H56.5164V26.3994C56.5164 23.842 54.9871 22.2704 52.6568 22.2704C50.9964 22.2704 49.7948 23.0705 49.2924 24.3492H49.1613V22.4133H46.2047V33.3857H49.3069V27.0423Z" fill="white"/>
<path d="M64.911 22.4133H62.8065V19.7845H59.7042V22.4133H58.1749V24.6992H59.7042V30.414C59.6896 32.5642 61.1825 33.6286 63.4327 33.5357C64.2338 33.5071 64.8018 33.35 65.1149 33.25L64.627 30.9855C64.4741 31.0141 64.1464 31.0855 63.8551 31.0855C63.2361 31.0855 62.8065 30.8569 62.8065 30.014V24.6992H64.911V22.4133Z" fill="white"/>
<path d="M71.9093 33.6C74.6766 33.6 76.5409 32.2785 76.9778 30.2426L74.1086 30.0568C73.7954 30.8926 72.9944 31.3284 71.9603 31.3284C70.4092 31.3284 69.4261 30.3211 69.4261 28.6853V28.6781H77.0433V27.8423C77.0433 24.1134 74.7421 22.2704 71.7855 22.2704C68.4939 22.2704 66.3602 24.5635 66.3602 27.9495C66.3602 31.4284 68.4648 33.6 71.9093 33.6ZM69.4261 26.7922C69.4916 25.5421 70.4601 24.542 71.8365 24.542C73.1837 24.542 74.1159 25.485 74.1231 26.7922H69.4261Z" fill="white"/>
<path d="M79.0678 33.3857H82.1701V27.178C82.1701 25.8279 83.175 24.8992 84.5441 24.8992C84.9738 24.8992 85.5636 24.9707 85.8549 25.0635V22.3633C85.5782 22.299 85.1922 22.2561 84.8791 22.2561C83.6265 22.2561 82.5997 22.9705 82.1919 24.3277H82.0754V22.4133H79.0678V33.3857Z" fill="white"/>
<path d="M90.5611 27.0423C90.5684 25.6279 91.4277 24.7992 92.6802 24.7992C93.9255 24.7992 94.6756 25.5993 94.6683 26.9423V33.3857H97.7705V26.3994C97.7705 23.842 96.2413 22.2704 93.9109 22.2704C92.2506 22.2704 91.049 23.0705 90.5465 24.3492H90.4154V22.4133H87.4588V33.3857H90.5611V27.0423Z" fill="white"/>
<path d="M103.405 33.5929C105.058 33.5929 106.129 32.8857 106.675 31.8641H106.762V33.3857H109.704V25.985C109.704 23.3705 107.447 22.2704 104.956 22.2704C102.276 22.2704 100.514 23.5277 100.084 25.5278L102.954 25.7564C103.165 25.0278 103.828 24.492 104.942 24.492C105.998 24.492 106.602 25.0135 106.602 25.9136V25.9565C106.602 26.6637 105.838 26.7565 103.893 26.9423C101.679 27.1423 99.6913 27.8709 99.6913 30.3211C99.6913 32.4928 101.272 33.5929 103.405 33.5929ZM104.294 31.4927C103.34 31.4927 102.655 31.0569 102.655 30.2211C102.655 29.3639 103.376 28.9424 104.468 28.7924C105.146 28.6996 106.253 28.5424 106.624 28.2995V29.4639C106.624 30.614 105.655 31.4927 104.294 31.4927Z" fill="white"/>
<path d="M118.061 22.4133H115.956V19.7845H112.854V22.4133H111.325V24.6992H112.854V30.414C112.839 32.5642 114.332 33.6286 116.583 33.5357C117.384 33.5071 117.952 33.35 118.265 33.25L117.777 30.9855C117.624 31.0141 117.296 31.0855 117.005 31.0855C116.386 31.0855 115.956 30.8569 115.956 30.014V24.6992H118.061V22.4133Z" fill="white"/>
<path d="M120.082 33.3857H123.184V22.4133H120.082V33.3857ZM121.64 20.9989C122.565 20.9989 123.322 20.3059 123.322 19.4559C123.322 18.6129 122.565 17.92 121.64 17.92C120.723 17.92 119.965 18.6129 119.965 19.4559C119.965 20.3059 120.723 20.9989 121.64 20.9989Z" fill="white"/>
<path d="M130.723 33.6C134.116 33.6 136.228 31.3212 136.228 27.9424C136.228 24.542 134.116 22.2704 130.723 22.2704C127.329 22.2704 125.217 24.542 125.217 27.9424C125.217 31.3212 127.329 33.6 130.723 33.6ZM130.737 31.2427C129.172 31.2427 128.371 29.8354 128.371 27.9209C128.371 26.0065 129.172 24.592 130.737 24.592C132.274 24.592 133.075 26.0065 133.075 27.9209C133.075 29.8354 132.274 31.2427 130.737 31.2427Z" fill="white"/>
<path d="M141.348 27.0423C141.355 25.6279 142.214 24.7992 143.467 24.7992C144.712 24.7992 145.462 25.5993 145.455 26.9423V33.3857H148.557V26.3994C148.557 23.842 147.028 22.2704 144.698 22.2704C143.037 22.2704 141.836 23.0705 141.333 24.3492H141.202V22.4133H138.246V33.3857H141.348V27.0423Z" fill="white"/>
<path d="M154.192 33.5929C155.845 33.5929 156.915 32.8857 157.462 31.8641H157.549V33.3857H160.491V25.985C160.491 23.3705 158.234 22.2704 155.743 22.2704C153.063 22.2704 151.301 23.5277 150.871 25.5278L153.74 25.7564C153.952 25.0278 154.614 24.492 155.728 24.492C156.784 24.492 157.389 25.0135 157.389 25.9136V25.9565C157.389 26.6637 156.624 26.7565 154.68 26.9423C152.466 27.1423 150.478 27.8709 150.478 30.3211C150.478 32.4928 152.058 33.5929 154.192 33.5929ZM155.08 31.4927C154.126 31.4927 153.442 31.0569 153.442 30.2211C153.442 29.3639 154.163 28.9424 155.255 28.7924C155.932 28.6996 157.039 28.5424 157.411 28.2995V29.4639C157.411 30.614 156.442 31.4927 155.08 31.4927Z" fill="white"/>
<path d="M166 18.7558H162.898V33.3857H166V18.7558Z" fill="white"/>
<path d="M112.346 40.6287C111.934 37.2328 109.349 35.28 105.926 35.28C102.02 35.28 99.0374 38.0225 99.0374 42.8328C99.0374 47.6287 101.969 50.3856 105.926 50.3856C109.717 50.3856 112.006 47.88 112.346 45.1733L109.183 45.159C108.887 46.7313 107.645 47.6359 105.977 47.6359C103.731 47.6359 102.207 45.9774 102.207 42.8328C102.207 39.7743 103.709 38.0297 105.998 38.0297C107.71 38.0297 108.945 39.0133 109.183 40.6287H112.346Z" fill="white"/>
<path d="M119.585 50.4C122.329 50.4 124.177 49.0718 124.611 47.0256L121.766 46.839C121.455 47.679 120.661 48.1169 119.635 48.1169C118.097 48.1169 117.123 47.1046 117.123 45.4605V45.4533H124.676V44.6133C124.676 40.8656 122.394 39.0133 119.462 39.0133C116.198 39.0133 114.082 41.3179 114.082 44.721C114.082 48.2174 116.169 50.4 119.585 50.4ZM117.123 43.5579C117.187 42.3015 118.148 41.2964 119.513 41.2964C120.849 41.2964 121.773 42.2441 121.78 43.5579H117.123Z" fill="white"/>
<path d="M129.759 43.8092C129.767 42.3877 130.619 41.5549 131.861 41.5549C133.095 41.5549 133.839 42.359 133.832 43.7087V50.1846H136.908V43.1631C136.908 40.5928 135.392 39.0133 133.081 39.0133C131.435 39.0133 130.243 39.8174 129.745 41.1025H129.615V39.1569H126.683V50.1846H129.759V43.8092Z" fill="white"/>
<path d="M145.232 39.1569H143.145V36.5149H140.069V39.1569H138.553V41.4543H140.069V47.1979C140.055 49.359 141.535 50.4287 143.766 50.3354C144.561 50.3067 145.124 50.1487 145.434 50.0482L144.951 47.7723C144.799 47.801 144.474 47.8728 144.185 47.8728C143.571 47.8728 143.145 47.6431 143.145 46.7959V41.4543H145.232V39.1569Z" fill="white"/>
<path d="M152.172 50.4C154.916 50.4 156.764 49.0718 157.198 47.0256L154.353 46.839C154.042 47.679 153.248 48.1169 152.222 48.1169C150.684 48.1169 149.709 47.1046 149.709 45.4605V45.4533H157.263V44.6133C157.263 40.8656 154.981 39.0133 152.049 39.0133C148.785 39.0133 146.669 41.3179 146.669 44.721C146.669 48.2174 148.756 50.4 152.172 50.4ZM149.709 43.5579C149.774 42.3015 150.735 41.2964 152.1 41.2964C153.435 41.2964 154.36 42.2441 154.367 43.5579H149.709Z" fill="white"/>
<path d="M159.27 50.1846H162.346V43.9456C162.346 42.5887 163.343 41.6554 164.7 41.6554C165.126 41.6554 165.711 41.7272 166 41.8205V39.1066C165.726 39.042 165.343 38.999 165.032 38.999C163.79 38.999 162.772 39.7169 162.368 41.081H162.252V39.1569H159.27V50.1846Z" fill="white"/>
<path d="M41.9021 40.3749H42.5218C42.5031 39.6941 41.9 39.2 41.0349 39.2C40.1802 39.2 39.5251 39.6878 39.5251 40.4206C39.5251 41.0122 39.9493 41.3589 40.6335 41.5437L41.1368 41.6807C41.5922 41.8011 41.9437 41.9505 41.9437 42.3283C41.9437 42.7435 41.5465 43.0175 40.9995 43.0175C40.5046 43.0175 40.0928 42.7975 40.0554 42.3346H39.4107C39.4523 43.1047 40.0491 43.5801 41.0037 43.5801C42.004 43.5801 42.58 43.0549 42.58 42.3346C42.58 41.5686 41.8958 41.2717 41.3551 41.1389L40.9392 41.0309C40.6065 40.9458 40.1635 40.7901 40.1656 40.3832C40.1656 40.022 40.4963 39.7543 41.0203 39.7543C41.509 39.7543 41.8563 39.9826 41.9021 40.3749Z" fill="white"/>
<path d="M43.3479 43.5095H43.9905V42.0149H44.864C45.8518 42.0149 46.3405 41.4191 46.3405 40.6344C46.3405 39.8518 45.856 39.2581 44.8661 39.2581H43.3479V43.5095ZM43.9905 41.471V39.8082H44.7974C45.4338 39.8082 45.6938 40.1528 45.6938 40.6344C45.6938 41.116 45.4338 41.471 44.8058 41.471H43.9905Z" fill="white"/>
<path d="M50.7935 41.3838C50.7935 40.0241 49.9783 39.2 48.8761 39.2C47.7697 39.2 46.9566 40.0241 46.9566 41.3838C46.9566 42.7414 47.7697 43.5676 48.8761 43.5676C49.9783 43.5676 50.7935 42.7435 50.7935 41.3838ZM50.1572 41.3838C50.1572 42.4197 49.6081 42.9822 48.8761 42.9822C48.142 42.9822 47.5951 42.4197 47.5951 41.3838C47.5951 40.348 48.142 39.7854 48.8761 39.7854C49.6081 39.7854 50.1572 40.348 50.1572 41.3838Z" fill="white"/>
<path d="M51.5947 43.5095H52.2373V41.9007H53.1107C53.1253 41.9007 53.1378 41.9007 53.1523 41.9007L54.0175 43.5095H54.7495L53.8053 41.7886C54.3273 41.5955 54.5873 41.1617 54.5873 40.5908C54.5873 39.8082 54.1006 39.2581 53.1128 39.2581H51.5947V43.5095ZM52.2373 41.3485V39.8082H53.0442C53.6785 39.8082 53.9405 40.1092 53.9405 40.5908C53.9405 41.0704 53.6785 41.3485 53.0525 41.3485H52.2373Z" fill="white"/>
<path d="M55.1592 39.8103H56.486V43.5095H57.1265V39.8103H58.4554V39.2581H55.1592V39.8103Z" fill="white"/>
<path d="M61.5067 40.3749H62.1264C62.1077 39.6941 61.5046 39.2 60.6395 39.2C59.7848 39.2 59.1297 39.6878 59.1297 40.4206C59.1297 41.0122 59.5539 41.3589 60.2381 41.5437L60.7414 41.6807C61.1968 41.8011 61.5483 41.9505 61.5483 42.3283C61.5483 42.7435 61.1511 43.0175 60.6041 43.0175C60.1092 43.0175 59.6974 42.7975 59.66 42.3346H59.0153C59.0569 43.1047 59.6538 43.5801 60.6083 43.5801C61.6086 43.5801 62.1847 43.0549 62.1847 42.3346C62.1847 41.5686 61.5005 41.2717 60.9598 41.1389L60.5438 41.0309C60.2111 40.9458 59.7681 40.7901 59.7702 40.3832C59.7702 40.022 60.1009 39.7543 60.6249 39.7543C61.1137 39.7543 61.461 39.9826 61.5067 40.3749Z" fill="white"/>
<path d="M40.7687 50.3896C41.1534 50.3896 41.5797 50.2609 41.8667 49.9931L42.1537 50.3294H42.8566L42.2515 49.607C42.4324 49.3662 42.605 48.9884 42.605 48.3989H42.0435C42.0435 48.6833 41.9769 48.9365 41.8667 49.1482L41.0141 48.1311L41.3052 47.9173C41.6588 47.6598 41.8709 47.363 41.8709 46.9582C41.8709 46.4621 41.4695 46.0324 40.8144 46.0324C40.1656 46.0324 39.7393 46.4496 39.7393 47.0371C39.7393 47.417 39.9389 47.718 40.2072 48.0439C39.7206 48.3802 39.3899 48.6936 39.3899 49.2001C39.3899 49.8831 39.9119 50.3896 40.7687 50.3896ZM41.5173 49.5821C41.2969 49.7648 41.0328 49.8644 40.7708 49.8644C40.3091 49.8644 40.0075 49.551 40.0075 49.1835C40.0075 49.0528 40.1178 48.7912 40.4505 48.5462L40.5628 48.4632L41.5173 49.5821ZM40.6709 47.718C40.4775 47.4813 40.3257 47.2634 40.3257 47.0475C40.3257 46.8004 40.5295 46.5513 40.829 46.5513C41.116 46.5513 41.3031 46.7755 41.3031 46.9748C41.3031 47.2281 41.1638 47.3817 40.933 47.5332L40.6709 47.718Z" fill="white"/>
<path d="M44.9435 50.3294H47.6387V49.7772H45.5861V48.4757H47.4744V47.9256H45.5861V46.6302H47.6138V46.078H44.9435V50.3294Z" fill="white"/>
<path d="M49.8509 50.3294C51.1486 50.3294 51.8994 49.5261 51.8994 48.1975C51.8994 46.8752 51.1486 46.078 49.8946 46.078H48.4721V50.3294H49.8509ZM49.1147 49.7689V46.6385H49.8551C50.7868 46.6385 51.2672 47.1949 51.2672 48.1975C51.2672 49.2043 50.7868 49.7689 49.8156 49.7689H49.1147Z" fill="white"/>
<path d="M55.4373 46.078V48.8223C55.4373 49.3994 55.038 49.8146 54.3892 49.8146C53.7424 49.8146 53.3411 49.3994 53.3411 48.8223V46.078H52.6985V48.8742C52.6985 49.7669 53.3681 50.4 54.3892 50.4C55.4103 50.4 56.082 49.7669 56.082 48.8742V46.078H55.4373Z" fill="white"/>
<path d="M60.5537 47.4606C60.4081 46.5513 59.6948 46.0199 58.7944 46.0199C57.6922 46.0199 56.879 46.844 56.879 48.2037C56.879 49.5634 57.688 50.3875 58.7944 50.3875C59.7302 50.3875 60.4144 49.8021 60.5537 48.9614L59.9049 48.9593C59.7947 49.5032 59.3371 49.8021 58.7985 49.8021C58.0686 49.8021 57.5175 49.2437 57.5175 48.2037C57.5175 47.172 58.0665 46.6053 58.8006 46.6053C59.3434 46.6053 59.7988 46.9105 59.9049 47.4606H60.5537Z" fill="white"/>
<path d="M61.6538 50.3294L62.0448 49.2043H63.7085L64.0974 50.3294H64.7795L63.2468 46.078H62.5044L60.9717 50.3294H61.6538ZM62.232 48.6646L62.86 46.8503H62.8933L63.5213 48.6646H62.232Z" fill="white"/>
<path d="M64.6755 46.6302H66.0023V50.3294H66.6429V46.6302H67.9717V46.078H64.6755V46.6302Z" fill="white"/>
<path d="M69.3427 46.078H68.7001V50.3294H69.3427V46.078Z" fill="white"/>
<path d="M73.9782 48.2037C73.9782 46.844 73.163 46.0199 72.0608 46.0199C70.9544 46.0199 70.1413 46.844 70.1413 48.2037C70.1413 49.5613 70.9544 50.3875 72.0608 50.3875C73.163 50.3875 73.9782 49.5634 73.9782 48.2037ZM73.3419 48.2037C73.3419 49.2396 72.7928 49.8021 72.0608 49.8021C71.3267 49.8021 70.7798 49.2396 70.7798 48.2037C70.7798 47.1679 71.3267 46.6053 72.0608 46.6053C72.7928 46.6053 73.3419 47.1679 73.3419 48.2037Z" fill="white"/>
<path d="M78.217 46.078H77.5806V49.2001H77.5411L75.3742 46.078H74.7794V50.3294H75.422V47.2115H75.4615L77.6264 50.3294H78.217V46.078Z" fill="white"/>
</g>
<defs>
<clipPath id="clip0_1555:28920">
<rect width="166" height="56" fill="white"/>
</clipPath>
</defs>
</svg>
