<svg width="166" height="56" viewBox="0 0 166 56" fill="none" xmlns="http://www.w3.org/2000/svg">
<g clip-path="url(#clip0_1001:28923)">
<path d="M17.1865 18.1258L26.3132 15.9934L23.1593 25.7473L28.1356 28.1073L14.0242 39.0405L15.589 45.3099L1.64857 43.0532V56H0V0L5.22421 8.04333L11.4949 5.85156L9.37146 19.0486L16.7019 12.4093L17.1865 18.1258Z" fill="#6002FD"/>
<path d="M53.0321 7.08043C52.6102 3.70001 49.9602 1.75609 46.4516 1.75609C42.4469 1.75609 39.3898 4.48615 39.3898 9.27448C39.3898 14.0485 42.3951 16.7929 46.4516 16.7929C50.3377 16.7929 52.6842 14.2987 53.0321 11.6043L49.79 11.59C49.4865 13.1552 48.2133 14.0557 46.5034 14.0557C44.2013 14.0557 42.6394 12.4048 42.6394 9.27448C42.6394 6.22996 44.1791 4.4933 46.5256 4.4933C48.2799 4.4933 49.5457 5.4724 49.79 7.08043H53.0321Z" fill="#6002FD"/>
<path d="M58.5135 16.8C60.1938 16.8 61.2819 16.0925 61.8371 15.0705H61.9259V16.5928H64.9164V9.18872C64.9164 6.57301 62.6217 5.4724 60.0901 5.4724C57.3661 5.4724 55.5748 6.73023 55.1381 8.73133L58.0545 8.96002C58.2692 8.23105 58.9428 7.69505 60.0753 7.69505C61.1487 7.69505 61.763 8.21676 61.763 9.11725V9.16013C61.763 9.86766 60.9858 9.96057 59.0094 10.1464C56.7591 10.3465 54.7383 11.0755 54.7383 13.5268C54.7383 15.6994 56.3446 16.8 58.5135 16.8ZM59.4165 14.6989C58.4468 14.6989 57.751 14.2629 57.751 13.4268C57.751 12.5691 58.4839 12.1475 59.5942 11.9974C60.2826 11.9045 61.4077 11.7473 61.7852 11.5043V12.6692C61.7852 13.8198 60.8008 14.6989 59.4165 14.6989Z" fill="#6002FD"/>
<path d="M70.5162 10.2464C70.5236 8.83138 71.397 8.00236 72.6702 8.00236C73.936 8.00236 74.6984 8.8028 74.691 10.1464V16.5928H77.8444V9.60323C77.8444 7.04469 76.2899 5.4724 73.9212 5.4724C72.2335 5.4724 71.0121 6.27284 70.5014 7.55211H70.3681V5.61534H67.3628V16.5928H70.5162V10.2464Z" fill="#6002FD"/>
<path d="M83.5718 16.8C85.2521 16.8 86.3403 16.0925 86.8954 15.0705H86.9843V16.5928H89.9748V9.18872C89.9748 6.57301 87.6801 5.4724 85.1485 5.4724C82.4245 5.4724 80.6331 6.73023 80.1964 8.73133L83.1129 8.96002C83.3276 8.23105 84.0012 7.69505 85.1337 7.69505C86.207 7.69505 86.8214 8.21676 86.8214 9.11725V9.16013C86.8214 9.86766 86.0442 9.96057 84.0678 10.1464C81.8175 10.3465 79.7967 11.0755 79.7967 13.5268C79.7967 15.6994 81.403 16.8 83.5718 16.8ZM84.4749 14.6989C83.5052 14.6989 82.8094 14.2629 82.8094 13.4268C82.8094 12.5691 83.5422 12.1475 84.6526 11.9974C85.341 11.9045 86.4661 11.7473 86.8436 11.5043V12.6692C86.8436 13.8198 85.8591 14.6989 84.4749 14.6989Z" fill="#6002FD"/>
<path d="M96.6108 16.7714C98.4466 16.7714 99.4015 15.7494 99.8382 14.8347H99.9714V16.5928H103.08V1.9562H99.9344V7.4592H99.8382C99.4163 6.56586 98.5058 5.4724 96.6034 5.4724C94.1089 5.4724 91.9993 7.34486 91.9993 11.1183C91.9993 14.7918 94.0201 16.7714 96.6108 16.7714ZM97.6101 14.3487C96.0631 14.3487 95.2192 13.0194 95.2192 11.1041C95.2192 9.20301 96.0483 7.89516 97.6101 7.89516C99.1424 7.89516 100.001 9.14584 100.001 11.1041C100.001 13.0623 99.1276 14.3487 97.6101 14.3487Z" fill="#6002FD"/>
<path d="M105.673 16.5928H108.826V5.61534H105.673V16.5928ZM107.257 4.20028C108.197 4.20028 108.967 3.50704 108.967 2.65658C108.967 1.81326 108.197 1.12003 107.257 1.12003C106.324 1.12003 105.555 1.81326 105.555 2.65658C105.555 3.50704 106.324 4.20028 107.257 4.20028Z" fill="#6002FD"/>
<path d="M114.595 16.8C116.275 16.8 117.363 16.0925 117.918 15.0705H118.007V16.5928H120.997V9.18872C120.997 6.57301 118.703 5.4724 116.171 5.4724C113.447 5.4724 111.656 6.73023 111.219 8.73133L114.136 8.96002C114.35 8.23105 115.024 7.69505 116.156 7.69505C117.23 7.69505 117.844 8.21676 117.844 9.11725V9.16013C117.844 9.86766 117.067 9.96057 115.09 10.1464C112.84 10.3465 110.819 11.0755 110.819 13.5268C110.819 15.6994 112.426 16.8 114.595 16.8ZM115.498 14.6989C114.528 14.6989 113.832 14.2629 113.832 13.4268C113.832 12.5691 114.565 12.1475 115.675 11.9974C116.364 11.9045 117.489 11.7473 117.866 11.5043V12.6692C117.866 13.8198 116.882 14.6989 115.498 14.6989Z" fill="#6002FD"/>
<path d="M126.597 10.2464C126.605 8.83138 127.478 8.00236 128.751 8.00236C130.017 8.00236 130.779 8.8028 130.772 10.1464V16.5928H133.925V9.60323C133.925 7.04469 132.371 5.4724 130.002 5.4724C128.315 5.4724 127.093 6.27284 126.582 7.55211H126.449V5.61534H123.444V16.5928H126.597V10.2464Z" fill="#6002FD"/>
<path d="M43.6685 18.7558H40.5153V33.3857H43.6685V18.7558Z" fill="#6002FD"/>
<path d="M49.3068 27.0423C49.3141 25.6279 50.1734 24.7992 51.4259 24.7992C52.6712 24.7992 53.4213 25.5993 53.414 26.9423V33.3857H56.5163V26.3994C56.5163 23.842 54.987 22.2704 52.6567 22.2704C50.9963 22.2704 49.7947 23.0705 49.2922 24.3492H49.1612V22.4133H46.2045V33.3857H49.3068V27.0423Z" fill="#6002FD"/>
<path d="M64.9109 22.4133H62.8063V19.7845H59.7041V22.4133H58.1748V24.6992H59.7041V30.414C59.6895 32.5642 61.1824 33.6286 63.4326 33.5357C64.2337 33.5071 64.8017 33.35 65.1148 33.25L64.6269 30.9855C64.474 31.0141 64.1463 31.0855 63.855 31.0855C63.236 31.0855 62.8063 30.8569 62.8063 30.014V24.6992H64.9109V22.4133Z" fill="#6002FD"/>
<path d="M71.9092 33.6C74.6765 33.6 76.5407 32.2785 76.9777 30.2426L74.1085 30.0568C73.7953 30.8926 72.9943 31.3284 71.9602 31.3284C70.409 31.3284 69.4259 30.3211 69.4259 28.6853V28.6781H77.0432V27.8423C77.0432 24.1134 74.742 22.2704 71.7854 22.2704C68.4938 22.2704 66.3601 24.5635 66.3601 27.9495C66.3601 31.4284 68.4647 33.6 71.9092 33.6ZM69.4259 26.7922C69.4915 25.5421 70.46 24.542 71.8364 24.542C73.1836 24.542 74.1157 25.485 74.123 26.7922H69.4259Z" fill="#6002FD"/>
<path d="M79.0677 33.3857H82.1699V27.178C82.1699 25.8279 83.1749 24.8992 84.544 24.8992C84.9736 24.8992 85.5635 24.9707 85.8548 25.0635V22.3633C85.5781 22.299 85.1921 22.2561 84.879 22.2561C83.6264 22.2561 82.5996 22.9705 82.1918 24.3277H82.0753V22.4133H79.0677V33.3857Z" fill="#6002FD"/>
<path d="M90.561 27.0423C90.5682 25.6279 91.4276 24.7992 92.6801 24.7992C93.9254 24.7992 94.6755 25.5993 94.6682 26.9423V33.3857H97.7704V26.3994C97.7704 23.842 96.2411 22.2704 93.9108 22.2704C92.2505 22.2704 91.0489 23.0705 90.5464 24.3492H90.4153V22.4133H87.4587V33.3857H90.561V27.0423Z" fill="#6002FD"/>
<path d="M103.405 33.5929C105.058 33.5929 106.129 32.8857 106.675 31.8641H106.762V33.3857H109.704V25.985C109.704 23.3705 107.447 22.2704 104.956 22.2704C102.276 22.2704 100.514 23.5277 100.084 25.5278L102.954 25.7564C103.165 25.0278 103.827 24.492 104.942 24.492C105.998 24.492 106.602 25.0135 106.602 25.9136V25.9565C106.602 26.6637 105.837 26.7565 103.893 26.9423C101.679 27.1423 99.6911 27.8709 99.6911 30.3211C99.6911 32.4928 101.271 33.5929 103.405 33.5929ZM104.294 31.4927C103.34 31.4927 102.655 31.0569 102.655 30.2211C102.655 29.3639 103.376 28.9424 104.468 28.7924C105.146 28.6996 106.252 28.5424 106.624 28.2995V29.4639C106.624 30.614 105.655 31.4927 104.294 31.4927Z" fill="#6002FD"/>
<path d="M118.061 22.4133H115.956V19.7845H112.854V22.4133H111.325V24.6992H112.854V30.414C112.839 32.5642 114.332 33.6286 116.582 33.5357C117.383 33.5071 117.951 33.35 118.265 33.25L117.777 30.9855C117.624 31.0141 117.296 31.0855 117.005 31.0855C116.386 31.0855 115.956 30.8569 115.956 30.014V24.6992H118.061V22.4133Z" fill="#6002FD"/>
<path d="M120.082 33.3857H123.184V22.4133H120.082V33.3857ZM121.64 20.9989C122.565 20.9989 123.322 20.3059 123.322 19.4559C123.322 18.6129 122.565 17.92 121.64 17.92C120.722 17.92 119.965 18.6129 119.965 19.4559C119.965 20.3059 120.722 20.9989 121.64 20.9989Z" fill="#6002FD"/>
<path d="M130.723 33.6C134.116 33.6 136.228 31.3212 136.228 27.9424C136.228 24.542 134.116 22.2704 130.723 22.2704C127.329 22.2704 125.217 24.542 125.217 27.9424C125.217 31.3212 127.329 33.6 130.723 33.6ZM130.737 31.2427C129.172 31.2427 128.371 29.8354 128.371 27.9209C128.371 26.0065 129.172 24.592 130.737 24.592C132.274 24.592 133.075 26.0065 133.075 27.9209C133.075 29.8354 132.274 31.2427 130.737 31.2427Z" fill="#6002FD"/>
<path d="M141.348 27.0423C141.355 25.6279 142.214 24.7992 143.467 24.7992C144.712 24.7992 145.462 25.5993 145.455 26.9423V33.3857H148.557V26.3994C148.557 23.842 147.028 22.2704 144.697 22.2704C143.037 22.2704 141.836 23.0705 141.333 24.3492H141.202V22.4133H138.245V33.3857H141.348V27.0423Z" fill="#6002FD"/>
<path d="M154.192 33.5929C155.845 33.5929 156.915 32.8857 157.462 31.8641H157.549V33.3857H160.491V25.985C160.491 23.3705 158.233 22.2704 155.743 22.2704C153.063 22.2704 151.301 23.5277 150.871 25.5278L153.74 25.7564C153.951 25.0278 154.614 24.492 155.728 24.492C156.784 24.492 157.389 25.0135 157.389 25.9136V25.9565C157.389 26.6637 156.624 26.7565 154.68 26.9423C152.466 27.1423 150.478 27.8709 150.478 30.3211C150.478 32.4928 152.058 33.5929 154.192 33.5929ZM155.08 31.4927C154.126 31.4927 153.442 31.0569 153.442 30.2211C153.442 29.3639 154.163 28.9424 155.255 28.7924C155.932 28.6996 157.039 28.5424 157.411 28.2995V29.4639C157.411 30.614 156.442 31.4927 155.08 31.4927Z" fill="#6002FD"/>
<path d="M166 18.7558H162.898V33.3857H166V18.7558Z" fill="#6002FD"/>
<path d="M112.346 40.6287C111.934 37.2328 109.349 35.28 105.926 35.28C102.02 35.28 99.0372 38.0225 99.0372 42.8328C99.0372 47.6287 101.969 50.3856 105.926 50.3856C109.717 50.3856 112.006 47.88 112.346 45.1733L109.183 45.159C108.887 46.7313 107.645 47.6359 105.977 47.6359C103.731 47.6359 102.207 45.9774 102.207 42.8328C102.207 39.7743 103.709 38.0297 105.998 38.0297C107.71 38.0297 108.945 39.0133 109.183 40.6287H112.346Z" fill="#6002FD"/>
<path d="M119.585 50.4C122.329 50.4 124.177 49.0718 124.611 47.0256L121.766 46.839C121.455 47.679 120.661 48.1169 119.635 48.1169C118.097 48.1169 117.122 47.1046 117.122 45.4605V45.4533H124.676V44.6133C124.676 40.8656 122.394 39.0133 119.462 39.0133C116.198 39.0133 114.082 41.3179 114.082 44.721C114.082 48.2174 116.169 50.4 119.585 50.4ZM117.122 43.5579C117.187 42.3015 118.148 41.2964 119.513 41.2964C120.848 41.2964 121.773 42.2441 121.78 43.5579H117.122Z" fill="#6002FD"/>
<path d="M129.759 43.8092C129.766 42.3877 130.619 41.5549 131.861 41.5549C133.095 41.5549 133.839 42.359 133.832 43.7087V50.1846H136.908V43.1631C136.908 40.5928 135.392 39.0133 133.081 39.0133C131.435 39.0133 130.243 39.8174 129.745 41.1025H129.615V39.1569H126.683V50.1846H129.759V43.8092Z" fill="#6002FD"/>
<path d="M145.232 39.1569H143.145V36.5149H140.069V39.1569H138.553V41.4543H140.069V47.1979C140.055 49.359 141.535 50.4287 143.766 50.3354C144.561 50.3067 145.124 50.1487 145.434 50.0482L144.951 47.7723C144.799 47.801 144.474 47.8728 144.185 47.8728C143.571 47.8728 143.145 47.6431 143.145 46.7959V41.4543H145.232V39.1569Z" fill="#6002FD"/>
<path d="M152.172 50.4C154.916 50.4 156.764 49.0718 157.197 47.0256L154.352 46.839C154.042 47.679 153.248 48.1169 152.222 48.1169C150.684 48.1169 149.709 47.1046 149.709 45.4605V45.4533H157.262V44.6133C157.262 40.8656 154.981 39.0133 152.049 39.0133C148.785 39.0133 146.669 41.3179 146.669 44.721C146.669 48.2174 148.756 50.4 152.172 50.4ZM149.709 43.5579C149.774 42.3015 150.735 41.2964 152.099 41.2964C153.435 41.2964 154.36 42.2441 154.367 43.5579H149.709Z" fill="#6002FD"/>
<path d="M159.27 50.1846H162.346V43.9456C162.346 42.5887 163.343 41.6554 164.7 41.6554C165.126 41.6554 165.711 41.7272 166 41.8205V39.1066C165.726 39.042 165.343 38.999 165.032 38.999C163.79 38.999 162.772 39.7169 162.368 41.081H162.252V39.1569H159.27V50.1846Z" fill="#6002FD"/>
<path d="M41.902 40.3749H42.5217C42.503 39.6941 41.8999 39.2 41.0348 39.2C40.1801 39.2 39.525 39.6878 39.525 40.4206C39.525 41.0122 39.9493 41.3589 40.6334 41.5437L41.1367 41.6807C41.5922 41.8011 41.9436 41.9505 41.9436 42.3283C41.9436 42.7435 41.5464 43.0175 40.9995 43.0175C40.5045 43.0175 40.0927 42.7975 40.0553 42.3346H39.4106C39.4522 43.1047 40.0491 43.5801 41.0036 43.5801C42.0039 43.5801 42.58 43.0549 42.58 42.3346C42.58 41.5686 41.8958 41.2717 41.3551 41.1389L40.9392 41.0309C40.6064 40.9458 40.1635 40.7901 40.1655 40.3832C40.1655 40.022 40.4962 39.7543 41.0203 39.7543C41.509 39.7543 41.8563 39.9826 41.902 40.3749Z" fill="#6002FD"/>
<path d="M43.3479 43.5095H43.9905V42.0149H44.8639C45.8517 42.0149 46.3405 41.4191 46.3405 40.6344C46.3405 39.8518 45.8559 39.2581 44.866 39.2581H43.3479V43.5095ZM43.9905 41.471V39.8082H44.7974C45.4337 39.8082 45.6937 40.1528 45.6937 40.6344C45.6937 41.116 45.4337 41.471 44.8057 41.471H43.9905Z" fill="#6002FD"/>
<path d="M50.7935 41.3838C50.7935 40.0241 49.9782 39.2 48.876 39.2C47.7697 39.2 46.9565 40.0241 46.9565 41.3838C46.9565 42.7414 47.7697 43.5676 48.876 43.5676C49.9782 43.5676 50.7935 42.7435 50.7935 41.3838ZM50.1571 41.3838C50.1571 42.4197 49.6081 42.9822 48.876 42.9822C48.1419 42.9822 47.595 42.4197 47.595 41.3838C47.595 40.348 48.1419 39.7854 48.876 39.7854C49.6081 39.7854 50.1571 40.348 50.1571 41.3838Z" fill="#6002FD"/>
<path d="M51.5946 43.5095H52.2372V41.9007H53.1107C53.1252 41.9007 53.1377 41.9007 53.1523 41.9007L54.0174 43.5095H54.7494L53.8053 41.7886C54.3273 41.5955 54.5872 41.1617 54.5872 40.5908C54.5872 39.8082 54.1006 39.2581 53.1128 39.2581H51.5946V43.5095ZM52.2372 41.3485V39.8082H53.0441C53.6784 39.8082 53.9404 40.1092 53.9404 40.5908C53.9404 41.0704 53.6784 41.3485 53.0524 41.3485H52.2372Z" fill="#6002FD"/>
<path d="M55.1591 39.8103H56.4859V43.5095H57.1264V39.8103H58.4553V39.2581H55.1591V39.8103Z" fill="#6002FD"/>
<path d="M61.5066 40.3749H62.1264C62.1077 39.6941 61.5046 39.2 60.6394 39.2C59.7847 39.2 59.1296 39.6878 59.1296 40.4206C59.1296 41.0122 59.5539 41.3589 60.2381 41.5437L60.7413 41.6807C61.1968 41.8011 61.5482 41.9505 61.5482 42.3283C61.5482 42.7435 61.151 43.0175 60.6041 43.0175C60.1091 43.0175 59.6974 42.7975 59.6599 42.3346H59.0153C59.0568 43.1047 59.6537 43.5801 60.6082 43.5801C61.6085 43.5801 62.1846 43.0549 62.1846 42.3346C62.1846 41.5686 61.5004 41.2717 60.9597 41.1389L60.5438 41.0309C60.211 40.9458 59.7681 40.7901 59.7702 40.3832C59.7702 40.022 60.1008 39.7543 60.6249 39.7543C61.1136 39.7543 61.4609 39.9826 61.5066 40.3749Z" fill="#6002FD"/>
<path d="M40.7686 50.3896C41.1534 50.3896 41.5797 50.2609 41.8667 49.9931L42.1537 50.3294H42.8566L42.2514 49.607C42.4323 49.3662 42.6049 48.9884 42.6049 48.3989H42.0434C42.0434 48.6833 41.9769 48.9365 41.8667 49.1482L41.014 48.1311L41.3052 47.9173C41.6587 47.6598 41.8708 47.363 41.8708 46.9582C41.8708 46.4621 41.4695 46.0324 40.8144 46.0324C40.1655 46.0324 39.7392 46.4496 39.7392 47.0371C39.7392 47.417 39.9389 47.718 40.2071 48.0439C39.7205 48.3802 39.3898 48.6936 39.3898 49.2001C39.3898 49.8831 39.9118 50.3896 40.7686 50.3896ZM41.5173 49.5821C41.2968 49.7648 41.0327 49.8644 40.7707 49.8644C40.309 49.8644 40.0075 49.551 40.0075 49.1835C40.0075 49.0528 40.1177 48.7912 40.4504 48.5462L40.5627 48.4632L41.5173 49.5821ZM40.6709 47.718C40.4775 47.4813 40.3257 47.2634 40.3257 47.0475C40.3257 46.8004 40.5295 46.5513 40.8289 46.5513C41.1159 46.5513 41.3031 46.7755 41.3031 46.9748C41.3031 47.2281 41.1638 47.3817 40.9329 47.5332L40.6709 47.718Z" fill="#6002FD"/>
<path d="M44.9435 50.3294H47.6387V49.7772H45.5861V48.4757H47.4744V47.9256H45.5861V46.6302H47.6137V46.078H44.9435V50.3294Z" fill="#6002FD"/>
<path d="M49.8509 50.3294C51.1486 50.3294 51.8993 49.5261 51.8993 48.1975C51.8993 46.8752 51.1486 46.078 49.8945 46.078H48.4721V50.3294H49.8509ZM49.1147 49.7689V46.6385H49.855C50.7867 46.6385 51.2671 47.1949 51.2671 48.1975C51.2671 49.2043 50.7867 49.7689 49.8155 49.7689H49.1147Z" fill="#6002FD"/>
<path d="M55.4373 46.078V48.8223C55.4373 49.3994 55.038 49.8146 54.3891 49.8146C53.7424 49.8146 53.341 49.3994 53.341 48.8223V46.078H52.6984V48.8742C52.6984 49.7669 53.368 50.4 54.3891 50.4C55.4102 50.4 56.0819 49.7669 56.0819 48.8742V46.078H55.4373Z" fill="#6002FD"/>
<path d="M60.5537 47.4606C60.4081 46.5513 59.6948 46.0199 58.7943 46.0199C57.6921 46.0199 56.879 46.844 56.879 48.2037C56.879 49.5634 57.6879 50.3875 58.7943 50.3875C59.7301 50.3875 60.4143 49.8021 60.5537 48.9614L59.9048 48.9593C59.7946 49.5032 59.3371 49.8021 58.7985 49.8021C58.0685 49.8021 57.5174 49.2437 57.5174 48.2037C57.5174 47.172 58.0664 46.6053 58.8005 46.6053C59.3433 46.6053 59.7988 46.9105 59.9048 47.4606H60.5537Z" fill="#6002FD"/>
<path d="M61.6538 50.3294L62.0447 49.2043H63.7084L64.0973 50.3294H64.7795L63.2468 46.078H62.5043L60.9717 50.3294H61.6538ZM62.2319 48.6646L62.86 46.8503H62.8932L63.5213 48.6646H62.2319Z" fill="#6002FD"/>
<path d="M64.6755 46.6302H66.0023V50.3294H66.6428V46.6302H67.9717V46.078H64.6755V46.6302Z" fill="#6002FD"/>
<path d="M69.3427 46.078H68.7001V50.3294H69.3427V46.078Z" fill="#6002FD"/>
<path d="M73.9782 48.2037C73.9782 46.844 73.1629 46.0199 72.0607 46.0199C70.9544 46.0199 70.1412 46.844 70.1412 48.2037C70.1412 49.5613 70.9544 50.3875 72.0607 50.3875C73.1629 50.3875 73.9782 49.5634 73.9782 48.2037ZM73.3418 48.2037C73.3418 49.2396 72.7928 49.8021 72.0607 49.8021C71.3266 49.8021 70.7797 49.2396 70.7797 48.2037C70.7797 47.1679 71.3266 46.6053 72.0607 46.6053C72.7928 46.6053 73.3418 47.1679 73.3418 48.2037Z" fill="#6002FD"/>
<path d="M78.2169 46.078H77.5806V49.2001H77.5411L75.3741 46.078H74.7793V50.3294H75.4219V47.2115H75.4614L77.6263 50.3294H78.2169V46.078Z" fill="#6002FD"/>
</g>
<defs>
<clipPath id="clip0_1001:28923">
<rect width="166" height="56" fill="white"/>
</clipPath>
</defs>
</svg>
