<svg width="64" height="64" viewBox="0 0 64 64" fill="none" xmlns="http://www.w3.org/2000/svg">
<path d="M64 0H0V64H64V0Z" fill="#6002FD"/>
<path d="M10.7583 22.784H15.5698V41.6H10.7583V22.784ZM38.0163 30.8211V32.7296C38.0163 35.4893 37.1472 37.7293 35.4089 39.4496C33.6886 41.152 31.4486 42.0032 28.6889 42.0032C25.75 42.0032 23.3308 41.0624 21.4313 39.1808C19.5497 37.2992 18.6089 34.9786 18.6089 32.2189C18.6089 29.4592 19.5497 27.1296 21.4313 25.2301C23.3129 23.3306 25.6425 22.3808 28.4201 22.3808C30.1763 22.3808 31.7801 22.7751 33.2316 23.5635C34.7011 24.352 35.848 25.4003 36.6723 26.7085L32.5865 29.0471C32.2102 28.4557 31.6547 27.9808 30.92 27.6224C30.2032 27.264 29.3878 27.0848 28.4739 27.0848C26.9865 27.0848 25.768 27.5687 24.8182 28.5363C23.8684 29.504 23.3936 30.7405 23.3936 32.2458C23.3936 33.6973 23.8595 34.9248 24.7913 35.9283C25.7411 36.9319 27.0672 37.4336 28.7696 37.4336C30.9558 37.4336 32.3984 36.6093 33.0972 34.9607H28.5276V30.8211H38.0163ZM47.0204 42.0032C45.0313 42.0032 43.3827 41.5821 42.0745 40.7399C40.7664 39.8976 39.8524 38.7597 39.3328 37.3261L43.4454 34.9338C44.1443 36.6003 45.3808 37.4336 47.1549 37.4336C48.6243 37.4336 49.359 37.0125 49.359 36.1703C49.359 35.6147 48.9379 35.1667 48.0956 34.8263C47.7372 34.6829 46.9488 34.441 45.7302 34.1005C44.0099 33.5987 42.648 32.8999 41.6445 32.0039C40.6409 31.0899 40.1392 29.8266 40.1392 28.2138C40.1392 26.4755 40.7574 25.0688 41.9939 23.9936C43.2483 22.9184 44.8073 22.3808 46.671 22.3808C48.248 22.3808 49.6457 22.7482 50.8643 23.4829C52.0829 24.2176 53.0147 25.2839 53.6598 26.6816L49.6278 29.0471C49.0364 27.6493 48.0598 26.9504 46.6979 26.9504C46.1244 26.9504 45.6854 27.0669 45.3808 27.2999C45.094 27.5328 44.9507 27.8285 44.9507 28.1869C44.9507 28.5991 45.1657 28.9485 45.5958 29.2352C46.0438 29.5219 46.904 29.8535 48.1763 30.2298C49.0902 30.4986 49.8249 30.7495 50.3804 30.9824C50.936 31.2154 51.5452 31.5559 52.2083 32.0039C52.8713 32.4339 53.3641 32.9984 53.6867 33.6973C54.0092 34.3783 54.1705 35.1847 54.1705 36.1165C54.1705 37.9623 53.5164 39.4048 52.2083 40.4442C50.9001 41.4835 49.1708 42.0032 47.0204 42.0032Z" fill="white"/>
</svg>
