<svg width="111" height="40" viewBox="0 0 111 40" fill="none" xmlns="http://www.w3.org/2000/svg">
<path fill-rule="evenodd" clip-rule="evenodd" d="M4.85192 9.45039C6.3794 10.1734 7.14315 10.8595 7.14315 11.5087C7.14315 11.8775 7.00968 12.1726 6.74274 12.3939C6.49063 12.6005 6.13471 12.7038 5.67498 12.7038C5.06696 12.7038 4.45893 12.5636 3.8509 12.2833C3.24288 11.9882 2.73866 11.5824 2.33825 11.066L0.313965 13.4784C0.669883 14.2604 1.35947 14.8801 2.38274 15.3375C3.39117 15.7949 4.45893 16.0236 5.586 16.0236C7.12831 16.0236 8.39627 15.5957 9.38988 14.7399C10.4131 13.8842 10.9248 12.7923 10.9248 11.4644C10.9248 10.6677 10.7616 9.97418 10.4354 9.38399C10.124 8.77905 9.72355 8.31427 9.23417 7.98967C8.75961 7.65031 8.24056 7.33309 7.67702 7.03799C7.11349 6.7429 6.58702 6.49945 6.09763 6.30764C5.62308 6.10107 5.22267 5.84286 4.89641 5.53301C4.58498 5.22317 4.42927 4.86905 4.42927 4.47067C4.42927 4.11656 4.56274 3.83622 4.82968 3.62966C5.11145 3.42309 5.49702 3.31981 5.98641 3.31981C6.49063 3.31981 6.89845 3.39358 7.20988 3.54113C7.53614 3.68867 7.9143 3.96164 8.34437 4.36001L10.2574 1.70417C9.18968 0.568055 7.66219 0 5.67498 0C4.16233 0 2.94628 0.435264 2.02682 1.30579C1.10737 2.17632 0.647638 3.23128 0.647638 4.47067C0.632808 5.03135 0.714373 5.55515 0.892332 6.04205C1.08512 6.52896 1.30757 6.93471 1.55968 7.25931C1.82662 7.58392 2.16029 7.90114 2.5607 8.21099C2.97594 8.50609 3.34668 8.74216 3.67294 8.91922C4.01403 9.08152 4.40702 9.25858 4.85192 9.45039ZM34.0515 0.265584H30.6258L27.9564 10.048L24.9533 0.265584H21.3719L18.4578 10.048L15.8329 0.265584H11.8066L16.4113 15.758H19.8147L23.018 5.7986L26.2658 15.758H29.6692L34.0515 0.265584ZM39.8351 15.758H36.276V0.265584H39.8351V15.758ZM44.0695 15.758H47.6287V10.1807H52.4113V6.86094H47.6287V3.58539H53.0787V0.265584H44.0695V15.758ZM58.8658 3.58539H54.1944V0.265584H67.0964V3.58539H62.425V15.758H58.8658V3.58539ZM34.8983 34.2235H31.5838V30.9037H38.235V37.8089C37.5677 38.4729 36.6779 39.0041 35.5656 39.4024C34.483 39.8008 33.4301 40 32.4068 40C29.7968 40 27.7503 39.277 26.2673 37.8311C24.7991 36.3851 24.065 34.4375 24.065 31.9882C24.065 29.7012 24.7843 27.7979 26.2228 26.2781C27.6761 24.7436 29.5892 23.9764 31.9619 23.9764C34.0085 23.9764 35.7065 24.5149 37.056 25.592L35.5656 28.4471C35.2542 28.1225 34.7945 27.8495 34.1864 27.6282C33.5932 27.4069 32.9926 27.2962 32.3846 27.2962C31.0054 27.2962 29.9006 27.702 29.0701 28.5135C28.2545 29.325 27.8466 30.4832 27.8466 31.9882C27.8466 33.4194 28.2619 34.5629 29.0924 35.4187C29.9377 36.2597 31.0573 36.6802 32.4513 36.6802C32.8666 36.6802 33.3337 36.599 33.8528 36.4367C34.3422 36.2744 34.6907 36.0974 34.8983 35.9056V34.2235ZM51.2385 39.7344H41.3396V24.242H44.8987V36.4146H51.2385V39.7344ZM54.0972 26.2781C52.5697 27.7979 51.806 29.7012 51.806 31.9882C51.806 34.408 52.5771 36.3482 54.1194 37.8089C55.6766 39.2696 57.6638 40 60.0811 40C62.4687 40 64.4411 39.2475 65.9982 37.7425C67.5702 36.2375 68.3561 34.3194 68.3561 31.9882C68.3561 29.5684 67.5776 27.6282 66.0204 26.1675C64.493 24.7067 62.5132 23.9764 60.0811 23.9764C57.6341 23.9764 55.6395 24.7436 54.0972 26.2781ZM56.9 35.3301C56.0251 34.4153 55.5876 33.3014 55.5876 31.9882C55.5876 30.6013 56.0102 29.4725 56.8555 28.602C57.7009 27.7315 58.776 27.2962 60.0811 27.2962C61.3416 27.2962 62.4093 27.7315 63.2843 28.602C64.1445 29.4578 64.5745 30.5865 64.5745 31.9882C64.5745 33.3456 64.1815 34.4744 63.3955 35.3744C62.6096 36.2449 61.5047 36.6802 60.0811 36.6802C58.8205 36.6802 57.7602 36.2302 56.9 35.3301ZM71.2529 24.2862C72.988 24.1977 74.5599 24.1534 75.9688 24.1534C77.689 24.1534 78.9867 24.5002 79.8616 25.1937C80.7514 25.8724 81.1963 26.8093 81.1963 28.0044C81.1963 29.5242 80.6031 30.675 79.4167 31.457V31.5013C80.0841 31.7521 80.618 32.18 81.0184 32.785C81.4336 33.3899 81.6412 34.1424 81.6412 35.0424C81.6412 36.5917 81.0925 37.7794 79.9951 38.6057C78.9125 39.4172 77.4888 39.8229 75.7241 39.8229C73.6627 39.8229 72.1723 39.7787 71.2529 39.6902V24.2862ZM76.1912 33.471H74.812V36.3703C75.1383 36.4589 75.5387 36.5031 76.0133 36.5031C77.3924 36.5031 78.082 35.9572 78.082 34.8654C78.082 33.9358 77.4518 33.471 76.1912 33.471ZM75.9243 27.4733C75.6573 27.4733 75.2866 27.5028 74.812 27.5618V30.3726H75.991C77.0884 30.3726 77.6371 29.8709 77.6371 28.8676C77.6371 28.4397 77.474 28.1003 77.1477 27.8495C76.8215 27.5987 76.4137 27.4733 75.9243 27.4733ZM82.9801 39.7344H86.5615L87.8517 36.481H94.0135L95.3037 39.7344H99.1076L92.6344 24.242H89.4533L82.9801 39.7344ZM90.9437 28.779L92.6788 33.1612H89.1864L90.9437 28.779ZM111 39.7344H101.101V24.242H104.66V36.4146H111V39.7344Z" fill="#6002FD"/>
</svg>
