<svg width="130" height="43" viewBox="0 0 130 43" fill="none" xmlns="http://www.w3.org/2000/svg">
<path fill-rule="evenodd" clip-rule="evenodd" d="M124.102 11.7941C127.359 11.7941 129.999 9.15388 129.999 5.89704C129.999 2.64019 127.359 0 124.102 0C120.845 0 118.205 2.64019 118.205 5.89704C118.205 9.15388 120.845 11.7941 124.102 11.7941ZM97.6254 14.5215C98.8048 14.5215 99.7631 13.5632 99.7631 12.3838H103.228C103.228 15.4798 100.721 17.986 97.6254 17.986C94.5294 17.986 92.06 15.4798 92.06 12.3838H95.5246C95.5246 13.5632 96.446 14.5215 97.6254 14.5215ZM102.122 20.1975H106.029V40.1002H101.532V27.2372L92.2074 40.1002H88.2637V20.1975H92.7603V32.692L102.122 20.1975ZM27.8496 31.3651H43.1084C43.2927 28.2691 42.7398 25.3206 40.7864 22.9249C38.9436 20.7503 36.1793 19.6446 33.2676 19.6446C30.319 19.6446 27.5547 20.7503 25.7488 22.9249C24.127 24.8783 23.3531 27.532 23.3531 30.37C23.3531 32.8763 24.127 35.3457 25.7488 37.336C27.5179 39.5105 30.5402 40.6531 33.4887 40.6531C37.5061 40.6531 40.4178 38.8471 42.187 36.1565L38.9436 33.9451C37.4693 35.7511 35.8844 36.7831 33.2676 36.7831C31.609 36.7831 29.9873 36.1197 29.0659 34.8666C28.3287 33.8714 27.997 32.6551 27.8496 31.3651ZM33.2676 23.4777C34.963 23.4777 36.511 24.1412 37.4324 25.3943C37.9484 26.0577 38.2801 26.9423 38.5013 27.8637H28.0339C28.2182 26.9423 28.5499 26.0946 29.0659 25.3943C29.9873 24.1412 31.609 23.4777 33.2676 23.4777ZM19.0182 20.1975H4.97569L3.9437 29.1537C3.39084 34.0188 1.87971 35.8985 0 35.8985V42.5697H4.2017V40.1002H16.5119V42.5697H20.7136V35.8985H19.0182V20.1975ZM14.8165 35.8985H6.0814C7.1134 34.6454 7.70311 32.3603 7.99797 29.6329L8.62454 24.1412H14.8165V35.8985ZM47.5008 32.4708L49.0488 20.1975H63.3125V40.1002H59.1108V24.1412H52.6977L51.5182 33.4291C50.8917 38.2574 48.9751 40.7637 44.368 40.1002V36.1565C46.9848 36.1565 47.206 34.8297 47.5008 32.4708ZM84.1938 40.1002V28.1217C84.1938 25.6523 83.5672 23.3672 81.6507 21.7455C80.2501 20.5292 78.1124 19.6446 75.9747 19.6446C72.5101 19.6446 69.9301 20.824 67.8293 22.9617L70.4462 25.9103C71.8467 24.5097 73.6159 23.8463 75.6061 23.8463C78.0756 23.8463 79.513 24.9889 79.771 26.8686C79.2847 26.9397 78.7707 27.01 78.2401 27.0824C75.4732 27.4604 72.2543 27.9001 70.1513 28.8589C67.645 30.0383 66.6499 31.9548 66.6499 34.5348C66.6499 38.2574 69.2299 40.6531 73.2104 40.6531C76.3433 40.6531 78.3704 39.8791 80.3238 37.4834V40.1002H84.1938ZM79.1075 34.3506C78.1493 35.8985 76.3801 36.9305 74.2424 36.9305C72.3996 36.9305 71.0359 35.788 71.0359 34.2031C71.0359 32.6551 72.547 31.8074 74.3161 31.4389C76.0484 31.0334 78.0756 30.6649 79.8078 30.37C79.8078 31.7706 79.8078 33.1711 79.1075 34.3506Z" fill="white"/>
</svg>
