<svg width="199" height="40" viewBox="0 0 199 40" fill="none" xmlns="http://www.w3.org/2000/svg">
<g clip-path="url(#clip0)">
<path d="M52.8835 12.947L59.3712 11.4238L57.1293 18.3909L60.6667 20.0766L50.6356 27.8861L51.748 32.3642L41.8385 30.7523V40H40.6667V0L44.3803 5.74523L48.8378 4.17969L47.3283 13.6062L52.5391 8.86375L52.8835 12.947Z" fill="#6002FD"/>
<path d="M78.3642 5.05742C78.0643 2.64283 76.1805 1.25432 73.6864 1.25432C70.8398 1.25432 68.6667 3.20436 68.6667 6.6246C68.6667 10.0346 70.803 11.9949 73.6864 11.9949C76.4489 11.9949 78.1169 10.2133 78.3642 8.28877L76.0595 8.27856C75.8438 9.39652 74.9387 10.0397 73.7233 10.0397C72.0868 10.0397 70.9766 8.86051 70.9766 6.6246C70.9766 4.44994 72.0711 3.20947 73.739 3.20947C74.9861 3.20947 75.8859 3.90883 76.0595 5.05742H78.3642Z" fill="#6002FD"/>
<path d="M82.2606 12C83.455 12 84.2285 11.4946 84.6231 10.7646H84.6863V11.8519H86.812V6.56334C86.812 4.69497 85.1809 3.90883 83.3813 3.90883C81.445 3.90883 80.1716 4.80728 79.8612 6.23663L81.9343 6.39999C82.0869 5.87929 82.5658 5.49643 83.3708 5.49643C84.1338 5.49643 84.5705 5.86908 84.5705 6.51229V6.54292C84.5705 7.0483 84.018 7.11466 82.6131 7.24739C81.0135 7.39032 79.577 7.91102 79.577 9.66197C79.577 11.2138 80.7189 12 82.2606 12ZM82.9025 10.4992C82.2132 10.4992 81.7186 10.1878 81.7186 9.59051C81.7186 8.97793 82.2395 8.67674 83.0288 8.56954C83.5181 8.50318 84.3179 8.39087 84.5863 8.21731V9.04939C84.5863 9.87127 83.8865 10.4992 82.9025 10.4992Z" fill="#6002FD"/>
<path d="M90.7926 7.31886C90.7979 6.3081 91.4188 5.71594 92.3238 5.71594C93.2236 5.71594 93.7655 6.28768 93.7603 7.24739V11.8519H96.0018V6.85942C96.0018 5.03189 94.8968 3.90883 93.213 3.90883C92.0133 3.90883 91.1451 4.48057 90.7821 5.39434H90.6874V4.01093H88.5511V11.8519H90.7926V7.31886Z" fill="#6002FD"/>
<path d="M100.073 12C101.268 12 102.041 11.4946 102.436 10.7646H102.499V11.8519H104.625V6.56334C104.625 4.69497 102.993 3.90883 101.194 3.90883C99.2576 3.90883 97.9842 4.80728 97.6737 6.23663L99.7469 6.39999C99.8995 5.87929 100.378 5.49643 101.183 5.49643C101.946 5.49643 102.383 5.86908 102.383 6.51229V6.54292C102.383 7.0483 101.831 7.11466 100.426 7.24739C98.8261 7.39032 97.3896 7.91102 97.3896 9.66197C97.3896 11.2138 98.5314 12 100.073 12ZM100.715 10.4992C100.026 10.4992 99.5312 10.1878 99.5312 9.59051C99.5312 8.97793 100.052 8.67674 100.841 8.56954C101.331 8.50318 102.131 8.39087 102.399 8.21731V9.04939C102.399 9.87127 101.699 10.4992 100.715 10.4992Z" fill="#6002FD"/>
<path d="M109.342 11.9796C110.647 11.9796 111.326 11.2496 111.636 10.5962H111.731V11.8519H113.941V1.39725H111.704V5.32797H111.636C111.336 4.68987 110.689 3.90883 109.337 3.90883C107.563 3.90883 106.064 5.24629 106.064 7.94165C106.064 10.5655 107.5 11.9796 109.342 11.9796ZM110.052 10.249C108.952 10.249 108.353 9.29953 108.353 7.93144C108.353 6.57355 108.942 5.63937 110.052 5.63937C111.141 5.63937 111.752 6.53271 111.752 7.93144C111.752 9.33016 111.131 10.249 110.052 10.249Z" fill="#6002FD"/>
<path d="M115.784 11.8519H118.025V4.01093H115.784V11.8519ZM116.91 3.00017C117.578 3.00017 118.125 2.505 118.125 1.89753C118.125 1.29516 117.578 0.799988 116.91 0.799988C116.247 0.799988 115.699 1.29516 115.699 1.89753C115.699 2.505 116.247 3.00017 116.91 3.00017Z" fill="#6002FD"/>
<path d="M122.125 12C123.32 12 124.093 11.4946 124.488 10.7646H124.551V11.8519H126.677V6.56334C126.677 4.69497 125.046 3.90883 123.246 3.90883C121.31 3.90883 120.036 4.80728 119.726 6.23663L121.799 6.39999C121.952 5.87929 122.431 5.49643 123.236 5.49643C123.999 5.49643 124.435 5.86908 124.435 6.51229V6.54292C124.435 7.0483 123.883 7.11466 122.478 7.24739C120.878 7.39032 119.442 7.91102 119.442 9.66197C119.442 11.2138 120.584 12 122.125 12ZM122.767 10.4992C122.078 10.4992 121.583 10.1878 121.583 9.59051C121.583 8.97793 122.104 8.67674 122.894 8.56954C123.383 8.50318 124.183 8.39087 124.451 8.21731V9.04939C124.451 9.87127 123.751 10.4992 122.767 10.4992Z" fill="#6002FD"/>
<path d="M130.657 7.31886C130.663 6.3081 131.284 5.71594 132.189 5.71594C133.088 5.71594 133.63 6.28768 133.625 7.24739V11.8519H135.867V6.85942C135.867 5.03189 134.762 3.90883 133.078 3.90883C131.878 3.90883 131.01 4.48057 130.647 5.39434H130.552V4.01093H128.416V11.8519H130.657V7.31886Z" fill="#6002FD"/>
<path d="M71.7081 13.397H69.4666V23.8469H71.7081V13.397Z" fill="#6002FD"/>
<path d="M75.7161 19.3159C75.7212 18.3056 76.3321 17.7137 77.2224 17.7137C78.1076 17.7137 78.6408 18.2852 78.6356 19.2445V23.8469H80.8409V18.8567C80.8409 17.03 79.7538 15.9074 78.0973 15.9074C76.917 15.9074 76.0629 16.4789 75.7057 17.3922H75.6125V16.0095H73.5108V23.8469H75.7161V19.3159Z" fill="#6002FD"/>
<path d="M86.8081 16.0095H85.3121V14.1317H83.1069V16.0095H82.0198V17.6423H83.1069V21.7243C83.0965 23.2601 84.1577 24.0204 85.7573 23.9541C86.3267 23.9337 86.7305 23.8214 86.9531 23.75L86.6063 22.1325C86.4975 22.1529 86.2646 22.2039 86.0575 22.2039C85.6175 22.2039 85.3121 22.0406 85.3121 21.4385V17.6423H86.8081V16.0095Z" fill="#6002FD"/>
<path d="M91.7828 24C93.7499 24 95.0751 23.056 95.3857 21.6018L93.3461 21.4691C93.1236 22.0661 92.5541 22.3774 91.8191 22.3774C90.7164 22.3774 90.0176 21.6579 90.0176 20.4895V20.4844H95.4323V19.8874C95.4323 17.2239 93.7965 15.9074 91.6948 15.9074C89.355 15.9074 87.8383 17.5453 87.8383 19.9639C87.8383 22.4488 89.3343 24 91.7828 24ZM90.0176 19.1373C90.0642 18.2444 90.7527 17.53 91.7311 17.53C92.6887 17.53 93.3513 18.2035 93.3565 19.1373H90.0176Z" fill="#6002FD"/>
<path d="M96.8714 23.8469H99.0766V19.4128C99.0766 18.4485 99.791 17.7851 100.764 17.7851C101.07 17.7851 101.489 17.8362 101.696 17.9025V15.9737C101.499 15.9278 101.225 15.8972 101.002 15.8972C100.112 15.8972 99.382 16.4075 99.0921 17.3769H99.0093V16.0095H96.8714V23.8469Z" fill="#6002FD"/>
<path d="M105.041 19.3159C105.046 18.3056 105.657 17.7137 106.548 17.7137C107.433 17.7137 107.966 18.2852 107.961 19.2445V23.8469H110.166V18.8567C110.166 17.03 109.079 15.9074 107.423 15.9074C106.242 15.9074 105.388 16.4789 105.031 17.3922H104.938V16.0095H102.836V23.8469H105.041V19.3159Z" fill="#6002FD"/>
<path d="M114.171 23.9949C115.347 23.9949 116.108 23.4897 116.496 22.7601H116.558V23.8469H118.649V18.5607C118.649 16.6932 117.044 15.9074 115.274 15.9074C113.369 15.9074 112.116 16.8055 111.811 18.2342L113.851 18.3974C114.001 17.877 114.472 17.4943 115.264 17.4943C116.014 17.4943 116.444 17.8668 116.444 18.5097V18.5403C116.444 19.0455 115.9 19.1118 114.518 19.2445C112.945 19.3873 111.531 19.9078 111.531 21.6579C111.531 23.2091 112.655 23.9949 114.171 23.9949ZM114.803 22.4947C114.125 22.4947 113.638 22.1835 113.638 21.5865C113.638 20.9742 114.151 20.6732 114.927 20.566C115.409 20.4997 116.196 20.3874 116.46 20.2139V21.0456C116.46 21.8671 115.771 22.4947 114.803 22.4947Z" fill="#6002FD"/>
<path d="M124.589 16.0095H123.093V14.1317H120.888V16.0095H119.801V17.6423H120.888V21.7243C120.878 23.2601 121.939 24.0204 123.538 23.9541C124.108 23.9337 124.512 23.8214 124.734 23.75L124.387 22.1325C124.279 22.1529 124.046 22.2039 123.839 22.2039C123.399 22.2039 123.093 22.0406 123.093 21.4385V17.6423H124.589V16.0095Z" fill="#6002FD"/>
<path d="M126.026 23.8469H128.231V16.0095H126.026V23.8469ZM127.134 14.9992C127.791 14.9992 128.329 14.5042 128.329 13.897C128.329 13.2949 127.791 12.8 127.134 12.8C126.481 12.8 125.943 13.2949 125.943 13.897C125.943 14.5042 126.481 14.9992 127.134 14.9992Z" fill="#6002FD"/>
<path d="M133.59 24C136.002 24 137.504 22.3723 137.504 19.9588C137.504 17.53 136.002 15.9074 133.59 15.9074C131.178 15.9074 129.677 17.53 129.677 19.9588C129.677 22.3723 131.178 24 133.59 24ZM133.6 22.3162C132.487 22.3162 131.918 21.311 131.918 19.9435C131.918 18.576 132.487 17.5657 133.6 17.5657C134.693 17.5657 135.262 18.576 135.262 19.9435C135.262 21.311 134.693 22.3162 133.6 22.3162Z" fill="#6002FD"/>
<path d="M141.143 19.3159C141.148 18.3056 141.759 17.7137 142.649 17.7137C143.534 17.7137 144.067 18.2852 144.062 19.2445V23.8469H146.267V18.8567C146.267 17.03 145.18 15.9074 143.524 15.9074C142.344 15.9074 141.49 16.4789 141.132 17.3922H141.039V16.0095H138.937V23.8469H141.143V19.3159Z" fill="#6002FD"/>
<path d="M150.273 23.9949C151.448 23.9949 152.209 23.4897 152.597 22.7601H152.659V23.8469H154.751V18.5607C154.751 16.6932 153.146 15.9074 151.375 15.9074C149.47 15.9074 148.218 16.8055 147.912 18.2342L149.952 18.3974C150.102 17.877 150.573 17.4943 151.365 17.4943C152.116 17.4943 152.545 17.8668 152.545 18.5097V18.5403C152.545 19.0455 152.002 19.1118 150.62 19.2445C149.046 19.3873 147.633 19.9078 147.633 21.6579C147.633 23.2091 148.756 23.9949 150.273 23.9949ZM150.904 22.4947C150.226 22.4947 149.74 22.1835 149.74 21.5865C149.74 20.9742 150.252 20.6732 151.029 20.566C151.51 20.4997 152.297 20.3874 152.561 20.2139V21.0456C152.561 21.8671 151.872 22.4947 150.904 22.4947Z" fill="#6002FD"/>
<path d="M158.667 13.397H156.461V23.8469H158.667V13.397Z" fill="#6002FD"/>
<path d="M120.527 29.0205C120.234 26.5949 118.397 25.2 115.964 25.2C113.187 25.2 111.067 27.159 111.067 30.5949C111.067 34.0205 113.151 35.9898 115.964 35.9898C118.658 35.9898 120.286 34.2 120.527 32.2667L118.279 32.2564C118.068 33.3795 117.185 34.0257 116 34.0257C114.403 34.0257 113.32 32.841 113.32 30.5949C113.32 28.4103 114.388 27.1641 116.015 27.1641C117.231 27.1641 118.109 27.8667 118.279 29.0205H120.527Z" fill="#6002FD"/>
<path d="M125.673 36C127.623 36 128.937 35.0513 129.245 33.5898L127.223 33.4564C127.002 34.0564 126.438 34.3692 125.709 34.3692C124.615 34.3692 123.922 33.6462 123.922 32.4718V32.4667H129.292V31.8667C129.292 29.1898 127.669 27.8667 125.585 27.8667C123.265 27.8667 121.761 29.5128 121.761 31.9436C121.761 34.441 123.245 36 125.673 36ZM123.922 31.1128C123.969 30.2154 124.651 29.4974 125.621 29.4974C126.571 29.4974 127.228 30.1744 127.233 31.1128H123.922Z" fill="#6002FD"/>
<path d="M132.905 31.2923C132.91 30.2769 133.516 29.6821 134.399 29.6821C135.277 29.6821 135.805 30.2564 135.8 31.2205V35.8462H137.987V30.8308C137.987 28.9949 136.909 27.8667 135.266 27.8667C134.096 27.8667 133.249 28.441 132.895 29.359H132.803V27.9692H130.719V35.8462H132.905V31.2923Z" fill="#6002FD"/>
<path d="M143.904 27.9692H142.421V26.0821H140.234V27.9692H139.156V29.6103H140.234V33.7128C140.224 35.2564 141.276 36.0205 142.862 35.9539C143.427 35.9333 143.827 35.8205 144.048 35.7487L143.704 34.1231C143.596 34.1436 143.365 34.1949 143.16 34.1949C142.723 34.1949 142.421 34.0308 142.421 33.4257V29.6103H143.904V27.9692Z" fill="#6002FD"/>
<path d="M148.837 36C150.787 36 152.101 35.0513 152.409 33.5898L150.387 33.4564C150.166 34.0564 149.602 34.3692 148.873 34.3692C147.779 34.3692 147.087 33.6462 147.087 32.4718V32.4667H152.456V31.8667C152.456 29.1898 150.834 27.8667 148.75 27.8667C146.429 27.8667 144.925 29.5128 144.925 31.9436C144.925 34.441 146.409 36 148.837 36ZM147.087 31.1128C147.133 30.2154 147.815 29.4974 148.786 29.4974C149.735 29.4974 150.392 30.1744 150.397 31.1128H147.087Z" fill="#6002FD"/>
<path d="M153.883 35.8462H156.069V31.3898C156.069 30.4205 156.778 29.7539 157.743 29.7539C158.046 29.7539 158.461 29.8051 158.667 29.8718V27.9333C158.472 27.8872 158.2 27.8564 157.979 27.8564C157.096 27.8564 156.372 28.3692 156.085 29.3436H156.003V27.9692H153.883V35.8462Z" fill="#6002FD"/>
<path d="M70.4524 28.8392H70.893C70.8797 28.3529 70.4509 28 69.836 28C69.2284 28 68.7627 28.3484 68.7627 28.8719C68.7627 29.2945 69.0643 29.5421 69.5507 29.674L69.9084 29.7719C70.2322 29.8579 70.482 29.9647 70.482 30.2345C70.482 30.5311 70.1996 30.7268 69.8109 30.7268C69.459 30.7268 69.1663 30.5696 69.1397 30.239H68.6814C68.711 30.7891 69.1353 31.1286 69.8138 31.1286C70.5249 31.1286 70.9343 30.7535 70.9343 30.239C70.9343 29.6918 70.448 29.4798 70.0636 29.3849L69.768 29.3078C69.5315 29.247 69.2166 29.1358 69.2181 28.8452C69.2181 28.5872 69.4531 28.3959 69.8256 28.3959C70.173 28.3959 70.4199 28.559 70.4524 28.8392Z" fill="#6002FD"/>
<path d="M71.4802 31.0782H71.937V30.0106H72.5579C73.2601 30.0106 73.6075 29.5851 73.6075 29.0246C73.6075 28.4656 73.263 28.0415 72.5594 28.0415H71.4802V31.0782ZM71.937 29.6221V28.4344H72.5106C72.9629 28.4344 73.1477 28.6806 73.1477 29.0246C73.1477 29.3686 72.9629 29.6221 72.5165 29.6221H71.937Z" fill="#6002FD"/>
<path d="M76.7728 29.5599C76.7728 28.5887 76.1934 28 75.4099 28C74.6234 28 74.0454 28.5887 74.0454 29.5599C74.0454 30.5296 74.6234 31.1197 75.4099 31.1197C76.1934 31.1197 76.7728 30.5311 76.7728 29.5599ZM76.3205 29.5599C76.3205 30.2998 75.9302 30.7016 75.4099 30.7016C74.888 30.7016 74.4992 30.2998 74.4992 29.5599C74.4992 28.82 74.888 28.4181 75.4099 28.4181C75.9302 28.4181 76.3205 28.82 76.3205 29.5599Z" fill="#6002FD"/>
<path d="M77.3424 31.0782H77.7991V29.9291H78.42C78.4304 29.9291 78.4392 29.9291 78.4496 29.9291L79.0646 31.0782H79.5849L78.9138 29.849C79.2848 29.7111 79.4696 29.4012 79.4696 28.9935C79.4696 28.4344 79.1237 28.0415 78.4215 28.0415H77.3424V31.0782ZM77.7991 29.5347V28.4344H78.3727C78.8236 28.4344 79.0099 28.6495 79.0099 28.9935C79.0099 29.336 78.8236 29.5347 78.3786 29.5347H77.7991Z" fill="#6002FD"/>
<path d="M79.8761 28.4359H80.8193V31.0782H81.2746V28.4359H82.2192V28.0415H79.8761V28.4359Z" fill="#6002FD"/>
<path d="M84.3882 28.8392H84.8288C84.8155 28.3529 84.3868 28 83.7718 28C83.1642 28 82.6986 28.3484 82.6986 28.8719C82.6986 29.2945 83.0001 29.5421 83.4865 29.674L83.8442 29.7719C84.168 29.8579 84.4178 29.9647 84.4178 30.2345C84.4178 30.5311 84.1355 30.7268 83.7467 30.7268C83.3948 30.7268 83.1021 30.5696 83.0755 30.239H82.6173C82.6468 30.7891 83.0711 31.1286 83.7496 31.1286C84.4607 31.1286 84.8702 30.7535 84.8702 30.239C84.8702 29.6918 84.3838 29.4798 83.9995 29.3849L83.7038 29.3078C83.4673 29.247 83.1524 29.1358 83.1539 28.8452C83.1539 28.5872 83.3889 28.3959 83.7615 28.3959C84.1088 28.3959 84.3557 28.559 84.3882 28.8392Z" fill="#6002FD"/>
<path d="M69.6468 35.9926C69.9202 35.9926 70.2233 35.9007 70.4273 35.7094L70.6313 35.9496H71.131L70.7008 35.4336C70.8294 35.2616 70.9521 34.9917 70.9521 34.5706H70.553C70.553 34.7738 70.5056 34.9547 70.4273 35.1059L69.8212 34.3793L70.0282 34.2266C70.2795 34.0428 70.4303 33.8307 70.4303 33.5416C70.4303 33.1872 70.1449 32.8803 69.6793 32.8803C69.2181 32.8803 68.915 33.1783 68.915 33.5979C68.915 33.8693 69.0569 34.0843 69.2476 34.3171C68.9017 34.5573 68.6667 34.7812 68.6667 35.143C68.6667 35.6308 69.0377 35.9926 69.6468 35.9926ZM70.1789 35.4158C70.0222 35.5463 69.8345 35.6174 69.6482 35.6174C69.3201 35.6174 69.1057 35.3936 69.1057 35.1311C69.1057 35.0377 69.1841 34.8509 69.4206 34.6759L69.5004 34.6166L70.1789 35.4158ZM69.5773 34.0843C69.4398 33.9152 69.3319 33.7595 69.3319 33.6053C69.3319 33.4289 69.4768 33.251 69.6896 33.251C69.8936 33.251 70.0267 33.4111 70.0267 33.5534C70.0267 33.7343 69.9276 33.8441 69.7635 33.9523L69.5773 34.0843Z" fill="#6002FD"/>
<path d="M72.6144 35.9496H74.5303V35.5552H73.0712V34.6255H74.4135V34.2325H73.0712V33.3073H74.5125V32.9129H72.6144V35.9496Z" fill="#6002FD"/>
<path d="M76.1028 35.9496C77.0253 35.9496 77.5589 35.3758 77.5589 34.4268C77.5589 33.4823 77.0253 32.9129 76.1339 32.9129H75.1227V35.9496H76.1028ZM75.5795 35.5492V33.3132H76.1058C76.768 33.3132 77.1095 33.7106 77.1095 34.4268C77.1095 35.1459 76.768 35.5492 76.0777 35.5492H75.5795Z" fill="#6002FD"/>
<path d="M80.0739 32.9129V34.8731C80.0739 35.2853 79.79 35.5819 79.3288 35.5819C78.8691 35.5819 78.5837 35.2853 78.5837 34.8731V32.9129H78.127V34.9102C78.127 35.5478 78.603 36 79.3288 36C80.0546 36 80.5321 35.5478 80.5321 34.9102V32.9129H80.0739Z" fill="#6002FD"/>
<path d="M83.7108 33.9004C83.6073 33.251 83.1003 32.8714 82.4602 32.8714C81.6767 32.8714 81.0987 33.46 81.0987 34.4312C81.0987 35.4024 81.6737 35.9911 82.4602 35.9911C83.1254 35.9911 83.6118 35.573 83.7108 34.9724L83.2496 34.971C83.1712 35.3594 82.846 35.573 82.4631 35.573C81.9443 35.573 81.5525 35.1741 81.5525 34.4312C81.5525 33.6943 81.9428 33.2895 82.4646 33.2895C82.8505 33.2895 83.1742 33.5075 83.2496 33.9004H83.7108Z" fill="#6002FD"/>
<path d="M84.4928 35.9496L84.7708 35.1459H85.9534L86.2298 35.9496H86.7147L85.6252 32.9129H85.0975L84.008 35.9496H84.4928ZM84.9038 34.7604L85.3502 33.4645H85.3739L85.8203 34.7604H84.9038Z" fill="#6002FD"/>
<path d="M86.6408 33.3073H87.5839V35.9496H88.0392V33.3073H88.9839V32.9129H86.6408V33.3073Z" fill="#6002FD"/>
<path d="M89.9584 32.9129H89.5016V35.9496H89.9584V32.9129Z" fill="#6002FD"/>
<path d="M93.2535 34.4312C93.2535 33.46 92.674 32.8714 91.8906 32.8714C91.1041 32.8714 90.5261 33.46 90.5261 34.4312C90.5261 35.401 91.1041 35.9911 91.8906 35.9911C92.674 35.9911 93.2535 35.4024 93.2535 34.4312ZM92.8012 34.4312C92.8012 35.1711 92.4109 35.573 91.8906 35.573C91.3687 35.573 90.9799 35.1711 90.9799 34.4312C90.9799 33.6913 91.3687 33.2895 91.8906 33.2895C92.4109 33.2895 92.8012 33.6913 92.8012 34.4312Z" fill="#6002FD"/>
<path d="M96.2667 32.9129H95.8143V35.143H95.7862L94.2458 32.9129H93.823V35.9496H94.2798V33.7225H94.3079L95.8468 35.9496H96.2667V32.9129Z" fill="#6002FD"/>
</g>
<defs>
<clipPath id="clip0">
<rect width="118" height="40" fill="white" transform="translate(40.6667)"/>
</clipPath>
</defs>
</svg>
