<svg width="136" height="50" viewBox="0 0 136 50" fill="none" xmlns="http://www.w3.org/2000/svg">
<path fill-rule="evenodd" clip-rule="evenodd" d="M5.94478 11.813C7.81629 12.7167 8.75205 13.5743 8.75205 14.3858C8.75205 14.8469 8.58852 15.2158 8.26146 15.4924C7.95257 15.7506 7.51649 15.8797 6.95322 15.8797C6.20825 15.8797 5.46328 15.7045 4.71831 15.3541C3.97334 14.9852 3.35556 14.4781 2.86497 13.8325L0.384766 16.848C0.820846 17.8255 1.66575 18.6001 2.91948 19.1719C4.15504 19.7436 5.46328 20.0295 6.8442 20.0295C8.73388 20.0295 10.2874 19.4947 11.5048 18.4249C12.7585 17.3552 13.3854 15.9904 13.3854 14.3305C13.3854 13.3346 13.1855 12.4677 12.7858 11.73C12.4042 10.9738 11.9136 10.3928 11.314 9.98709C10.7326 9.56289 10.0966 9.16636 9.40617 8.79749C8.71571 8.42862 8.07067 8.12431 7.47106 7.88454C6.88962 7.62634 6.39903 7.30358 5.99929 6.91627C5.61772 6.52896 5.42694 6.08631 5.42694 5.58834C5.42694 5.1457 5.59047 4.79528 5.91753 4.53707C6.26276 4.27886 6.73518 4.14976 7.33479 4.14976C7.95257 4.14976 8.45224 4.24198 8.83381 4.42641C9.23355 4.61084 9.69689 4.95205 10.2238 5.45002L12.5677 2.13021C11.2595 0.710069 9.388 0 6.95322 0C5.09988 0 3.60994 0.54408 2.4834 1.63224C1.35686 2.7204 0.793591 4.0391 0.793591 5.58834C0.775421 6.28919 0.875356 6.94393 1.0934 7.55256C1.32961 8.16119 1.60216 8.66839 1.91105 9.07414C2.23811 9.4799 2.64693 9.87643 3.13752 10.2637C3.64628 10.6326 4.10053 10.9277 4.50027 11.149C4.91818 11.3519 5.39968 11.5732 5.94478 11.813ZM41.7208 0.33198H37.5235L34.2529 12.5599L30.5735 0.33198H26.1855L22.615 12.5599L19.399 0.33198H14.4658L20.1076 19.6975H24.2776L28.2023 7.24825L32.1816 19.6975H36.3516L41.7208 0.33198ZM48.8071 19.6975H44.4463V0.33198H48.8071V19.6975ZM53.9951 19.6975H58.3559V12.7259H64.2158V8.57617H58.3559V4.48174H65.0334V0.33198H53.9951V19.6975ZM72.124 4.48174H66.4004V0.33198H82.2083V4.48174H76.4848V19.6975H72.124V4.48174ZM42.7583 42.7794H38.6973V38.6297H46.8466V47.2612C46.0289 48.0911 44.9387 48.7551 43.576 49.253C42.2496 49.751 40.9595 50 39.7058 50C36.5079 50 34.0004 49.0963 32.1834 47.2888C30.3846 45.4814 29.4852 43.0468 29.4852 39.9852C29.4852 37.1265 30.3664 34.7473 32.1289 32.8477C33.9095 30.9295 36.2535 29.9705 39.1607 29.9705C41.6681 29.9705 43.7486 30.6437 45.4021 31.99L43.576 35.5588C43.1944 35.1531 42.6311 34.8119 41.8862 34.5352C41.1594 34.2586 40.4235 34.1203 39.6785 34.1203C37.9887 34.1203 36.635 34.6274 35.6175 35.6418C34.6182 36.6562 34.1185 38.104 34.1185 39.9852C34.1185 41.7743 34.6273 43.2036 35.6448 44.2733C36.6805 45.3246 38.0523 45.8502 39.7603 45.8502C40.269 45.8502 40.8414 45.7488 41.4773 45.5459C42.077 45.343 42.504 45.1217 42.7583 44.882V42.7794ZM62.7788 49.668H50.6504V30.3025H55.0112V45.5183H62.7788V49.668ZM66.2813 32.8477C64.4098 34.7473 63.474 37.1265 63.474 39.9852C63.474 43.01 64.4189 45.4353 66.3086 47.2612C68.2164 49.0871 70.6512 50 73.6129 50C76.5383 50 78.9549 49.0594 80.8627 47.1782C82.7888 45.2969 83.7518 42.8993 83.7518 39.9852C83.7518 36.9605 82.7979 34.5352 80.89 32.7093C79.0185 30.8834 76.5928 29.9705 73.6129 29.9705C70.6149 29.9705 68.171 30.9295 66.2813 32.8477ZM69.7154 44.1627C68.6434 43.0192 68.1074 41.6267 68.1074 39.9852C68.1074 38.2516 68.6252 36.8406 69.6609 35.7525C70.6966 34.6643 72.0139 34.1203 73.6129 34.1203C75.1574 34.1203 76.4656 34.6643 77.5376 35.7525C78.5915 36.8222 79.1184 38.2331 79.1184 39.9852C79.1184 41.682 78.6369 43.093 77.6739 44.218C76.7109 45.3062 75.3572 45.8502 73.6129 45.8502C72.0685 45.8502 70.7693 45.2877 69.7154 44.1627ZM87.3009 30.3578C89.4268 30.2471 91.3528 30.1918 93.0789 30.1918C95.1867 30.1918 96.7765 30.6252 97.8486 31.4921C98.9388 32.3405 99.4839 33.5116 99.4839 35.0055C99.4839 36.9052 98.7571 38.3438 97.3035 39.3213V39.3766C98.1211 39.6902 98.7752 40.225 99.2658 40.9812C99.7746 41.7374 100.029 42.678 100.029 43.803C100.029 45.7396 99.3567 47.2243 98.0121 48.2571C96.6857 49.2715 94.9414 49.7787 92.7791 49.7787C90.2535 49.7787 88.4274 49.7234 87.3009 49.6127V30.3578ZM93.3515 41.8388H91.6617V45.4629C92.0614 45.5736 92.552 45.6289 93.1335 45.6289C94.8233 45.6289 95.6682 44.9465 95.6682 43.5817C95.6682 42.4198 94.8959 41.8388 93.3515 41.8388ZM93.0244 34.3416C92.6974 34.3416 92.2431 34.3785 91.6617 34.4522V37.9657H93.1062C94.4508 37.9657 95.1231 37.3386 95.1231 36.0845C95.1231 35.5496 94.9232 35.1254 94.5235 34.8119C94.1237 34.4983 93.624 34.3416 93.0244 34.3416ZM101.669 49.668H106.057L107.638 45.6013H115.188L116.769 49.668H121.429L113.498 30.3025H109.601L101.669 49.668ZM111.427 35.9738L113.553 41.4515H109.274L111.427 35.9738ZM136 49.668H123.872V30.3025H128.232V45.5183H136V49.668Z" fill="white"/>
<path fill-rule="evenodd" clip-rule="evenodd" d="M9.085 49.6677C14.1025 49.6677 18.17 45.539 18.17 40.446C18.17 35.353 14.1025 31.2243 9.085 31.2243C4.06749 31.2243 0 35.353 0 40.446C0 45.539 4.06749 49.6677 9.085 49.6677Z" fill="white"/>
</svg>
