<svg width="136" height="50" viewBox="0 0 136 50" fill="none" xmlns="http://www.w3.org/2000/svg">
<path fill-rule="evenodd" clip-rule="evenodd" d="M5.94466 11.813C7.81617 12.7167 8.75193 13.5743 8.75193 14.3858C8.75193 14.8469 8.5884 15.2158 8.26134 15.4924C7.95245 15.7506 7.51637 15.8797 6.9531 15.8797C6.20813 15.8797 5.46316 15.7045 4.71819 15.3541C3.97322 14.9852 3.35544 14.4781 2.86485 13.8325L0.384644 16.848C0.820724 17.8255 1.66563 18.6001 2.91936 19.1719C4.15492 19.7436 5.46316 20.0295 6.84408 20.0295C8.73376 20.0295 10.2873 19.4947 11.5047 18.4249C12.7584 17.3552 13.3853 15.9904 13.3853 14.3305C13.3853 13.3346 13.1854 12.4677 12.7857 11.73C12.4041 10.9738 11.9135 10.3928 11.3139 9.98709C10.7325 9.56289 10.0965 9.16636 9.40605 8.79749C8.71559 8.42862 8.07055 8.12431 7.47094 7.88454C6.8895 7.62634 6.39891 7.30358 5.99917 6.91627C5.6176 6.52896 5.42682 6.08631 5.42682 5.58834C5.42682 5.1457 5.59035 4.79528 5.91741 4.53707C6.26264 4.27886 6.73506 4.14976 7.33467 4.14976C7.95245 4.14976 8.45212 4.24198 8.83369 4.42641C9.23343 4.61084 9.69677 4.95205 10.2237 5.45002L12.5676 2.13021C11.2594 0.710069 9.38788 0 6.9531 0C5.09976 0 3.60982 0.54408 2.48328 1.63224C1.35674 2.7204 0.793469 4.0391 0.793469 5.58834C0.775298 6.28919 0.875234 6.94393 1.09327 7.55256C1.32948 8.16119 1.60203 8.66839 1.91092 9.07414C2.23798 9.4799 2.64681 9.87643 3.1374 10.2637C3.64616 10.6326 4.10041 10.9277 4.50015 11.149C4.91806 11.3519 5.39956 11.5732 5.94466 11.813ZM41.7207 0.33198H37.5234L34.2528 12.5599L30.5734 0.33198H26.1853L22.6149 12.5599L19.3988 0.33198H14.4657L20.1075 19.6975H24.2775L28.2022 7.24825L32.1814 19.6975H36.3514L41.7207 0.33198ZM48.807 19.6975H44.4462V0.33198H48.807V19.6975ZM53.995 19.6975H58.3558V12.7259H64.2156V8.57617H58.3558V4.48174H65.0333V0.33198H53.995V19.6975ZM72.1238 4.48174H66.4003V0.33198H82.2082V4.48174H76.4846V19.6975H72.1238V4.48174ZM42.7582 42.7794H38.6972V38.6297H46.8465V47.2612C46.0288 48.0911 44.9386 48.7551 43.5759 49.253C42.2495 49.751 40.9594 50 39.7057 50C36.5077 50 34.0003 49.0963 32.1833 47.2888C30.3844 45.4814 29.485 43.0468 29.485 39.9852C29.485 37.1265 30.3663 34.7473 32.1288 32.8477C33.9094 30.9295 36.2534 29.9705 39.1605 29.9705C41.668 29.9705 43.7485 30.6437 45.4019 31.99L43.5759 35.5588C43.1943 35.1531 42.631 34.8119 41.8861 34.5352C41.1593 34.2586 40.4234 34.1203 39.6784 34.1203C37.9886 34.1203 36.6349 34.6274 35.6174 35.6418C34.6181 36.6562 34.1184 38.104 34.1184 39.9852C34.1184 41.7743 34.6271 43.2036 35.6447 44.2733C36.6804 45.3246 38.0522 45.8502 39.7602 45.8502C40.2689 45.8502 40.8413 45.7488 41.4772 45.5459C42.0768 45.343 42.5038 45.1217 42.7582 44.882V42.7794ZM62.7787 49.668H50.6502V30.3025H55.011V45.5183H62.7787V49.668ZM66.2812 32.8477C64.4097 34.7473 63.4739 37.1265 63.4739 39.9852C63.4739 43.01 64.4188 45.4353 66.3084 47.2612C68.2163 49.0871 70.6511 50 73.6128 50C76.5382 50 78.9548 49.0594 80.8626 47.1782C82.7886 45.2969 83.7516 42.8993 83.7516 39.9852C83.7516 36.9605 82.7977 34.5352 80.8899 32.7093C79.0184 30.8834 76.5927 29.9705 73.6128 29.9705C70.6147 29.9705 68.1709 30.9295 66.2812 32.8477ZM69.7153 44.1627C68.6433 43.0192 68.1073 41.6267 68.1073 39.9852C68.1073 38.2516 68.6251 36.8406 69.6608 35.7525C70.6965 34.6643 72.0138 34.1203 73.6128 34.1203C75.1572 34.1203 76.4655 34.6643 77.5375 35.7525C78.5914 36.8222 79.1183 38.2331 79.1183 39.9852C79.1183 41.682 78.6368 43.093 77.6738 44.218C76.7108 45.3062 75.3571 45.8502 73.6128 45.8502C72.0683 45.8502 70.7692 45.2877 69.7153 44.1627ZM87.3008 30.3578C89.4267 30.2471 91.3527 30.1918 93.0788 30.1918C95.1865 30.1918 96.7764 30.6252 97.8484 31.4921C98.9386 32.3405 99.4837 33.5116 99.4837 35.0055C99.4837 36.9052 98.7569 38.3438 97.3034 39.3213V39.3766C98.121 39.6902 98.7751 40.225 99.2657 40.9812C99.7745 41.7374 100.029 42.678 100.029 43.803C100.029 45.7396 99.3566 47.2243 98.012 48.2571C96.6856 49.2715 94.9413 49.7787 92.779 49.7787C90.2534 49.7787 88.4273 49.7234 87.3008 49.6127V30.3578ZM93.3514 41.8388H91.6616V45.4629C92.0613 45.5736 92.5519 45.6289 93.1333 45.6289C94.8231 45.6289 95.668 44.9465 95.668 43.5817C95.668 42.4198 94.8958 41.8388 93.3514 41.8388ZM93.0243 34.3416C92.6973 34.3416 92.243 34.3785 91.6616 34.4522V37.9657H93.1061C94.4507 37.9657 95.1229 37.3386 95.1229 36.0845C95.1229 35.5496 94.9231 35.1254 94.5233 34.8119C94.1236 34.4983 93.6239 34.3416 93.0243 34.3416ZM101.669 49.668H106.057L107.638 45.6013H115.188L116.769 49.668H121.429L113.498 30.3025H109.6L101.669 49.668ZM111.427 35.9738L113.552 41.4515H109.273L111.427 35.9738ZM136 49.668H123.871V30.3025H128.232V45.5183H136V49.668Z" fill="#6002FD"/>
<path fill-rule="evenodd" clip-rule="evenodd" d="M9.085 49.6677C14.1025 49.6677 18.17 45.539 18.17 40.446C18.17 35.353 14.1025 31.2243 9.085 31.2243C4.06749 31.2243 0 35.353 0 40.446C0 45.539 4.06749 49.6677 9.085 49.6677Z" fill="#6002FD"/>
</svg>
