<svg width="199" height="40" viewBox="0 0 199 40" fill="none" xmlns="http://www.w3.org/2000/svg">
<path d="M35.0027 2.64775C35.0027 1.26754 35.9463 0.0218506 37.6312 0.0218506H46.2585C47.7414 0.0218506 48.5163 1.16631 48.5163 2.34474C48.5163 3.48953 47.7751 4.66762 46.2585 4.66762H40.0578V21.5682C40.0578 23.2518 38.9792 24.1944 37.5303 24.1944C36.081 24.1944 35.0027 23.2518 35.0027 21.5682V2.64775Z" fill="#6002FD"/>
<path d="M54.4142 6.08179H63.3783C64.794 6.08179 65.8049 7.15899 65.8049 8.77496V21.5009C65.8049 23.1169 64.794 24.1944 63.3783 24.1944C61.9631 24.1944 60.9522 23.1169 60.9522 21.5009V10.3237H56.8407V15.3401C56.8407 21.2319 54.2459 24.1944 50.6397 24.1944C49.2918 24.1944 48.5168 23.1169 48.5168 22.0397C48.5168 21.1643 49.0558 20.3564 49.9998 20.0534C50.977 19.7504 51.988 18.7741 51.988 15.9121V8.77496C51.988 7.15899 52.9989 6.08179 54.4142 6.08179Z" fill="#6002FD"/>
<path d="M75.5454 20.3562C78.0727 20.3562 79.2188 19.0433 79.2188 16.7204V15.9459C76.287 15.9459 72.6135 15.6428 72.6135 18.6057C72.6135 19.9187 74.0963 20.3562 75.5454 20.3562ZM74.6691 24.3963C70.7599 24.3963 67.9628 22.4097 67.9628 18.6057C67.9628 13.0169 74.5344 12.31 79.0163 12.31V10.9971C79.0163 10.0544 78.2416 9.71775 76.8932 9.71775C74.0626 9.71775 73.5571 11.3674 72.2764 11.3674C70.7599 11.3674 70.1532 10.2901 70.1532 9.31383C70.1532 7.36088 74.0289 5.67767 76.8932 5.67767C81.3756 5.67767 83.8691 7.59665 83.8691 11.098V21.6019C83.8691 23.0161 82.9255 24.1942 81.5103 24.1942C80.4657 24.1942 79.5894 23.9248 79.2188 22.4097C78.3762 23.723 76.287 24.3963 74.6691 24.3963Z" fill="#6002FD"/>
<path d="M91.2505 20.6593H94.2162C95.5641 20.6593 96.575 19.8851 96.575 18.4709C96.575 17.2925 95.6651 16.4847 93.913 16.4847H91.2505V20.6593ZM91.2505 13.1855H93.205C94.4519 13.1855 95.2272 12.4446 95.2272 11.1989C95.2272 10.0208 94.3172 9.41478 93.205 9.41478H91.2505V13.1855ZM86.4651 8.30359C86.4651 7.05791 87.5436 6.0816 88.7904 6.0816H95.2945C97.9231 6.0816 100.013 7.83243 100.013 10.5256C100.013 12.2764 99.3049 13.4549 97.687 14.1954V14.2627C99.844 14.5657 101.529 16.3498 101.529 18.5382C101.529 22.0734 99.1363 23.9924 95.6651 23.9924H88.7904C87.5436 23.9924 86.4651 22.9822 86.4651 21.7365V8.30359Z" fill="#6002FD"/>
<path d="M123.839 24.1943C122.188 24.1943 121.48 23.218 121.312 22.0396L120.065 13.1852H119.997L117.268 22.4771C117.066 23.1844 116.459 24.1943 114.74 24.1943C113.055 24.1943 112.448 23.218 112.213 22.4771L109.517 13.1852H109.449L108.236 22.0396C108.068 23.218 107.36 24.1943 105.708 24.1943C104.394 24.1943 103.417 23.1507 103.417 21.8714C103.417 21.7029 103.417 21.5684 103.451 21.3999L105.877 8.00067C106.046 7.02437 107.259 5.87958 108.91 5.87958C110.46 5.87958 111.64 6.92348 111.943 7.86615L114.74 16.7205H114.808L117.571 7.86615C117.874 6.92348 119.054 5.87958 120.604 5.87958C122.289 5.87958 123.502 7.02437 123.671 8.00067L126.097 21.3999C126.131 21.5684 126.131 21.7029 126.131 21.8714C126.131 23.1507 125.187 24.1943 123.839 24.1943Z" fill="#6002FD"/>
<path d="M139.881 13.421C139.612 11.2999 138.264 9.7176 136.006 9.7176C133.849 9.7176 132.4 11.3675 132.164 13.421H139.881ZM132.265 16.653C132.602 19.0435 134.591 20.1543 136.849 20.1543C139.343 20.1543 141.061 18.2017 142.342 18.2017C143.386 18.2017 144.33 19.2452 144.33 20.2888C144.33 22.3763 140.016 24.3965 136.41 24.3965C130.951 24.3965 127.311 20.4237 127.311 15.0706C127.311 10.1555 130.884 5.67786 136.006 5.67786C141.263 5.67786 144.734 10.4585 144.734 14.4982C144.734 15.9461 144.094 16.653 142.611 16.653H132.265Z" fill="#6002FD"/>
<path d="M158.013 9.98707H153.868C153.767 13.6905 153.396 17.1578 152.621 20.0198H158.013V9.98707ZM162.866 29.1096C161.45 29.1096 160.439 28.0324 160.439 26.4163V23.9923H150.06V26.4163C150.06 28.0324 149.049 29.1096 147.633 29.1096C146.218 29.1096 145.207 28.0324 145.207 26.4163V22.4436C145.207 20.8277 146.218 19.7505 147.633 19.7505H147.903C148.813 16.5858 149.116 12.9496 149.116 8.77499C149.116 7.02452 150.127 6.08185 151.543 6.08185H160.17C161.585 6.08185 162.596 7.15905 162.596 8.77499V19.7505H162.866C164.281 19.7505 165.292 20.8277 165.292 22.4436V26.4163C165.292 28.0324 164.281 29.1096 162.866 29.1096Z" fill="#6002FD"/>
<path d="M38.0086 32.5498H36.7498V37.626H35.4539V32.5498H34.1859V31.4971H38.0178L38.0086 32.5498Z" fill="#6002FD"/>
<path d="M40.759 35.2321C40.759 34.6732 40.6985 34.2711 40.5771 34.026C40.4561 33.7807 40.2649 33.6581 40.0038 33.6581C39.743 33.6581 39.5519 33.7807 39.4305 34.026C39.3094 34.2711 39.2489 34.6732 39.2489 35.2321C39.2489 35.7975 39.3094 36.2023 39.4305 36.4477C39.5519 36.693 39.743 36.8156 40.0038 36.8156C40.2649 36.8156 40.4561 36.693 40.5771 36.4477C40.6985 36.2023 40.759 35.7975 40.759 35.2321ZM42.0644 35.2321C42.0644 35.6854 42.0145 36.0704 41.9152 36.3873C41.8155 36.7037 41.6758 36.9631 41.4956 37.1649C41.3153 37.3667 41.0994 37.5126 40.8478 37.6026C40.5961 37.6928 40.3146 37.7376 40.0038 37.7376C39.693 37.7376 39.4104 37.6928 39.1554 37.6026C38.9007 37.5126 38.6844 37.3667 38.5073 37.1649C38.3301 36.9631 38.1937 36.7037 38.0972 36.3873C38.0009 36.0704 37.9527 35.6854 37.9527 35.2321C37.9527 34.7853 38.0009 34.4033 38.0972 34.0864C38.1937 33.7697 38.3301 33.5106 38.5073 33.3088C38.6844 33.107 38.9007 32.9611 39.1554 32.8709C39.4104 32.7812 39.693 32.7361 40.0038 32.7361C40.3146 32.7361 40.5961 32.7812 40.8478 32.8709C41.0994 32.9611 41.3153 33.107 41.4956 33.3088C41.6758 33.5106 41.8155 33.7697 41.9152 34.0864C42.0145 34.4033 42.0644 34.7853 42.0644 35.2321Z" fill="#6002FD"/>
<path d="M44.013 35.5582V36.8436C44.0875 36.8497 44.1619 36.8545 44.2368 36.8576C44.3112 36.8606 44.386 36.8619 44.4605 36.8619C44.9141 36.8619 45.1409 36.6232 45.1409 36.1452C45.1409 35.9465 45.0851 35.7987 44.9733 35.7024C44.8614 35.6064 44.703 35.5582 44.4979 35.5582H44.013ZM44.4697 34.8502C44.4884 34.8502 44.5271 34.8453 44.5863 34.8362C44.6451 34.827 44.706 34.8023 44.7682 34.7618C44.8301 34.7215 44.8862 34.6563 44.9359 34.5661C44.9855 34.4762 45.0107 34.3475 45.0107 34.1796C45.0107 33.987 44.9672 33.8492 44.8801 33.7651C44.7927 33.6813 44.6686 33.6334 44.5071 33.6209L44.013 33.6395V34.8502H44.4697ZM44.5163 37.6912C44.1371 37.6912 43.8015 37.6802 43.5094 37.6586C43.2173 37.6367 42.9844 37.626 42.8103 37.626V32.8385C42.8847 32.8385 42.981 32.8354 43.0993 32.829C43.2173 32.8229 43.3465 32.8168 43.4863 32.8107C43.626 32.8046 43.7722 32.7979 43.9242 32.7918C44.0766 32.7857 44.2242 32.7824 44.3673 32.7824C45.026 32.7824 45.5014 32.8759 45.7938 33.0619C46.0859 33.2481 46.2318 33.562 46.2318 34.0025C46.2318 34.1518 46.2087 34.2866 46.1621 34.4079C46.1155 34.5289 46.0532 34.6344 45.9754 34.7246C45.8975 34.8145 45.8108 34.8922 45.7146 34.9572C45.618 35.0224 45.5235 35.0767 45.4299 35.1202C45.5235 35.1327 45.6258 35.1577 45.7377 35.1949C45.8496 35.2323 45.9553 35.2927 46.0546 35.3763C46.1542 35.4604 46.2379 35.5737 46.3066 35.7164C46.3749 35.8594 46.4089 36.0395 46.4089 36.2566C46.4089 36.7287 46.2613 37.0858 45.9662 37.3276C45.6707 37.5699 45.1878 37.6912 44.5163 37.6912Z" fill="#6002FD"/>
<path d="M48.6373 36.825C48.7366 36.825 48.8237 36.811 48.8985 36.7827C48.9729 36.7549 49.0382 36.7193 49.0943 36.6757C49.1501 36.6327 49.197 36.5876 49.2341 36.5409C49.2715 36.4941 49.3024 36.4556 49.3272 36.4245V35.372H49.2014C49.161 35.372 49.1191 35.369 49.0756 35.3626C48.7213 35.3626 48.4697 35.4186 48.3204 35.5302C48.1711 35.6421 48.0966 35.8469 48.0966 36.1453C48.0966 36.3623 48.1402 36.53 48.2272 36.6479C48.3139 36.7659 48.4509 36.825 48.6373 36.825ZM49.4204 37.626C49.4082 37.5389 49.3973 37.452 49.3881 37.3651C49.3786 37.278 49.3677 37.1914 49.3551 37.1042C49.3242 37.1353 49.2807 37.185 49.2249 37.2533C49.1688 37.3216 49.0943 37.3916 49.0008 37.463C48.9076 37.5343 48.7913 37.598 48.6516 37.6538C48.5115 37.7096 48.3483 37.7376 48.1619 37.7376C47.9878 37.7376 47.8229 37.7096 47.6675 37.6538C47.5121 37.598 47.3771 37.5111 47.2622 37.3929C47.1472 37.2749 47.0554 37.1262 46.9871 36.9458C46.9187 36.7659 46.8847 36.5488 46.8847 36.2941C46.8847 35.7042 47.0711 35.2821 47.4441 35.0273C47.8168 34.7728 48.3731 34.6454 49.1127 34.6454L49.3272 34.664V34.5524C49.3272 34.36 49.3072 34.2062 49.2667 34.0913C49.2262 33.9766 49.1701 33.8879 49.0987 33.8258C49.0273 33.7639 48.9433 33.7234 48.8471 33.7048C48.7505 33.6862 48.6434 33.6765 48.5254 33.6765C48.3139 33.6765 48.098 33.6999 47.8776 33.7465C47.657 33.7932 47.4842 33.8383 47.3601 33.8813L47.2203 33.0248C47.2948 32.9998 47.3863 32.9702 47.4954 32.9363C47.6039 32.9025 47.725 32.8711 47.8589 32.8428C47.9926 32.8151 48.134 32.7906 48.283 32.7684C48.4323 32.7468 48.5846 32.7358 48.74 32.7358C49.38 32.7358 49.8462 32.8867 50.1386 33.1878C50.4304 33.489 50.5766 33.9562 50.5766 34.5893V37.626H49.4204Z" fill="#6002FD"/>
<path d="M53.4854 33.7977C53.4045 33.7977 53.3252 33.8163 53.2477 33.8538C53.1698 33.8907 53.0967 33.9374 53.0287 33.9934C52.9604 34.0492 52.9012 34.1083 52.8515 34.1705C52.8016 34.2326 52.7641 34.2851 52.7397 34.3287V36.7132C52.9134 36.7939 53.0967 36.8339 53.2895 36.8339C53.6064 36.8339 53.8411 36.7147 53.9938 36.4757C54.1458 36.2365 54.2223 35.8347 54.2223 35.2693C54.2223 34.717 54.1597 34.3335 54.0356 34.119C53.9111 33.9047 53.7278 33.7977 53.4854 33.7977ZM51.4808 32.8385H52.6465L52.7023 33.4719H52.721C52.7641 33.4097 52.825 33.3368 52.9029 33.2528C52.9804 33.1689 53.0719 33.0884 53.1777 33.0107C53.2834 32.9333 53.4062 32.8681 53.5459 32.8151C53.686 32.7623 53.8367 32.7361 53.9982 32.7361C54.2093 32.7361 54.4069 32.784 54.5905 32.8803C54.7735 32.9766 54.9336 33.1241 55.0703 33.3228C55.207 33.5216 55.3158 33.7746 55.3968 34.0818C55.4774 34.3891 55.5182 34.7509 55.5182 35.1672C55.5182 35.6079 55.4712 35.9898 55.3781 36.3126C55.2849 36.6357 55.156 36.9027 54.9911 37.1137C54.8265 37.3249 54.6324 37.4816 54.4086 37.584C54.1849 37.6864 53.9424 37.7376 53.6812 37.7376C53.3456 37.7376 53.0287 37.6754 52.7302 37.5514V39.7588H51.4808V32.8385Z" fill="#6002FD"/>
<path d="M61.5783 37.6258H60.3197V32.8385H61.5783V37.6258ZM57.9979 35.2416C57.8921 35.2416 57.7881 35.2492 57.6857 35.2645C57.583 35.2803 57.5256 35.2915 57.513 35.2976V36.8156C57.5813 36.8217 57.6514 36.8265 57.7228 36.8296C57.7942 36.8326 57.8643 36.8344 57.9326 36.8344C58.1502 36.8344 58.3213 36.7644 58.4454 36.6247C58.5698 36.4849 58.6321 36.2754 58.6321 35.9959C58.6321 35.7103 58.576 35.5131 58.4641 35.4046C58.3522 35.2958 58.1968 35.2416 57.9979 35.2416ZM57.513 34.4683C57.563 34.4622 57.6653 34.4421 57.8211 34.4079C57.9761 34.3738 58.1533 34.3565 58.3522 34.3565C58.5576 34.3565 58.7531 34.383 58.9398 34.4357C59.1261 34.4887 59.2894 34.5756 59.4291 34.6966C59.5689 34.8179 59.6808 34.9807 59.7647 35.1858C59.8487 35.3906 59.8905 35.6421 59.8905 35.9399C59.8905 36.2507 59.8395 36.5159 59.7369 36.7361C59.6342 36.957 59.4927 37.1386 59.3125 37.281C59.1323 37.424 58.9194 37.5279 58.6739 37.5931C58.4284 37.6584 58.1625 37.691 57.8768 37.691H57.5317C57.2583 37.691 57.0067 37.6803 56.7765 37.6584C56.5466 37.6367 56.3759 37.6258 56.2637 37.6258V32.8385H57.513V34.4683Z" fill="#6002FD"/>
<path d="M69.27 37.6257H68.1137C68.1012 37.5019 68.0859 37.3093 68.0673 37.0484C68.0484 36.7875 68.0301 36.5083 68.0115 36.2102C67.9928 35.9121 67.9724 35.6201 67.951 35.3345C67.9288 35.0492 67.9148 34.8191 67.9087 34.6454C67.8839 34.7384 67.8531 34.8596 67.8156 35.0084C67.7781 35.1575 67.7347 35.3175 67.685 35.4884C67.635 35.6589 67.5853 35.8359 67.5358 36.0194C67.4861 36.2026 67.4379 36.3748 67.3912 36.5361C67.3445 36.6978 67.3027 36.8405 67.2655 36.9643C67.2283 37.0887 67.2002 37.1819 67.1813 37.2441H66.5851L66.3795 37.2252C66.3795 37.2313 66.3782 37.2349 66.3752 37.2349C66.3719 37.2349 66.3703 37.238 66.3703 37.2441C66.3517 37.1819 66.3239 37.0887 66.2864 36.9643C66.2494 36.8405 66.2089 36.6978 66.1653 36.5361C66.1219 36.3748 66.0735 36.2026 66.0209 36.0194C65.9679 35.8359 65.9194 35.6589 65.8763 35.4884C65.8327 35.3175 65.7924 35.1575 65.7549 35.0084C65.718 34.8596 65.6896 34.7384 65.6713 34.6454C65.6588 34.8191 65.6417 35.0492 65.62 35.3345C65.5981 35.6201 65.5746 35.9121 65.5499 36.2102C65.5252 36.5083 65.5032 36.7875 65.4846 37.0484C65.466 37.3093 65.4507 37.5019 65.4379 37.6257H64.3005C64.3938 36.8247 64.4856 36.0285 64.5757 35.2367C64.6654 34.4451 64.7542 33.6487 64.8412 32.8477H65.9322C65.9569 32.9162 65.9914 33.0232 66.0347 33.1689C66.0783 33.3149 66.1293 33.481 66.1885 33.6673C66.2477 33.8538 66.3081 34.0507 66.3703 34.2586C66.4323 34.467 66.4917 34.6701 66.5476 34.8688C66.6034 35.0675 66.6547 35.2492 66.7014 35.4138C66.7478 35.5784 66.7835 35.7103 66.8087 35.8094C66.8332 35.7103 66.8692 35.5784 66.9158 35.4138C66.9625 35.2492 67.012 35.0693 67.065 34.8736C67.1178 34.678 67.1752 34.4747 67.2374 34.2635C67.2997 34.0522 67.3573 33.8538 67.4098 33.6673C67.4626 33.481 67.5108 33.3149 67.5544 33.1689C67.5981 33.0232 67.6322 32.9162 67.6572 32.8477H68.7666L69.27 37.6257Z" fill="#6002FD"/>
<path d="M71.7408 33.6301C71.6597 33.6301 71.5788 33.6518 71.4983 33.6953C71.4174 33.7389 71.346 33.8087 71.2838 33.905C71.2218 34.0013 71.1705 34.1272 71.13 34.2821C71.0894 34.4372 71.0695 34.6268 71.0695 34.8502H71.6196C71.8492 34.8502 72.0917 34.8441 72.3467 34.8316C72.3467 34.596 72.3309 34.4003 72.3001 34.2449C72.2687 34.0897 72.2269 33.9672 72.1743 33.877C72.1213 33.787 72.0575 33.7231 71.9831 33.6861C71.9086 33.6487 71.8278 33.6301 71.7408 33.6301ZM73.4189 37.2813C73.3817 37.306 73.3194 37.3435 73.2325 37.3929C73.1455 37.4428 73.0318 37.4943 72.892 37.5468C72.7522 37.5995 72.589 37.6444 72.4029 37.6818C72.2162 37.719 72.0081 37.7379 71.7778 37.7379C71.5044 37.7379 71.2496 37.6925 71.0134 37.6026C70.7773 37.5126 70.5707 37.3712 70.3935 37.1789C70.2162 36.9863 70.0765 36.7412 69.9739 36.4431C69.8712 36.145 69.8201 35.7847 69.8201 35.3626C69.8201 34.9154 69.8712 34.5277 69.9739 34.1985C70.0765 33.8693 70.2147 33.5962 70.3886 33.3786C70.5628 33.1613 70.7666 33 70.9994 32.8943C71.2323 32.7886 71.4827 32.7361 71.75 32.7361C72.0172 32.7361 72.2613 32.7779 72.4819 32.8617C72.7023 32.9455 72.892 33.079 73.0506 33.2622C73.209 33.4456 73.3335 33.6767 73.4235 33.9562C73.5138 34.2354 73.5589 34.571 73.5589 34.9621C73.5589 35.13 73.5508 35.2739 73.5354 35.3952C73.5199 35.5162 73.5089 35.5896 73.5028 35.614H71.0695C71.0757 36.0301 71.1688 36.3297 71.3491 36.5129C71.5291 36.6958 71.753 36.7875 72.0203 36.7875C72.2687 36.7875 72.4942 36.7458 72.6966 36.6619C72.8981 36.5781 73.0552 36.5114 73.1672 36.4614L73.4189 37.2813Z" fill="#6002FD"/>
<path d="M75.908 33.7605C75.9019 34.04 75.8973 34.321 75.8942 34.6033C75.8912 34.8859 75.8802 35.1547 75.8616 35.4095C75.8427 35.6637 75.8088 35.8981 75.7591 36.1121C75.7091 36.3266 75.6346 36.5083 75.5352 36.6571H76.9338V33.7605H75.908ZM78.6583 38.9858H77.5866V37.626H75.0131V38.9858H73.9501V36.7409C74.1677 36.7409 74.3324 36.6214 74.4441 36.3827C74.5561 36.1435 74.6354 35.8359 74.6823 35.4604C74.7287 35.0846 74.755 34.6658 74.7611 34.2031C74.7675 33.7404 74.7767 33.2856 74.7894 32.8385H78.1551V36.6571H78.6583V38.9858Z" fill="#6002FD"/>
<path d="M83.1433 32.8385V37.6258H81.9405V35.3254C81.9405 35.2385 81.9451 35.1468 81.9543 35.0505C81.964 34.9544 81.9683 34.8813 81.9683 34.8319H81.9592L80.3555 37.6258H79.302V32.8385H80.5047V35.251C80.5047 35.3254 80.5001 35.4077 80.4904 35.4976C80.4812 35.5875 80.4766 35.6576 80.4766 35.7073C80.4828 35.7073 80.4861 35.7106 80.4861 35.7167L82.1083 32.8385H83.1433Z" fill="#6002FD"/>
<path d="M85.3712 36.6479H86.6484V32.8385H87.8981V36.6479H88.4015V39.1254H87.3202V37.626H84.1221V32.8385H85.3712V36.6479Z" fill="#6002FD"/>
<path d="M92.8862 32.8385V37.6258H91.6835V35.3254C91.6835 35.2385 91.6881 35.1468 91.6973 35.0505C91.707 34.9544 91.7113 34.8813 91.7113 34.8319H91.7021L90.0985 37.6258H89.045V32.8385H90.2477V35.251C90.2477 35.3254 90.2431 35.4077 90.2334 35.4976C90.2242 35.5875 90.2196 35.6576 90.2196 35.7073C90.2258 35.7073 90.2291 35.7106 90.2291 35.7167L91.8513 32.8385H92.8862Z" fill="#6002FD"/>
<path d="M93.8651 32.8385H95.1145V34.6548H96.4197V32.8385H97.6691V37.6258H96.4197V35.6049H95.1145V37.6258H93.8651V32.8385Z" fill="#6002FD"/>
<path d="M101.725 37.3093C101.681 37.3279 101.619 37.3605 101.538 37.4072C101.458 37.4535 101.36 37.5019 101.245 37.5514C101.13 37.6011 100.998 37.6446 100.848 37.6818C100.699 37.7193 100.534 37.7376 100.354 37.7376C99.7264 37.7376 99.2462 37.5407 98.9137 37.1463C98.5811 36.7519 98.4148 36.1389 98.4148 35.3068C98.4148 34.4375 98.5872 33.7916 98.9323 33.3695C99.2771 32.947 99.779 32.7361 100.438 32.7361C100.699 32.7361 100.929 32.7611 101.128 32.8105C101.327 32.8602 101.47 32.9007 101.557 32.9315L101.408 33.8538C101.346 33.8291 101.24 33.7977 101.091 33.7603C100.942 33.7233 100.783 33.7047 100.615 33.7047C100.304 33.7047 100.076 33.8273 99.93 34.0726C99.7838 34.3177 99.7111 34.7137 99.7111 35.2602C99.7111 35.8128 99.7869 36.2008 99.9391 36.4242C100.092 36.6479 100.304 36.7595 100.578 36.7595C100.771 36.7595 100.945 36.7239 101.1 36.6525C101.256 36.5812 101.367 36.533 101.436 36.5083L101.725 37.3093Z" fill="#6002FD"/>
<path d="M102.219 32.8385H103.468V34.9154L104.68 32.8385H106.088L104.55 34.9715L106.256 37.6258H104.755L103.468 35.3437V37.6258H102.219V32.8385Z" fill="#6002FD"/>
<path d="M109.053 35.2321C109.053 34.6732 108.993 34.2711 108.871 34.026C108.75 33.7807 108.559 33.6581 108.298 33.6581C108.037 33.6581 107.846 33.7807 107.725 34.026C107.603 34.2711 107.543 34.6732 107.543 35.2321C107.543 35.7975 107.603 36.2023 107.725 36.4477C107.846 36.693 108.037 36.8156 108.298 36.8156C108.559 36.8156 108.75 36.693 108.871 36.4477C108.993 36.2023 109.053 35.7975 109.053 35.2321ZM110.358 35.2321C110.358 35.6854 110.308 36.0704 110.209 36.3873C110.11 36.7037 109.97 36.9631 109.79 37.1649C109.609 37.3667 109.393 37.5126 109.142 37.6026C108.89 37.6928 108.608 37.7376 108.298 37.7376C107.987 37.7376 107.704 37.6928 107.449 37.6026C107.195 37.5126 106.978 37.3667 106.801 37.1649C106.624 36.9631 106.488 36.7037 106.391 36.3873C106.295 36.0704 106.247 35.6854 106.247 35.2321C106.247 34.7853 106.295 34.4033 106.391 34.0864C106.488 33.7697 106.624 33.5106 106.801 33.3088C106.978 33.107 107.195 32.9611 107.449 32.8709C107.704 32.7812 107.987 32.7361 108.298 32.7361C108.608 32.7361 108.89 32.7812 109.142 32.8709C109.393 32.9611 109.609 33.107 109.79 33.3088C109.97 33.5106 110.11 33.7697 110.209 34.0864C110.308 34.4033 110.358 34.7853 110.358 35.2321Z" fill="#6002FD"/>
<path d="M113.584 33.8352H112.353V37.6258H111.104V32.8385H113.593L113.584 33.8352Z" fill="#6002FD"/>
<path d="M116.773 35.2321C116.773 34.6732 116.712 34.2711 116.591 34.026C116.47 33.7807 116.279 33.6581 116.017 33.6581C115.756 33.6581 115.565 33.7807 115.444 34.026C115.323 34.2711 115.262 34.6732 115.262 35.2321C115.262 35.7975 115.323 36.2023 115.444 36.4477C115.565 36.693 115.756 36.8156 116.017 36.8156C116.279 36.8156 116.47 36.693 116.591 36.4477C116.712 36.2023 116.773 35.7975 116.773 35.2321ZM118.078 35.2321C118.078 35.6854 118.028 36.0704 117.929 36.3873C117.829 36.7037 117.689 36.9631 117.509 37.1649C117.329 37.3667 117.113 37.5126 116.861 37.6026C116.61 37.6928 116.328 37.7376 116.017 37.7376C115.706 37.7376 115.424 37.6928 115.169 37.6026C114.914 37.5126 114.698 37.3667 114.521 37.1649C114.344 36.9631 114.207 36.7037 114.111 36.3873C114.015 36.0704 113.966 35.6854 113.966 35.2321C113.966 34.7853 114.015 34.4033 114.111 34.0864C114.207 33.7697 114.344 33.5106 114.521 33.3088C114.698 33.107 114.914 32.9611 115.169 32.8709C115.424 32.7812 115.706 32.7361 116.017 32.7361C116.328 32.7361 116.61 32.7812 116.861 32.8709C117.113 32.9611 117.329 33.107 117.509 33.3088C117.689 33.5106 117.829 33.7697 117.929 34.0864C118.028 34.4033 118.078 34.7853 118.078 35.2321Z" fill="#6002FD"/>
<path d="M120.782 32.8385H122.031V34.6548H123.337V32.8385H124.586V37.6258H123.337V35.6049H122.031V37.6258H120.782V32.8385Z" fill="#6002FD"/>
<path d="M127.038 36.825C127.137 36.825 127.224 36.811 127.299 36.7827C127.373 36.7549 127.438 36.7193 127.495 36.6757C127.55 36.6327 127.597 36.5876 127.634 36.5409C127.672 36.4941 127.703 36.4556 127.728 36.4245V35.372H127.602C127.561 35.372 127.52 35.369 127.476 35.3626C127.122 35.3626 126.87 35.4186 126.721 35.5302C126.571 35.6421 126.497 35.8469 126.497 36.1453C126.497 36.3623 126.54 36.53 126.627 36.6479C126.714 36.7659 126.851 36.825 127.038 36.825ZM127.821 37.626C127.809 37.5389 127.798 37.452 127.788 37.3651C127.779 37.278 127.768 37.1914 127.755 37.1042C127.725 37.1353 127.681 37.185 127.625 37.2533C127.569 37.3216 127.495 37.3916 127.401 37.463C127.308 37.5343 127.192 37.598 127.052 37.6538C126.912 37.7096 126.749 37.7376 126.562 37.7376C126.388 37.7376 126.223 37.7096 126.068 37.6538C125.912 37.598 125.777 37.5111 125.662 37.3929C125.548 37.2749 125.456 37.1262 125.387 36.9458C125.319 36.7659 125.285 36.5488 125.285 36.2941C125.285 35.7042 125.471 35.2821 125.845 35.0273C126.217 34.7728 126.773 34.6454 127.513 34.6454L127.728 34.664V34.5524C127.728 34.36 127.708 34.2062 127.667 34.0913C127.627 33.9766 127.571 33.8879 127.499 33.8258C127.428 33.7639 127.344 33.7234 127.247 33.7048C127.151 33.6862 127.044 33.6765 126.926 33.6765C126.714 33.6765 126.498 33.6999 126.278 33.7465C126.057 33.7932 125.885 33.8383 125.76 33.8813L125.621 33.0248C125.695 32.9998 125.787 32.9702 125.896 32.9363C126.004 32.9025 126.125 32.8711 126.259 32.8428C126.393 32.8151 126.534 32.7906 126.683 32.7684C126.833 32.7468 126.985 32.7358 127.14 32.7358C127.78 32.7358 128.246 32.8867 128.539 33.1878C128.831 33.489 128.977 33.9562 128.977 34.5893V37.626H127.821Z" fill="#6002FD"/>
<path d="M129.835 33.7977C129.803 33.6551 129.773 33.5152 129.742 33.3786C129.71 33.2421 129.679 33.1025 129.648 32.9593C129.716 32.9346 129.861 32.8915 130.082 32.8288C130.302 32.7672 130.596 32.7361 130.963 32.7361C131.187 32.7361 131.398 32.7575 131.597 32.8011C131.796 32.8446 131.968 32.9162 132.114 33.0153C132.26 33.1147 132.377 33.2405 132.464 33.3924C132.551 33.5447 132.594 33.7295 132.594 33.9465C132.594 34.1208 132.571 34.2714 132.525 34.3988C132.478 34.5261 132.417 34.6362 132.342 34.7292C132.268 34.8222 132.181 34.9002 132.082 34.9618C131.982 35.024 131.882 35.0737 131.783 35.1111C131.882 35.1236 131.987 35.1514 132.096 35.1949C132.204 35.2385 132.306 35.305 132.399 35.3949C132.492 35.4851 132.569 35.6003 132.632 35.7399C132.694 35.8795 132.725 36.0487 132.725 36.2474C132.725 36.5022 132.68 36.7239 132.59 36.9132C132.5 37.1027 132.375 37.2579 132.217 37.3789C132.058 37.5002 131.866 37.5901 131.639 37.6489C131.412 37.7081 131.165 37.7376 130.897 37.7376C130.699 37.7376 130.52 37.7236 130.361 37.6958C130.203 37.6681 130.065 37.6337 129.947 37.5932C129.828 37.5529 129.729 37.5126 129.648 37.4719C129.567 37.4319 129.505 37.4023 129.462 37.3837L129.714 36.5921C129.732 36.5982 129.769 36.6138 129.826 36.6388C129.881 36.6635 129.951 36.6882 130.035 36.7132C130.119 36.7379 130.214 36.7613 130.32 36.783C130.425 36.8049 130.54 36.8156 130.664 36.8156C130.901 36.8156 131.092 36.7631 131.238 36.6571C131.384 36.5516 131.457 36.3904 131.457 36.173C131.457 35.9554 131.392 35.8067 131.261 35.7259C131.131 35.6451 130.951 35.6046 130.72 35.6046C130.621 35.6046 130.517 35.6064 130.408 35.6095C130.299 35.6125 130.223 35.614 130.18 35.614V34.8036C130.217 34.8097 130.26 34.8097 130.31 34.8036C130.36 34.7975 130.419 34.7944 130.487 34.7944H130.725C130.821 34.7944 130.915 34.7789 131.005 34.7478C131.095 34.717 131.173 34.6579 131.238 34.571C131.303 34.4839 131.336 34.3504 131.336 34.1705C131.336 33.9904 131.27 33.8581 131.14 33.7746C131.01 33.6907 130.836 33.649 130.618 33.649C130.425 33.649 130.253 33.6704 130.1 33.7139C129.948 33.7572 129.859 33.7853 129.835 33.7977Z" fill="#6002FD"/>
<path d="M133.48 32.8385H134.729V34.6548H136.035V32.8385H137.284V37.6258H136.035V35.6049H134.729V37.6258H133.48V32.8385Z" fill="#6002FD"/>
<path d="M139.736 36.825C139.835 36.825 139.922 36.811 139.997 36.7827C140.071 36.7549 140.137 36.7193 140.193 36.6757C140.249 36.6327 140.296 36.5876 140.333 36.5409C140.37 36.4941 140.401 36.4556 140.426 36.4245V35.372H140.3C140.26 35.372 140.218 35.369 140.174 35.3626C139.82 35.3626 139.568 35.4186 139.419 35.5302C139.27 35.6421 139.195 35.8469 139.195 36.1453C139.195 36.3623 139.239 36.53 139.326 36.6479C139.412 36.7659 139.55 36.825 139.736 36.825ZM140.519 37.626C140.507 37.5389 140.496 37.452 140.487 37.3651C140.477 37.278 140.466 37.1914 140.454 37.1042C140.423 37.1353 140.379 37.185 140.323 37.2533C140.267 37.3216 140.193 37.3916 140.1 37.463C140.006 37.5343 139.89 37.598 139.75 37.6538C139.61 37.7096 139.447 37.7376 139.26 37.7376C139.087 37.7376 138.922 37.7096 138.766 37.6538C138.611 37.598 138.476 37.5111 138.361 37.3929C138.246 37.2749 138.154 37.1262 138.086 36.9458C138.017 36.7659 137.983 36.5488 137.983 36.2941C137.983 35.7042 138.17 35.2821 138.543 35.0273C138.915 34.7728 139.472 34.6454 140.211 34.6454L140.426 34.664V34.5524C140.426 34.36 140.406 34.2062 140.365 34.0913C140.325 33.9766 140.269 33.8879 140.197 33.8258C140.126 33.7639 140.042 33.7234 139.946 33.7048C139.849 33.6862 139.742 33.6765 139.624 33.6765C139.412 33.6765 139.197 33.6999 138.976 33.7465C138.756 33.7932 138.583 33.8383 138.459 33.8813L138.319 33.0248C138.393 32.9998 138.485 32.9702 138.594 32.9363C138.702 32.9025 138.824 32.8711 138.957 32.8428C139.091 32.8151 139.233 32.7906 139.382 32.7684C139.531 32.7468 139.683 32.7358 139.839 32.7358C140.479 32.7358 140.945 32.8867 141.237 33.1878C141.529 33.489 141.675 33.9562 141.675 34.5893V37.626H140.519Z" fill="#6002FD"/>
<path d="M144.855 32.8385H146.104V37.6258H144.855V35.7628C144.817 35.7881 144.764 35.8189 144.696 35.8563C144.628 35.8938 144.544 35.9295 144.444 35.9633C144.345 35.9977 144.228 36.0273 144.095 36.0517C143.961 36.0767 143.813 36.0889 143.652 36.0889C143.235 36.0889 142.928 35.9758 142.729 35.7491C142.53 35.5223 142.43 35.1389 142.43 34.5988V32.8385H143.689V34.0864C143.689 34.279 143.694 34.4405 143.703 34.571C143.712 34.7014 143.734 34.8069 143.768 34.8874C143.802 34.9684 143.852 35.027 143.917 35.0645C143.983 35.1019 144.074 35.1205 144.193 35.1205C144.236 35.1205 144.29 35.1157 144.356 35.1065C144.421 35.0971 144.486 35.0831 144.552 35.0645C144.617 35.0461 144.676 35.0258 144.729 35.0041C144.781 34.9822 144.823 34.9593 144.855 34.934V32.8385Z" fill="#6002FD"/>
<path d="M148.77 33.6301C148.689 33.6301 148.608 33.6518 148.528 33.6953C148.447 33.7389 148.376 33.8087 148.313 33.905C148.251 34.0013 148.2 34.1272 148.16 34.2821C148.119 34.4372 148.099 34.6268 148.099 34.8502H148.649C148.879 34.8502 149.121 34.8441 149.376 34.8316C149.376 34.596 149.361 34.4003 149.33 34.2449C149.298 34.0897 149.256 33.9672 149.204 33.877C149.151 33.787 149.087 33.7231 149.013 33.6861C148.938 33.6487 148.857 33.6301 148.77 33.6301ZM150.448 37.2813C150.411 37.306 150.349 37.3435 150.262 37.3929C150.175 37.4428 150.061 37.4943 149.922 37.5468C149.782 37.5995 149.619 37.6444 149.432 37.6818C149.246 37.719 149.038 37.7379 148.807 37.7379C148.534 37.7379 148.279 37.6925 148.043 37.6026C147.807 37.5126 147.6 37.3712 147.423 37.1789C147.246 36.9863 147.106 36.7412 147.003 36.4431C146.901 36.145 146.85 35.7847 146.85 35.3626C146.85 34.9154 146.901 34.5277 147.003 34.1985C147.106 33.8693 147.244 33.5962 147.418 33.3786C147.592 33.1613 147.796 33 148.029 32.8943C148.262 32.7886 148.512 32.7361 148.78 32.7361C149.047 32.7361 149.291 32.7779 149.511 32.8617C149.732 32.9455 149.922 33.079 150.08 33.2622C150.239 33.4456 150.363 33.6767 150.453 33.9562C150.543 34.2354 150.588 34.571 150.588 34.9621C150.588 35.13 150.58 35.2739 150.565 35.3952C150.549 35.5162 150.538 35.5896 150.532 35.614H148.099C148.105 36.0301 148.198 36.3297 148.379 36.5129C148.559 36.6958 148.783 36.7875 149.05 36.7875C149.298 36.7875 149.524 36.7458 149.726 36.6619C149.928 36.5781 150.085 36.5114 150.197 36.4614L150.448 37.2813Z" fill="#6002FD"/>
<path d="M151.334 32.8385H152.583V34.6548H153.889V32.8385H155.138V37.6258H153.889V35.6049H152.583V37.6258H151.334V32.8385Z" fill="#6002FD"/>
<path d="M159.949 32.8385V37.6258H158.746V35.3254C158.746 35.2385 158.751 35.1468 158.76 35.0505C158.77 34.9544 158.774 34.8813 158.774 34.8319H158.765L157.161 37.6258H156.108V32.8385H157.311V35.251C157.311 35.3254 157.306 35.4077 157.296 35.4976C157.287 35.5875 157.282 35.6576 157.282 35.7073C157.288 35.7073 157.292 35.7106 157.292 35.7167L158.914 32.8385H159.949Z" fill="#6002FD"/>
<path d="M162.625 35.0831H162.797C162.856 35.0831 162.92 35.08 162.988 35.0739V33.6023C162.939 33.6023 162.887 33.6005 162.835 33.5975C162.782 33.5944 162.731 33.5929 162.681 33.5929C162.444 33.5929 162.264 33.6535 162.14 33.7746C162.015 33.8956 161.953 34.0864 161.953 34.3473C161.953 34.6082 162.009 34.796 162.122 34.9109C162.233 35.0258 162.401 35.0831 162.625 35.0831ZM164.238 37.6258H162.988V35.8281C162.939 35.8344 162.887 35.8375 162.835 35.8375H162.681L161.925 37.6258H160.611L161.618 35.6884C161.369 35.6016 161.158 35.44 160.984 35.2041C160.81 34.9682 160.723 34.664 160.723 34.2913C160.723 33.7389 160.894 33.3493 161.236 33.1226C161.577 32.8961 162.062 32.7827 162.69 32.7827C163.026 32.7827 163.329 32.7952 163.599 32.8197C163.869 32.8449 164.082 32.8571 164.238 32.8571V37.6258Z" fill="#6002FD"/>
</svg>
