<svg width="162" height="48" viewBox="0 0 162 48" fill="none" xmlns="http://www.w3.org/2000/svg">
<path fill-rule="evenodd" clip-rule="evenodd" d="M64.6371 22.5028C64.1852 22.8729 63.6651 23.0557 63.076 23.0557H60.9507V18.2659H63.0484C63.748 18.2659 64.3002 18.4449 64.7052 18.8049C65.1102 19.1659 65.3127 19.7612 65.3127 20.5929C65.3127 21.4966 65.0872 22.1326 64.6371 22.5028ZM67.5089 16.0228C66.9649 15.5243 66.3114 15.1551 65.5474 14.916C64.7835 14.6742 63.9505 14.5542 63.0484 14.5542H56.9458V33.8271H60.9507V26.7951H63.2693C64.1898 26.7951 65.0182 26.6483 65.7555 26.352C66.4909 26.0548 67.1168 25.6422 67.6332 25.1068C68.1477 24.5714 68.5444 23.9243 68.8206 23.1683C69.0958 22.4114 69.2348 21.5714 69.2348 20.6483C69.2348 19.5932 69.0829 18.6859 68.7792 17.9197C68.4754 17.1526 68.0511 16.5203 67.5089 16.0228Z" fill="white"/>
<path fill-rule="evenodd" clip-rule="evenodd" d="M80.4726 28.0412C80.4726 28.6883 80.2655 29.1942 79.8513 29.5643C79.4371 29.9354 78.9446 30.1172 78.3749 30.1172C77.5823 30.1172 77.0163 29.8791 76.6757 29.3991C76.3351 28.9191 76.1648 28.3071 76.1648 27.5714V20.4249C76.1648 20.2052 76.2063 19.968 76.2891 19.7197C76.3729 19.4695 76.5008 19.2397 76.6757 19.0265C76.8506 18.816 77.0761 18.6397 77.3522 18.5003C77.6284 18.3628 77.9689 18.2935 78.3749 18.2935C78.7789 18.2935 79.1149 18.3729 79.3818 18.5289C79.6488 18.6858 79.866 18.8751 80.0308 19.0948C80.1964 19.3182 80.3115 19.5498 80.3759 19.788C80.4404 20.0299 80.4726 20.2431 80.4726 20.4249V28.0412ZM83.0139 16.368C82.5169 15.7865 81.8809 15.3157 81.1077 14.9575C80.3345 14.5966 79.4233 14.4175 78.3749 14.4175C77.251 14.4175 76.2983 14.6049 75.5159 14.9843C74.7326 15.3628 74.0938 15.8455 73.5968 16.4391C73.0997 17.0289 72.7408 17.6899 72.5198 18.4182C72.2989 19.1474 72.1885 19.872 72.1885 20.5929V27.4588C72.1885 28.3283 72.3035 29.1591 72.5336 29.952C72.7638 30.7468 73.1273 31.4419 73.6244 32.0428C74.1214 32.6437 74.7612 33.1182 75.5435 33.4699C76.3259 33.8206 77.2694 33.996 78.3749 33.996C79.276 33.996 80.1007 33.8511 80.8454 33.5659C81.5918 33.2806 82.2352 32.8634 82.7792 32.3206C83.3214 31.776 83.7448 31.1197 84.0495 30.3535C84.3532 29.5883 84.5051 28.7252 84.5051 27.7652V20.5929C84.5051 19.8351 84.3799 19.0883 84.1314 18.3489C83.8829 17.6114 83.511 16.9505 83.0139 16.368Z" fill="white"/>
<path fill-rule="evenodd" clip-rule="evenodd" d="M92.4846 19.7197C92.5582 19.4695 92.6778 19.2397 92.8435 19.0265C93.0092 18.816 93.2301 18.6397 93.5063 18.5003C93.7824 18.3628 94.123 18.2935 94.528 18.2935C94.9146 18.2935 95.2459 18.3665 95.5221 18.516C95.7982 18.6637 96.0283 18.8391 96.2124 19.0403C96.3965 19.2452 96.53 19.4695 96.6128 19.7197C96.6956 19.968 96.7545 20.1868 96.7923 20.3705L100.575 19.2351C100.446 18.6083 100.226 18.0018 99.9126 17.4203C99.5997 16.8397 99.1947 16.3255 98.6976 15.8825C98.2006 15.4394 97.6023 15.0868 96.9027 14.8191C96.2032 14.5505 95.4116 14.4175 94.528 14.4175C93.405 14.4175 92.4514 14.6049 91.6699 14.9843C90.8866 15.3628 90.2524 15.8455 89.7655 16.4391C89.2768 17.0289 88.9224 17.6899 88.7015 18.4182C88.4806 19.1474 88.3701 19.872 88.3701 20.5929V27.4588C88.3701 28.3283 88.4852 29.1591 88.7153 29.952C88.9454 30.7468 89.3044 31.4419 89.7922 32.0428C90.2801 32.6437 90.9152 33.1182 91.6976 33.4699C92.4799 33.8206 93.4234 33.996 94.528 33.996C96.0927 33.996 97.4182 33.5714 98.5043 32.7212C99.5905 31.872 100.272 30.7006 100.548 29.2052L96.7371 28.0957C96.6634 28.7252 96.4149 29.2172 95.9915 29.5772C95.5681 29.9382 95.0802 30.1172 94.528 30.1172C93.7364 30.1172 93.1786 29.8791 92.8573 29.3991C92.5352 28.9191 92.3741 28.3071 92.3741 27.5714V20.4249C92.3741 20.2052 92.4109 19.968 92.4846 19.7197Z" fill="white"/>
<path fill-rule="evenodd" clip-rule="evenodd" d="M108.059 19.7197C108.132 19.4695 108.251 19.2397 108.417 19.0265C108.583 18.816 108.804 18.6397 109.08 18.5003C109.356 18.3628 109.697 18.2935 110.102 18.2935C110.489 18.2935 110.82 18.3665 111.096 18.516C111.372 18.6637 111.602 18.8391 111.786 19.0403C111.97 19.2452 112.104 19.4695 112.187 19.7197C112.27 19.968 112.328 20.1868 112.366 20.3705L116.149 19.2351C116.02 18.6083 115.8 18.0018 115.487 17.4203C115.174 16.8397 114.769 16.3255 114.272 15.8825C113.774 15.4394 113.176 15.0868 112.477 14.8191C111.777 14.5505 110.986 14.4175 110.102 14.4175C108.979 14.4175 108.025 14.6049 107.244 14.9843C106.461 15.3628 105.826 15.8455 105.339 16.4391C104.851 17.0289 104.496 17.6899 104.275 18.4182C104.055 19.1474 103.944 19.872 103.944 20.5929V27.4588C103.944 28.3283 104.059 29.1591 104.289 29.952C104.519 30.7468 104.877 31.4419 105.366 32.0428C105.854 32.6437 106.488 33.1182 107.272 33.4699C108.054 33.8206 108.997 33.996 110.102 33.996C111.666 33.996 112.992 33.5714 114.078 32.7212C115.164 31.872 115.845 30.7006 116.122 29.2052L112.311 28.0957C112.237 28.7252 111.989 29.2172 111.565 29.5772C111.142 29.9382 110.654 30.1172 110.102 30.1172C109.31 30.1172 108.753 29.8791 108.431 29.3991C108.109 28.9191 107.948 28.3071 107.948 27.5714V20.4249C107.948 20.2052 107.984 19.968 108.059 19.7197Z" fill="white"/>
<path fill-rule="evenodd" clip-rule="evenodd" d="M119.959 33.8271H131.143V30.0351H123.964V25.9375H130.149V22.2526H123.964V18.2659H131.143V14.5542H119.959V33.8271Z" fill="white"/>
<path fill-rule="evenodd" clip-rule="evenodd" d="M133.352 18.2086H137.466V33.8271H141.443V18.2086H145.557V14.5542H133.352V18.2086Z" fill="white"/>
<path fill-rule="evenodd" clip-rule="evenodd" d="M158.341 14.5542L152.847 25.7437H152.792V14.5542H148.815V33.8271H152.571L157.928 23.3345H157.956V33.8271H161.96V14.5542H158.341Z" fill="white"/>
<path fill-rule="evenodd" clip-rule="evenodd" d="M26.753 12.1172L4.92162 10.9662C2.36184 14.7406 0.864258 19.2978 0.864258 24.2068C0.864258 25.5314 0.978394 26.8292 1.18826 28.0948L26.9352 12.9166C26.8376 12.6655 26.7833 12.3951 26.753 12.1172Z" fill="white"/>
<path fill-rule="evenodd" clip-rule="evenodd" d="M32.5251 13.5572L47.5792 27.8677C47.7642 26.6742 47.8627 25.452 47.8627 24.2068C47.8627 19.1502 46.2694 14.4692 43.5669 10.6311L33.0673 11.9031C33.0424 12.516 32.8464 13.0819 32.5251 13.5572Z" fill="white"/>
<path fill-rule="evenodd" clip-rule="evenodd" d="M27.5658 13.9283L1.83813 30.9222C3.59896 36.8705 7.63608 41.8348 12.9397 44.7997L28.0416 14.3548C27.8686 14.2292 27.7103 14.0852 27.5658 13.9283Z" fill="white"/>
<path fill-rule="evenodd" clip-rule="evenodd" d="M29.1056 14.8505L15.4221 46.0015C18.1789 47.1406 21.1971 47.7729 24.3643 47.7729C27.4644 47.7729 30.4209 47.1646 33.1307 46.0708L29.7297 14.9455C29.5152 14.9335 29.3072 14.9022 29.1056 14.8505Z" fill="white"/>
<path fill-rule="evenodd" clip-rule="evenodd" d="M30.9023 14.7822L35.7191 44.8394C41.0724 41.8698 45.1436 36.8668 46.9035 30.8695L31.6571 14.4203C31.4252 14.5745 31.1702 14.6917 30.9023 14.7822Z" fill="white"/>
<path fill-rule="evenodd" clip-rule="evenodd" d="M27.9036 9.30646L22.9856 0.682156C16.5875 1.05416 10.877 3.99046 6.86108 8.48493L26.8561 10.8868C27.0393 10.2545 27.4084 9.70985 27.9036 9.30646Z" fill="white"/>
<path fill-rule="evenodd" clip-rule="evenodd" d="M29.9673 8.58277C31.2633 8.60954 32.3587 9.41446 32.8281 10.5443L41.7998 8.40831C37.8123 3.984 32.1736 1.08923 25.8584 0.691387L29.1693 8.67877C29.427 8.61785 29.6912 8.57723 29.9673 8.58277Z" fill="white"/>
</svg>
