<svg width="179" height="50" viewBox="0 0 179 50" fill="none" xmlns="http://www.w3.org/2000/svg">
<path d="M8.34839 3.30961C8.34839 1.58435 9.52956 0.0272369 11.6386 0.0272369H22.4378C24.294 0.0272369 25.264 1.45781 25.264 2.93085C25.264 4.36184 24.3362 5.83445 22.4378 5.83445H14.6761V26.9602C14.6761 29.0646 13.3259 30.243 11.5122 30.243C9.69812 30.243 8.34839 29.0646 8.34839 26.9602V3.30961Z" fill="white"/>
<path d="M32.6467 7.60223H43.8675C45.6395 7.60223 46.905 8.94873 46.905 10.9687V26.8761C46.905 28.8961 45.6395 30.243 43.8675 30.243C42.096 30.243 40.8306 28.8961 40.8306 26.8761V12.9046H35.6841V19.1751C35.6841 26.5398 32.436 30.243 27.922 30.243C26.2347 30.243 25.2646 28.8961 25.2646 27.5496C25.2646 26.4553 25.9393 25.4455 27.1209 25.0668C28.3442 24.688 29.6097 23.4676 29.6097 19.8901V10.9687C29.6097 8.94873 30.8751 7.60223 32.6467 7.60223Z" fill="white"/>
<path d="M59.0975 25.4453C62.2611 25.4453 63.6957 23.8041 63.6957 20.9005V19.9323C60.0258 19.9323 55.4275 19.5536 55.4275 23.2572C55.4275 24.8984 57.2836 25.4453 59.0975 25.4453ZM58.0006 30.4954C53.1073 30.4954 49.606 28.0122 49.606 23.2572C49.606 16.2712 57.832 15.3875 63.4423 15.3875V13.7464C63.4423 12.568 62.4724 12.1472 60.7846 12.1472C57.2414 12.1472 56.6087 14.2092 55.0055 14.2092C53.1073 14.2092 52.3479 12.8627 52.3479 11.6423C52.3479 9.20114 57.1993 7.09712 60.7846 7.09712C66.3955 7.09712 69.5167 9.49585 69.5167 13.8725V27.0024C69.5167 28.7701 68.3355 30.2428 66.5641 30.2428C65.2565 30.2428 64.1596 29.906 63.6957 28.0122C62.641 29.6538 60.0258 30.4954 58.0006 30.4954Z" fill="white"/>
<path d="M78.7565 25.824H82.4689C84.1561 25.824 85.4215 24.8563 85.4215 23.0886C85.4215 21.6156 84.2825 20.6058 82.0893 20.6058H78.7565V25.824ZM78.7565 16.4818H81.2031C82.7639 16.4818 83.7343 15.5557 83.7343 13.9986C83.7343 12.526 82.5953 11.7684 81.2031 11.7684H78.7565V16.4818ZM72.7664 10.3795C72.7664 8.82236 74.1164 7.60197 75.6771 7.60197H83.8186C87.109 7.60197 89.7245 9.79051 89.7245 13.157C89.7245 15.3455 88.8386 16.8185 86.8134 17.7442V17.8283C89.5135 18.2071 91.623 20.4372 91.623 23.1727C91.623 27.5918 88.6276 29.9905 84.2825 29.9905H75.6771C74.1164 29.9905 72.7664 28.7277 72.7664 27.1705V10.3795Z" fill="white"/>
<path d="M119.549 30.2429C117.483 30.2429 116.597 29.0225 116.386 27.5495L114.825 16.4816H114.74L111.323 28.0964C111.07 28.9805 110.311 30.2429 108.16 30.2429C106.05 30.2429 105.291 29.0225 104.996 28.0964L101.621 16.4816H101.537L100.018 27.5495C99.8074 29.0225 98.9215 30.2429 96.8542 30.2429C95.2091 30.2429 93.9858 28.9385 93.9858 27.3393C93.9858 27.1287 93.9858 26.9605 94.028 26.7499L97.0655 10.0009C97.2762 8.78051 98.7948 7.34952 100.862 7.34952C102.802 7.34952 104.279 8.65439 104.659 9.83273L108.16 20.9007H108.244L111.703 9.83273C112.083 8.65439 113.559 7.34952 115.5 7.34952C117.609 7.34952 119.128 8.78051 119.338 10.0009L122.376 26.7499C122.418 26.9605 122.418 27.1287 122.418 27.3393C122.418 28.9385 121.237 30.2429 119.549 30.2429Z" fill="white"/>
<path d="M139.63 16.7764C139.293 14.125 137.606 12.1471 134.779 12.1471C132.079 12.1471 130.266 14.2095 129.97 16.7764H139.63ZM130.097 20.8163C130.519 23.8044 133.007 25.1929 135.834 25.1929C138.956 25.1929 141.107 22.7522 142.71 22.7522C144.018 22.7522 145.199 24.0566 145.199 25.3611C145.199 27.9704 139.799 30.4957 135.285 30.4957C128.452 30.4957 123.896 25.5297 123.896 18.8384C123.896 12.6944 128.367 7.0974 134.779 7.0974C141.36 7.0974 145.705 13.0732 145.705 18.1229C145.705 19.9327 144.903 20.8163 143.047 20.8163H130.097Z" fill="white"/>
<path d="M162.326 12.4838H157.137C157.011 17.1131 156.547 21.4473 155.577 25.0248H162.326V12.4838ZM168.401 36.387C166.629 36.387 165.363 35.0405 165.363 33.0204V29.9904H152.371V33.0204C152.371 35.0405 151.105 36.387 149.334 36.387C147.562 36.387 146.296 35.0405 146.296 33.0204V28.0545C146.296 26.0345 147.562 24.688 149.334 24.688H149.671C150.81 20.7322 151.189 16.187 151.189 10.9687C151.189 8.78062 152.455 7.60227 154.227 7.60227H165.026C166.797 7.60227 168.064 8.94877 168.064 10.9687V24.688H168.401C170.172 24.688 171.438 26.0345 171.438 28.0545V33.0204C171.438 35.0405 170.172 36.387 168.401 36.387Z" fill="white"/>
<path d="M12.111 40.6873H10.5353V47.0325H8.91317V40.6873H7.32593V39.3713H12.1225L12.111 40.6873Z" fill="white"/>
<path d="M15.5539 44.0401C15.5539 43.3414 15.4781 42.8389 15.3261 42.5325C15.1746 42.2258 14.9354 42.0726 14.6085 42.0726C14.282 42.0726 14.0428 42.2258 13.8909 42.5325C13.7393 42.8389 13.6636 43.3414 13.6636 44.0401C13.6636 44.7468 13.7393 45.2529 13.8909 45.5596C14.0428 45.8663 14.282 46.0195 14.6085 46.0195C14.9354 46.0195 15.1746 45.8663 15.3261 45.5596C15.4781 45.2529 15.5539 44.7468 15.5539 44.0401ZM17.1879 44.0401C17.1879 44.6067 17.1254 45.0879 17.0011 45.4841C16.8763 45.8796 16.7014 46.2038 16.4758 46.4561C16.2502 46.7083 15.9799 46.8908 15.665 47.0032C15.35 47.1159 14.9976 47.172 14.6085 47.172C14.2195 47.172 13.8658 47.1159 13.5465 47.0032C13.2277 46.8908 12.957 46.7083 12.7352 46.4561C12.5135 46.2038 12.3428 45.8796 12.2219 45.4841C12.1014 45.0879 12.041 44.6067 12.041 44.0401C12.041 43.4816 12.1014 43.0042 12.2219 42.608C12.3428 42.2121 12.5135 41.8882 12.7352 41.636C12.957 41.3838 13.2277 41.2013 13.5465 41.0886C13.8658 40.9765 14.2195 40.9201 14.6085 40.9201C14.9976 40.9201 15.35 40.9765 15.665 41.0886C15.9799 41.2013 16.2502 41.3838 16.4758 41.636C16.7014 41.8882 16.8763 42.2121 17.0011 42.608C17.1254 43.0042 17.1879 43.4816 17.1879 44.0401Z" fill="white"/>
<path d="M19.6271 44.4478V46.0545C19.7203 46.0621 19.8135 46.0682 19.9072 46.072C20.0004 46.0758 20.094 46.0774 20.1873 46.0774C20.7551 46.0774 21.039 45.779 21.039 45.1816C21.039 44.9331 20.9692 44.7484 20.8291 44.6281C20.6891 44.508 20.4908 44.4478 20.2341 44.4478H19.6271ZM20.1988 43.5628C20.2222 43.5628 20.2707 43.5567 20.3447 43.5453C20.4184 43.5338 20.4946 43.5029 20.5725 43.4523C20.6499 43.4019 20.7202 43.3204 20.7823 43.2077C20.8445 43.0953 20.8759 42.9344 20.8759 42.7246C20.8759 42.4838 20.8215 42.3115 20.7125 42.2064C20.6031 42.1016 20.4478 42.0418 20.2456 42.0261L19.6271 42.0494V43.5628H20.1988ZM20.2571 47.114C19.7825 47.114 19.3624 47.1003 18.9967 47.0733C18.6311 47.0459 18.3395 47.0325 18.1216 47.0325V41.0481C18.2148 41.0481 18.3353 41.0443 18.4834 41.0363C18.6311 41.0287 18.7928 41.021 18.9678 41.0134C19.1427 41.0058 19.3257 40.9975 19.516 40.9898C19.7067 40.9822 19.8914 40.9781 20.0706 40.9781C20.8951 40.9781 21.4902 41.0949 21.8562 41.3274C22.2218 41.5602 22.4044 41.9526 22.4044 42.5032C22.4044 42.6898 22.3755 42.8583 22.3172 43.0099C22.2589 43.1612 22.181 43.293 22.0835 43.4058C21.9861 43.5182 21.8775 43.6153 21.757 43.6965C21.6362 43.7781 21.5178 43.8459 21.4008 43.9003C21.5178 43.916 21.6459 43.9472 21.786 43.9937C21.926 44.0405 22.0584 44.116 22.1827 44.2204C22.3074 44.3255 22.4121 44.4672 22.4981 44.6456C22.5837 44.8242 22.6262 45.0494 22.6262 45.3207C22.6262 45.9109 22.4415 46.3574 22.072 46.6596C21.7021 46.9625 21.0977 47.114 20.2571 47.114Z" fill="white"/>
<path d="M25.4155 46.0313C25.5397 46.0313 25.6487 46.0137 25.7424 45.9784C25.8356 45.9437 25.9173 45.8991 25.9875 45.8446C26.0574 45.7908 26.1161 45.7344 26.1625 45.6762C26.2093 45.6176 26.248 45.5695 26.2791 45.5306V44.215H26.1216C26.071 44.215 26.0186 44.2112 25.9641 44.2032C25.5206 44.2032 25.2056 44.2733 25.0188 44.4128C24.8319 44.5526 24.7387 44.8086 24.7387 45.1816C24.7387 45.4529 24.7932 45.6625 24.9021 45.8099C25.0107 45.9574 25.1822 46.0313 25.4155 46.0313ZM26.3957 47.0325C26.3804 46.9236 26.3668 46.815 26.3553 46.7064C26.3434 46.5975 26.3298 46.4892 26.314 46.3803C26.2753 46.4192 26.2208 46.4813 26.151 46.5666C26.0808 46.652 25.9875 46.7395 25.8705 46.8287C25.7539 46.9179 25.6083 46.9975 25.4333 47.0672C25.258 47.137 25.0537 47.172 24.8204 47.172C24.6025 47.172 24.3961 47.137 24.2015 47.0672C24.007 46.9975 23.838 46.8889 23.6941 46.7411C23.5503 46.5937 23.4353 46.4077 23.3498 46.1822C23.2642 45.9574 23.2217 45.686 23.2217 45.3676C23.2217 44.6303 23.4549 44.1026 23.9219 43.7841C24.3884 43.466 25.0847 43.3067 26.0105 43.3067L26.2791 43.33V43.1905C26.2791 42.9501 26.254 42.7577 26.2033 42.6141C26.1527 42.4708 26.0824 42.3599 25.9931 42.2822C25.9037 42.2048 25.7986 42.1542 25.6781 42.1309C25.5572 42.1077 25.4231 42.0956 25.2754 42.0956C25.0107 42.0956 24.7404 42.1249 24.4646 42.1832C24.1883 42.2415 23.9721 42.2978 23.8167 42.3516L23.6418 41.2809C23.735 41.2497 23.8495 41.2128 23.9862 41.1704C24.1219 41.1281 24.2735 41.0889 24.4412 41.0536C24.6084 41.0188 24.7855 40.9883 24.972 40.9606C25.1588 40.9335 25.3495 40.9198 25.544 40.9198C26.3451 40.9198 26.9286 41.1083 27.2947 41.4848C27.6599 41.8612 27.8429 42.4453 27.8429 43.2367V47.0325H26.3957Z" fill="white"/>
<path d="M31.484 42.2472C31.3828 42.2472 31.2836 42.2704 31.1865 42.3172C31.0891 42.3634 30.9975 42.4217 30.9124 42.4917C30.8269 42.5615 30.7528 42.6354 30.6907 42.7131C30.6281 42.7908 30.5812 42.8564 30.5506 42.9109V45.8914C30.7681 45.9924 30.9975 46.0424 31.2389 46.0424C31.6356 46.0424 31.9293 45.8933 32.1204 45.5946C32.3107 45.2956 32.4064 44.7933 32.4064 44.0867C32.4064 43.3962 32.3281 42.9169 32.1728 42.6488C32.017 42.3809 31.7875 42.2472 31.484 42.2472ZM28.9749 41.0481H30.434L30.5038 41.8398H30.5272C30.5812 41.7621 30.6575 41.671 30.7549 41.5659C30.852 41.4612 30.9665 41.3605 31.0989 41.2634C31.2312 41.1666 31.3849 41.0851 31.5598 41.0188C31.7352 40.9529 31.9238 40.9201 32.1259 40.9201C32.3903 40.9201 32.6376 40.98 32.8674 41.1003C33.0964 41.2207 33.2969 41.4051 33.468 41.6535C33.6391 41.9019 33.7753 42.2182 33.8766 42.6023C33.9775 42.9863 34.0286 43.4386 34.0286 43.9589C34.0286 44.5099 33.9698 44.9873 33.8532 45.3908C33.7366 45.7946 33.5753 46.1284 33.3688 46.3921C33.1628 46.6561 32.9198 46.8519 32.6397 46.98C32.3596 47.108 32.0561 47.172 31.7292 47.172C31.3091 47.172 30.9124 47.0943 30.5387 46.9392V49.6984H28.9749V41.0481Z" fill="white"/>
<path d="M41.6145 47.0323H40.039V41.0482H41.6145V47.0323ZM37.1327 44.052C37.0003 44.052 36.8701 44.0616 36.742 44.0807C36.6134 44.1004 36.5415 44.1144 36.5258 44.1221V46.0195C36.6113 46.0272 36.699 46.0332 36.7884 46.037C36.8777 46.0409 36.9654 46.0431 37.051 46.0431C37.3234 46.0431 37.5375 45.9555 37.6929 45.781C37.8487 45.6061 37.9266 45.3444 37.9266 44.995C37.9266 44.638 37.8563 44.3915 37.7163 44.2558C37.5762 44.1198 37.3817 44.052 37.1327 44.052ZM36.5258 43.0854C36.5883 43.0778 36.7164 43.0526 36.9114 43.01C37.1055 42.9673 37.3272 42.9456 37.5762 42.9456C37.8333 42.9456 38.0781 42.9788 38.3117 43.0447C38.545 43.1109 38.7493 43.2195 38.9243 43.3708C39.0992 43.5224 39.2394 43.7259 39.3444 43.9823C39.4494 44.2383 39.5018 44.5526 39.5018 44.9249C39.5018 45.3135 39.4379 45.645 39.3096 45.9202C39.1809 46.1963 39.0039 46.4233 38.7783 46.6014C38.5527 46.78 38.2862 46.91 37.9789 46.9915C37.6716 47.073 37.3387 47.1138 36.9812 47.1138H36.5492C36.2069 47.1138 35.8919 47.1004 35.6038 47.073C35.316 47.0459 35.1024 47.0323 34.9619 47.0323V41.0482H36.5258V43.0854Z" fill="white"/>
<path d="M51.2426 47.0322H49.7952C49.7795 46.8774 49.7604 46.6366 49.7371 46.3105C49.7135 45.9844 49.6905 45.6354 49.6672 45.2628C49.6439 44.8901 49.6183 44.5252 49.5915 44.1682C49.5637 43.8115 49.5462 43.5239 49.5385 43.3067C49.5076 43.4229 49.4689 43.5745 49.422 43.7605C49.3751 43.9468 49.3208 44.1468 49.2586 44.3605C49.196 44.5736 49.1337 44.7949 49.0718 45.0242C49.0095 45.2532 48.9492 45.4685 48.8908 45.6701C48.8324 45.8723 48.78 46.0507 48.7334 46.2054C48.6868 46.3608 48.6517 46.4774 48.6281 46.5551H47.8817L47.6244 46.5315C47.6244 46.5392 47.6228 46.5436 47.619 46.5436C47.6148 46.5436 47.6129 46.5475 47.6129 46.5551C47.5896 46.4774 47.5548 46.3608 47.5079 46.2054C47.4616 46.0507 47.4108 45.8723 47.3562 45.6701C47.302 45.4685 47.2413 45.2532 47.1755 45.0242C47.1091 44.7949 47.0485 44.5736 46.9945 44.3605C46.9399 44.1468 46.8895 43.9468 46.8426 43.7605C46.7963 43.5745 46.7608 43.4229 46.7379 43.3067C46.7222 43.5239 46.7008 43.8115 46.6737 44.1682C46.6462 44.5252 46.6169 44.8901 46.5859 45.2628C46.5549 45.6354 46.5275 45.9844 46.5042 46.3105C46.4809 46.6366 46.4617 46.8774 46.4458 47.0322H45.022C45.1388 46.0309 45.2537 45.0357 45.3664 44.0459C45.4788 43.0564 45.5899 42.0608 45.6988 41.0596H47.0644C47.0954 41.1452 47.1385 41.279 47.1928 41.4612C47.2474 41.6436 47.3112 41.8513 47.3853 42.0841C47.4593 42.3172 47.535 42.5634 47.6129 42.8233C47.6905 43.0838 47.7648 43.3376 47.8348 43.586C47.9047 43.8344 47.9688 44.0615 48.0273 44.2672C48.0854 44.4729 48.1301 44.6379 48.1617 44.7618C48.1923 44.6379 48.2373 44.4729 48.2957 44.2672C48.3542 44.0615 48.4161 43.8366 48.4825 43.5921C48.5486 43.3475 48.6204 43.0933 48.6983 42.8293C48.7762 42.5653 48.8483 42.3172 48.9141 42.0841C48.9802 41.8513 49.0405 41.6436 49.0951 41.4612C49.1497 41.279 49.1925 41.1452 49.2238 41.0596H50.6124L51.2426 47.0322Z" fill="white"/>
<path d="M54.3353 42.0376C54.2338 42.0376 54.1326 42.0647 54.0317 42.1191C53.9305 42.1736 53.8411 42.2609 53.7632 42.3812C53.6857 42.5016 53.6215 42.6589 53.5707 42.8526C53.52 43.0465 53.4951 43.2835 53.4951 43.5628H54.1837C54.471 43.5628 54.7746 43.5551 55.0938 43.5395C55.0938 43.2449 55.074 43.0003 55.0354 42.8061C54.9961 42.6121 54.9438 42.4589 54.878 42.3462C54.8116 42.2338 54.7318 42.1538 54.6386 42.1077C54.5454 42.0609 54.4442 42.0376 54.3353 42.0376ZM56.4359 46.6016C56.3893 46.6325 56.3114 46.6793 56.2025 46.7411C56.0937 46.8035 55.9513 46.8679 55.7763 46.9335C55.6014 46.9994 55.3971 47.0554 55.164 47.1023C54.9304 47.1487 54.6699 47.1723 54.3816 47.1723C54.0394 47.1723 53.7205 47.1156 53.4249 47.0032C53.1292 46.8908 52.8707 46.714 52.6488 46.4736C52.4269 46.2328 52.252 45.9265 52.1237 45.5538C51.995 45.1812 51.9312 44.7309 51.9312 44.2032C51.9312 43.6443 51.995 43.1596 52.1237 42.7481C52.252 42.3367 52.425 41.9952 52.6427 41.7233C52.8608 41.4516 53.1158 41.25 53.4073 41.1179C53.6988 40.9857 54.0122 40.9201 54.3468 40.9201C54.6814 40.9201 54.9869 40.9723 55.263 41.0771C55.5388 41.1819 55.7763 41.3488 55.9749 41.5777C56.1732 41.807 56.3289 42.0959 56.4416 42.4452C56.5546 42.7943 56.6111 43.2137 56.6111 43.7026C56.6111 43.9124 56.6009 44.0924 56.5818 44.244C56.5623 44.3952 56.5486 44.487 56.5409 44.5175H53.4951C53.5027 45.0376 53.6193 45.4121 53.845 45.6411C54.0704 45.8698 54.3506 45.9844 54.6852 45.9844C54.9961 45.9844 55.2783 45.9322 55.5318 45.8274C55.784 45.7226 55.9807 45.6392 56.1208 45.5768L56.4359 46.6016Z" fill="white"/>
<path d="M59.5514 42.2007C59.5437 42.5501 59.5379 42.9014 59.5341 43.2542C59.5303 43.6074 59.5166 43.9434 59.4933 44.2619C59.4696 44.5797 59.4272 44.8727 59.3649 45.1402C59.3024 45.4084 59.2091 45.6354 59.0846 45.8214H60.8353V42.2007H59.5514ZM62.994 48.7323H61.6526V47.0326H58.4312V48.7323H57.1006V45.9262C57.3729 45.9262 57.5791 45.7768 57.7189 45.4784C57.8591 45.1794 57.9584 44.795 58.0171 44.3256C58.0752 43.8558 58.1081 43.3323 58.1158 42.7539C58.1237 42.1756 58.1352 41.6071 58.1512 41.0482H62.3641V45.8214H62.994V48.7323Z" fill="white"/>
<path d="M68.6084 41.0482V47.0323H67.1029V44.1568C67.1029 44.0482 67.1086 43.9335 67.1201 43.8132C67.1322 43.6931 67.1377 43.6017 67.1377 43.5399H67.1262L65.1188 47.0323H63.8V41.0482H65.3056V44.0638C65.3056 44.1568 65.2998 44.2596 65.2877 44.3721C65.2762 44.4845 65.2705 44.5721 65.2705 44.6342C65.2781 44.6342 65.2823 44.6383 65.2823 44.646L67.3129 41.0482H68.6084Z" fill="white"/>
<path d="M71.3971 45.81H72.9959V41.0482H74.5601V45.81H75.1903V48.9068H73.8367V47.0326H69.8335V41.0482H71.3971V45.81Z" fill="white"/>
<path d="M80.8039 41.0482V47.0323H79.2984V44.1568C79.2984 44.0482 79.3042 43.9335 79.3157 43.8132C79.3278 43.6931 79.3332 43.6017 79.3332 43.5399H79.3217L77.3144 47.0323H75.9956V41.0482H77.5011V44.0638C77.5011 44.1568 77.4954 44.2596 77.4832 44.3721C77.4718 44.4845 77.466 44.5721 77.466 44.6342C77.4737 44.6342 77.4778 44.6383 77.4778 44.646L79.5085 41.0482H80.8039Z" fill="white"/>
<path d="M82.0293 41.0482H83.5932V43.3186H85.2271V41.0482H86.791V47.0323H85.2271V44.5061H83.5932V47.0323H82.0293V41.0482Z" fill="white"/>
<path d="M91.8677 46.6366C91.8131 46.6599 91.7352 46.7007 91.6344 46.7589C91.5332 46.8169 91.4106 46.8774 91.2666 46.9392C91.1226 47.0013 90.9573 47.0558 90.7702 47.1023C90.5837 47.1491 90.3775 47.172 90.1518 47.172C89.3662 47.172 88.7651 46.9258 88.3488 46.4328C87.9325 45.9398 87.7244 45.1736 87.7244 44.1335C87.7244 43.0468 87.9402 42.2395 88.3721 41.7118C88.8037 41.1838 89.432 40.9201 90.2569 40.9201C90.5837 40.9201 90.8717 40.9513 91.1207 41.0131C91.3697 41.0752 91.5485 41.1258 91.6573 41.1644L91.4706 42.3172C91.393 42.2863 91.2605 42.2472 91.0738 42.2003C90.8873 42.1542 90.6885 42.1309 90.4787 42.1309C90.0896 42.1309 89.8035 42.2841 89.6209 42.5908C89.438 42.8972 89.347 43.3921 89.347 44.0752C89.347 44.7659 89.4418 45.251 89.6324 45.5303C89.8233 45.8099 90.0896 45.9494 90.4318 45.9494C90.6731 45.9494 90.8912 45.9048 91.0856 45.8156C91.2803 45.7265 91.4201 45.6663 91.5057 45.6354L91.8677 46.6366Z" fill="white"/>
<path d="M92.4861 41.0482H94.05V43.6444L95.567 41.0482H97.3292L95.4036 43.7144L97.5393 47.0323H95.6606L94.05 44.1797V47.0323H92.4861V41.0482Z" fill="white"/>
<path d="M101.041 44.0401C101.041 43.3414 100.965 42.8389 100.813 42.5325C100.661 42.2258 100.422 42.0726 100.095 42.0726C99.7689 42.0726 99.5298 42.2258 99.3778 42.5325C99.2262 42.8389 99.1505 43.3414 99.1505 44.0401C99.1505 44.7468 99.2262 45.2529 99.3778 45.5596C99.5298 45.8663 99.7689 46.0195 100.095 46.0195C100.422 46.0195 100.661 45.8663 100.813 45.5596C100.965 45.2529 101.041 44.7468 101.041 44.0401ZM102.675 44.0401C102.675 44.6067 102.612 45.0879 102.488 45.4841C102.363 45.8796 102.188 46.2038 101.963 46.4561C101.737 46.7083 101.467 46.8908 101.152 47.0032C100.837 47.1159 100.484 47.172 100.095 47.172C99.7063 47.172 99.3526 47.1159 99.0333 47.0032C98.7144 46.8908 98.4437 46.7083 98.2222 46.4561C98.0003 46.2038 97.8295 45.8796 97.7088 45.4841C97.5882 45.0879 97.5278 44.6067 97.5278 44.0401C97.5278 43.4816 97.5882 43.0042 97.7088 42.608C97.8295 42.2121 98.0003 41.8882 98.2222 41.636C98.4437 41.3838 98.7144 41.2013 99.0333 41.0886C99.3526 40.9765 99.7063 40.9201 100.095 40.9201C100.484 40.9201 100.837 40.9765 101.152 41.0886C101.467 41.2013 101.737 41.3838 101.963 41.636C102.188 41.8882 102.363 42.2121 102.488 42.608C102.612 43.0042 102.675 43.4816 102.675 44.0401Z" fill="white"/>
<path d="M106.713 42.294H105.172V47.0323H103.608V41.0482H106.724L106.713 42.294Z" fill="white"/>
<path d="M110.704 44.0401C110.704 43.3414 110.628 42.8389 110.476 42.5325C110.324 42.2258 110.085 42.0726 109.758 42.0726C109.432 42.0726 109.193 42.2258 109.041 42.5325C108.889 42.8389 108.813 43.3414 108.813 44.0401C108.813 44.7468 108.889 45.2529 109.041 45.5596C109.193 45.8663 109.432 46.0195 109.758 46.0195C110.085 46.0195 110.324 45.8663 110.476 45.5596C110.628 45.2529 110.704 44.7468 110.704 44.0401ZM112.338 44.0401C112.338 44.6067 112.275 45.0879 112.151 45.4841C112.026 45.8796 111.851 46.2038 111.625 46.4561C111.4 46.7083 111.13 46.8908 110.815 47.0032C110.5 47.1159 110.147 47.172 109.758 47.172C109.369 47.172 109.015 47.1159 108.696 47.0032C108.378 46.8908 108.107 46.7083 107.885 46.4561C107.663 46.2038 107.493 45.8796 107.372 45.4841C107.251 45.0879 107.191 44.6067 107.191 44.0401C107.191 43.4816 107.251 43.0042 107.372 42.608C107.493 42.2121 107.663 41.8882 107.885 41.636C108.107 41.3838 108.378 41.2013 108.696 41.0886C109.015 40.9765 109.369 40.9201 109.758 40.9201C110.147 40.9201 110.5 40.9765 110.815 41.0886C111.13 41.2013 111.4 41.3838 111.625 41.636C111.851 41.8882 112.026 42.2121 112.151 42.608C112.275 43.0042 112.338 43.4816 112.338 44.0401Z" fill="white"/>
<path d="M115.722 41.0482H117.286V43.3186H118.92V41.0482H120.484V47.0323H118.92V44.5061H117.286V47.0323H115.722V41.0482Z" fill="white"/>
<path d="M123.553 46.0313C123.677 46.0313 123.786 46.0137 123.88 45.9784C123.973 45.9437 124.055 45.8991 124.125 45.8446C124.195 45.7908 124.254 45.7344 124.3 45.6762C124.347 45.6176 124.385 45.5695 124.417 45.5306V44.215H124.259C124.209 44.215 124.156 44.2112 124.102 44.2032C123.658 44.2032 123.343 44.2733 123.156 44.4128C122.969 44.5526 122.876 44.8086 122.876 45.1816C122.876 45.4529 122.931 45.6625 123.04 45.8099C123.148 45.9574 123.32 46.0313 123.553 46.0313ZM124.533 47.0325C124.518 46.9236 124.504 46.815 124.493 46.7064C124.481 46.5975 124.467 46.4892 124.452 46.3803C124.413 46.4192 124.358 46.4813 124.288 46.5666C124.218 46.652 124.125 46.7395 124.008 46.8287C123.891 46.9179 123.746 46.9975 123.571 47.0672C123.396 47.137 123.191 47.172 122.958 47.172C122.74 47.172 122.534 47.137 122.339 47.0672C122.144 46.9975 121.976 46.8889 121.832 46.7411C121.688 46.5937 121.573 46.4077 121.487 46.1822C121.402 45.9574 121.359 45.686 121.359 45.3676C121.359 44.6303 121.592 44.1026 122.06 43.7841C122.526 43.466 123.222 43.3067 124.148 43.3067L124.417 43.33V43.1905C124.417 42.9501 124.392 42.7577 124.341 42.6141C124.29 42.4708 124.22 42.3599 124.131 42.2822C124.041 42.2048 123.936 42.1542 123.816 42.1309C123.695 42.1077 123.561 42.0956 123.413 42.0956C123.148 42.0956 122.878 42.1249 122.602 42.1832C122.326 42.2415 122.11 42.2978 121.954 42.3516L121.779 41.2809C121.872 41.2497 121.987 41.2128 122.124 41.1704C122.259 41.1281 122.411 41.0889 122.579 41.0536C122.746 41.0188 122.923 40.9883 123.11 40.9606C123.296 40.9335 123.487 40.9198 123.682 40.9198C124.483 40.9198 125.066 41.1083 125.432 41.4848C125.797 41.8612 125.98 42.4453 125.98 43.2367V47.0325H124.533Z" fill="white"/>
<path d="M127.054 42.2472C127.015 42.0688 126.976 41.894 126.938 41.7233C126.898 41.5526 126.86 41.3781 126.821 41.1991C126.906 41.1682 127.087 41.1144 127.364 41.036C127.639 40.9589 128.007 40.9201 128.466 40.9201C128.746 40.9201 129.011 40.9468 129.26 41.0013C129.509 41.0558 129.725 41.1453 129.908 41.2691C130.09 41.3933 130.236 41.5507 130.345 41.7405C130.454 41.9309 130.509 42.1618 130.509 42.4331C130.509 42.651 130.479 42.8392 130.421 42.9984C130.363 43.1577 130.287 43.2952 130.193 43.4115C130.1 43.5277 129.991 43.6252 129.867 43.7023C129.742 43.78 129.617 43.8421 129.493 43.8889C129.617 43.9045 129.748 43.9392 129.884 43.9937C130.02 44.0481 130.147 44.1312 130.263 44.2437C130.38 44.3564 130.477 44.5003 130.556 44.6749C130.633 44.8494 130.672 45.0608 130.672 45.3093C130.672 45.6277 130.616 45.9048 130.503 46.1414C130.39 46.3784 130.234 46.5723 130.036 46.7236C129.838 46.8752 129.596 46.9876 129.312 47.0612C129.028 47.1351 128.719 47.172 128.384 47.172C128.136 47.172 127.912 47.1545 127.713 47.1198C127.515 47.0851 127.342 47.0421 127.194 46.9914C127.046 46.9411 126.922 46.8908 126.821 46.8398C126.72 46.7898 126.642 46.7529 126.587 46.7296L126.903 45.7401C126.926 45.7478 126.972 45.7672 127.043 45.7984C127.113 45.8293 127.2 45.8602 127.305 45.8914C127.41 45.9223 127.529 45.9516 127.661 45.9787C127.793 46.0061 127.937 46.0195 128.093 46.0195C128.389 46.0195 128.628 45.9538 128.81 45.8214C128.994 45.6895 129.085 45.4879 129.085 45.2163C129.085 44.9443 129.003 44.7583 128.84 44.6573C128.676 44.5564 128.451 44.5058 128.163 44.5058C128.038 44.5058 127.908 44.508 127.772 44.5118C127.636 44.5156 127.54 44.5175 127.486 44.5175V43.5045C127.533 43.5121 127.587 43.5121 127.649 43.5045C127.712 43.4968 127.786 43.493 127.871 43.493H128.169C128.289 43.493 128.406 43.4736 128.519 43.4347C128.632 43.3962 128.729 43.3223 128.81 43.2137C128.892 43.1048 128.933 42.9379 128.933 42.7131C128.933 42.4879 128.851 42.3226 128.688 42.2182C128.525 42.1134 128.307 42.0612 128.035 42.0612C127.793 42.0612 127.577 42.0879 127.387 42.1424C127.196 42.1965 127.085 42.2316 127.054 42.2472Z" fill="white"/>
<path d="M131.617 41.0482H133.181V43.3186H134.815V41.0482H136.379V47.0323H134.815V44.5061H133.181V47.0323H131.617V41.0482Z" fill="white"/>
<path d="M139.448 46.0313C139.572 46.0313 139.681 46.0137 139.775 45.9784C139.868 45.9437 139.95 45.8991 140.02 45.8446C140.09 45.7908 140.149 45.7344 140.195 45.6762C140.242 45.6176 140.281 45.5695 140.312 45.5306V44.215H140.154C140.104 44.215 140.051 44.2112 139.997 44.2032C139.553 44.2032 139.238 44.2733 139.051 44.4128C138.864 44.5526 138.771 44.8086 138.771 45.1816C138.771 45.4529 138.826 45.6625 138.935 45.8099C139.043 45.9574 139.215 46.0313 139.448 46.0313ZM140.428 47.0325C140.413 46.9236 140.399 46.815 140.388 46.7064C140.376 46.5975 140.362 46.4892 140.347 46.3803C140.308 46.4192 140.253 46.4813 140.183 46.5666C140.113 46.652 140.02 46.7395 139.903 46.8287C139.786 46.9179 139.641 46.9975 139.466 47.0672C139.291 47.137 139.086 47.172 138.853 47.172C138.635 47.172 138.429 47.137 138.234 47.0672C138.039 46.9975 137.871 46.8889 137.727 46.7411C137.583 46.5937 137.468 46.4077 137.382 46.1822C137.297 45.9574 137.254 45.686 137.254 45.3676C137.254 44.6303 137.488 44.1026 137.955 43.7841C138.421 43.466 139.117 43.3067 140.043 43.3067L140.312 43.33V43.1905C140.312 42.9501 140.287 42.7577 140.236 42.6141C140.185 42.4708 140.115 42.3599 140.026 42.2822C139.936 42.2048 139.831 42.1542 139.711 42.1309C139.59 42.1077 139.456 42.0956 139.308 42.0956C139.043 42.0956 138.773 42.1249 138.497 42.1832C138.221 42.2415 138.005 42.2978 137.849 42.3516L137.674 41.2809C137.767 41.2497 137.882 41.2128 138.019 41.1704C138.154 41.1281 138.306 41.0889 138.474 41.0536C138.641 41.0188 138.818 40.9883 139.005 40.9606C139.191 40.9335 139.382 40.9198 139.577 40.9198C140.378 40.9198 140.961 41.1083 141.327 41.4848C141.693 41.8612 141.875 42.4453 141.875 43.2367V47.0325H140.428Z" fill="white"/>
<path d="M145.855 41.0482H147.419V47.0323H145.855V44.7036C145.808 44.7351 145.742 44.7737 145.657 44.8205C145.571 44.8673 145.466 44.9119 145.341 44.9542C145.217 44.9972 145.071 45.0342 144.904 45.0647C144.737 45.096 144.552 45.1112 144.35 45.1112C143.828 45.1112 143.443 44.9698 143.194 44.6864C142.945 44.403 142.821 43.9237 142.821 43.2485V41.0482H144.396V42.6081C144.396 42.8488 144.402 43.0507 144.414 43.2138C144.425 43.3768 144.452 43.5087 144.496 43.6093C144.538 43.7106 144.6 43.7839 144.682 43.8307C144.764 43.8775 144.879 43.9007 145.026 43.9007C145.081 43.9007 145.149 43.8947 145.231 43.8832C145.312 43.8714 145.394 43.8539 145.476 43.8307C145.558 43.8077 145.631 43.7823 145.697 43.7552C145.764 43.7278 145.816 43.6991 145.855 43.6676V41.0482Z" fill="white"/>
<path d="M150.757 42.0376C150.655 42.0376 150.554 42.0647 150.453 42.1191C150.352 42.1736 150.263 42.2609 150.185 42.3812C150.107 42.5016 150.043 42.6589 149.992 42.8526C149.942 43.0465 149.917 43.2835 149.917 43.5628H150.605C150.893 43.5628 151.196 43.5551 151.515 43.5395C151.515 43.2449 151.496 43.0003 151.457 42.8061C151.418 42.6121 151.365 42.4589 151.3 42.3462C151.233 42.2338 151.153 42.1538 151.06 42.1077C150.967 42.0609 150.866 42.0376 150.757 42.0376ZM152.858 46.6016C152.811 46.6325 152.733 46.6793 152.624 46.7411C152.515 46.8035 152.373 46.8679 152.198 46.9335C152.023 46.9994 151.819 47.0554 151.586 47.1023C151.352 47.1487 151.092 47.1723 150.803 47.1723C150.461 47.1723 150.142 47.1156 149.846 47.0032C149.551 46.8908 149.292 46.714 149.07 46.4736C148.849 46.2328 148.674 45.9265 148.545 45.5538C148.417 45.1812 148.353 44.7309 148.353 44.2032C148.353 43.6443 148.417 43.1596 148.545 42.7481C148.674 42.3367 148.847 41.9952 149.064 41.7233C149.282 41.4516 149.537 41.25 149.829 41.1179C150.12 40.9857 150.434 40.9201 150.768 40.9201C151.103 40.9201 151.408 40.9723 151.685 41.0771C151.96 41.1819 152.198 41.3488 152.397 41.5777C152.595 41.807 152.751 42.0959 152.863 42.4452C152.976 42.7943 153.033 43.2137 153.033 43.7026C153.033 43.9124 153.023 44.0924 153.003 44.244C152.984 44.3952 152.97 44.487 152.963 44.5175H149.917C149.924 45.0376 150.041 45.4121 150.267 45.6411C150.492 45.8698 150.772 45.9844 151.107 45.9844C151.418 45.9844 151.7 45.9322 151.953 45.8274C152.206 45.7226 152.402 45.6392 152.542 45.5768L152.858 46.6016Z" fill="white"/>
<path d="M153.966 41.0482H155.53V43.3186H157.164V41.0482H158.728V47.0323H157.164V44.5061H155.53V47.0323H153.966V41.0482Z" fill="white"/>
<path d="M164.75 41.0482V47.0323H163.244V44.1568C163.244 44.0482 163.25 43.9335 163.262 43.8132C163.274 43.6931 163.279 43.6017 163.279 43.5399H163.267L161.26 47.0323H159.942V41.0482H161.447V44.0638C161.447 44.1568 161.441 44.2596 161.429 44.3721C161.418 44.4845 161.412 44.5721 161.412 44.6342C161.419 44.6342 161.424 44.6383 161.424 44.646L163.455 41.0482H164.75Z" fill="white"/>
<path d="M168.099 43.8539H168.315C168.389 43.8539 168.468 43.85 168.554 43.8424V42.0029C168.492 42.0029 168.428 42.0007 168.362 41.9969C168.295 41.993 168.232 41.9911 168.169 41.9911C167.873 41.9911 167.647 42.0669 167.492 42.2182C167.336 42.3695 167.259 42.608 167.259 42.9341C167.259 43.2602 167.329 43.495 167.469 43.6386C167.609 43.7822 167.819 43.8539 168.099 43.8539ZM170.118 47.0322H168.554V44.7851C168.492 44.793 168.428 44.7969 168.362 44.7969H168.169L167.223 47.0322H165.578L166.839 44.6106C166.527 44.502 166.263 44.3001 166.045 44.0051C165.827 43.7102 165.719 43.33 165.719 42.8641C165.719 42.1736 165.932 41.6867 166.36 41.4032C166.788 41.1201 167.395 40.9784 168.181 40.9784C168.601 40.9784 168.98 40.994 169.319 41.0246C169.657 41.0561 169.924 41.0714 170.118 41.0714V47.0322Z" fill="white"/>
</svg>
