<svg width="64" height="64" viewBox="0 0 64 64" fill="none" xmlns="http://www.w3.org/2000/svg">
<rect width="64" height="64" rx="12" fill="white"/>
<path d="M19.9121 10.8462C14.9051 10.8462 10.8462 14.9051 10.8462 19.9121V33.4128H16.615C18.4686 33.4128 20.2556 32.7223 21.6275 31.4759L34.9654 19.3582L35.0046 19.3131C37.2508 16.7247 41.1359 16.4729 43.6884 18.7452C45.0287 19.9383 45.6111 21.148 45.6579 22.3011C45.7048 23.455 45.2232 24.7427 44.0493 26.1072L37.6187 32.2959C36.7462 33.1356 35.3613 33.1195 34.5085 32.2597L32.0382 29.769C30.459 28.1769 27.912 28.0935 26.232 29.5788L19.1517 35.8387L19.108 35.889C17.675 37.5404 16.8564 39.4697 16.8559 41.4147C16.8555 43.3788 17.691 45.2584 19.3774 46.7597C22.7538 49.7653 27.8906 49.4446 30.8773 46.0589L43.6192 34.7794C44.6139 33.8989 45.8963 33.4128 47.2247 33.4128H51.1392V44.088C51.1392 47.9823 47.9823 51.1392 44.0879 51.1392H19.9121C16.0178 51.1392 12.8608 47.9823 12.8608 44.088V36.5493H10.8462V44.088C10.8462 49.0949 14.9051 53.1539 19.9121 53.1539H44.0879C49.0949 53.1539 53.1539 49.0949 53.1539 44.088V31.3982H47.2247C45.4043 31.3982 43.6469 32.0643 42.2838 33.2709L29.4443 44.6369L29.4008 44.687C27.1546 47.2753 23.2695 47.5272 20.717 45.2549C19.4305 44.1096 18.8703 42.7657 18.8706 41.4152C18.8709 40.0622 19.4357 38.6048 20.5872 37.2586L27.5664 31.0881C28.4464 30.3101 29.7806 30.3538 30.6078 31.1878L33.0781 33.6785C34.7061 35.3198 37.35 35.3505 39.0157 33.7475L45.5123 27.4954L45.542 27.4612C46.9601 25.827 47.7452 24.0455 47.6709 22.2193C47.5963 20.3826 46.6607 18.6939 45.028 17.2404C41.6499 14.2333 36.5097 14.5558 33.5236 17.9462L20.2728 29.9847C19.2717 30.8943 17.9676 31.3982 16.615 31.3982H12.8608V19.9121C12.8608 16.0178 16.0178 12.8608 19.9121 12.8608H44.0879C47.9823 12.8608 51.1392 16.0178 51.1392 19.9121V28.3173H53.1539V19.9121C53.1539 14.9051 49.0949 10.8462 44.0879 10.8462H19.9121Z" fill="#6002FD"/>
</svg>
