<svg width="174" height="40" viewBox="0 0 174 40" fill="none" xmlns="http://www.w3.org/2000/svg">
<g clip-path="url(#clip0)">
<path d="M162.239 11.4855H165.863L165.841 17.39H166.628L168.696 11.4855H172.617L169.803 19.2873L173.022 27.9219H168.78L166.693 21.3128H165.841L165.863 27.9219H162.239V11.4855ZM150.032 11.4855H153.633V17.4137H156.211V11.4864H159.81V27.9219H156.211V21.3346H153.633V27.9219H150.031L150.032 11.4855ZM137.481 27.9437H141.231L141.68 25.1019H144.255L144.704 27.9437H148.453L145.3 11.51H140.654L137.481 27.9437ZM142.977 16.4864L143.659 21.4882H142.273L142.976 16.4864H142.977ZM127.422 27.9219H131.811C132.769 27.9219 136.755 27.5019 136.775 22.5219C136.775 18.3419 133.687 17.6128 131.684 17.6128H131.023V15.4309H135.903V11.4864H127.422V27.9228V27.9219ZM131.023 24.6164V20.8946H131.556C132.002 20.8946 133.155 20.9155 133.155 22.6128C133.155 24.3328 132.002 24.6164 131.556 24.6164H131.024H131.023ZM113.125 11.4855H116.258L119.024 15.3637L121.819 11.4855H124.929V27.9219H121.24V17.8973L119.024 20.7609L116.81 17.8973V27.9219H113.125V11.4855ZM105.516 28.121C109.885 28.121 111.353 23.8891 111.353 19.6828C111.353 15.4764 109.885 11.2446 105.516 11.2446C101.148 11.2446 99.6794 15.4764 99.6794 19.6828C99.6794 23.8891 101.148 28.121 105.516 28.121ZM105.516 24.1319C104.214 24.1319 103.557 22.57 103.557 19.6828C103.557 16.7955 104.214 15.2319 105.516 15.2319C106.818 15.2319 107.475 16.7955 107.475 19.6828C107.475 22.57 106.817 24.1319 105.516 24.1319ZM89.0012 27.9219H92.6882V22.5037H93.9254C97.5674 22.5037 98.6982 19.1091 98.6982 16.9473C98.6982 14.8337 97.3962 11.4855 93.9254 11.4855H89.0012V27.9219ZM92.6882 15.0991H93.5622C94.393 15.0991 94.9264 15.6282 94.9264 16.9937C94.9264 18.7573 94.0299 18.8864 93.5622 18.8864H92.6882V15.1V15.0991ZM76.8344 11.4855H86.8918V27.9219H83.2048V15.4519H80.5206V27.9219H76.8344V11.4855ZM69.2693 17.8546C69.8649 17.8546 70.9533 17.4573 70.9533 16.2455C70.9533 14.8155 69.6964 14.7246 69.3323 14.7246C68.907 14.7246 68.0979 14.7928 67.3086 15.1891L67.2672 11.6173C68.5232 11.2882 69.4188 11.1991 70.483 11.1991C73.5105 11.1991 74.853 13.3819 74.853 15.5173C74.853 17.59 73.7015 18.8428 72.5734 19.3282V19.4828C73.66 19.8382 75.108 20.9146 75.108 23.4273C75.108 26.5355 73.0212 28.2519 70.3352 28.2519C68.907 28.2319 67.9691 28.0337 66.8392 27.3946L66.9049 23.9773C67.9483 24.4419 68.6512 24.4846 69.3558 24.4846C70.5487 24.4846 71.0164 23.58 71.0164 22.9219C71.0164 21.9946 70.4415 21.3791 69.1846 21.3791H67.6924V17.8546H69.2693ZM54.7814 27.9219H58.509L58.9785 25.0782H61.5573L62.0042 27.9219H65.7318L62.5781 11.4855H57.9333L54.7814 27.9219ZM60.2562 16.4437L60.959 21.4673H59.5524L60.2553 16.4437H60.2562ZM47.6434 11.4855H55.2049V15.5828H51.3917V27.9219H47.6434V11.4855Z" fill="#6002FD"/>
<path d="M1.60194 19.89C1.60194 30.0037 9.57616 38.2364 19.3777 38.2364C29.1603 38.2364 37.1291 30 37.1291 19.89C37.1291 9.76002 29.1639 1.52184 19.3777 1.52184C9.57165 1.52184 1.60194 9.75729 1.60194 19.89ZM0.666656 19.89C0.666656 9.22275 9.05626 0.554565 19.3777 0.554565C29.6766 0.554565 38.0644 9.22184 38.0644 19.8891C38.0644 30.5346 29.6757 39.2018 19.3768 39.2018C9.05716 39.2028 0.666656 30.5346 0.666656 19.8909V19.89Z" fill="#6002FD"/>
<path d="M13.7984 7.68181C13.1516 7.97456 12.537 8.33502 11.9648 8.75727C16.4168 6.70818 21.8528 6.84181 24.7695 8.18636C25.6867 8.62636 26.3031 8.89363 26.5824 9.41909C23.5549 8.5809 22.2547 8.42909 19.7209 8.49363C16.1168 8.5609 11.3232 10.0345 9.49052 11.1609L8.68499 12.1973C11.3232 10.5845 16.2465 9.5309 18.9758 9.44181C22.0231 9.39909 24.3865 9.68545 26.5617 10.5C26.4319 11.0718 26.1553 11.3582 25.6867 11.6464C16.9926 10.0809 11.8558 11.93 7.21179 15.0582L6.8721 16.0927C12.0504 12.4164 18.3982 11.4045 24.5154 12.5045C22.3214 13.2982 19.7002 13.4736 17.5053 13.9991C15.6311 14.4409 14.6292 14.5745 12.1333 15.4354C9.60135 16.2945 8.10562 17.1745 7.17034 18.2991C6.72252 18.83 6.38103 19.4445 6.29453 20.1036C6.25488 20.4982 6.27561 20.8545 6.40446 21.2073C6.50717 21.5164 6.74235 21.8236 6.99914 22.1318C6.7018 22.6591 6.4432 23.3454 6.8721 24.1382C7.06312 24.5109 7.55328 24.8854 8.02453 25.2409L7.89207 25.6336C7.829 26.0991 7.76593 26.6482 8.06508 27.11C8.57416 27.9473 9.19228 28.5 10.1735 29.0282C10.3231 29.7118 10.5556 30.2609 11.0673 30.7482C12.154 31.7818 14.585 33.7645 18.9091 34.0736C22.1493 34.2954 24.4712 33.2809 25.3462 32.8391L26.4112 32.2682C24.6001 33.0154 21.5546 33.4564 19.0587 33.2364C15.4365 32.9273 12.2 30.4827 11.7945 29.7773C11.9206 29.8636 12.0918 29.9309 12.2387 29.9973C16.4808 32.1118 21.9564 33.2591 28.9674 30.3064L29.5459 29.7336C23.171 31.7818 17.5909 31.7164 11.6008 28.4791C11.6665 28.17 11.7945 27.9018 12.0693 27.6864C13.602 28.3864 15.0743 28.9636 16.8646 29.3355C18.9533 29.7336 21.3383 29.8227 23.3008 29.7336C25.2831 29.6455 29.2026 28.6318 31.057 27.6191C31.2263 27.4645 31.311 27.2027 31.4813 27.0245C27.8619 28.3864 23.5549 29.0282 20.9572 28.8282C18.4207 28.6318 16.1636 28.3218 13.1794 26.9127C13.7534 26.6718 14.3507 26.4727 14.9463 26.2945C16.907 26.9127 18.9091 27.2854 21.2743 27.3973C23.6207 27.5064 29.0954 26.6064 32.5464 24.4482C32.6554 24.1391 32.7608 23.8064 32.7608 23.8064C32.7608 23.8064 27.9664 26.4518 22.534 26.4518C19.9976 26.4518 18.4424 26.0764 17.2926 25.79C19.848 25.3054 23.0665 24.9082 26.6869 23.9618C28.5187 23.4754 30.7785 22.3727 31.8021 21.4491C32.6752 20.6318 33.3582 19.5745 33.1248 18.4991C33.0789 18.2091 32.6968 17.53 32.2274 17.2854C32.6752 16.6909 32.6329 16.1836 32.5707 15.7464C32.5257 15.41 32.377 15.0391 32.1878 14.71C31.8886 14.3091 31.6093 13.9991 31.0335 13.6491C31.1219 13.1869 31.0622 12.7084 30.8632 12.2827C30.4163 11.49 29.6081 10.8082 28.2232 10.0809C28.1592 9.79363 27.9862 9.41909 27.6907 9.04545C25.9444 7.2609 23.0872 6.40181 20.6788 6.35636C20.5436 6.35363 20.4093 6.35272 20.2778 6.35272C17.4602 6.35272 15.1986 7.00727 13.7984 7.68181ZM27.4348 12.0873C27.6492 11.8445 27.9664 11.47 28.0502 11.1609C28.6494 11.5582 29.3306 12.1527 29.4144 12.77C28.7773 12.5245 28.0952 12.2645 27.4348 12.0882V12.0873ZM27.9664 14.7736C26.9455 14.4854 26.0508 14.1327 24.8542 13.9154C25.5813 13.6264 26.0688 13.32 26.4977 12.9664C27.4528 13.2291 28.3484 13.5618 29.0774 13.8909C28.9512 14.0827 28.2214 14.7809 27.9997 14.7809C27.9882 14.7814 27.9767 14.7789 27.9664 14.7736ZM29.8207 15.5445C30.0964 15.3236 30.3532 15.0836 30.5884 14.7954C31.1624 15.3018 31.3327 15.6545 31.057 16.2054C30.6749 15.92 30.2667 15.7645 29.8207 15.5445ZM7.93893 21.0091C6.3594 18.7618 11.835 17.1545 12.8811 16.8227C15.5437 16.0045 18.6568 15.3918 21.4699 15.0391C23.4044 14.7954 24.4307 15.0182 26.2643 15.5236C21.5546 16.8236 16.907 17.2391 12.4748 18.5845C8.90124 19.6573 7.95335 21.0091 7.93893 21.0091ZM9.10758 22.0873C10.77 20.6318 14.1597 19.8182 15.3968 19.5318C19.3371 18.65 23.0025 18.1 24.5154 17.7045C26.349 17.2391 27.6276 16.8009 28.5187 16.3609C28.562 16.2945 30.0108 17.02 30.1604 17.1945C29.6712 17.6154 28.9918 17.9691 28.2439 18.2309C26.0066 19.0691 21.9366 19.9491 19.7858 20.2854C17.6116 20.6573 15.7969 20.9418 13.3929 21.6C12.0053 21.9773 11.0673 22.4182 10.3853 22.8818C9.87437 22.5727 9.57612 22.4854 9.10758 22.0873ZM12.2 23.85C12.901 23.5409 13.6687 23.2982 14.412 23.1036C18.1639 22.1509 21.4699 21.9773 26.0291 20.7009C28.2232 20.1036 29.8207 19.4636 30.8236 18.6736C30.9714 18.5391 31.1209 18.43 31.2705 18.2991C32.5914 20.4127 27.6276 22.0436 24.237 22.7964C22.4645 23.1585 20.6884 23.5028 18.9091 23.8291C16.6962 24.2036 15.9681 24.4027 14.4345 24.8654C13.6687 24.5564 12.901 24.2255 12.2 23.85ZM8.21194 23.1891C8.55434 23.4118 8.80843 23.5891 9.2148 23.8064C9.06523 23.9382 8.87241 24.0718 8.72464 24.2245C8.38585 24.0245 8.04165 23.5882 8.21194 23.1882V23.1891ZM9.98249 25.2164C10.196 25.0182 10.4718 24.8209 10.77 24.6236C11.4097 24.9327 12.0693 25.2155 12.6874 25.5036C12.2713 25.6606 11.8721 25.8601 11.4962 26.0991C10.9873 25.8122 10.4826 25.5176 9.98249 25.2154V25.2164ZM9.42745 26.2945C9.78967 26.5382 10.1519 26.7354 10.5159 26.9354C10.3663 27.1564 10.2582 27.33 10.196 27.5527C9.66262 27.0891 9.40492 26.7145 9.42745 26.2945Z" fill="#6002FD"/>
</g>
<defs>
<clipPath id="clip0">
<rect width="173" height="40" fill="white" transform="translate(0.666656)"/>
</clipPath>
</defs>
</svg>
