<svg width="179" height="48" viewBox="0 0 179 48" fill="none" xmlns="http://www.w3.org/2000/svg">
<path d="M5.3629 0.243341L9.14369 11.9817L12.9128 0.243341H18.2874V17.115H14.1925V13.1752L14.588 5.11016L10.4931 17.115H7.79424L3.68772 5.09858L4.08325 13.1752V17.115H0V0.243341H5.3629Z" fill="white"/>
<path d="M30.828 0.243341H34.9112V17.115H30.828V6.47751L24.7438 17.115H20.6606V0.243341H24.7438V10.8924L30.828 0.243341Z" fill="white"/>
<path d="M51.57 17.115H47.51V10.0697H41.4956V17.115H37.4124V0.243341H41.4956V6.94102H47.51V0.243341H51.57V17.115Z" fill="white"/>
<path d="M70.2645 21.2634H66.6001V17.115H57.3749V21.2518H53.5941L53.3033 13.9863H54.5015C55.1297 13.5692 55.6338 12.8546 56.0138 11.8426C56.4016 10.8229 56.6769 9.36284 56.8398 7.46246L57.3633 0.243341H68.8918V13.9863H70.6949L70.2645 21.2634ZM59.1199 13.9863H64.8202V3.3836H61.2139L60.8998 7.60151C60.6671 10.3362 60.0738 12.4645 59.1199 13.9863Z" fill="white"/>
<path d="M86.1671 9.0268C86.1671 10.6722 85.8607 12.1284 85.2481 13.3953C84.6354 14.6623 83.7629 15.6395 82.6306 16.327C81.5061 17.0068 80.2225 17.3467 78.78 17.3467C77.3375 17.3467 76.0578 17.0184 74.9411 16.3618C73.8243 15.6974 72.9518 14.7511 72.3236 13.5228C71.7031 12.2945 71.3774 10.8847 71.3464 9.29331V8.34312C71.3464 6.68995 71.6489 5.23377 72.2538 3.97457C72.8665 2.70765 73.739 1.73043 74.8713 1.04289C76.0113 0.355355 77.3065 0.0115877 78.7567 0.0115877C80.1915 0.0115877 81.4712 0.351493 82.5957 1.0313C83.7202 1.71111 84.5927 2.68061 85.2132 3.93981C85.8414 5.19128 86.1593 6.62815 86.1671 8.25042V9.0268ZM82.014 8.31995C82.014 6.6436 81.731 5.37282 81.1648 4.5076C80.6064 3.63467 79.8037 3.1982 78.7567 3.1982C76.7093 3.1982 75.6274 4.72777 75.5111 7.78692L75.4994 9.0268C75.4994 10.68 75.7748 11.9508 76.3254 12.8391C76.876 13.7275 77.6942 14.1717 78.78 14.1717C79.8115 14.1717 80.6064 13.7353 81.1648 12.8623C81.7232 11.9894 82.0063 10.734 82.014 9.09632V8.31995Z" fill="white"/>
<path d="M92.3559 11.3907V17.115H88.2727V0.243341H95.0316C96.3267 0.243341 97.4707 0.48282 98.4634 0.961777C99.4638 1.43301 100.235 2.10896 100.778 2.98962C101.329 3.86256 101.604 4.85523 101.604 5.96765C101.604 7.6131 101.011 8.93023 99.8245 9.91905C98.6456 10.9001 97.0247 11.3907 94.9618 11.3907H92.3559ZM92.3559 8.25042H95.0316C95.8226 8.25042 96.4237 8.05343 96.8347 7.65945C97.2535 7.26547 97.4629 6.70926 97.4629 5.99083C97.4629 5.20286 97.2496 4.57327 96.8231 4.10204C96.3965 3.6308 95.8149 3.39133 95.0781 3.3836H92.3559V8.25042Z" fill="white"/>
<path d="M117.088 3.3836H112.004V17.115H107.921V3.3836H102.931V0.243341H117.088V3.3836Z" fill="white"/>
<path d="M122.905 11.3907V17.115H118.821V0.243341H125.58C126.876 0.243341 128.019 0.48282 129.012 0.961777C130.013 1.43301 130.784 2.10896 131.327 2.98962C131.878 3.86256 132.153 4.85523 132.153 5.96765C132.153 7.6131 131.56 8.93023 130.373 9.91905C129.194 10.9001 127.574 11.3907 125.511 11.3907H122.905ZM122.905 8.25042H125.58C126.371 8.25042 126.972 8.05343 127.383 7.65945C127.802 7.26547 128.012 6.70926 128.012 5.99083C128.012 5.20286 127.798 4.57327 127.372 4.10204C126.945 3.6308 126.364 3.39133 125.627 3.3836H122.905V8.25042Z" fill="white"/>
<path d="M141.89 13.9631H136.295L135.317 17.115H130.955L137.167 0.243341H141.006L147.265 17.115H142.879L141.89 13.9631ZM137.272 10.8229H140.913L139.087 4.97111L137.272 10.8229Z" fill="white"/>
<path d="M162.667 17.115H158.607V10.0697H152.593V17.115H148.509V0.243341H152.593V6.94102H158.607V0.243341H162.667V17.115Z" fill="white"/>
<path d="M178.965 11.4023C178.911 12.5765 178.593 13.6155 178.011 14.5194C177.43 15.4155 176.611 16.1107 175.557 16.6051C174.51 17.0995 173.311 17.3467 171.962 17.3467C169.736 17.3467 167.983 16.6244 166.704 15.1798C165.424 13.7353 164.784 11.6958 164.784 9.06156V8.22725C164.784 6.57407 165.071 5.12948 165.645 3.89346C166.227 2.64971 167.06 1.6918 168.146 1.01972C169.232 0.339905 170.488 0 171.915 0C173.971 0 175.622 0.540758 176.871 1.62227C178.12 2.69606 178.829 4.17929 179 6.07194H174.928C174.897 5.0445 174.638 4.30675 174.149 3.85869C173.66 3.41064 172.916 3.18661 171.915 3.18661C170.899 3.18661 170.155 3.56514 169.682 4.3222C169.209 5.07926 168.961 6.28824 168.937 7.94914V9.14267C168.937 10.9426 169.162 12.2289 169.612 13.0014C170.07 13.7739 170.853 14.1601 171.962 14.1601C172.9 14.1601 173.618 13.94 174.114 13.4996C174.61 13.0593 174.874 12.3602 174.905 11.4023H178.965Z" fill="white"/>
<path d="M27.6288 34.0369H22.5451V47.7682H18.4619V34.0369H13.4712V30.8966H27.6288V34.0369Z" fill="white"/>
<path d="M37.5869 44.6164H31.9913L31.0141 47.7682H26.6517L32.8638 30.8966H36.7027L42.9614 47.7682H38.5757L37.5869 44.6164ZM32.9685 41.4761H36.6097L34.7833 35.6244L32.9685 41.4761Z" fill="white"/>
<path d="M56.1069 34.0369H51.0232V47.7682H46.9399V34.0369H41.9493V30.8966H56.1069V34.0369Z" fill="white"/>
<path d="M66.0649 44.6164H60.4694L59.4922 47.7682H55.1297L61.3418 30.8966H65.1808L71.4395 47.7682H67.0537L66.0649 44.6164ZM61.4465 41.4761H65.0877L63.2613 35.6244L61.4465 41.4761Z" fill="white"/>
<path d="M76.7675 42.0439V47.7682H72.6842V30.8966H79.4431C80.7383 30.8966 81.8822 31.1361 82.8749 31.615C83.8754 32.0863 84.647 32.7622 85.1899 33.6429C85.7405 34.5158 86.0159 35.5085 86.0159 36.6209C86.0159 38.2664 85.4226 39.5835 84.236 40.5723C83.0571 41.5534 81.4363 42.0439 79.3733 42.0439H76.7675ZM76.7675 38.9037H79.4431C80.2342 38.9037 80.8352 38.7067 81.2462 38.3127C81.665 37.9187 81.8744 37.3625 81.8744 36.6441C81.8744 35.8561 81.6612 35.2265 81.2346 34.7553C80.8081 34.2841 80.2264 34.0446 79.4896 34.0369H76.7675V38.9037Z" fill="white"/>
<path d="M101.907 42.0555C101.853 43.2297 101.535 44.2688 100.953 45.1726C100.371 46.0687 99.553 46.764 98.4983 47.2584C97.4513 47.7528 96.2531 48 94.9036 48C92.6778 48 90.9251 47.2777 89.6454 45.8331C88.3658 44.3885 87.7259 42.3491 87.7259 39.7148V38.8805C87.7259 37.2273 88.0129 35.7827 88.5868 34.5467C89.1684 33.303 90.0022 32.3451 91.0879 31.673C92.1737 30.9932 93.4301 30.6533 94.8571 30.6533C96.9123 30.6533 98.5642 31.194 99.8128 32.2755C101.061 33.3493 101.771 34.8325 101.942 36.7252H97.8701C97.8391 35.6978 97.5793 34.96 97.0907 34.5119C96.6021 34.0639 95.8575 33.8399 94.8571 33.8399C93.8411 33.8399 93.0966 34.2184 92.6235 34.9755C92.1504 35.7325 91.9023 36.9415 91.879 38.6024V39.7959C91.879 41.5959 92.1039 42.8821 92.5537 43.6546C93.0113 44.4271 93.7946 44.8134 94.9036 44.8134C95.842 44.8134 96.5594 44.5932 97.0558 44.1529C97.5521 43.7126 97.8158 43.0134 97.8468 42.0555H101.907Z" fill="white"/>
<path d="M116.786 34.0369H111.702V47.7682H107.619V34.0369H102.628V30.8966H116.786V34.0369Z" fill="white"/>
<path d="M126.744 44.6164H121.148L120.171 47.7682H115.808L122.021 30.8966H125.86L132.118 47.7682H127.732L126.744 44.6164ZM122.125 41.4761H125.766L123.94 35.6244L122.125 41.4761Z" fill="white"/>
<path d="M147.521 47.7682H143.461V40.7229H137.446V47.7682H133.363V30.8966H137.446V37.5943H143.461V30.8966H147.521V47.7682Z" fill="white"/>
<path d="M159.945 44.6164H154.349L153.372 47.7682H149.01L155.222 30.8966H159.061L165.319 47.7682H160.934L159.945 44.6164ZM155.326 41.4761H158.968L157.141 35.6244L155.326 41.4761Z" fill="white"/>
</svg>
