<svg width="199" height="20" viewBox="0 0 199 20" fill="none" xmlns="http://www.w3.org/2000/svg">
<path d="M13.9374 19.1984V5.8779H21.8096V1.03044H0.333313V5.8779H8.20527V19.1984H13.9374ZM29.6448 11.6031V1.03044H24.1036V19.1984H28.995L38.5486 8.62597V19.1984H44.0896V1.03044H39.1981L29.6448 11.6031ZM62.7309 12.4427V19.1984H68.2718V1.03044H62.7309V7.67165H53.8271V1.03044H48.2859V19.1984H53.8271V12.4427H62.7309ZM83.7033 19.1984C84.9643 19.1984 86.1107 19.084 87.1807 18.7785C90.0467 17.9769 91.9192 15.6487 91.9192 12.4808C91.9192 9.46563 90.3143 7.36648 87.7539 6.41215C86.531 5.95425 85.0789 5.91598 83.7033 5.91598H78.0094V1.03044H72.4682V19.1984H83.7033ZM82.7479 10.1909C83.5123 10.1909 84.2384 10.1909 84.8877 10.4197C85.8048 10.7251 86.34 11.4885 86.34 12.4045C86.34 13.3588 85.8048 14.1602 84.9263 14.5419C84.3145 14.8091 83.7033 14.809 82.7479 14.809H78.0094V10.1909H82.7479ZM101.854 12.3281L108.465 19.1984H115.841L106.631 9.73275L115.497 1.03044H108.542L101.854 7.86265H100.326V1.03044H94.7849V19.1984H100.326V12.3281H101.854ZM127.242 0.534253C119.79 0.534253 115.319 4.73283 115.319 10.1526C115.319 15.5724 119.79 19.771 127.242 19.771C134.656 19.771 139.127 15.5724 139.127 10.1526C139.127 4.73283 134.656 0.534253 127.242 0.534253ZM127.242 15.3435C123.536 15.3435 121.166 13.1297 121.166 10.1526C121.166 7.17548 123.536 4.99995 127.242 4.99995C130.911 4.99995 133.318 7.17548 133.318 10.1526C133.318 13.1297 130.911 15.3435 127.242 15.3435ZM157.58 0H152.039V1.83204C145.084 1.98475 140.919 4.9236 140.919 10.1145C140.919 15.3053 145.084 18.0152 152.039 18.1679V20H157.58V18.1679C164.573 18.0152 168.739 15.3053 168.739 10.1145C168.739 4.9236 164.573 1.98475 157.58 1.83204V0ZM152.039 14.2748C148.218 14.1221 146.537 12.5572 146.537 10.1145C146.537 7.67165 148.218 5.91598 152.039 5.76325V14.2748ZM157.58 5.76325C161.44 5.91598 163.083 7.67165 163.083 10.1145C163.083 12.5572 161.44 14.1221 157.58 14.2748V5.76325ZM187.174 0H181.633V1.83204C174.678 1.98475 170.513 4.9236 170.513 10.1145C170.513 15.3053 174.678 18.0152 181.633 18.1679V20H187.174V18.1679C194.167 18.0152 198.333 15.3053 198.333 10.1145C198.333 4.9236 194.167 1.98475 187.174 1.83204V0ZM181.633 14.2748C177.811 14.1221 176.13 12.5572 176.13 10.1145C176.13 7.67165 177.811 5.91598 181.633 5.76325V14.2748ZM187.174 5.76325C191.033 5.91598 192.678 7.67165 192.678 10.1145C192.678 12.5572 191.033 14.1221 187.174 14.2748V5.76325Z" fill="#6002FD"/>
</svg>
