<svg width="198" height="40" viewBox="0 0 198 40" fill="none" xmlns="http://www.w3.org/2000/svg">
<path fill-rule="evenodd" clip-rule="evenodd" d="M106.254 19.2158C106.254 19.2158 104.795 18.3118 103.893 17.9621C103.893 17.9621 101.099 16.6653 100.545 16.0483C100.545 16.0483 99.4565 15.0206 100.094 13.8269C100.094 13.8269 100.361 13.0458 101.511 13.0458C101.511 13.0458 103.009 13.1283 103.009 14.3614V16.1008H108.377L108.367 13.539C108.367 13.539 108.78 9.34385 102.045 9.15912C102.045 9.15912 96.7474 8.8103 95.2281 11.6684C95.2281 11.6684 94.6318 12.306 94.6318 14.5264V16.1308C94.6318 16.1308 94.571 17.9818 95.5146 19.1745C95.5146 19.1745 96.0482 19.9565 97.3624 20.8192C97.3624 20.8192 100.031 22.2585 101.633 23.0828C101.633 23.0828 103.25 24.0073 103.037 25.4785C103.037 25.4785 102.905 26.9891 101.344 26.9272C101.344 26.9272 99.9161 26.8635 99.9161 25.3819V23.6435H94.1965V26.1687C94.1965 26.1687 94.0365 30.9977 101.386 30.9977C101.386 30.9977 108.408 31.1403 108.736 26.0421V23.9857C108.735 23.9857 108.984 20.8614 106.254 19.2158ZM78.7743 9.76018L76.977 21.0424H76.5567L74.8399 9.86145H65.8739L65.4246 30.2926H70.7332L70.7969 14.8987H71.2144L74.0283 30.2898H79.613L82.3923 14.9043H82.7621L82.8903 30.2926H88.227L87.6523 9.76018H78.7743ZM47.1734 9.84551L43.6415 30.2691H49.3564L51.4486 14.4336H51.9185L54.0098 30.2691H59.7237L56.1928 9.84551H47.1734ZM167.09 18.9344V21.9472H168.556V25.1813C168.556 26.7622 167.207 26.7913 167.207 26.7913C165.567 26.7913 165.628 25.2891 165.628 25.2891V14.1026C165.628 12.9502 167.084 12.8883 167.084 12.8883C168.481 12.8883 168.49 14.2629 168.49 14.2629V15.9639H173.871C174.047 12.6435 173.386 11.84 173.386 11.84C172.051 8.8375 167.002 9.00159 167.002 9.00159C159.242 9.00159 160.104 14.9652 160.104 14.9652V25.7814C160.27 31.3747 167.916 30.8064 168.045 30.8018C171.446 30.4248 172.473 29.3418 172.473 29.3418C173.419 28.6385 173.662 27.6643 173.662 27.6643C173.933 27.097 174 25.2891 174 25.2891V18.9344H167.09ZM149.254 22.2585H149.02L143.56 9.7658H137.027V30.2945H142.344L142.026 17.8036H142.263L147.92 30.2945H154.255V9.76392H148.87L149.254 22.2585ZM124.048 25.1794C124.048 25.1794 124.125 26.8644 122.565 26.8644C122.565 26.8644 120.925 26.9526 120.925 25.2216L120.908 9.77799H115.076V25.0988C115.076 25.0988 114.478 30.8974 122.647 30.8974C122.647 30.8974 129.747 30.9818 129.747 25.3651V9.77893H124.048V25.1794ZM36.0554 19.2158C36.0554 19.2158 34.5979 18.3118 33.6945 17.963C33.6945 17.963 30.9031 16.6671 30.3489 16.0492C30.3489 16.0492 29.2602 15.0196 29.8986 13.8288C29.8986 13.8288 30.1645 13.0477 31.314 13.0477C31.314 13.0477 32.8127 13.1293 32.8127 14.3623V16.1017H38.1822L38.1719 13.539C38.1719 13.539 38.5819 9.34385 31.8495 9.16006C31.8495 9.16006 31.3421 9.12724 30.5979 9.16475C30.5979 9.16475 26.5193 9.38416 25.0609 11.6252C25.0525 11.6421 25.0403 11.6543 25.0319 11.6693C25.0319 11.6693 24.4365 12.306 24.4365 14.5273V16.1317C24.4365 16.1317 24.3747 17.9827 25.3192 19.1754C25.3192 19.1754 25.8528 19.9575 27.1671 20.8201C27.1671 20.8201 29.835 22.2595 31.4367 23.0837C31.4367 23.0837 33.0552 24.0064 32.8408 25.4795C32.8408 25.4795 32.7088 26.9901 31.1483 26.9282C31.1483 26.9282 29.7208 26.8644 29.7208 25.3829V23.6435H24.0003V26.1705C24.0003 26.1705 23.8402 30.9996 31.1895 30.9996C31.1895 30.9996 38.2103 31.1421 38.5407 26.044V23.9895C38.5407 23.9876 38.786 20.8614 36.0554 19.2158Z" fill="#6002FD"/>
</svg>
