<svg width="549" height="308" viewBox="0 0 549 308" fill="none" xmlns="http://www.w3.org/2000/svg">
<path d="M406.313 251.826H479.806V155.419C479.806 155.419 473.273 221.355 439.807 230.632C420.008 236.108 406.313 251.826 406.313 251.826Z" fill="#F3F6E6"/>
<path d="M479.806 253.244H406.314C405.743 253.244 405.258 252.932 405.03 252.422C404.802 251.911 404.888 251.315 405.258 250.89C405.829 250.237 419.466 234.774 439.437 229.27C446.741 227.256 453.331 222.177 459.008 214.176C463.63 207.679 467.653 199.253 470.991 189.153C476.697 171.846 478.38 155.447 478.38 155.277C478.466 154.511 479.122 153.972 479.863 154C480.634 154.028 481.233 154.653 481.233 155.419V251.826C481.233 252.62 480.605 253.244 479.806 253.244ZM409.652 250.407H478.38V172.612C477.239 177.861 475.727 183.875 473.701 190.004C470.277 200.388 466.112 209.07 461.319 215.794C455.242 224.334 448.138 229.809 440.179 231.994C425.6 236.023 414.274 245.868 409.652 250.407Z" fill="#F3F6E6"/>
<path d="M110.872 139.028C110.032 139.028 109.371 138.367 109.371 137.525V57.9694C109.371 57.1279 110.032 56.4667 110.872 56.4667C111.713 56.4667 112.373 57.1279 112.373 57.9694V137.525C112.373 138.367 111.713 139.028 110.872 139.028Z" fill="#383A48"/>
<path d="M368.283 56.6136H172.139V252.242H368.283V56.6136Z" fill="#F3F6E6"/>
<path d="M363.064 253.672H359.622C358.819 253.672 358.188 253.043 358.188 252.242C358.188 251.441 358.819 250.812 359.622 250.812H363.064C363.867 250.812 364.498 251.441 364.498 252.242C364.498 253.043 363.867 253.672 363.064 253.672ZM351.018 253.672H347.576C346.773 253.672 346.142 253.043 346.142 252.242C346.142 251.441 346.773 250.812 347.576 250.812H351.018C351.821 250.812 352.452 251.441 352.452 252.242C352.452 253.043 351.821 253.672 351.018 253.672ZM338.972 253.672H335.531C334.728 253.672 334.097 253.043 334.097 252.242C334.097 251.441 334.728 250.812 335.531 250.812H338.972C339.775 250.812 340.406 251.441 340.406 252.242C340.406 253.043 339.775 253.672 338.972 253.672ZM326.927 253.672H323.485C322.682 253.672 322.051 253.043 322.051 252.242C322.051 251.441 322.682 250.812 323.485 250.812H326.927C327.73 250.812 328.361 251.441 328.361 252.242C328.361 253.043 327.73 253.672 326.927 253.672ZM314.881 253.672H311.439C310.636 253.672 310.005 253.043 310.005 252.242C310.005 251.441 310.636 250.812 311.439 250.812H314.881C315.684 250.812 316.315 251.441 316.315 252.242C316.315 253.043 315.684 253.672 314.881 253.672ZM302.835 253.672H299.394C298.59 253.672 297.959 253.043 297.959 252.242C297.959 251.441 298.59 250.812 299.394 250.812H302.835C303.638 250.812 304.269 251.441 304.269 252.242C304.269 253.043 303.638 253.672 302.835 253.672ZM290.789 253.672H287.348C286.545 253.672 285.914 253.043 285.914 252.242C285.914 251.441 286.545 250.812 287.348 250.812H290.789C291.592 250.812 292.223 251.441 292.223 252.242C292.223 253.043 291.592 253.672 290.789 253.672ZM278.744 253.672H275.302C274.499 253.672 273.868 253.043 273.868 252.242C273.868 251.441 274.499 250.812 275.302 250.812H278.744C279.547 250.812 280.178 251.441 280.178 252.242C280.178 253.043 279.547 253.672 278.744 253.672ZM266.698 253.672H263.256C262.453 253.672 261.822 253.043 261.822 252.242C261.822 251.441 262.453 250.812 263.256 250.812H266.698C267.501 250.812 268.132 251.441 268.132 252.242C268.132 253.043 267.501 253.672 266.698 253.672ZM254.652 253.672H251.211C250.408 253.672 249.777 253.043 249.777 252.242C249.777 251.441 250.408 250.812 251.211 250.812H254.652C255.455 250.812 256.086 251.441 256.086 252.242C256.086 253.043 255.455 253.672 254.652 253.672ZM242.607 253.672H239.165C238.362 253.672 237.731 253.043 237.731 252.242C237.731 251.441 238.362 250.812 239.165 250.812H242.607C243.41 250.812 244.041 251.441 244.041 252.242C244.041 253.043 243.41 253.672 242.607 253.672ZM230.561 253.672H227.119C226.316 253.672 225.685 253.043 225.685 252.242C225.685 251.441 226.316 250.812 227.119 250.812H230.561C231.364 250.812 231.995 251.441 231.995 252.242C231.995 253.043 231.364 253.672 230.561 253.672ZM218.515 253.672H215.073C214.27 253.672 213.639 253.043 213.639 252.242C213.639 251.441 214.27 250.812 215.073 250.812H218.515C219.318 250.812 219.949 251.441 219.949 252.242C219.949 253.043 219.318 253.672 218.515 253.672ZM206.469 253.672H203.028C202.225 253.672 201.594 253.043 201.594 252.242C201.594 251.441 202.225 250.812 203.028 250.812H206.469C207.272 250.812 207.903 251.441 207.903 252.242C207.903 253.043 207.272 253.672 206.469 253.672ZM194.424 253.672H190.982C190.179 253.672 189.548 253.043 189.548 252.242C189.548 251.441 190.179 250.812 190.982 250.812H194.424C195.227 250.812 195.858 251.441 195.858 252.242C195.858 253.043 195.227 253.672 194.424 253.672ZM182.378 253.672H178.936C178.133 253.672 177.502 253.043 177.502 252.242C177.502 251.441 178.133 250.812 178.936 250.812H182.378C183.181 250.812 183.812 251.441 183.812 252.242C183.812 253.043 183.181 253.672 182.378 253.672ZM172.139 251.87C171.336 251.87 170.705 251.241 170.705 250.44V247.007C170.705 246.206 171.336 245.577 172.139 245.577C172.942 245.577 173.573 246.206 173.573 247.007V250.44C173.573 251.241 172.942 251.87 172.139 251.87ZM368.284 250.297C367.48 250.297 366.85 249.668 366.85 248.867V245.434C366.85 244.633 367.48 244.004 368.284 244.004C369.087 244.004 369.718 244.633 369.718 245.434V248.867C369.718 249.668 369.087 250.297 368.284 250.297ZM172.139 239.856C171.336 239.856 170.705 239.227 170.705 238.426V234.993C170.705 234.192 171.336 233.563 172.139 233.563C172.942 233.563 173.573 234.192 173.573 234.993V238.426C173.573 239.227 172.942 239.856 172.139 239.856ZM368.284 238.283C367.48 238.283 366.85 237.654 366.85 236.853V233.42C366.85 232.619 367.48 231.99 368.284 231.99C369.087 231.99 369.718 232.619 369.718 233.42V236.853C369.718 237.654 369.087 238.283 368.284 238.283ZM172.139 227.842C171.336 227.842 170.705 227.213 170.705 226.412V222.979C170.705 222.178 171.336 221.549 172.139 221.549C172.942 221.549 173.573 222.178 173.573 222.979V226.412C173.573 227.213 172.942 227.842 172.139 227.842ZM368.284 226.269C367.48 226.269 366.85 225.64 366.85 224.839V221.406C366.85 220.605 367.48 219.976 368.284 219.976C369.087 219.976 369.718 220.605 369.718 221.406V224.839C369.718 225.64 369.087 226.269 368.284 226.269ZM172.139 215.828C171.336 215.828 170.705 215.199 170.705 214.398V210.965C170.705 210.164 171.336 209.535 172.139 209.535C172.942 209.535 173.573 210.164 173.573 210.965V214.398C173.573 215.199 172.942 215.828 172.139 215.828ZM368.284 214.255C367.48 214.255 366.85 213.625 366.85 212.825V209.392C366.85 208.591 367.48 207.962 368.284 207.962C369.087 207.962 369.718 208.591 369.718 209.392V212.825C369.718 213.625 369.087 214.255 368.284 214.255ZM172.139 203.814C171.336 203.814 170.705 203.185 170.705 202.384V198.951C170.705 198.15 171.336 197.521 172.139 197.521C172.942 197.521 173.573 198.15 173.573 198.951V202.384C173.573 203.185 172.942 203.814 172.139 203.814ZM368.284 202.241C367.48 202.241 366.85 201.611 366.85 200.811V197.378C366.85 196.577 367.48 195.948 368.284 195.948C369.087 195.948 369.718 196.577 369.718 197.378V200.811C369.718 201.611 369.087 202.241 368.284 202.241ZM172.139 191.8C171.336 191.8 170.705 191.171 170.705 190.37V186.937C170.705 186.136 171.336 185.507 172.139 185.507C172.942 185.507 173.573 186.136 173.573 186.937V190.37C173.573 191.171 172.942 191.8 172.139 191.8ZM368.284 190.227C367.48 190.227 366.85 189.597 366.85 188.797V185.364C366.85 184.563 367.48 183.934 368.284 183.934C369.087 183.934 369.718 184.563 369.718 185.364V188.797C369.718 189.597 369.087 190.227 368.284 190.227ZM172.139 179.786C171.336 179.786 170.705 179.157 170.705 178.356V174.923C170.705 174.122 171.336 173.493 172.139 173.493C172.942 173.493 173.573 174.122 173.573 174.923V178.356C173.573 179.157 172.942 179.786 172.139 179.786ZM368.284 178.213C367.48 178.213 366.85 177.583 366.85 176.782V173.35C366.85 172.549 367.48 171.92 368.284 171.92C369.087 171.92 369.718 172.549 369.718 173.35V176.782C369.718 177.583 369.087 178.213 368.284 178.213ZM172.139 167.772C171.336 167.772 170.705 167.143 170.705 166.342V162.909C170.705 162.108 171.336 161.479 172.139 161.479C172.942 161.479 173.573 162.108 173.573 162.909V166.342C173.573 167.143 172.942 167.772 172.139 167.772ZM368.284 166.199C367.48 166.199 366.85 165.569 366.85 164.768V161.336C366.85 160.535 367.48 159.906 368.284 159.906C369.087 159.906 369.718 160.535 369.718 161.336V164.768C369.718 165.569 369.087 166.199 368.284 166.199ZM172.139 155.758C171.336 155.758 170.705 155.129 170.705 154.328V150.895C170.705 150.094 171.336 149.465 172.139 149.465C172.942 149.465 173.573 150.094 173.573 150.895V154.328C173.573 155.129 172.942 155.758 172.139 155.758ZM368.284 154.185C367.48 154.185 366.85 153.555 366.85 152.754V149.322C366.85 148.521 367.48 147.892 368.284 147.892C369.087 147.892 369.718 148.521 369.718 149.322V152.754C369.718 153.555 369.087 154.185 368.284 154.185ZM172.139 143.744C171.336 143.744 170.705 143.115 170.705 142.314V138.881C170.705 138.08 171.336 137.451 172.139 137.451C172.942 137.451 173.573 138.08 173.573 138.881V142.314C173.573 143.115 172.942 143.744 172.139 143.744ZM368.284 142.171C367.48 142.171 366.85 141.541 366.85 140.74V137.308C366.85 136.507 367.48 135.878 368.284 135.878C369.087 135.878 369.718 136.507 369.718 137.308V140.74C369.718 141.541 369.087 142.171 368.284 142.171ZM172.139 131.73C171.336 131.73 170.705 131.101 170.705 130.3V126.867C170.705 126.066 171.336 125.437 172.139 125.437C172.942 125.437 173.573 126.066 173.573 126.867V130.3C173.573 131.101 172.942 131.73 172.139 131.73ZM368.284 130.157C367.48 130.157 366.85 129.527 366.85 128.726V125.294C366.85 124.493 367.48 123.864 368.284 123.864C369.087 123.864 369.718 124.493 369.718 125.294V128.726C369.718 129.527 369.087 130.157 368.284 130.157ZM172.139 119.716C171.336 119.716 170.705 119.087 170.705 118.286V114.853C170.705 114.052 171.336 113.423 172.139 113.423C172.942 113.423 173.573 114.052 173.573 114.853V118.286C173.573 119.087 172.942 119.716 172.139 119.716ZM368.284 118.143C367.48 118.143 366.85 117.513 366.85 116.712V113.28C366.85 112.479 367.48 111.85 368.284 111.85C369.087 111.85 369.718 112.479 369.718 113.28V116.712C369.718 117.513 369.087 118.143 368.284 118.143ZM172.139 107.702C171.336 107.702 170.705 107.073 170.705 106.272V102.839C170.705 102.038 171.336 101.409 172.139 101.409C172.942 101.409 173.573 102.038 173.573 102.839V106.272C173.573 107.073 172.942 107.702 172.139 107.702ZM368.284 106.129C367.48 106.129 366.85 105.499 366.85 104.698V101.266C366.85 100.465 367.48 99.8355 368.284 99.8355C369.087 99.8355 369.718 100.465 369.718 101.266V104.698C369.718 105.499 369.087 106.129 368.284 106.129ZM172.139 95.6878C171.336 95.6878 170.705 95.0585 170.705 94.2575V90.825C170.705 90.024 171.336 89.3947 172.139 89.3947C172.942 89.3947 173.573 90.024 173.573 90.825V94.2575C173.573 95.0585 172.942 95.6878 172.139 95.6878ZM368.284 94.1145C367.48 94.1145 366.85 93.4852 366.85 92.6843V89.2517C366.85 88.4508 367.48 87.8215 368.284 87.8215C369.087 87.8215 369.718 88.4508 369.718 89.2517V92.6843C369.718 93.4852 369.087 94.1145 368.284 94.1145ZM172.139 83.6738C171.336 83.6738 170.705 83.0445 170.705 82.2435V78.8109C170.705 78.01 171.336 77.3807 172.139 77.3807C172.942 77.3807 173.573 78.01 173.573 78.8109V82.2435C173.573 83.0445 172.942 83.6738 172.139 83.6738ZM368.284 82.1005C367.48 82.1005 366.85 81.4712 366.85 80.6703V77.2377C366.85 76.4367 367.48 75.8074 368.284 75.8074C369.087 75.8074 369.718 76.4367 369.718 77.2377V80.6703C369.718 81.4712 369.087 82.1005 368.284 82.1005ZM172.139 71.6597C171.336 71.6597 170.705 71.0304 170.705 70.2295V66.7969C170.705 65.996 171.336 65.3667 172.139 65.3667C172.942 65.3667 173.573 65.996 173.573 66.7969V70.2295C173.573 71.0304 172.942 71.6597 172.139 71.6597ZM368.284 70.0865C367.48 70.0865 366.85 69.4572 366.85 68.6562V65.2236C366.85 64.4227 367.48 63.7934 368.284 63.7934C369.087 63.7934 369.718 64.4227 369.718 65.2236V68.6562C369.718 69.4572 369.087 70.0865 368.284 70.0865ZM172.139 59.6457C171.336 59.6457 170.705 59.0164 170.705 58.2155V56.6136C170.705 55.8127 171.336 55.1833 172.139 55.1833H175.581C176.384 55.1833 177.015 55.8127 177.015 56.6136C177.015 57.4145 176.384 58.0438 175.581 58.0438H173.573V58.2155C173.573 59.0164 172.942 59.6457 172.139 59.6457ZM368.284 58.0438C368.226 58.0438 368.14 58.0438 368.083 58.0438H364.871C364.068 58.0438 363.437 57.4145 363.437 56.6136C363.437 55.8127 364.068 55.1833 364.871 55.1833H368.284C369.087 55.1833 369.718 55.8127 369.718 56.6136C369.718 57.4145 369.087 58.0438 368.284 58.0438ZM356.267 58.0438H352.825C352.022 58.0438 351.391 57.4145 351.391 56.6136C351.391 55.8127 352.022 55.1833 352.825 55.1833H356.267C357.07 55.1833 357.701 55.8127 357.701 56.6136C357.701 57.4145 357.07 58.0438 356.267 58.0438ZM344.221 58.0438H340.779C339.976 58.0438 339.345 57.4145 339.345 56.6136C339.345 55.8127 339.976 55.1833 340.779 55.1833H344.221C345.024 55.1833 345.655 55.8127 345.655 56.6136C345.655 57.4145 345.024 58.0438 344.221 58.0438ZM332.175 58.0438H328.733C327.93 58.0438 327.299 57.4145 327.299 56.6136C327.299 55.8127 327.93 55.1833 328.733 55.1833H332.175C332.978 55.1833 333.609 55.8127 333.609 56.6136C333.609 57.4145 332.978 58.0438 332.175 58.0438ZM320.129 58.0438H316.688C315.885 58.0438 315.254 57.4145 315.254 56.6136C315.254 55.8127 315.885 55.1833 316.688 55.1833H320.129C320.932 55.1833 321.563 55.8127 321.563 56.6136C321.563 57.4145 320.932 58.0438 320.129 58.0438ZM308.084 58.0438H304.642C303.839 58.0438 303.208 57.4145 303.208 56.6136C303.208 55.8127 303.839 55.1833 304.642 55.1833H308.084C308.887 55.1833 309.518 55.8127 309.518 56.6136C309.518 57.4145 308.887 58.0438 308.084 58.0438ZM296.038 58.0438H292.596C291.793 58.0438 291.162 57.4145 291.162 56.6136C291.162 55.8127 291.793 55.1833 292.596 55.1833H296.038C296.841 55.1833 297.472 55.8127 297.472 56.6136C297.472 57.4145 296.841 58.0438 296.038 58.0438ZM283.992 58.0438H280.551C279.748 58.0438 279.117 57.4145 279.117 56.6136C279.117 55.8127 279.748 55.1833 280.551 55.1833H283.992C284.795 55.1833 285.426 55.8127 285.426 56.6136C285.426 57.4145 284.795 58.0438 283.992 58.0438ZM271.946 58.0438H268.505C267.702 58.0438 267.071 57.4145 267.071 56.6136C267.071 55.8127 267.702 55.1833 268.505 55.1833H271.946C272.75 55.1833 273.38 55.8127 273.38 56.6136C273.38 57.4145 272.75 58.0438 271.946 58.0438ZM259.901 58.0438H256.459C255.656 58.0438 255.025 57.4145 255.025 56.6136C255.025 55.8127 255.656 55.1833 256.459 55.1833H259.901C260.704 55.1833 261.335 55.8127 261.335 56.6136C261.335 57.4145 260.704 58.0438 259.901 58.0438ZM247.855 58.0438H244.413C243.61 58.0438 242.979 57.4145 242.979 56.6136C242.979 55.8127 243.61 55.1833 244.413 55.1833H247.855C248.658 55.1833 249.289 55.8127 249.289 56.6136C249.289 57.4145 248.658 58.0438 247.855 58.0438ZM235.809 58.0438H232.368C231.565 58.0438 230.934 57.4145 230.934 56.6136C230.934 55.8127 231.565 55.1833 232.368 55.1833H235.809C236.612 55.1833 237.243 55.8127 237.243 56.6136C237.243 57.4145 236.612 58.0438 235.809 58.0438ZM223.764 58.0438H220.322C219.519 58.0438 218.888 57.4145 218.888 56.6136C218.888 55.8127 219.519 55.1833 220.322 55.1833H223.764C224.567 55.1833 225.198 55.8127 225.198 56.6136C225.198 57.4145 224.567 58.0438 223.764 58.0438ZM211.718 58.0438H208.276C207.473 58.0438 206.842 57.4145 206.842 56.6136C206.842 55.8127 207.473 55.1833 208.276 55.1833H211.718C212.521 55.1833 213.152 55.8127 213.152 56.6136C213.152 57.4145 212.521 58.0438 211.718 58.0438ZM199.672 58.0438H196.231C195.427 58.0438 194.797 57.4145 194.797 56.6136C194.797 55.8127 195.427 55.1833 196.231 55.1833H199.672C200.475 55.1833 201.106 55.8127 201.106 56.6136C201.106 57.4145 200.475 58.0438 199.672 58.0438ZM187.626 58.0438H184.185C183.382 58.0438 182.751 57.4145 182.751 56.6136C182.751 55.8127 183.382 55.1833 184.185 55.1833H187.626C188.429 55.1833 189.06 55.8127 189.06 56.6136C189.06 57.4145 188.429 58.0438 187.626 58.0438Z" fill="#383A48"/>
<path d="M368.283 56.6136H172.139V111.02H368.283V56.6136Z" fill="#F3F6E6"/>
<path d="M366.018 112.45H362.576C361.773 112.45 361.142 111.821 361.142 111.02C361.142 110.219 361.773 109.59 362.576 109.59H366.018C366.821 109.59 367.452 110.219 367.452 111.02C367.452 111.821 366.821 112.45 366.018 112.45ZM353.972 112.45H350.53C349.727 112.45 349.096 111.821 349.096 111.02C349.096 110.219 349.727 109.59 350.53 109.59H353.972C354.775 109.59 355.406 110.219 355.406 111.02C355.406 111.821 354.775 112.45 353.972 112.45ZM341.926 112.45H338.485C337.682 112.45 337.051 111.821 337.051 111.02C337.051 110.219 337.682 109.59 338.485 109.59H341.926C342.729 109.59 343.36 110.219 343.36 111.02C343.36 111.821 342.729 112.45 341.926 112.45ZM329.881 112.45H326.439C325.636 112.45 325.005 111.821 325.005 111.02C325.005 110.219 325.636 109.59 326.439 109.59H329.881C330.684 109.59 331.315 110.219 331.315 111.02C331.315 111.821 330.684 112.45 329.881 112.45ZM317.835 112.45H314.393C313.59 112.45 312.959 111.821 312.959 111.02C312.959 110.219 313.59 109.59 314.393 109.59H317.835C318.638 109.59 319.269 110.219 319.269 111.02C319.269 111.821 318.638 112.45 317.835 112.45ZM305.789 112.45H302.348C301.545 112.45 300.914 111.821 300.914 111.02C300.914 110.219 301.545 109.59 302.348 109.59H305.789C306.592 109.59 307.223 110.219 307.223 111.02C307.223 111.821 306.592 112.45 305.789 112.45ZM293.743 112.45H290.302C289.499 112.45 288.868 111.821 288.868 111.02C288.868 110.219 289.499 109.59 290.302 109.59H293.743C294.547 109.59 295.178 110.219 295.178 111.02C295.178 111.821 294.547 112.45 293.743 112.45ZM281.698 112.45H278.256C277.453 112.45 276.822 111.821 276.822 111.02C276.822 110.219 277.453 109.59 278.256 109.59H281.698C282.501 109.59 283.132 110.219 283.132 111.02C283.132 111.821 282.501 112.45 281.698 112.45ZM269.652 112.45H266.21C265.407 112.45 264.776 111.821 264.776 111.02C264.776 110.219 265.407 109.59 266.21 109.59H269.652C270.455 109.59 271.086 110.219 271.086 111.02C271.086 111.821 270.455 112.45 269.652 112.45ZM257.606 112.45H254.165C253.362 112.45 252.731 111.821 252.731 111.02C252.731 110.219 253.362 109.59 254.165 109.59H257.606C258.409 109.59 259.04 110.219 259.04 111.02C259.04 111.821 258.409 112.45 257.606 112.45ZM245.561 112.45H242.119C241.316 112.45 240.685 111.821 240.685 111.02C240.685 110.219 241.316 109.59 242.119 109.59H245.561C246.364 109.59 246.995 110.219 246.995 111.02C246.995 111.821 246.364 112.45 245.561 112.45ZM233.515 112.45H230.073C229.27 112.45 228.639 111.821 228.639 111.02C228.639 110.219 229.27 109.59 230.073 109.59H233.515C234.318 109.59 234.949 110.219 234.949 111.02C234.949 111.821 234.318 112.45 233.515 112.45ZM221.469 112.45H218.028C217.224 112.45 216.594 111.821 216.594 111.02C216.594 110.219 217.224 109.59 218.028 109.59H221.469C222.272 109.59 222.903 110.219 222.903 111.02C222.903 111.821 222.272 112.45 221.469 112.45ZM209.423 112.45H205.982C205.179 112.45 204.548 111.821 204.548 111.02C204.548 110.219 205.179 109.59 205.982 109.59H209.423C210.227 109.59 210.857 110.219 210.857 111.02C210.857 111.821 210.227 112.45 209.423 112.45ZM197.378 112.45H193.936C193.133 112.45 192.502 111.821 192.502 111.02C192.502 110.219 193.133 109.59 193.936 109.59H197.378C198.181 109.59 198.812 110.219 198.812 111.02C198.812 111.821 198.181 112.45 197.378 112.45ZM185.332 112.45H181.89C181.087 112.45 180.456 111.821 180.456 111.02C180.456 110.219 181.087 109.59 181.89 109.59H185.332C186.135 109.59 186.766 110.219 186.766 111.02C186.766 111.821 186.135 112.45 185.332 112.45ZM173.286 112.45H172.139C171.336 112.45 170.705 111.821 170.705 111.02V108.732C170.705 107.931 171.336 107.301 172.139 107.301C172.942 107.301 173.573 107.931 173.573 108.732V109.618C174.233 109.761 174.72 110.333 174.72 111.02C174.72 111.821 174.089 112.45 173.286 112.45ZM368.284 106.129C367.48 106.129 366.85 105.499 366.85 104.698V101.266C366.85 100.465 367.48 99.8355 368.284 99.8355C369.087 99.8355 369.718 100.465 369.718 101.266V104.698C369.718 105.499 369.087 106.129 368.284 106.129ZM172.139 101.58C171.336 101.58 170.705 100.951 170.705 100.15V96.7176C170.705 95.9166 171.336 95.2873 172.139 95.2873C172.942 95.2873 173.573 95.9166 173.573 96.7176V100.15C173.573 100.951 172.942 101.58 172.139 101.58ZM368.284 94.1145C367.48 94.1145 366.85 93.4852 366.85 92.6843V89.2517C366.85 88.4508 367.48 87.8215 368.284 87.8215C369.087 87.8215 369.718 88.4508 369.718 89.2517V92.6843C369.718 93.4852 369.087 94.1145 368.284 94.1145ZM172.139 89.5664C171.336 89.5664 170.705 88.9371 170.705 88.1361V84.7035C170.705 83.9026 171.336 83.2733 172.139 83.2733C172.942 83.2733 173.573 83.9026 173.573 84.7035V88.1361C173.573 88.9371 172.942 89.5664 172.139 89.5664ZM368.284 82.1005C367.48 82.1005 366.85 81.4712 366.85 80.6703V77.2377C366.85 76.4367 367.48 75.8074 368.284 75.8074C369.087 75.8074 369.718 76.4367 369.718 77.2377V80.6703C369.718 81.4712 369.087 82.1005 368.284 82.1005ZM172.139 77.5523C171.336 77.5523 170.705 76.923 170.705 76.1221V72.6895C170.705 71.8886 171.336 71.2593 172.139 71.2593C172.942 71.2593 173.573 71.8886 173.573 72.6895V76.1221C173.573 76.923 172.942 77.5523 172.139 77.5523ZM368.284 70.0865C367.48 70.0865 366.85 69.4572 366.85 68.6562V65.2236C366.85 64.4227 367.48 63.7934 368.284 63.7934C369.087 63.7934 369.718 64.4227 369.718 65.2236V68.6562C369.718 69.4572 369.087 70.0865 368.284 70.0865ZM172.139 65.5383C171.336 65.5383 170.705 64.909 170.705 64.1081V60.6755C170.705 59.8745 171.336 59.2452 172.139 59.2452C172.942 59.2452 173.573 59.8745 173.573 60.6755V64.1081C173.573 64.909 172.942 65.5383 172.139 65.5383ZM368.284 58.0438C368.226 58.0438 368.14 58.0438 368.083 58.0438H364.871C364.068 58.0438 363.437 57.4145 363.437 56.6136C363.437 55.8127 364.068 55.1833 364.871 55.1833H368.284C369.087 55.1833 369.718 55.8127 369.718 56.6136C369.718 57.4145 369.087 58.0438 368.284 58.0438ZM356.267 58.0438H352.825C352.022 58.0438 351.391 57.4145 351.391 56.6136C351.391 55.8127 352.022 55.1833 352.825 55.1833H356.267C357.07 55.1833 357.701 55.8127 357.701 56.6136C357.701 57.4145 357.07 58.0438 356.267 58.0438ZM344.221 58.0438H340.779C339.976 58.0438 339.345 57.4145 339.345 56.6136C339.345 55.8127 339.976 55.1833 340.779 55.1833H344.221C345.024 55.1833 345.655 55.8127 345.655 56.6136C345.655 57.4145 345.024 58.0438 344.221 58.0438ZM332.175 58.0438H328.733C327.93 58.0438 327.299 57.4145 327.299 56.6136C327.299 55.8127 327.93 55.1833 328.733 55.1833H332.175C332.978 55.1833 333.609 55.8127 333.609 56.6136C333.609 57.4145 332.978 58.0438 332.175 58.0438ZM320.129 58.0438H316.688C315.885 58.0438 315.254 57.4145 315.254 56.6136C315.254 55.8127 315.885 55.1833 316.688 55.1833H320.129C320.932 55.1833 321.563 55.8127 321.563 56.6136C321.563 57.4145 320.932 58.0438 320.129 58.0438ZM308.084 58.0438H304.642C303.839 58.0438 303.208 57.4145 303.208 56.6136C303.208 55.8127 303.839 55.1833 304.642 55.1833H308.084C308.887 55.1833 309.518 55.8127 309.518 56.6136C309.518 57.4145 308.887 58.0438 308.084 58.0438ZM296.038 58.0438H292.596C291.793 58.0438 291.162 57.4145 291.162 56.6136C291.162 55.8127 291.793 55.1833 292.596 55.1833H296.038C296.841 55.1833 297.472 55.8127 297.472 56.6136C297.472 57.4145 296.841 58.0438 296.038 58.0438ZM283.992 58.0438H280.551C279.748 58.0438 279.117 57.4145 279.117 56.6136C279.117 55.8127 279.748 55.1833 280.551 55.1833H283.992C284.795 55.1833 285.426 55.8127 285.426 56.6136C285.426 57.4145 284.795 58.0438 283.992 58.0438ZM271.946 58.0438H268.505C267.702 58.0438 267.071 57.4145 267.071 56.6136C267.071 55.8127 267.702 55.1833 268.505 55.1833H271.946C272.75 55.1833 273.38 55.8127 273.38 56.6136C273.38 57.4145 272.75 58.0438 271.946 58.0438ZM259.901 58.0438H256.459C255.656 58.0438 255.025 57.4145 255.025 56.6136C255.025 55.8127 255.656 55.1833 256.459 55.1833H259.901C260.704 55.1833 261.335 55.8127 261.335 56.6136C261.335 57.4145 260.704 58.0438 259.901 58.0438ZM247.855 58.0438H244.413C243.61 58.0438 242.979 57.4145 242.979 56.6136C242.979 55.8127 243.61 55.1833 244.413 55.1833H247.855C248.658 55.1833 249.289 55.8127 249.289 56.6136C249.289 57.4145 248.658 58.0438 247.855 58.0438ZM235.809 58.0438H232.368C231.565 58.0438 230.934 57.4145 230.934 56.6136C230.934 55.8127 231.565 55.1833 232.368 55.1833H235.809C236.612 55.1833 237.243 55.8127 237.243 56.6136C237.243 57.4145 236.612 58.0438 235.809 58.0438ZM223.764 58.0438H220.322C219.519 58.0438 218.888 57.4145 218.888 56.6136C218.888 55.8127 219.519 55.1833 220.322 55.1833H223.764C224.567 55.1833 225.198 55.8127 225.198 56.6136C225.198 57.4145 224.567 58.0438 223.764 58.0438ZM211.718 58.0438H208.276C207.473 58.0438 206.842 57.4145 206.842 56.6136C206.842 55.8127 207.473 55.1833 208.276 55.1833H211.718C212.521 55.1833 213.152 55.8127 213.152 56.6136C213.152 57.4145 212.521 58.0438 211.718 58.0438ZM199.672 58.0438H196.231C195.427 58.0438 194.797 57.4145 194.797 56.6136C194.797 55.8127 195.427 55.1833 196.231 55.1833H199.672C200.475 55.1833 201.106 55.8127 201.106 56.6136C201.106 57.4145 200.475 58.0438 199.672 58.0438ZM187.626 58.0438H184.185C183.382 58.0438 182.751 57.4145 182.751 56.6136C182.751 55.8127 183.382 55.1833 184.185 55.1833H187.626C188.429 55.1833 189.06 55.8127 189.06 56.6136C189.06 57.4145 188.429 58.0438 187.626 58.0438ZM175.581 58.0438H172.139C171.336 58.0438 170.705 57.4145 170.705 56.6136C170.705 55.8127 171.336 55.1833 172.139 55.1833H175.581C176.384 55.1833 177.015 55.8127 177.015 56.6136C177.015 57.4145 176.384 58.0438 175.581 58.0438Z" fill="#383A48"/>
<path d="M195.599 91.3685C199.764 91.3685 203.141 88.0003 203.141 83.8454C203.141 79.6905 199.764 76.3223 195.599 76.3223C191.433 76.3223 188.056 79.6905 188.056 83.8454C188.056 88.0003 191.433 91.3685 195.599 91.3685Z" fill="#E0719E"/>
<path d="M195.599 92.7987C190.637 92.7987 186.622 88.794 186.622 83.8454C186.622 78.8968 190.637 74.8921 195.599 74.8921C200.561 74.8921 204.576 78.8968 204.576 83.8454C204.576 88.794 200.561 92.7987 195.599 92.7987ZM195.599 77.7526C192.243 77.7526 189.49 80.4986 189.49 83.8454C189.49 87.1922 192.243 89.9382 195.599 89.9382C198.955 89.9382 201.708 87.1922 201.708 83.8454C201.708 80.4986 198.955 77.7526 195.599 77.7526Z" fill="#383A48"/>
<path d="M218.686 91.3685C222.852 91.3685 226.229 88.0003 226.229 83.8454C226.229 79.6905 222.852 76.3223 218.686 76.3223C214.521 76.3223 211.144 79.6905 211.144 83.8454C211.144 88.0003 214.521 91.3685 218.686 91.3685Z" fill="#F6E049"/>
<path d="M218.687 92.7987C213.725 92.7987 209.71 88.794 209.71 83.8454C209.71 78.8968 213.725 74.8921 218.687 74.8921C223.649 74.8921 227.664 78.8968 227.664 83.8454C227.664 88.794 223.649 92.7987 218.687 92.7987ZM218.687 77.7526C215.331 77.7526 212.578 80.4986 212.578 83.8454C212.578 87.1922 215.331 89.9382 218.687 89.9382C222.042 89.9382 224.796 87.1922 224.796 83.8454C224.796 80.4986 222.042 77.7526 218.687 77.7526Z" fill="#383A48"/>
<path d="M241.774 91.3685C245.94 91.3685 249.317 88.0003 249.317 83.8454C249.317 79.6905 245.94 76.3223 241.774 76.3223C237.609 76.3223 234.231 79.6905 234.231 83.8454C234.231 88.0003 237.609 91.3685 241.774 91.3685Z" fill="#7FD6C2"/>
<path d="M241.775 92.7987C236.813 92.7987 232.798 88.794 232.798 83.8454C232.798 78.8968 236.813 74.8921 241.775 74.8921C246.736 74.8921 250.752 78.8968 250.752 83.8454C250.752 88.794 246.736 92.7987 241.775 92.7987ZM241.775 77.7526C238.419 77.7526 235.666 80.4986 235.666 83.8454C235.666 87.1922 238.419 89.9382 241.775 89.9382C245.13 89.9382 247.884 87.1922 247.884 83.8454C247.884 80.4986 245.13 77.7526 241.775 77.7526Z" fill="#383A48"/>
<path d="M404.458 151.312C400.036 151.312 396.431 147.716 396.431 143.306C396.431 138.895 400.036 135.299 404.458 135.299C408.88 135.299 412.486 138.895 412.486 143.306C412.486 147.716 408.909 151.312 404.458 151.312Z" fill="#E0719E"/>
<path d="M404.458 152.717C399.248 152.717 395.022 148.503 395.022 143.306C395.022 138.108 399.248 133.894 404.458 133.894C409.669 133.894 413.894 138.108 413.894 143.306C413.894 148.503 409.669 152.717 404.458 152.717ZM404.458 136.704C400.797 136.704 397.839 139.653 397.839 143.306C397.839 146.958 400.797 149.907 404.458 149.907C408.12 149.907 411.078 146.958 411.078 143.306C411.078 139.653 408.12 136.704 404.458 136.704Z" fill="#383A48"/>
<path d="M171.87 132.611H168.49C167.701 132.611 167.082 131.952 167.082 131.114C167.082 130.275 167.701 129.617 168.49 129.617H171.87C172.659 129.617 173.278 130.275 173.278 131.114C173.278 131.952 172.631 132.611 171.87 132.611ZM160.04 132.611H156.66C155.871 132.611 155.252 131.952 155.252 131.114C155.252 130.275 155.871 129.617 156.66 129.617H160.04C160.829 129.617 161.448 130.275 161.448 131.114C161.448 131.952 160.801 132.611 160.04 132.611ZM148.21 132.611H144.83C144.042 132.611 143.422 131.952 143.422 131.114C143.422 130.275 144.042 129.617 144.83 129.617H148.21C148.999 129.617 149.619 130.275 149.619 131.114C149.619 131.952 148.971 132.611 148.21 132.611ZM136.38 132.611H133C132.212 132.611 131.592 131.952 131.592 131.114C131.592 130.275 132.212 129.617 133 129.617H136.38C137.169 129.617 137.789 130.275 137.789 131.114C137.789 131.952 137.141 132.611 136.38 132.611ZM124.55 132.611H121.17C120.382 132.611 119.762 131.952 119.762 131.114C119.762 130.275 120.382 129.617 121.17 129.617H124.55C125.339 129.617 125.959 130.275 125.959 131.114C125.959 131.952 125.311 132.611 124.55 132.611ZM112.721 132.611H112.495C111.707 132.611 111.087 131.952 111.087 131.114C111.087 130.275 111.707 129.617 112.495 129.617H112.721C113.509 129.617 114.129 130.275 114.129 131.114C114.129 131.952 113.481 132.611 112.721 132.611Z" fill="#383A48"/>
<path d="M171.132 192.928H112.804C112.092 192.928 111.516 193.503 111.516 194.212V252.388C111.516 253.097 112.092 253.672 112.804 253.672H171.132C171.844 253.672 172.42 253.097 172.42 252.388V194.212C172.42 193.503 171.844 192.928 171.132 192.928Z" fill="#383A48"/>
<path d="M112.589 132.328C145.539 132.328 172.277 158.967 172.277 191.858C172.277 224.75 145.567 251.389 112.589 251.389" fill="#F6E049"/>
<path d="M112.589 252.817C111.787 252.817 111.157 252.188 111.157 251.389C111.157 250.59 111.787 249.961 112.589 249.961C128.162 249.961 142.79 243.908 153.783 232.944C164.776 221.981 170.845 207.391 170.845 191.858C170.845 159.823 144.708 133.755 112.589 133.755C111.787 133.755 111.157 133.127 111.157 132.328C111.157 131.528 111.787 130.9 112.589 130.9C146.283 130.9 173.708 158.253 173.708 191.858C173.708 208.161 167.352 223.465 155.816 234.972C144.279 246.478 128.935 252.817 112.589 252.817Z" fill="#383A48"/>
<path d="M112.588 251.389C79.6382 251.389 52.9004 224.75 52.9004 191.858C52.9004 158.967 79.6096 132.328 112.588 132.328" fill="#F6E049"/>
<path d="M112.588 252.817C78.8936 252.817 51.4688 225.464 51.4688 191.858C51.4688 175.555 57.824 160.251 69.3608 148.745C80.8976 137.238 96.2417 130.9 112.588 130.9C113.389 130.9 114.019 131.528 114.019 132.328C114.019 133.127 113.389 133.755 112.588 133.755C97.0147 133.755 82.3862 139.808 71.3933 150.772C60.4004 161.736 54.3315 176.326 54.3315 191.858C54.3315 223.894 80.4681 249.961 112.588 249.961C113.389 249.961 114.019 250.59 114.019 251.389C114.019 252.188 113.389 252.817 112.588 252.817Z" fill="#383A48"/>
<path d="M115.593 130.614C116.384 130.614 117.025 129.975 117.025 129.187C117.025 128.398 116.384 127.759 115.593 127.759C114.803 127.759 114.162 128.398 114.162 129.187C114.162 129.975 114.803 130.614 115.593 130.614Z" fill="#383A48"/>
<path d="M115.593 137.667C116.384 137.667 117.025 137.028 117.025 136.239C117.025 135.451 116.384 134.812 115.593 134.812C114.803 134.812 114.162 135.451 114.162 136.239C114.162 137.028 114.803 137.667 115.593 137.667Z" fill="#383A48"/>
<path d="M115.593 144.719C116.384 144.719 117.025 144.08 117.025 143.292C117.025 142.503 116.384 141.864 115.593 141.864C114.803 141.864 114.162 142.503 114.162 143.292C114.162 144.08 114.803 144.719 115.593 144.719Z" fill="#383A48"/>
<path d="M115.593 151.771C116.384 151.771 117.025 151.132 117.025 150.344C117.025 149.555 116.384 148.916 115.593 148.916C114.803 148.916 114.162 149.555 114.162 150.344C114.162 151.132 114.803 151.771 115.593 151.771Z" fill="#383A48"/>
<path d="M115.593 158.824C116.384 158.824 117.025 158.185 117.025 157.396C117.025 156.608 116.384 155.969 115.593 155.969C114.803 155.969 114.162 156.608 114.162 157.396C114.162 158.185 114.803 158.824 115.593 158.824Z" fill="#383A48"/>
<path d="M115.593 165.876C116.384 165.876 117.025 165.237 117.025 164.448C117.025 163.66 116.384 163.021 115.593 163.021C114.803 163.021 114.162 163.66 114.162 164.448C114.162 165.237 114.803 165.876 115.593 165.876Z" fill="#383A48"/>
<path d="M115.593 172.928C116.384 172.928 117.025 172.289 117.025 171.501C117.025 170.712 116.384 170.073 115.593 170.073C114.803 170.073 114.162 170.712 114.162 171.501C114.162 172.289 114.803 172.928 115.593 172.928Z" fill="#383A48"/>
<path d="M115.593 179.981C116.384 179.981 117.025 179.342 117.025 178.553C117.025 177.765 116.384 177.126 115.593 177.126C114.803 177.126 114.162 177.765 114.162 178.553C114.162 179.342 114.803 179.981 115.593 179.981Z" fill="#383A48"/>
<path d="M115.593 187.033C116.384 187.033 117.025 186.394 117.025 185.605C117.025 184.817 116.384 184.178 115.593 184.178C114.803 184.178 114.162 184.817 114.162 185.605C114.162 186.394 114.803 187.033 115.593 187.033Z" fill="#383A48"/>
<path d="M115.593 194.085C116.384 194.085 117.025 193.446 117.025 192.658C117.025 191.869 116.384 191.23 115.593 191.23C114.803 191.23 114.162 191.869 114.162 192.658C114.162 193.446 114.803 194.085 115.593 194.085Z" fill="#383A48"/>
<path d="M115.593 201.138C116.384 201.138 117.025 200.498 117.025 199.71C117.025 198.922 116.384 198.282 115.593 198.282C114.803 198.282 114.162 198.922 114.162 199.71C114.162 200.498 114.803 201.138 115.593 201.138Z" fill="#383A48"/>
<path d="M115.593 208.19C116.384 208.19 117.025 207.551 117.025 206.762C117.025 205.974 116.384 205.335 115.593 205.335C114.803 205.335 114.162 205.974 114.162 206.762C114.162 207.551 114.803 208.19 115.593 208.19Z" fill="#383A48"/>
<path d="M115.593 215.242C116.384 215.242 117.025 214.603 117.025 213.815C117.025 213.026 116.384 212.387 115.593 212.387C114.803 212.387 114.162 213.026 114.162 213.815C114.162 214.603 114.803 215.242 115.593 215.242Z" fill="#383A48"/>
<path d="M115.593 222.295C116.384 222.295 117.025 221.656 117.025 220.867C117.025 220.079 116.384 219.439 115.593 219.439C114.803 219.439 114.162 220.079 114.162 220.867C114.162 221.656 114.803 222.295 115.593 222.295Z" fill="#383A48"/>
<path d="M115.593 229.347C116.384 229.347 117.025 228.708 117.025 227.919C117.025 227.131 116.384 226.492 115.593 226.492C114.803 226.492 114.162 227.131 114.162 227.919C114.162 228.708 114.803 229.347 115.593 229.347Z" fill="#383A48"/>
<path d="M115.593 236.399C116.384 236.399 117.025 235.76 117.025 234.972C117.025 234.183 116.384 233.544 115.593 233.544C114.803 233.544 114.162 234.183 114.162 234.972C114.162 235.76 114.803 236.399 115.593 236.399Z" fill="#383A48"/>
<path d="M115.593 243.452C116.384 243.452 117.025 242.812 117.025 242.024C117.025 241.236 116.384 240.596 115.593 240.596C114.803 240.596 114.162 241.236 114.162 242.024C114.162 242.812 114.803 243.452 115.593 243.452Z" fill="#383A48"/>
<path d="M115.593 250.504C116.384 250.504 117.025 249.865 117.025 249.076C117.025 248.288 116.384 247.649 115.593 247.649C114.803 247.649 114.162 248.288 114.162 249.076C114.162 249.865 114.803 250.504 115.593 250.504Z" fill="#383A48"/>
<path d="M108.523 130.614C109.314 130.614 109.955 129.975 109.955 129.187C109.955 128.398 109.314 127.759 108.523 127.759C107.733 127.759 107.092 128.398 107.092 129.187C107.092 129.975 107.733 130.614 108.523 130.614Z" fill="#383A48"/>
<path d="M108.523 137.667C109.314 137.667 109.955 137.028 109.955 136.239C109.955 135.451 109.314 134.812 108.523 134.812C107.733 134.812 107.092 135.451 107.092 136.239C107.092 137.028 107.733 137.667 108.523 137.667Z" fill="#383A48"/>
<path d="M108.523 144.719C109.314 144.719 109.955 144.08 109.955 143.292C109.955 142.503 109.314 141.864 108.523 141.864C107.733 141.864 107.092 142.503 107.092 143.292C107.092 144.08 107.733 144.719 108.523 144.719Z" fill="#383A48"/>
<path d="M108.523 151.771C109.314 151.771 109.955 151.132 109.955 150.344C109.955 149.555 109.314 148.916 108.523 148.916C107.733 148.916 107.092 149.555 107.092 150.344C107.092 151.132 107.733 151.771 108.523 151.771Z" fill="#383A48"/>
<path d="M108.523 158.824C109.314 158.824 109.955 158.185 109.955 157.396C109.955 156.608 109.314 155.969 108.523 155.969C107.733 155.969 107.092 156.608 107.092 157.396C107.092 158.185 107.733 158.824 108.523 158.824Z" fill="#383A48"/>
<path d="M108.523 165.876C109.314 165.876 109.955 165.237 109.955 164.448C109.955 163.66 109.314 163.021 108.523 163.021C107.733 163.021 107.092 163.66 107.092 164.448C107.092 165.237 107.733 165.876 108.523 165.876Z" fill="#383A48"/>
<path d="M108.523 172.928C109.314 172.928 109.955 172.289 109.955 171.501C109.955 170.712 109.314 170.073 108.523 170.073C107.733 170.073 107.092 170.712 107.092 171.501C107.092 172.289 107.733 172.928 108.523 172.928Z" fill="#383A48"/>
<path d="M108.523 179.981C109.314 179.981 109.955 179.342 109.955 178.553C109.955 177.765 109.314 177.126 108.523 177.126C107.733 177.126 107.092 177.765 107.092 178.553C107.092 179.342 107.733 179.981 108.523 179.981Z" fill="#383A48"/>
<path d="M108.523 187.033C109.314 187.033 109.955 186.394 109.955 185.605C109.955 184.817 109.314 184.178 108.523 184.178C107.733 184.178 107.092 184.817 107.092 185.605C107.092 186.394 107.733 187.033 108.523 187.033Z" fill="#383A48"/>
<path d="M108.523 194.085C109.314 194.085 109.955 193.446 109.955 192.658C109.955 191.869 109.314 191.23 108.523 191.23C107.733 191.23 107.092 191.869 107.092 192.658C107.092 193.446 107.733 194.085 108.523 194.085Z" fill="#383A48"/>
<path d="M108.523 201.138C109.314 201.138 109.955 200.498 109.955 199.71C109.955 198.922 109.314 198.282 108.523 198.282C107.733 198.282 107.092 198.922 107.092 199.71C107.092 200.498 107.733 201.138 108.523 201.138Z" fill="#383A48"/>
<path d="M108.523 208.19C109.314 208.19 109.955 207.551 109.955 206.762C109.955 205.974 109.314 205.335 108.523 205.335C107.733 205.335 107.092 205.974 107.092 206.762C107.092 207.551 107.733 208.19 108.523 208.19Z" fill="#383A48"/>
<path d="M108.523 215.242C109.314 215.242 109.955 214.603 109.955 213.815C109.955 213.026 109.314 212.387 108.523 212.387C107.733 212.387 107.092 213.026 107.092 213.815C107.092 214.603 107.733 215.242 108.523 215.242Z" fill="#383A48"/>
<path d="M108.523 222.295C109.314 222.295 109.955 221.656 109.955 220.867C109.955 220.079 109.314 219.439 108.523 219.439C107.733 219.439 107.092 220.079 107.092 220.867C107.092 221.656 107.733 222.295 108.523 222.295Z" fill="#383A48"/>
<path d="M108.523 229.347C109.314 229.347 109.955 228.708 109.955 227.919C109.955 227.131 109.314 226.492 108.523 226.492C107.733 226.492 107.092 227.131 107.092 227.919C107.092 228.708 107.733 229.347 108.523 229.347Z" fill="#383A48"/>
<path d="M108.523 236.399C109.314 236.399 109.955 235.76 109.955 234.972C109.955 234.183 109.314 233.544 108.523 233.544C107.733 233.544 107.092 234.183 107.092 234.972C107.092 235.76 107.733 236.399 108.523 236.399Z" fill="#383A48"/>
<path d="M108.523 243.452C109.314 243.452 109.955 242.812 109.955 242.024C109.955 241.236 109.314 240.596 108.523 240.596C107.733 240.596 107.092 241.236 107.092 242.024C107.092 242.812 107.733 243.452 108.523 243.452Z" fill="#383A48"/>
<path d="M108.523 250.504C109.314 250.504 109.955 249.865 109.955 249.076C109.955 248.288 109.314 247.649 108.523 247.649C107.733 247.649 107.092 248.288 107.092 249.076C107.092 249.865 107.733 250.504 108.523 250.504Z" fill="#383A48"/>
<path d="M101.453 130.614C102.243 130.614 102.884 129.975 102.884 129.187C102.884 128.398 102.243 127.759 101.453 127.759C100.662 127.759 100.021 128.398 100.021 129.187C100.021 129.975 100.662 130.614 101.453 130.614Z" fill="#383A48"/>
<path d="M101.453 137.667C102.243 137.667 102.884 137.028 102.884 136.239C102.884 135.451 102.243 134.812 101.453 134.812C100.662 134.812 100.021 135.451 100.021 136.239C100.021 137.028 100.662 137.667 101.453 137.667Z" fill="#383A48"/>
<path d="M101.453 144.719C102.243 144.719 102.884 144.08 102.884 143.292C102.884 142.503 102.243 141.864 101.453 141.864C100.662 141.864 100.021 142.503 100.021 143.292C100.021 144.08 100.662 144.719 101.453 144.719Z" fill="#383A48"/>
<path d="M101.453 151.771C102.243 151.771 102.884 151.132 102.884 150.344C102.884 149.555 102.243 148.916 101.453 148.916C100.662 148.916 100.021 149.555 100.021 150.344C100.021 151.132 100.662 151.771 101.453 151.771Z" fill="#383A48"/>
<path d="M101.453 158.824C102.243 158.824 102.884 158.185 102.884 157.396C102.884 156.608 102.243 155.969 101.453 155.969C100.662 155.969 100.021 156.608 100.021 157.396C100.021 158.185 100.662 158.824 101.453 158.824Z" fill="#383A48"/>
<path d="M101.453 165.876C102.243 165.876 102.884 165.237 102.884 164.448C102.884 163.66 102.243 163.021 101.453 163.021C100.662 163.021 100.021 163.66 100.021 164.448C100.021 165.237 100.662 165.876 101.453 165.876Z" fill="#383A48"/>
<path d="M101.453 172.928C102.243 172.928 102.884 172.289 102.884 171.501C102.884 170.712 102.243 170.073 101.453 170.073C100.662 170.073 100.021 170.712 100.021 171.501C100.021 172.289 100.662 172.928 101.453 172.928Z" fill="#383A48"/>
<path d="M101.453 179.981C102.243 179.981 102.884 179.342 102.884 178.553C102.884 177.765 102.243 177.126 101.453 177.126C100.662 177.126 100.021 177.765 100.021 178.553C100.021 179.342 100.662 179.981 101.453 179.981Z" fill="#383A48"/>
<path d="M101.453 187.033C102.243 187.033 102.884 186.394 102.884 185.605C102.884 184.817 102.243 184.178 101.453 184.178C100.662 184.178 100.021 184.817 100.021 185.605C100.021 186.394 100.662 187.033 101.453 187.033Z" fill="#383A48"/>
<path d="M101.453 194.085C102.243 194.085 102.884 193.446 102.884 192.658C102.884 191.869 102.243 191.23 101.453 191.23C100.662 191.23 100.021 191.869 100.021 192.658C100.021 193.446 100.662 194.085 101.453 194.085Z" fill="#383A48"/>
<path d="M101.453 201.138C102.243 201.138 102.884 200.498 102.884 199.71C102.884 198.922 102.243 198.282 101.453 198.282C100.662 198.282 100.021 198.922 100.021 199.71C100.021 200.498 100.662 201.138 101.453 201.138Z" fill="#383A48"/>
<path d="M101.453 208.19C102.243 208.19 102.884 207.551 102.884 206.762C102.884 205.974 102.243 205.335 101.453 205.335C100.662 205.335 100.021 205.974 100.021 206.762C100.021 207.551 100.662 208.19 101.453 208.19Z" fill="#383A48"/>
<path d="M101.453 215.242C102.243 215.242 102.884 214.603 102.884 213.815C102.884 213.026 102.243 212.387 101.453 212.387C100.662 212.387 100.021 213.026 100.021 213.815C100.021 214.603 100.662 215.242 101.453 215.242Z" fill="#383A48"/>
<path d="M101.453 222.295C102.243 222.295 102.884 221.656 102.884 220.867C102.884 220.079 102.243 219.439 101.453 219.439C100.662 219.439 100.021 220.079 100.021 220.867C100.021 221.656 100.662 222.295 101.453 222.295Z" fill="#383A48"/>
<path d="M101.453 229.347C102.243 229.347 102.884 228.708 102.884 227.919C102.884 227.131 102.243 226.492 101.453 226.492C100.662 226.492 100.021 227.131 100.021 227.919C100.021 228.708 100.662 229.347 101.453 229.347Z" fill="#383A48"/>
<path d="M101.453 236.399C102.243 236.399 102.884 235.76 102.884 234.972C102.884 234.183 102.243 233.544 101.453 233.544C100.662 233.544 100.021 234.183 100.021 234.972C100.021 235.76 100.662 236.399 101.453 236.399Z" fill="#383A48"/>
<path d="M101.453 243.452C102.243 243.452 102.884 242.812 102.884 242.024C102.884 241.236 102.243 240.596 101.453 240.596C100.662 240.596 100.021 241.236 100.021 242.024C100.021 242.812 100.662 243.452 101.453 243.452Z" fill="#383A48"/>
<path d="M101.453 250.504C102.243 250.504 102.884 249.865 102.884 249.076C102.884 248.288 102.243 247.649 101.453 247.649C100.662 247.649 100.021 248.288 100.021 249.076C100.021 249.865 100.662 250.504 101.453 250.504Z" fill="#383A48"/>
<path d="M94.3816 130.614C95.1721 130.614 95.8129 129.975 95.8129 129.187C95.8129 128.398 95.1721 127.759 94.3816 127.759C93.591 127.759 92.9502 128.398 92.9502 129.187C92.9502 129.975 93.591 130.614 94.3816 130.614Z" fill="#383A48"/>
<path d="M94.3816 137.667C95.1721 137.667 95.8129 137.028 95.8129 136.239C95.8129 135.451 95.1721 134.812 94.3816 134.812C93.591 134.812 92.9502 135.451 92.9502 136.239C92.9502 137.028 93.591 137.667 94.3816 137.667Z" fill="#383A48"/>
<path d="M94.3816 144.719C95.1721 144.719 95.8129 144.08 95.8129 143.292C95.8129 142.503 95.1721 141.864 94.3816 141.864C93.591 141.864 92.9502 142.503 92.9502 143.292C92.9502 144.08 93.591 144.719 94.3816 144.719Z" fill="#383A48"/>
<path d="M94.3816 151.771C95.1721 151.771 95.8129 151.132 95.8129 150.344C95.8129 149.555 95.1721 148.916 94.3816 148.916C93.591 148.916 92.9502 149.555 92.9502 150.344C92.9502 151.132 93.591 151.771 94.3816 151.771Z" fill="#383A48"/>
<path d="M94.3816 158.824C95.1721 158.824 95.8129 158.185 95.8129 157.396C95.8129 156.608 95.1721 155.969 94.3816 155.969C93.591 155.969 92.9502 156.608 92.9502 157.396C92.9502 158.185 93.591 158.824 94.3816 158.824Z" fill="#383A48"/>
<path d="M94.3816 165.876C95.1721 165.876 95.8129 165.237 95.8129 164.448C95.8129 163.66 95.1721 163.021 94.3816 163.021C93.591 163.021 92.9502 163.66 92.9502 164.448C92.9502 165.237 93.591 165.876 94.3816 165.876Z" fill="#383A48"/>
<path d="M94.3816 172.928C95.1721 172.928 95.8129 172.289 95.8129 171.501C95.8129 170.712 95.1721 170.073 94.3816 170.073C93.591 170.073 92.9502 170.712 92.9502 171.501C92.9502 172.289 93.591 172.928 94.3816 172.928Z" fill="#383A48"/>
<path d="M94.3816 179.981C95.1721 179.981 95.8129 179.342 95.8129 178.553C95.8129 177.765 95.1721 177.126 94.3816 177.126C93.591 177.126 92.9502 177.765 92.9502 178.553C92.9502 179.342 93.591 179.981 94.3816 179.981Z" fill="#383A48"/>
<path d="M94.3816 187.033C95.1721 187.033 95.8129 186.394 95.8129 185.605C95.8129 184.817 95.1721 184.178 94.3816 184.178C93.591 184.178 92.9502 184.817 92.9502 185.605C92.9502 186.394 93.591 187.033 94.3816 187.033Z" fill="#383A48"/>
<path d="M94.3816 194.085C95.1721 194.085 95.8129 193.446 95.8129 192.658C95.8129 191.869 95.1721 191.23 94.3816 191.23C93.591 191.23 92.9502 191.869 92.9502 192.658C92.9502 193.446 93.591 194.085 94.3816 194.085Z" fill="#383A48"/>
<path d="M94.3816 201.138C95.1721 201.138 95.8129 200.498 95.8129 199.71C95.8129 198.922 95.1721 198.282 94.3816 198.282C93.591 198.282 92.9502 198.922 92.9502 199.71C92.9502 200.498 93.591 201.138 94.3816 201.138Z" fill="#383A48"/>
<path d="M94.3816 208.19C95.1721 208.19 95.8129 207.551 95.8129 206.762C95.8129 205.974 95.1721 205.335 94.3816 205.335C93.591 205.335 92.9502 205.974 92.9502 206.762C92.9502 207.551 93.591 208.19 94.3816 208.19Z" fill="#383A48"/>
<path d="M94.3816 215.242C95.1721 215.242 95.8129 214.603 95.8129 213.815C95.8129 213.026 95.1721 212.387 94.3816 212.387C93.591 212.387 92.9502 213.026 92.9502 213.815C92.9502 214.603 93.591 215.242 94.3816 215.242Z" fill="#383A48"/>
<path d="M94.3816 222.295C95.1721 222.295 95.8129 221.656 95.8129 220.867C95.8129 220.079 95.1721 219.439 94.3816 219.439C93.591 219.439 92.9502 220.079 92.9502 220.867C92.9502 221.656 93.591 222.295 94.3816 222.295Z" fill="#383A48"/>
<path d="M94.3816 229.347C95.1721 229.347 95.8129 228.708 95.8129 227.919C95.8129 227.131 95.1721 226.492 94.3816 226.492C93.591 226.492 92.9502 227.131 92.9502 227.919C92.9502 228.708 93.591 229.347 94.3816 229.347Z" fill="#383A48"/>
<path d="M94.3816 236.399C95.1721 236.399 95.8129 235.76 95.8129 234.972C95.8129 234.183 95.1721 233.544 94.3816 233.544C93.591 233.544 92.9502 234.183 92.9502 234.972C92.9502 235.76 93.591 236.399 94.3816 236.399Z" fill="#383A48"/>
<path d="M94.3816 243.452C95.1721 243.452 95.8129 242.812 95.8129 242.024C95.8129 241.236 95.1721 240.596 94.3816 240.596C93.591 240.596 92.9502 241.236 92.9502 242.024C92.9502 242.812 93.591 243.452 94.3816 243.452Z" fill="#383A48"/>
<path d="M94.3816 250.504C95.1721 250.504 95.8129 249.865 95.8129 249.076C95.8129 248.288 95.1721 247.649 94.3816 247.649C93.591 247.649 92.9502 248.288 92.9502 249.076C92.9502 249.865 93.591 250.504 94.3816 250.504Z" fill="#383A48"/>
<path d="M87.3103 130.614C88.1008 130.614 88.7416 129.975 88.7416 129.187C88.7416 128.398 88.1008 127.759 87.3103 127.759C86.5198 127.759 85.8789 128.398 85.8789 129.187C85.8789 129.975 86.5198 130.614 87.3103 130.614Z" fill="#383A48"/>
<path d="M87.3103 137.667C88.1008 137.667 88.7416 137.028 88.7416 136.239C88.7416 135.451 88.1008 134.812 87.3103 134.812C86.5198 134.812 85.8789 135.451 85.8789 136.239C85.8789 137.028 86.5198 137.667 87.3103 137.667Z" fill="#383A48"/>
<path d="M87.3103 144.719C88.1008 144.719 88.7416 144.08 88.7416 143.292C88.7416 142.503 88.1008 141.864 87.3103 141.864C86.5198 141.864 85.8789 142.503 85.8789 143.292C85.8789 144.08 86.5198 144.719 87.3103 144.719Z" fill="#383A48"/>
<path d="M87.3103 151.771C88.1008 151.771 88.7416 151.132 88.7416 150.344C88.7416 149.555 88.1008 148.916 87.3103 148.916C86.5198 148.916 85.8789 149.555 85.8789 150.344C85.8789 151.132 86.5198 151.771 87.3103 151.771Z" fill="#383A48"/>
<path d="M87.3103 158.824C88.1008 158.824 88.7416 158.185 88.7416 157.396C88.7416 156.608 88.1008 155.969 87.3103 155.969C86.5198 155.969 85.8789 156.608 85.8789 157.396C85.8789 158.185 86.5198 158.824 87.3103 158.824Z" fill="#383A48"/>
<path d="M87.3103 165.876C88.1008 165.876 88.7416 165.237 88.7416 164.448C88.7416 163.66 88.1008 163.021 87.3103 163.021C86.5198 163.021 85.8789 163.66 85.8789 164.448C85.8789 165.237 86.5198 165.876 87.3103 165.876Z" fill="#383A48"/>
<path d="M87.3103 172.928C88.1008 172.928 88.7416 172.289 88.7416 171.501C88.7416 170.712 88.1008 170.073 87.3103 170.073C86.5198 170.073 85.8789 170.712 85.8789 171.501C85.8789 172.289 86.5198 172.928 87.3103 172.928Z" fill="#383A48"/>
<path d="M87.3103 179.981C88.1008 179.981 88.7416 179.342 88.7416 178.553C88.7416 177.765 88.1008 177.126 87.3103 177.126C86.5198 177.126 85.8789 177.765 85.8789 178.553C85.8789 179.342 86.5198 179.981 87.3103 179.981Z" fill="#383A48"/>
<path d="M87.3103 187.033C88.1008 187.033 88.7416 186.394 88.7416 185.605C88.7416 184.817 88.1008 184.178 87.3103 184.178C86.5198 184.178 85.8789 184.817 85.8789 185.605C85.8789 186.394 86.5198 187.033 87.3103 187.033Z" fill="#383A48"/>
<path d="M87.3103 194.085C88.1008 194.085 88.7416 193.446 88.7416 192.658C88.7416 191.869 88.1008 191.23 87.3103 191.23C86.5198 191.23 85.8789 191.869 85.8789 192.658C85.8789 193.446 86.5198 194.085 87.3103 194.085Z" fill="#383A48"/>
<path d="M87.3103 201.138C88.1008 201.138 88.7416 200.498 88.7416 199.71C88.7416 198.922 88.1008 198.282 87.3103 198.282C86.5198 198.282 85.8789 198.922 85.8789 199.71C85.8789 200.498 86.5198 201.138 87.3103 201.138Z" fill="#383A48"/>
<path d="M87.3103 208.19C88.1008 208.19 88.7416 207.551 88.7416 206.762C88.7416 205.974 88.1008 205.335 87.3103 205.335C86.5198 205.335 85.8789 205.974 85.8789 206.762C85.8789 207.551 86.5198 208.19 87.3103 208.19Z" fill="#383A48"/>
<path d="M87.3103 215.242C88.1008 215.242 88.7416 214.603 88.7416 213.815C88.7416 213.026 88.1008 212.387 87.3103 212.387C86.5198 212.387 85.8789 213.026 85.8789 213.815C85.8789 214.603 86.5198 215.242 87.3103 215.242Z" fill="#383A48"/>
<path d="M87.3103 222.295C88.1008 222.295 88.7416 221.656 88.7416 220.867C88.7416 220.079 88.1008 219.439 87.3103 219.439C86.5198 219.439 85.8789 220.079 85.8789 220.867C85.8789 221.656 86.5198 222.295 87.3103 222.295Z" fill="#383A48"/>
<path d="M87.3103 229.347C88.1008 229.347 88.7416 228.708 88.7416 227.919C88.7416 227.131 88.1008 226.492 87.3103 226.492C86.5198 226.492 85.8789 227.131 85.8789 227.919C85.8789 228.708 86.5198 229.347 87.3103 229.347Z" fill="#383A48"/>
<path d="M87.3103 236.399C88.1008 236.399 88.7416 235.76 88.7416 234.972C88.7416 234.183 88.1008 233.544 87.3103 233.544C86.5198 233.544 85.8789 234.183 85.8789 234.972C85.8789 235.76 86.5198 236.399 87.3103 236.399Z" fill="#383A48"/>
<path d="M87.3103 243.452C88.1008 243.452 88.7416 242.812 88.7416 242.024C88.7416 241.236 88.1008 240.596 87.3103 240.596C86.5198 240.596 85.8789 241.236 85.8789 242.024C85.8789 242.812 86.5198 243.452 87.3103 243.452Z" fill="#383A48"/>
<path d="M87.3103 250.504C88.1008 250.504 88.7416 249.865 88.7416 249.076C88.7416 248.288 88.1008 247.649 87.3103 247.649C86.5198 247.649 85.8789 248.288 85.8789 249.076C85.8789 249.865 86.5198 250.504 87.3103 250.504Z" fill="#383A48"/>
<path d="M80.24 130.614C81.0305 130.614 81.6713 129.975 81.6713 129.187C81.6713 128.398 81.0305 127.759 80.24 127.759C79.4494 127.759 78.8086 128.398 78.8086 129.187C78.8086 129.975 79.4494 130.614 80.24 130.614Z" fill="#383A48"/>
<path d="M80.24 137.667C81.0305 137.667 81.6713 137.028 81.6713 136.239C81.6713 135.451 81.0305 134.812 80.24 134.812C79.4494 134.812 78.8086 135.451 78.8086 136.239C78.8086 137.028 79.4494 137.667 80.24 137.667Z" fill="#383A48"/>
<path d="M80.24 144.719C81.0305 144.719 81.6713 144.08 81.6713 143.292C81.6713 142.503 81.0305 141.864 80.24 141.864C79.4494 141.864 78.8086 142.503 78.8086 143.292C78.8086 144.08 79.4494 144.719 80.24 144.719Z" fill="#383A48"/>
<path d="M80.24 151.771C81.0305 151.771 81.6713 151.132 81.6713 150.344C81.6713 149.555 81.0305 148.916 80.24 148.916C79.4494 148.916 78.8086 149.555 78.8086 150.344C78.8086 151.132 79.4494 151.771 80.24 151.771Z" fill="#383A48"/>
<path d="M80.24 158.824C81.0305 158.824 81.6713 158.185 81.6713 157.396C81.6713 156.608 81.0305 155.969 80.24 155.969C79.4494 155.969 78.8086 156.608 78.8086 157.396C78.8086 158.185 79.4494 158.824 80.24 158.824Z" fill="#383A48"/>
<path d="M80.24 165.876C81.0305 165.876 81.6713 165.237 81.6713 164.448C81.6713 163.66 81.0305 163.021 80.24 163.021C79.4494 163.021 78.8086 163.66 78.8086 164.448C78.8086 165.237 79.4494 165.876 80.24 165.876Z" fill="#383A48"/>
<path d="M80.24 172.928C81.0305 172.928 81.6713 172.289 81.6713 171.501C81.6713 170.712 81.0305 170.073 80.24 170.073C79.4494 170.073 78.8086 170.712 78.8086 171.501C78.8086 172.289 79.4494 172.928 80.24 172.928Z" fill="#383A48"/>
<path d="M80.24 179.981C81.0305 179.981 81.6713 179.342 81.6713 178.553C81.6713 177.765 81.0305 177.126 80.24 177.126C79.4494 177.126 78.8086 177.765 78.8086 178.553C78.8086 179.342 79.4494 179.981 80.24 179.981Z" fill="#383A48"/>
<path d="M80.24 187.033C81.0305 187.033 81.6713 186.394 81.6713 185.605C81.6713 184.817 81.0305 184.178 80.24 184.178C79.4494 184.178 78.8086 184.817 78.8086 185.605C78.8086 186.394 79.4494 187.033 80.24 187.033Z" fill="#383A48"/>
<path d="M80.24 194.085C81.0305 194.085 81.6713 193.446 81.6713 192.658C81.6713 191.869 81.0305 191.23 80.24 191.23C79.4494 191.23 78.8086 191.869 78.8086 192.658C78.8086 193.446 79.4494 194.085 80.24 194.085Z" fill="#383A48"/>
<path d="M80.24 201.138C81.0305 201.138 81.6713 200.498 81.6713 199.71C81.6713 198.922 81.0305 198.282 80.24 198.282C79.4494 198.282 78.8086 198.922 78.8086 199.71C78.8086 200.498 79.4494 201.138 80.24 201.138Z" fill="#383A48"/>
<path d="M80.24 208.19C81.0305 208.19 81.6713 207.551 81.6713 206.762C81.6713 205.974 81.0305 205.335 80.24 205.335C79.4494 205.335 78.8086 205.974 78.8086 206.762C78.8086 207.551 79.4494 208.19 80.24 208.19Z" fill="#383A48"/>
<path d="M80.24 215.242C81.0305 215.242 81.6713 214.603 81.6713 213.815C81.6713 213.026 81.0305 212.387 80.24 212.387C79.4494 212.387 78.8086 213.026 78.8086 213.815C78.8086 214.603 79.4494 215.242 80.24 215.242Z" fill="#383A48"/>
<path d="M80.24 222.295C81.0305 222.295 81.6713 221.656 81.6713 220.867C81.6713 220.079 81.0305 219.439 80.24 219.439C79.4494 219.439 78.8086 220.079 78.8086 220.867C78.8086 221.656 79.4494 222.295 80.24 222.295Z" fill="#383A48"/>
<path d="M80.24 229.347C81.0305 229.347 81.6713 228.708 81.6713 227.919C81.6713 227.131 81.0305 226.492 80.24 226.492C79.4494 226.492 78.8086 227.131 78.8086 227.919C78.8086 228.708 79.4494 229.347 80.24 229.347Z" fill="#383A48"/>
<path d="M80.24 236.399C81.0305 236.399 81.6713 235.76 81.6713 234.972C81.6713 234.183 81.0305 233.544 80.24 233.544C79.4494 233.544 78.8086 234.183 78.8086 234.972C78.8086 235.76 79.4494 236.399 80.24 236.399Z" fill="#383A48"/>
<path d="M80.24 243.452C81.0305 243.452 81.6713 242.812 81.6713 242.024C81.6713 241.236 81.0305 240.596 80.24 240.596C79.4494 240.596 78.8086 241.236 78.8086 242.024C78.8086 242.812 79.4494 243.452 80.24 243.452Z" fill="#383A48"/>
<path d="M80.24 250.504C81.0305 250.504 81.6713 249.865 81.6713 249.076C81.6713 248.288 81.0305 247.649 80.24 247.649C79.4494 247.649 78.8086 248.288 78.8086 249.076C78.8086 249.865 79.4494 250.504 80.24 250.504Z" fill="#383A48"/>
<path d="M73.1687 130.614C73.9592 130.614 74.6 129.975 74.6 129.187C74.6 128.398 73.9592 127.759 73.1687 127.759C72.3781 127.759 71.7373 128.398 71.7373 129.187C71.7373 129.975 72.3781 130.614 73.1687 130.614Z" fill="#383A48"/>
<path d="M73.1687 137.667C73.9592 137.667 74.6 137.028 74.6 136.239C74.6 135.451 73.9592 134.812 73.1687 134.812C72.3781 134.812 71.7373 135.451 71.7373 136.239C71.7373 137.028 72.3781 137.667 73.1687 137.667Z" fill="#383A48"/>
<path d="M73.1687 144.719C73.9592 144.719 74.6 144.08 74.6 143.292C74.6 142.503 73.9592 141.864 73.1687 141.864C72.3781 141.864 71.7373 142.503 71.7373 143.292C71.7373 144.08 72.3781 144.719 73.1687 144.719Z" fill="#383A48"/>
<path d="M73.1687 151.771C73.9592 151.771 74.6 151.132 74.6 150.344C74.6 149.555 73.9592 148.916 73.1687 148.916C72.3781 148.916 71.7373 149.555 71.7373 150.344C71.7373 151.132 72.3781 151.771 73.1687 151.771Z" fill="#383A48"/>
<path d="M73.1687 158.824C73.9592 158.824 74.6 158.185 74.6 157.396C74.6 156.608 73.9592 155.969 73.1687 155.969C72.3781 155.969 71.7373 156.608 71.7373 157.396C71.7373 158.185 72.3781 158.824 73.1687 158.824Z" fill="#383A48"/>
<path d="M73.1687 165.876C73.9592 165.876 74.6 165.237 74.6 164.448C74.6 163.66 73.9592 163.021 73.1687 163.021C72.3781 163.021 71.7373 163.66 71.7373 164.448C71.7373 165.237 72.3781 165.876 73.1687 165.876Z" fill="#383A48"/>
<path d="M73.1687 172.928C73.9592 172.928 74.6 172.289 74.6 171.501C74.6 170.712 73.9592 170.073 73.1687 170.073C72.3781 170.073 71.7373 170.712 71.7373 171.501C71.7373 172.289 72.3781 172.928 73.1687 172.928Z" fill="#383A48"/>
<path d="M73.1687 179.981C73.9592 179.981 74.6 179.342 74.6 178.553C74.6 177.765 73.9592 177.126 73.1687 177.126C72.3781 177.126 71.7373 177.765 71.7373 178.553C71.7373 179.342 72.3781 179.981 73.1687 179.981Z" fill="#383A48"/>
<path d="M73.1687 187.033C73.9592 187.033 74.6 186.394 74.6 185.605C74.6 184.817 73.9592 184.178 73.1687 184.178C72.3781 184.178 71.7373 184.817 71.7373 185.605C71.7373 186.394 72.3781 187.033 73.1687 187.033Z" fill="#383A48"/>
<path d="M73.1687 194.085C73.9592 194.085 74.6 193.446 74.6 192.658C74.6 191.869 73.9592 191.23 73.1687 191.23C72.3781 191.23 71.7373 191.869 71.7373 192.658C71.7373 193.446 72.3781 194.085 73.1687 194.085Z" fill="#383A48"/>
<path d="M73.1687 201.138C73.9592 201.138 74.6 200.498 74.6 199.71C74.6 198.922 73.9592 198.282 73.1687 198.282C72.3781 198.282 71.7373 198.922 71.7373 199.71C71.7373 200.498 72.3781 201.138 73.1687 201.138Z" fill="#383A48"/>
<path d="M73.1687 208.19C73.9592 208.19 74.6 207.551 74.6 206.762C74.6 205.974 73.9592 205.335 73.1687 205.335C72.3781 205.335 71.7373 205.974 71.7373 206.762C71.7373 207.551 72.3781 208.19 73.1687 208.19Z" fill="#383A48"/>
<path d="M73.1687 215.242C73.9592 215.242 74.6 214.603 74.6 213.815C74.6 213.026 73.9592 212.387 73.1687 212.387C72.3781 212.387 71.7373 213.026 71.7373 213.815C71.7373 214.603 72.3781 215.242 73.1687 215.242Z" fill="#383A48"/>
<path d="M73.1687 222.295C73.9592 222.295 74.6 221.656 74.6 220.867C74.6 220.079 73.9592 219.439 73.1687 219.439C72.3781 219.439 71.7373 220.079 71.7373 220.867C71.7373 221.656 72.3781 222.295 73.1687 222.295Z" fill="#383A48"/>
<path d="M73.1687 229.347C73.9592 229.347 74.6 228.708 74.6 227.919C74.6 227.131 73.9592 226.492 73.1687 226.492C72.3781 226.492 71.7373 227.131 71.7373 227.919C71.7373 228.708 72.3781 229.347 73.1687 229.347Z" fill="#383A48"/>
<path d="M73.1687 236.399C73.9592 236.399 74.6 235.76 74.6 234.972C74.6 234.183 73.9592 233.544 73.1687 233.544C72.3781 233.544 71.7373 234.183 71.7373 234.972C71.7373 235.76 72.3781 236.399 73.1687 236.399Z" fill="#383A48"/>
<path d="M73.1687 243.452C73.9592 243.452 74.6 242.812 74.6 242.024C74.6 241.236 73.9592 240.596 73.1687 240.596C72.3781 240.596 71.7373 241.236 71.7373 242.024C71.7373 242.812 72.3781 243.452 73.1687 243.452Z" fill="#383A48"/>
<path d="M73.1687 250.504C73.9592 250.504 74.6 249.865 74.6 249.076C74.6 248.288 73.9592 247.649 73.1687 247.649C72.3781 247.649 71.7373 248.288 71.7373 249.076C71.7373 249.865 72.3781 250.504 73.1687 250.504Z" fill="#383A48"/>
<path d="M66.0974 130.614C66.8879 130.614 67.5287 129.975 67.5287 129.187C67.5287 128.398 66.8879 127.759 66.0974 127.759C65.3069 127.759 64.666 128.398 64.666 129.187C64.666 129.975 65.3069 130.614 66.0974 130.614Z" fill="#383A48"/>
<path d="M66.0974 137.667C66.8879 137.667 67.5287 137.028 67.5287 136.239C67.5287 135.451 66.8879 134.812 66.0974 134.812C65.3069 134.812 64.666 135.451 64.666 136.239C64.666 137.028 65.3069 137.667 66.0974 137.667Z" fill="#383A48"/>
<path d="M66.0974 144.719C66.8879 144.719 67.5287 144.08 67.5287 143.292C67.5287 142.503 66.8879 141.864 66.0974 141.864C65.3069 141.864 64.666 142.503 64.666 143.292C64.666 144.08 65.3069 144.719 66.0974 144.719Z" fill="#383A48"/>
<path d="M66.0974 151.771C66.8879 151.771 67.5287 151.132 67.5287 150.344C67.5287 149.555 66.8879 148.916 66.0974 148.916C65.3069 148.916 64.666 149.555 64.666 150.344C64.666 151.132 65.3069 151.771 66.0974 151.771Z" fill="#383A48"/>
<path d="M66.0974 158.824C66.8879 158.824 67.5287 158.185 67.5287 157.396C67.5287 156.608 66.8879 155.969 66.0974 155.969C65.3069 155.969 64.666 156.608 64.666 157.396C64.666 158.185 65.3069 158.824 66.0974 158.824Z" fill="#383A48"/>
<path d="M66.0974 165.876C66.8879 165.876 67.5287 165.237 67.5287 164.448C67.5287 163.66 66.8879 163.021 66.0974 163.021C65.3069 163.021 64.666 163.66 64.666 164.448C64.666 165.237 65.3069 165.876 66.0974 165.876Z" fill="#383A48"/>
<path d="M66.0974 172.928C66.8879 172.928 67.5287 172.289 67.5287 171.501C67.5287 170.712 66.8879 170.073 66.0974 170.073C65.3069 170.073 64.666 170.712 64.666 171.501C64.666 172.289 65.3069 172.928 66.0974 172.928Z" fill="#383A48"/>
<path d="M66.0974 179.981C66.8879 179.981 67.5287 179.342 67.5287 178.553C67.5287 177.765 66.8879 177.126 66.0974 177.126C65.3069 177.126 64.666 177.765 64.666 178.553C64.666 179.342 65.3069 179.981 66.0974 179.981Z" fill="#383A48"/>
<path d="M66.0974 187.033C66.8879 187.033 67.5287 186.394 67.5287 185.605C67.5287 184.817 66.8879 184.178 66.0974 184.178C65.3069 184.178 64.666 184.817 64.666 185.605C64.666 186.394 65.3069 187.033 66.0974 187.033Z" fill="#383A48"/>
<path d="M66.0974 194.085C66.8879 194.085 67.5287 193.446 67.5287 192.658C67.5287 191.869 66.8879 191.23 66.0974 191.23C65.3069 191.23 64.666 191.869 64.666 192.658C64.666 193.446 65.3069 194.085 66.0974 194.085Z" fill="#383A48"/>
<path d="M66.0974 201.138C66.8879 201.138 67.5287 200.498 67.5287 199.71C67.5287 198.922 66.8879 198.282 66.0974 198.282C65.3069 198.282 64.666 198.922 64.666 199.71C64.666 200.498 65.3069 201.138 66.0974 201.138Z" fill="#383A48"/>
<path d="M66.0974 208.19C66.8879 208.19 67.5287 207.551 67.5287 206.762C67.5287 205.974 66.8879 205.335 66.0974 205.335C65.3069 205.335 64.666 205.974 64.666 206.762C64.666 207.551 65.3069 208.19 66.0974 208.19Z" fill="#383A48"/>
<path d="M66.0974 215.242C66.8879 215.242 67.5287 214.603 67.5287 213.815C67.5287 213.026 66.8879 212.387 66.0974 212.387C65.3069 212.387 64.666 213.026 64.666 213.815C64.666 214.603 65.3069 215.242 66.0974 215.242Z" fill="#383A48"/>
<path d="M66.0974 222.295C66.8879 222.295 67.5287 221.656 67.5287 220.867C67.5287 220.079 66.8879 219.439 66.0974 219.439C65.3069 219.439 64.666 220.079 64.666 220.867C64.666 221.656 65.3069 222.295 66.0974 222.295Z" fill="#383A48"/>
<path d="M66.0974 229.347C66.8879 229.347 67.5287 228.708 67.5287 227.919C67.5287 227.131 66.8879 226.492 66.0974 226.492C65.3069 226.492 64.666 227.131 64.666 227.919C64.666 228.708 65.3069 229.347 66.0974 229.347Z" fill="#383A48"/>
<path d="M66.0974 236.399C66.8879 236.399 67.5287 235.76 67.5287 234.972C67.5287 234.183 66.8879 233.544 66.0974 233.544C65.3069 233.544 64.666 234.183 64.666 234.972C64.666 235.76 65.3069 236.399 66.0974 236.399Z" fill="#383A48"/>
<path d="M66.0974 243.452C66.8879 243.452 67.5287 242.812 67.5287 242.024C67.5287 241.236 66.8879 240.596 66.0974 240.596C65.3069 240.596 64.666 241.236 64.666 242.024C64.666 242.812 65.3069 243.452 66.0974 243.452Z" fill="#383A48"/>
<path d="M66.0974 250.504C66.8879 250.504 67.5287 249.865 67.5287 249.076C67.5287 248.288 66.8879 247.649 66.0974 247.649C65.3069 247.649 64.666 248.288 64.666 249.076C64.666 249.865 65.3069 250.504 66.0974 250.504Z" fill="#383A48"/>
<path d="M59.0261 130.614C59.8166 130.614 60.4575 129.975 60.4575 129.187C60.4575 128.398 59.8166 127.759 59.0261 127.759C58.2356 127.759 57.5947 128.398 57.5947 129.187C57.5947 129.975 58.2356 130.614 59.0261 130.614Z" fill="#383A48"/>
<path d="M59.0261 137.667C59.8166 137.667 60.4575 137.028 60.4575 136.239C60.4575 135.451 59.8166 134.812 59.0261 134.812C58.2356 134.812 57.5947 135.451 57.5947 136.239C57.5947 137.028 58.2356 137.667 59.0261 137.667Z" fill="#383A48"/>
<path d="M59.0261 144.719C59.8166 144.719 60.4575 144.08 60.4575 143.292C60.4575 142.503 59.8166 141.864 59.0261 141.864C58.2356 141.864 57.5947 142.503 57.5947 143.292C57.5947 144.08 58.2356 144.719 59.0261 144.719Z" fill="#383A48"/>
<path d="M59.0261 151.771C59.8166 151.771 60.4575 151.132 60.4575 150.344C60.4575 149.555 59.8166 148.916 59.0261 148.916C58.2356 148.916 57.5947 149.555 57.5947 150.344C57.5947 151.132 58.2356 151.771 59.0261 151.771Z" fill="#383A48"/>
<path d="M59.0261 158.824C59.8166 158.824 60.4575 158.185 60.4575 157.396C60.4575 156.608 59.8166 155.969 59.0261 155.969C58.2356 155.969 57.5947 156.608 57.5947 157.396C57.5947 158.185 58.2356 158.824 59.0261 158.824Z" fill="#383A48"/>
<path d="M59.0261 165.876C59.8166 165.876 60.4575 165.237 60.4575 164.448C60.4575 163.66 59.8166 163.021 59.0261 163.021C58.2356 163.021 57.5947 163.66 57.5947 164.448C57.5947 165.237 58.2356 165.876 59.0261 165.876Z" fill="#383A48"/>
<path d="M59.0261 172.928C59.8166 172.928 60.4575 172.289 60.4575 171.501C60.4575 170.712 59.8166 170.073 59.0261 170.073C58.2356 170.073 57.5947 170.712 57.5947 171.501C57.5947 172.289 58.2356 172.928 59.0261 172.928Z" fill="#383A48"/>
<path d="M59.0261 179.981C59.8166 179.981 60.4575 179.342 60.4575 178.553C60.4575 177.765 59.8166 177.126 59.0261 177.126C58.2356 177.126 57.5947 177.765 57.5947 178.553C57.5947 179.342 58.2356 179.981 59.0261 179.981Z" fill="#383A48"/>
<path d="M59.0261 187.033C59.8166 187.033 60.4575 186.394 60.4575 185.605C60.4575 184.817 59.8166 184.178 59.0261 184.178C58.2356 184.178 57.5947 184.817 57.5947 185.605C57.5947 186.394 58.2356 187.033 59.0261 187.033Z" fill="#383A48"/>
<path d="M59.0261 194.085C59.8166 194.085 60.4575 193.446 60.4575 192.658C60.4575 191.869 59.8166 191.23 59.0261 191.23C58.2356 191.23 57.5947 191.869 57.5947 192.658C57.5947 193.446 58.2356 194.085 59.0261 194.085Z" fill="#383A48"/>
<path d="M59.0261 201.138C59.8166 201.138 60.4575 200.498 60.4575 199.71C60.4575 198.922 59.8166 198.282 59.0261 198.282C58.2356 198.282 57.5947 198.922 57.5947 199.71C57.5947 200.498 58.2356 201.138 59.0261 201.138Z" fill="#383A48"/>
<path d="M59.0261 208.19C59.8166 208.19 60.4575 207.551 60.4575 206.762C60.4575 205.974 59.8166 205.335 59.0261 205.335C58.2356 205.335 57.5947 205.974 57.5947 206.762C57.5947 207.551 58.2356 208.19 59.0261 208.19Z" fill="#383A48"/>
<path d="M59.0261 215.242C59.8166 215.242 60.4575 214.603 60.4575 213.815C60.4575 213.026 59.8166 212.387 59.0261 212.387C58.2356 212.387 57.5947 213.026 57.5947 213.815C57.5947 214.603 58.2356 215.242 59.0261 215.242Z" fill="#383A48"/>
<path d="M59.0261 222.295C59.8166 222.295 60.4575 221.656 60.4575 220.867C60.4575 220.079 59.8166 219.439 59.0261 219.439C58.2356 219.439 57.5947 220.079 57.5947 220.867C57.5947 221.656 58.2356 222.295 59.0261 222.295Z" fill="#383A48"/>
<path d="M59.0261 229.347C59.8166 229.347 60.4575 228.708 60.4575 227.919C60.4575 227.131 59.8166 226.492 59.0261 226.492C58.2356 226.492 57.5947 227.131 57.5947 227.919C57.5947 228.708 58.2356 229.347 59.0261 229.347Z" fill="#383A48"/>
<path d="M59.0261 236.399C59.8166 236.399 60.4575 235.76 60.4575 234.972C60.4575 234.183 59.8166 233.544 59.0261 233.544C58.2356 233.544 57.5947 234.183 57.5947 234.972C57.5947 235.76 58.2356 236.399 59.0261 236.399Z" fill="#383A48"/>
<path d="M59.0261 243.452C59.8166 243.452 60.4575 242.812 60.4575 242.024C60.4575 241.236 59.8166 240.596 59.0261 240.596C58.2356 240.596 57.5947 241.236 57.5947 242.024C57.5947 242.812 58.2356 243.452 59.0261 243.452Z" fill="#383A48"/>
<path d="M59.0261 250.504C59.8166 250.504 60.4575 249.865 60.4575 249.076C60.4575 248.288 59.8166 247.649 59.0261 247.649C58.2356 247.649 57.5947 248.288 57.5947 249.076C57.5947 249.865 58.2356 250.504 59.0261 250.504Z" fill="#383A48"/>
<path d="M51.9558 130.614C52.7463 130.614 53.3871 129.975 53.3871 129.187C53.3871 128.398 52.7463 127.759 51.9558 127.759C51.1653 127.759 50.5244 128.398 50.5244 129.187C50.5244 129.975 51.1653 130.614 51.9558 130.614Z" fill="#383A48"/>
<path d="M51.9558 137.667C52.7463 137.667 53.3871 137.028 53.3871 136.239C53.3871 135.451 52.7463 134.812 51.9558 134.812C51.1653 134.812 50.5244 135.451 50.5244 136.239C50.5244 137.028 51.1653 137.667 51.9558 137.667Z" fill="#383A48"/>
<path d="M51.9558 144.719C52.7463 144.719 53.3871 144.08 53.3871 143.292C53.3871 142.503 52.7463 141.864 51.9558 141.864C51.1653 141.864 50.5244 142.503 50.5244 143.292C50.5244 144.08 51.1653 144.719 51.9558 144.719Z" fill="#383A48"/>
<path d="M51.9558 151.771C52.7463 151.771 53.3871 151.132 53.3871 150.344C53.3871 149.555 52.7463 148.916 51.9558 148.916C51.1653 148.916 50.5244 149.555 50.5244 150.344C50.5244 151.132 51.1653 151.771 51.9558 151.771Z" fill="#383A48"/>
<path d="M51.9558 158.824C52.7463 158.824 53.3871 158.185 53.3871 157.396C53.3871 156.608 52.7463 155.969 51.9558 155.969C51.1653 155.969 50.5244 156.608 50.5244 157.396C50.5244 158.185 51.1653 158.824 51.9558 158.824Z" fill="#383A48"/>
<path d="M51.9558 165.876C52.7463 165.876 53.3871 165.237 53.3871 164.448C53.3871 163.66 52.7463 163.021 51.9558 163.021C51.1653 163.021 50.5244 163.66 50.5244 164.448C50.5244 165.237 51.1653 165.876 51.9558 165.876Z" fill="#383A48"/>
<path d="M51.9558 172.928C52.7463 172.928 53.3871 172.289 53.3871 171.501C53.3871 170.712 52.7463 170.073 51.9558 170.073C51.1653 170.073 50.5244 170.712 50.5244 171.501C50.5244 172.289 51.1653 172.928 51.9558 172.928Z" fill="#383A48"/>
<path d="M51.9558 179.981C52.7463 179.981 53.3871 179.342 53.3871 178.553C53.3871 177.765 52.7463 177.126 51.9558 177.126C51.1653 177.126 50.5244 177.765 50.5244 178.553C50.5244 179.342 51.1653 179.981 51.9558 179.981Z" fill="#383A48"/>
<path d="M51.9558 187.033C52.7463 187.033 53.3871 186.394 53.3871 185.605C53.3871 184.817 52.7463 184.178 51.9558 184.178C51.1653 184.178 50.5244 184.817 50.5244 185.605C50.5244 186.394 51.1653 187.033 51.9558 187.033Z" fill="#383A48"/>
<path d="M51.9558 194.085C52.7463 194.085 53.3871 193.446 53.3871 192.658C53.3871 191.869 52.7463 191.23 51.9558 191.23C51.1653 191.23 50.5244 191.869 50.5244 192.658C50.5244 193.446 51.1653 194.085 51.9558 194.085Z" fill="#383A48"/>
<path d="M51.9558 201.138C52.7463 201.138 53.3871 200.498 53.3871 199.71C53.3871 198.922 52.7463 198.282 51.9558 198.282C51.1653 198.282 50.5244 198.922 50.5244 199.71C50.5244 200.498 51.1653 201.138 51.9558 201.138Z" fill="#383A48"/>
<path d="M51.9558 208.19C52.7463 208.19 53.3871 207.551 53.3871 206.762C53.3871 205.974 52.7463 205.335 51.9558 205.335C51.1653 205.335 50.5244 205.974 50.5244 206.762C50.5244 207.551 51.1653 208.19 51.9558 208.19Z" fill="#383A48"/>
<path d="M51.9558 215.242C52.7463 215.242 53.3871 214.603 53.3871 213.815C53.3871 213.026 52.7463 212.387 51.9558 212.387C51.1653 212.387 50.5244 213.026 50.5244 213.815C50.5244 214.603 51.1653 215.242 51.9558 215.242Z" fill="#383A48"/>
<path d="M51.9558 222.295C52.7463 222.295 53.3871 221.656 53.3871 220.867C53.3871 220.079 52.7463 219.439 51.9558 219.439C51.1653 219.439 50.5244 220.079 50.5244 220.867C50.5244 221.656 51.1653 222.295 51.9558 222.295Z" fill="#383A48"/>
<path d="M51.9558 229.347C52.7463 229.347 53.3871 228.708 53.3871 227.919C53.3871 227.131 52.7463 226.492 51.9558 226.492C51.1653 226.492 50.5244 227.131 50.5244 227.919C50.5244 228.708 51.1653 229.347 51.9558 229.347Z" fill="#383A48"/>
<path d="M51.9558 236.399C52.7463 236.399 53.3871 235.76 53.3871 234.972C53.3871 234.183 52.7463 233.544 51.9558 233.544C51.1653 233.544 50.5244 234.183 50.5244 234.972C50.5244 235.76 51.1653 236.399 51.9558 236.399Z" fill="#383A48"/>
<path d="M51.9558 243.452C52.7463 243.452 53.3871 242.812 53.3871 242.024C53.3871 241.236 52.7463 240.596 51.9558 240.596C51.1653 240.596 50.5244 241.236 50.5244 242.024C50.5244 242.812 51.1653 243.452 51.9558 243.452Z" fill="#383A48"/>
<path d="M51.9558 250.504C52.7463 250.504 53.3871 249.865 53.3871 249.076C53.3871 248.288 52.7463 247.649 51.9558 247.649C51.1653 247.649 50.5244 248.288 50.5244 249.076C50.5244 249.865 51.1653 250.504 51.9558 250.504Z" fill="#383A48"/>
<path d="M112.588 252.817C78.8936 252.817 51.4688 225.464 51.4688 191.858C51.4688 175.555 57.824 160.251 69.3608 148.745C80.8976 137.238 96.2417 130.9 112.588 130.9C113.389 130.9 114.019 131.528 114.019 132.328C114.019 133.127 113.389 133.755 112.588 133.755C97.0147 133.755 82.3862 139.808 71.3933 150.772C60.4004 161.736 54.3315 176.326 54.3315 191.858C54.3315 223.894 80.4681 249.961 112.588 249.961C113.389 249.961 114.019 250.59 114.019 251.389C114.019 252.188 113.389 252.817 112.588 252.817Z" fill="#383A48"/>
<path d="M368.715 216.176H270.785V252.241H368.715V216.176Z" fill="#383A48"/>
<path d="M368.715 253.672H270.785C269.983 253.672 269.354 253.043 269.354 252.241V216.176C269.354 215.374 269.983 214.744 270.785 214.744H368.715C369.517 214.744 370.147 215.374 370.147 216.176V252.241C370.147 253.043 369.517 253.672 368.715 253.672ZM272.217 250.81H367.283V217.607H272.217V250.81Z" fill="#383A48"/>
<path d="M76.5582 85.7021L63.6201 98.6062L76.5582 111.51L89.4963 98.6062L76.5582 85.7021Z" fill="#F3F6E6"/>
<path d="M76.5598 112.933C76.1869 112.933 75.8141 112.79 75.556 112.504L62.6216 99.6039C62.048 99.0318 62.048 98.1451 62.6216 97.573L75.556 84.7013C75.8141 84.4152 76.1869 84.2722 76.5598 84.2722C76.9326 84.2722 77.3054 84.4152 77.5635 84.7013L90.4979 97.6016C91.0715 98.1737 91.0715 99.0604 90.4979 99.6325L77.5635 112.533C77.3054 112.79 76.9326 112.933 76.5598 112.933ZM65.6616 98.6028L76.5598 109.472L87.4579 98.6028L76.5598 87.7333L65.6616 98.6028Z" fill="#F3F6E6"/>
<path d="M336.969 140.031H203.024V176.097H336.969V140.031Z" fill="#6002FD"/>
<path d="M336.969 177.528H334.582C333.776 177.528 333.144 176.898 333.144 176.097C333.144 175.295 333.776 174.665 334.582 174.665H335.588C335.761 174.064 336.307 173.606 336.969 173.606C337.774 173.606 338.407 174.236 338.407 175.038V176.097C338.407 176.898 337.774 177.528 336.969 177.528ZM325.953 177.528H322.502C321.696 177.528 321.064 176.898 321.064 176.097C321.064 175.295 321.696 174.665 322.502 174.665H325.953C326.758 174.665 327.391 175.295 327.391 176.097C327.391 176.898 326.758 177.528 325.953 177.528ZM313.873 177.528H310.422C309.616 177.528 308.983 176.898 308.983 176.097C308.983 175.295 309.616 174.665 310.422 174.665H313.873C314.678 174.665 315.311 175.295 315.311 176.097C315.311 176.898 314.678 177.528 313.873 177.528ZM301.793 177.528H298.341C297.536 177.528 296.903 176.898 296.903 176.097C296.903 175.295 297.536 174.665 298.341 174.665H301.793C302.598 174.665 303.231 175.295 303.231 176.097C303.231 176.898 302.598 177.528 301.793 177.528ZM289.713 177.528H286.261C285.456 177.528 284.823 176.898 284.823 176.097C284.823 175.295 285.456 174.665 286.261 174.665H289.713C290.518 174.665 291.151 175.295 291.151 176.097C291.151 176.898 290.518 177.528 289.713 177.528ZM277.633 177.528H274.181C273.376 177.528 272.743 176.898 272.743 176.097C272.743 175.295 273.376 174.665 274.181 174.665H277.633C278.438 174.665 279.071 175.295 279.071 176.097C279.071 176.898 278.438 177.528 277.633 177.528ZM265.553 177.528H262.101C261.296 177.528 260.663 176.898 260.663 176.097C260.663 175.295 261.296 174.665 262.101 174.665H265.553C266.358 174.665 266.991 175.295 266.991 176.097C266.991 176.898 266.358 177.528 265.553 177.528ZM253.473 177.528H250.021C249.216 177.528 248.583 176.898 248.583 176.097C248.583 175.295 249.216 174.665 250.021 174.665H253.473C254.278 174.665 254.911 175.295 254.911 176.097C254.911 176.898 254.278 177.528 253.473 177.528ZM241.393 177.528H237.941C237.136 177.528 236.503 176.898 236.503 176.097C236.503 175.295 237.136 174.665 237.941 174.665H241.393C242.198 174.665 242.831 175.295 242.831 176.097C242.831 176.898 242.198 177.528 241.393 177.528ZM229.313 177.528H225.861C225.056 177.528 224.423 176.898 224.423 176.097C224.423 175.295 225.056 174.665 225.861 174.665H229.313C230.118 174.665 230.751 175.295 230.751 176.097C230.751 176.898 230.118 177.528 229.313 177.528ZM217.232 177.528H213.781C212.976 177.528 212.343 176.898 212.343 176.097C212.343 175.295 212.976 174.665 213.781 174.665H217.232C218.038 174.665 218.671 175.295 218.671 176.097C218.671 176.898 218.038 177.528 217.232 177.528ZM205.152 177.528H203.024C202.219 177.528 201.586 176.898 201.586 176.097V174.78C201.586 173.978 202.219 173.349 203.024 173.349C203.772 173.349 204.405 173.921 204.462 174.665H205.152C205.958 174.665 206.591 175.295 206.591 176.097C206.591 176.898 205.958 177.528 205.152 177.528ZM336.969 167.882C336.164 167.882 335.531 167.252 335.531 166.451V163.016C335.531 162.214 336.164 161.585 336.969 161.585C337.774 161.585 338.407 162.214 338.407 163.016V166.451C338.407 167.252 337.774 167.882 336.969 167.882ZM203.024 167.624C202.219 167.624 201.586 166.994 201.586 166.193V162.758C201.586 161.957 202.219 161.327 203.024 161.327C203.829 161.327 204.462 161.957 204.462 162.758V166.193C204.462 166.994 203.829 167.624 203.024 167.624ZM336.969 155.86C336.164 155.86 335.531 155.23 335.531 154.429V150.994C335.531 150.192 336.164 149.563 336.969 149.563C337.774 149.563 338.407 150.192 338.407 150.994V154.429C338.407 155.23 337.774 155.86 336.969 155.86ZM203.024 155.602C202.219 155.602 201.586 154.973 201.586 154.171V150.736C201.586 149.935 202.219 149.305 203.024 149.305C203.829 149.305 204.462 149.935 204.462 150.736V154.171C204.462 154.973 203.829 155.602 203.024 155.602ZM336.969 143.838C336.164 143.838 335.531 143.208 335.531 142.407V141.405C334.927 141.262 334.467 140.689 334.467 140.031C334.467 139.23 335.099 138.6 335.905 138.6H336.969C337.774 138.6 338.407 139.23 338.407 140.031V142.407C338.407 143.208 337.774 143.838 336.969 143.838ZM203.024 143.58C202.219 143.58 201.586 142.951 201.586 142.149V140.031C201.586 139.23 202.219 138.6 203.024 138.6H206.475C207.281 138.6 207.914 139.23 207.914 140.031C207.914 140.833 207.281 141.462 206.475 141.462H204.462V142.149C204.462 142.951 203.829 143.58 203.024 143.58ZM327.276 141.462H323.825C323.019 141.462 322.387 140.833 322.387 140.031C322.387 139.23 323.019 138.6 323.825 138.6H327.276C328.081 138.6 328.714 139.23 328.714 140.031C328.714 140.833 328.081 141.462 327.276 141.462ZM315.196 141.462H311.745C310.939 141.462 310.307 140.833 310.307 140.031C310.307 139.23 310.939 138.6 311.745 138.6H315.196C316.001 138.6 316.634 139.23 316.634 140.031C316.634 140.833 316.001 141.462 315.196 141.462ZM303.116 141.462H299.665C298.859 141.462 298.226 140.833 298.226 140.031C298.226 139.23 298.859 138.6 299.665 138.6H303.116C303.921 138.6 304.554 139.23 304.554 140.031C304.554 140.833 303.921 141.462 303.116 141.462ZM291.036 141.462H287.584C286.779 141.462 286.146 140.833 286.146 140.031C286.146 139.23 286.779 138.6 287.584 138.6H291.036C291.841 138.6 292.474 139.23 292.474 140.031C292.474 140.833 291.841 141.462 291.036 141.462ZM278.956 141.462H275.504C274.699 141.462 274.066 140.833 274.066 140.031C274.066 139.23 274.699 138.6 275.504 138.6H278.956C279.761 138.6 280.394 139.23 280.394 140.031C280.394 140.833 279.761 141.462 278.956 141.462ZM266.876 141.462H263.424C262.619 141.462 261.986 140.833 261.986 140.031C261.986 139.23 262.619 138.6 263.424 138.6H266.876C267.681 138.6 268.314 139.23 268.314 140.031C268.314 140.833 267.681 141.462 266.876 141.462ZM254.796 141.462H251.344C250.539 141.462 249.906 140.833 249.906 140.031C249.906 139.23 250.539 138.6 251.344 138.6H254.796C255.601 138.6 256.234 139.23 256.234 140.031C256.234 140.833 255.601 141.462 254.796 141.462ZM242.716 141.462H239.264C238.459 141.462 237.826 140.833 237.826 140.031C237.826 139.23 238.459 138.6 239.264 138.6H242.716C243.521 138.6 244.154 139.23 244.154 140.031C244.154 140.833 243.521 141.462 242.716 141.462ZM230.636 141.462H227.184C226.379 141.462 225.746 140.833 225.746 140.031C225.746 139.23 226.379 138.6 227.184 138.6H230.636C231.441 138.6 232.074 139.23 232.074 140.031C232.074 140.833 231.441 141.462 230.636 141.462ZM218.556 141.462H215.104C214.299 141.462 213.666 140.833 213.666 140.031C213.666 139.23 214.299 138.6 215.104 138.6H218.556C219.361 138.6 219.994 139.23 219.994 140.031C219.994 140.833 219.361 141.462 218.556 141.462Z" fill="#383A48"/>
<path d="M418.044 201.615H283.646V237.285H418.044V201.615Z" fill="#AAC6FC"/>
<path d="M418.045 238.7H283.647C282.848 238.7 282.221 238.077 282.221 237.285V201.615C282.221 200.823 282.848 200.2 283.647 200.2H418.045C418.843 200.2 419.471 200.823 419.471 201.615V237.285C419.471 238.077 418.843 238.7 418.045 238.7ZM285.073 235.869H416.618V203.031H285.073V235.869Z" fill="#383A48"/>
<path d="M142.548 87.6892L135.964 94.2572L137.959 96.2472L144.544 89.6793L142.548 87.6892Z" fill="#383A48"/>
<path d="M137.959 87.6899L135.964 89.6799L142.548 96.2469L144.543 94.2569L137.959 87.6899Z" fill="#383A48"/>
<path d="M172.274 58.1778H168.837C168.035 58.1778 167.405 57.519 167.405 56.6806C167.405 55.8421 168.035 55.1833 168.837 55.1833H172.274C173.076 55.1833 173.707 55.8421 173.707 56.6806C173.707 57.519 173.048 58.1778 172.274 58.1778ZM160.243 58.1778H156.806C156.003 58.1778 155.373 57.519 155.373 56.6806C155.373 55.8421 156.003 55.1833 156.806 55.1833H160.243C161.045 55.1833 161.675 55.8421 161.675 56.6806C161.675 57.519 161.016 58.1778 160.243 58.1778ZM148.212 58.1778H144.774C143.972 58.1778 143.342 57.519 143.342 56.6806C143.342 55.8421 143.972 55.1833 144.774 55.1833H148.212C149.014 55.1833 149.644 55.8421 149.644 56.6806C149.644 57.519 148.985 58.1778 148.212 58.1778ZM136.18 58.1778H132.743C131.941 58.1778 131.311 57.519 131.311 56.6806C131.311 55.8421 131.941 55.1833 132.743 55.1833H136.18C136.983 55.1833 137.613 55.8421 137.613 56.6806C137.613 57.519 136.954 58.1778 136.18 58.1778ZM124.149 58.1778H120.712C119.91 58.1778 119.279 57.519 119.279 56.6806C119.279 55.8421 119.91 55.1833 120.712 55.1833H124.149C124.951 55.1833 125.581 55.8421 125.581 56.6806C125.581 57.519 124.923 58.1778 124.149 58.1778ZM112.118 58.1778H108.68C107.878 58.1778 107.248 57.519 107.248 56.6806C107.248 55.8421 107.878 55.1833 108.68 55.1833H112.118C112.92 55.1833 113.55 55.8421 113.55 56.6806C113.55 57.519 112.891 58.1778 112.118 58.1778ZM100.087 58.1778H96.6491C95.847 58.1778 95.2168 57.519 95.2168 56.6806C95.2168 55.8421 95.847 55.1833 96.6491 55.1833H100.087C100.889 55.1833 101.519 55.8421 101.519 56.6806C101.519 57.519 100.86 58.1778 100.087 58.1778Z" fill="#383A48"/>
<path d="M478.061 209.183C477.713 209.183 477.395 209.067 477.105 208.835L433.695 171.104C433.086 170.581 433.028 169.653 433.55 169.044C434.072 168.435 434.999 168.377 435.608 168.899L479.017 206.631C479.626 207.153 479.684 208.081 479.162 208.69C478.873 209.009 478.467 209.183 478.061 209.183Z" fill="#383A48"/>
<path d="M367.722 56.6174L480.226 154.705V56.6174H367.722ZM462.71 115.011L416.967 75.1164H462.71V115.011Z" fill="#F6E049"/>
<path d="M480.226 156.139C479.881 156.139 479.537 156.024 479.278 155.795L366.774 57.7072C366.314 57.3057 366.171 56.6747 366.372 56.1011C366.602 55.5562 367.118 55.1833 367.721 55.1833H480.226C481.03 55.1833 481.662 55.8143 481.662 56.6174V154.705C481.662 155.279 481.346 155.766 480.829 156.024C480.628 156.11 480.427 156.139 480.226 156.139ZM371.541 58.0514L478.79 151.55V58.0514H371.541ZM462.71 116.445C462.365 116.445 462.021 116.33 461.762 116.101L416.02 76.2062C415.56 75.8047 415.417 75.1737 415.618 74.6288C415.819 74.0552 416.364 73.711 416.967 73.711H462.71C463.514 73.711 464.146 74.342 464.146 75.145V115.04C464.146 115.613 463.83 116.101 463.313 116.359C463.112 116.416 462.911 116.445 462.71 116.445ZM420.786 76.5504L461.274 111.856V76.5504H420.786Z" fill="#383A48"/>
</svg>
