<svg width="549" height="308" viewBox="0 0 549 308" fill="none" xmlns="http://www.w3.org/2000/svg">
<path d="M302.491 216.536L462.646 185.082V57.0393H302.491V216.536Z" fill="#F3F6E6"/>
<path d="M302.492 217.965C302.177 217.965 301.834 217.85 301.576 217.65C301.233 217.393 301.062 216.965 301.062 216.536V57.0393C301.062 56.2394 301.691 55.6109 302.492 55.6109H462.646C463.447 55.6109 464.077 56.2394 464.077 57.0393V185.082C464.077 185.768 463.59 186.339 462.932 186.482L302.778 217.936C302.692 217.936 302.578 217.965 302.492 217.965ZM303.922 58.4677V214.793L461.216 183.911V58.4677H303.922Z" fill="#383A48"/>
<path d="M257.582 237.591H344.825L357.039 233.591L365.048 206.309H441.421L420.197 153.029C420.197 139.316 409.07 128.203 395.34 128.203H257.582V237.591Z" fill="#F3F6E6"/>
<path d="M344.825 239.019H257.583C256.782 239.019 256.152 238.391 256.152 237.591V128.203C256.152 127.403 256.782 126.775 257.583 126.775H395.34C409.728 126.775 421.456 138.402 421.599 152.743L442.737 205.766C442.909 206.194 442.852 206.709 442.594 207.109C442.337 207.509 441.879 207.737 441.422 207.737H366.107L358.412 233.991C358.269 234.449 357.926 234.791 357.497 234.934L345.283 238.934C345.111 238.991 344.968 239.019 344.825 239.019ZM259.013 236.163H344.596L355.866 232.477L363.675 205.909C363.847 205.309 364.419 204.88 365.048 204.88H439.305L418.853 153.572C418.796 153.4 418.738 153.229 418.738 153.057C418.738 140.173 408.241 129.66 395.312 129.66H259.013V236.163Z" fill="#383A48"/>
<path d="M371.256 128.203H235.501C220.684 128.203 208.67 140.202 208.67 155V250.504H242.823L253.922 237.591H344.826" fill="#F3F6E6"/>
<path d="M242.824 251.932H208.67C207.87 251.932 207.24 251.304 207.24 250.504V155.029C207.24 139.459 219.912 126.803 235.501 126.803H371.256C372.057 126.803 372.687 127.432 372.687 128.232C372.687 129.031 372.057 129.66 371.256 129.66H235.501C221.485 129.66 210.101 141.03 210.101 155.029V249.104H242.166L252.835 236.677C253.093 236.363 253.493 236.191 253.922 236.191H344.826C345.627 236.191 346.256 236.82 346.256 237.62C346.256 238.419 345.627 239.048 344.826 239.048H254.552L243.911 251.447C243.625 251.761 243.224 251.932 242.824 251.932Z" fill="#383A48"/>
<path d="M371.256 213.079C370.455 213.079 369.826 212.451 369.826 211.651V152.629C369.826 138.373 381.439 126.775 395.713 126.775C409.986 126.775 421.6 138.373 421.6 152.629V190.539C421.6 191.339 420.97 191.967 420.169 191.967C419.369 191.967 418.739 191.339 418.739 190.539V152.629C418.739 139.945 408.413 129.631 395.713 129.631C383.013 129.631 372.687 139.945 372.687 152.629V211.651C372.687 212.451 372.057 213.079 371.256 213.079Z" fill="#383A48"/>
<path d="M462.646 119.661V185.082C462.646 196.795 453.149 206.28 441.422 206.28C429.694 206.28 420.197 196.795 420.197 185.082V152.057" fill="#F3F6E6"/>
<path d="M441.422 207.737C428.922 207.737 418.768 197.595 418.768 185.111V152.058C418.768 151.258 419.397 150.629 420.198 150.629C420.999 150.629 421.628 151.258 421.628 152.058V185.082C421.628 195.996 430.524 204.852 441.422 204.852C452.32 204.852 461.216 195.967 461.216 185.082V119.661C461.216 118.861 461.846 118.233 462.646 118.233C463.447 118.233 464.077 118.861 464.077 119.661V185.082C464.077 197.567 453.922 207.737 441.422 207.737Z" fill="#383A48"/>
<path d="M462.646 57.0393H302.491V101.663H462.646V57.0393Z" fill="#383A48"/>
<path d="M462.646 103.091H302.492C301.691 103.091 301.062 102.463 301.062 101.663V57.0393C301.062 56.2394 301.691 55.6109 302.492 55.6109H462.646C463.447 55.6109 464.077 56.2394 464.077 57.0393V101.663C464.077 102.463 463.447 103.091 462.646 103.091ZM303.922 100.235H461.216V58.4677H303.922V100.235Z" fill="#383A48"/>
<path d="M136.273 212.565C136.273 233.534 119.253 250.504 98.2866 250.504H72.6572H244.053C244.053 250.504 259.214 248.361 264.305 237.591C269.397 226.821 293.51 172.627 293.51 172.627H166.107C149.631 172.627 136.273 185.968 136.273 202.423V212.565Z" fill="#F3F6E6"/>
<path d="M244.025 251.932H72.6284C71.8275 251.932 71.1982 251.304 71.1982 250.504C71.1982 249.704 71.8275 249.075 72.6284 249.075H98.2578C118.424 249.075 134.814 232.706 134.814 212.565V202.423C134.814 185.197 148.83 171.198 166.078 171.198H293.452C293.939 171.198 294.396 171.455 294.654 171.855C294.911 172.255 294.969 172.77 294.768 173.227C294.539 173.769 270.598 227.564 265.563 238.22C260.186 249.561 244.883 251.847 244.225 251.961C244.168 251.932 244.11 251.932 244.025 251.932ZM113.018 249.075H243.91C245.14 248.876 258.47 246.504 262.989 236.963C267.451 227.506 286.874 183.94 291.279 174.027H166.107C150.432 174.027 137.703 186.768 137.703 202.395V212.537C137.703 229.078 127.463 243.248 113.018 249.075Z" fill="#383A48"/>
<path d="M371.255 162.856V211.165C371.255 225.764 359.413 237.591 344.796 237.591C330.179 237.591 318.337 225.764 318.337 211.165V197.338C318.337 183.683 307.268 172.627 293.595 172.627C279.922 172.627 268.852 183.683 268.852 197.338V222.136C268.852 237.791 256.123 250.504 240.448 250.504C240.448 250.504 257.983 249.79 264.275 237.591H344.796" fill="#F3F6E6"/>
<path d="M240.449 251.932C239.676 251.932 239.047 251.304 239.019 250.532C238.99 249.761 239.619 249.104 240.392 249.075C240.506 249.075 247.6 248.704 254.15 245.333C262.102 240.648 267.422 231.992 267.422 222.136V197.338C267.422 182.911 279.179 171.198 293.595 171.198C308.04 171.198 319.768 182.94 319.768 197.338V211.165C319.768 224.935 330.981 236.163 344.797 236.163C358.584 236.163 369.825 224.964 369.825 211.165V162.856C369.825 162.056 370.455 161.428 371.256 161.428C372.056 161.428 372.686 162.056 372.686 162.856V211.165C372.686 226.507 360.186 239.019 344.797 239.019H265.134C263.017 242.705 259.699 245.733 255.351 247.961C250.946 250.504 245.884 251.932 240.449 251.932ZM266.765 236.163H332.497C323.286 231.62 316.908 222.136 316.908 211.165V197.338C316.908 184.483 306.439 174.055 293.595 174.055C280.723 174.055 270.283 184.511 270.283 197.338V222.136C270.283 227.221 269.024 231.992 266.765 236.163Z" fill="#383A48"/>
<path d="M320.855 83.4935C324.062 83.4935 326.662 80.8971 326.662 77.6942C326.662 74.4913 324.062 71.8948 320.855 71.8948C317.649 71.8948 315.049 74.4913 315.049 77.6942C315.049 80.8971 317.649 83.4935 320.855 83.4935Z" fill="#E06A63"/>
<path d="M338.189 83.4935C341.396 83.4935 343.996 80.8971 343.996 77.6942C343.996 74.4913 341.396 71.8948 338.189 71.8948C334.983 71.8948 332.383 74.4913 332.383 77.6942C332.383 80.8971 334.983 83.4935 338.189 83.4935Z" fill="#F6E049"/>
<path d="M355.552 83.4935C358.759 83.4935 361.358 80.8971 361.358 77.6942C361.358 74.4913 358.759 71.8948 355.552 71.8948C352.345 71.8948 349.745 74.4913 349.745 77.6942C349.745 80.8971 352.345 83.4935 355.552 83.4935Z" fill="#7FD6C2"/>
<path d="M325.175 234.506C325.965 234.506 326.606 233.866 326.606 233.077C326.606 232.288 325.965 231.649 325.175 231.649C324.385 231.649 323.745 232.288 323.745 233.077C323.745 233.866 324.385 234.506 325.175 234.506Z" fill="#383A48"/>
<path d="M318.11 220.421C318.9 220.421 319.54 219.782 319.54 218.993C319.54 218.204 318.9 217.565 318.11 217.565C317.32 217.565 316.68 218.204 316.68 218.993C316.68 219.782 317.32 220.421 318.11 220.421Z" fill="#383A48"/>
<path d="M318.11 227.478C318.9 227.478 319.54 226.838 319.54 226.049C319.54 225.261 318.9 224.621 318.11 224.621C317.32 224.621 316.68 225.261 316.68 226.049C316.68 226.838 317.32 227.478 318.11 227.478Z" fill="#383A48"/>
<path d="M318.11 234.506C318.9 234.506 319.54 233.866 319.54 233.077C319.54 232.288 318.9 231.649 318.11 231.649C317.32 231.649 316.68 232.288 316.68 233.077C316.68 233.866 317.32 234.506 318.11 234.506Z" fill="#383A48"/>
<path d="M311.044 185.197C311.834 185.197 312.475 184.557 312.475 183.768C312.475 182.979 311.834 182.34 311.044 182.34C310.255 182.34 309.614 182.979 309.614 183.768C309.614 184.557 310.255 185.197 311.044 185.197Z" fill="#383A48"/>
<path d="M311.044 192.225C311.834 192.225 312.475 191.585 312.475 190.796C312.475 190.007 311.834 189.368 311.044 189.368C310.255 189.368 309.614 190.007 309.614 190.796C309.614 191.585 310.255 192.225 311.044 192.225Z" fill="#383A48"/>
<path d="M311.044 199.281C311.834 199.281 312.475 198.641 312.475 197.852C312.475 197.064 311.834 196.424 311.044 196.424C310.255 196.424 309.614 197.064 309.614 197.852C309.614 198.641 310.255 199.281 311.044 199.281Z" fill="#383A48"/>
<path d="M311.044 206.337C311.834 206.337 312.475 205.698 312.475 204.909C312.475 204.12 311.834 203.48 311.044 203.48C310.255 203.48 309.614 204.12 309.614 204.909C309.614 205.698 310.255 206.337 311.044 206.337Z" fill="#383A48"/>
<path d="M311.044 213.365C311.834 213.365 312.475 212.726 312.475 211.937C312.475 211.148 311.834 210.508 311.044 210.508C310.255 210.508 309.614 211.148 309.614 211.937C309.614 212.726 310.255 213.365 311.044 213.365Z" fill="#383A48"/>
<path d="M311.044 220.421C311.834 220.421 312.475 219.782 312.475 218.993C312.475 218.204 311.834 217.565 311.044 217.565C310.255 217.565 309.614 218.204 309.614 218.993C309.614 219.782 310.255 220.421 311.044 220.421Z" fill="#383A48"/>
<path d="M311.044 227.478C311.834 227.478 312.475 226.838 312.475 226.049C312.475 225.261 311.834 224.621 311.044 224.621C310.255 224.621 309.614 225.261 309.614 226.049C309.614 226.838 310.255 227.478 311.044 227.478Z" fill="#383A48"/>
<path d="M311.044 234.506C311.834 234.506 312.475 233.866 312.475 233.077C312.475 232.288 311.834 231.649 311.044 231.649C310.255 231.649 309.614 232.288 309.614 233.077C309.614 233.866 310.255 234.506 311.044 234.506Z" fill="#383A48"/>
<path d="M304.008 178.14C304.798 178.14 305.439 177.501 305.439 176.712C305.439 175.923 304.798 175.284 304.008 175.284C303.218 175.284 302.578 175.923 302.578 176.712C302.578 177.501 303.218 178.14 304.008 178.14Z" fill="#383A48"/>
<path d="M304.008 185.197C304.798 185.197 305.439 184.557 305.439 183.768C305.439 182.979 304.798 182.34 304.008 182.34C303.218 182.34 302.578 182.979 302.578 183.768C302.578 184.557 303.218 185.197 304.008 185.197Z" fill="#383A48"/>
<path d="M304.008 192.225C304.798 192.225 305.439 191.585 305.439 190.796C305.439 190.007 304.798 189.368 304.008 189.368C303.218 189.368 302.578 190.007 302.578 190.796C302.578 191.585 303.218 192.225 304.008 192.225Z" fill="#383A48"/>
<path d="M304.008 199.281C304.798 199.281 305.439 198.641 305.439 197.852C305.439 197.064 304.798 196.424 304.008 196.424C303.218 196.424 302.578 197.064 302.578 197.852C302.578 198.641 303.218 199.281 304.008 199.281Z" fill="#383A48"/>
<path d="M304.008 206.337C304.798 206.337 305.439 205.698 305.439 204.909C305.439 204.12 304.798 203.48 304.008 203.48C303.218 203.48 302.578 204.12 302.578 204.909C302.578 205.698 303.218 206.337 304.008 206.337Z" fill="#383A48"/>
<path d="M304.008 213.365C304.798 213.365 305.439 212.726 305.439 211.937C305.439 211.148 304.798 210.508 304.008 210.508C303.218 210.508 302.578 211.148 302.578 211.937C302.578 212.726 303.218 213.365 304.008 213.365Z" fill="#383A48"/>
<path d="M304.008 220.421C304.798 220.421 305.439 219.782 305.439 218.993C305.439 218.204 304.798 217.565 304.008 217.565C303.218 217.565 302.578 218.204 302.578 218.993C302.578 219.782 303.218 220.421 304.008 220.421Z" fill="#383A48"/>
<path d="M304.008 227.478C304.798 227.478 305.439 226.838 305.439 226.049C305.439 225.261 304.798 224.621 304.008 224.621C303.218 224.621 302.578 225.261 302.578 226.049C302.578 226.838 303.218 227.478 304.008 227.478Z" fill="#383A48"/>
<path d="M304.008 234.506C304.798 234.506 305.439 233.866 305.439 233.077C305.439 232.288 304.798 231.649 304.008 231.649C303.218 231.649 302.578 232.288 302.578 233.077C302.578 233.866 303.218 234.506 304.008 234.506Z" fill="#383A48"/>
<path d="M296.943 178.14C297.733 178.14 298.373 177.501 298.373 176.712C298.373 175.923 297.733 175.284 296.943 175.284C296.153 175.284 295.513 175.923 295.513 176.712C295.513 177.501 296.153 178.14 296.943 178.14Z" fill="#383A48"/>
<path d="M296.943 185.197C297.733 185.197 298.373 184.557 298.373 183.768C298.373 182.979 297.733 182.34 296.943 182.34C296.153 182.34 295.513 182.979 295.513 183.768C295.513 184.557 296.153 185.197 296.943 185.197Z" fill="#383A48"/>
<path d="M296.943 192.225C297.733 192.225 298.373 191.585 298.373 190.796C298.373 190.007 297.733 189.368 296.943 189.368C296.153 189.368 295.513 190.007 295.513 190.796C295.513 191.585 296.153 192.225 296.943 192.225Z" fill="#383A48"/>
<path d="M296.943 199.281C297.733 199.281 298.373 198.641 298.373 197.852C298.373 197.064 297.733 196.424 296.943 196.424C296.153 196.424 295.513 197.064 295.513 197.852C295.513 198.641 296.153 199.281 296.943 199.281Z" fill="#383A48"/>
<path d="M296.943 206.337C297.733 206.337 298.373 205.698 298.373 204.909C298.373 204.12 297.733 203.48 296.943 203.48C296.153 203.48 295.513 204.12 295.513 204.909C295.513 205.698 296.153 206.337 296.943 206.337Z" fill="#383A48"/>
<path d="M296.943 213.365C297.733 213.365 298.373 212.726 298.373 211.937C298.373 211.148 297.733 210.508 296.943 210.508C296.153 210.508 295.513 211.148 295.513 211.937C295.513 212.726 296.153 213.365 296.943 213.365Z" fill="#383A48"/>
<path d="M296.943 220.421C297.733 220.421 298.373 219.782 298.373 218.993C298.373 218.204 297.733 217.565 296.943 217.565C296.153 217.565 295.513 218.204 295.513 218.993C295.513 219.782 296.153 220.421 296.943 220.421Z" fill="#383A48"/>
<path d="M296.943 227.478C297.733 227.478 298.373 226.838 298.373 226.049C298.373 225.261 297.733 224.621 296.943 224.621C296.153 224.621 295.513 225.261 295.513 226.049C295.513 226.838 296.153 227.478 296.943 227.478Z" fill="#383A48"/>
<path d="M296.943 234.506C297.733 234.506 298.373 233.866 298.373 233.077C298.373 232.288 297.733 231.649 296.943 231.649C296.153 231.649 295.513 232.288 295.513 233.077C295.513 233.866 296.153 234.506 296.943 234.506Z" fill="#383A48"/>
<path d="M289.877 178.14C290.667 178.14 291.308 177.501 291.308 176.712C291.308 175.923 290.667 175.284 289.877 175.284C289.088 175.284 288.447 175.923 288.447 176.712C288.447 177.501 289.088 178.14 289.877 178.14Z" fill="#383A48"/>
<path d="M289.877 185.197C290.667 185.197 291.308 184.557 291.308 183.768C291.308 182.979 290.667 182.34 289.877 182.34C289.088 182.34 288.447 182.979 288.447 183.768C288.447 184.557 289.088 185.197 289.877 185.197Z" fill="#383A48"/>
<path d="M289.877 192.225C290.667 192.225 291.308 191.585 291.308 190.796C291.308 190.007 290.667 189.368 289.877 189.368C289.088 189.368 288.447 190.007 288.447 190.796C288.447 191.585 289.088 192.225 289.877 192.225Z" fill="#383A48"/>
<path d="M289.877 199.281C290.667 199.281 291.308 198.641 291.308 197.852C291.308 197.064 290.667 196.424 289.877 196.424C289.088 196.424 288.447 197.064 288.447 197.852C288.447 198.641 289.088 199.281 289.877 199.281Z" fill="#383A48"/>
<path d="M289.877 206.337C290.667 206.337 291.308 205.698 291.308 204.909C291.308 204.12 290.667 203.48 289.877 203.48C289.088 203.48 288.447 204.12 288.447 204.909C288.447 205.698 289.088 206.337 289.877 206.337Z" fill="#383A48"/>
<path d="M289.877 213.365C290.667 213.365 291.308 212.726 291.308 211.937C291.308 211.148 290.667 210.508 289.877 210.508C289.088 210.508 288.447 211.148 288.447 211.937C288.447 212.726 289.088 213.365 289.877 213.365Z" fill="#383A48"/>
<path d="M289.877 220.421C290.667 220.421 291.308 219.782 291.308 218.993C291.308 218.204 290.667 217.565 289.877 217.565C289.088 217.565 288.447 218.204 288.447 218.993C288.447 219.782 289.088 220.421 289.877 220.421Z" fill="#383A48"/>
<path d="M289.877 227.478C290.667 227.478 291.308 226.838 291.308 226.049C291.308 225.261 290.667 224.621 289.877 224.621C289.088 224.621 288.447 225.261 288.447 226.049C288.447 226.838 289.088 227.478 289.877 227.478Z" fill="#383A48"/>
<path d="M289.877 234.506C290.667 234.506 291.308 233.866 291.308 233.077C291.308 232.288 290.667 231.649 289.877 231.649C289.088 231.649 288.447 232.288 288.447 233.077C288.447 233.866 289.088 234.506 289.877 234.506Z" fill="#383A48"/>
<path d="M282.841 178.14C283.631 178.14 284.272 177.501 284.272 176.712C284.272 175.923 283.631 175.284 282.841 175.284C282.051 175.284 281.411 175.923 281.411 176.712C281.411 177.501 282.051 178.14 282.841 178.14Z" fill="#383A48"/>
<path d="M282.841 185.197C283.631 185.197 284.272 184.557 284.272 183.768C284.272 182.979 283.631 182.34 282.841 182.34C282.051 182.34 281.411 182.979 281.411 183.768C281.411 184.557 282.051 185.197 282.841 185.197Z" fill="#383A48"/>
<path d="M282.841 192.225C283.631 192.225 284.272 191.585 284.272 190.796C284.272 190.007 283.631 189.368 282.841 189.368C282.051 189.368 281.411 190.007 281.411 190.796C281.411 191.585 282.051 192.225 282.841 192.225Z" fill="#383A48"/>
<path d="M282.841 199.281C283.631 199.281 284.272 198.641 284.272 197.852C284.272 197.064 283.631 196.424 282.841 196.424C282.051 196.424 281.411 197.064 281.411 197.852C281.411 198.641 282.051 199.281 282.841 199.281Z" fill="#383A48"/>
<path d="M282.841 206.337C283.631 206.337 284.272 205.698 284.272 204.909C284.272 204.12 283.631 203.48 282.841 203.48C282.051 203.48 281.411 204.12 281.411 204.909C281.411 205.698 282.051 206.337 282.841 206.337Z" fill="#383A48"/>
<path d="M282.841 213.365C283.631 213.365 284.272 212.726 284.272 211.937C284.272 211.148 283.631 210.508 282.841 210.508C282.051 210.508 281.411 211.148 281.411 211.937C281.411 212.726 282.051 213.365 282.841 213.365Z" fill="#383A48"/>
<path d="M282.841 220.421C283.631 220.421 284.272 219.782 284.272 218.993C284.272 218.204 283.631 217.565 282.841 217.565C282.051 217.565 281.411 218.204 281.411 218.993C281.411 219.782 282.051 220.421 282.841 220.421Z" fill="#383A48"/>
<path d="M282.841 227.478C283.631 227.478 284.272 226.838 284.272 226.049C284.272 225.261 283.631 224.621 282.841 224.621C282.051 224.621 281.411 225.261 281.411 226.049C281.411 226.838 282.051 227.478 282.841 227.478Z" fill="#383A48"/>
<path d="M282.841 234.506C283.631 234.506 284.272 233.866 284.272 233.077C284.272 232.288 283.631 231.649 282.841 231.649C282.051 231.649 281.411 232.288 281.411 233.077C281.411 233.866 282.051 234.506 282.841 234.506Z" fill="#383A48"/>
<path d="M275.776 185.197C276.566 185.197 277.206 184.557 277.206 183.768C277.206 182.979 276.566 182.34 275.776 182.34C274.986 182.34 274.346 182.979 274.346 183.768C274.346 184.557 274.986 185.197 275.776 185.197Z" fill="#383A48"/>
<path d="M275.776 192.225C276.566 192.225 277.206 191.585 277.206 190.796C277.206 190.007 276.566 189.368 275.776 189.368C274.986 189.368 274.346 190.007 274.346 190.796C274.346 191.585 274.986 192.225 275.776 192.225Z" fill="#383A48"/>
<path d="M275.776 199.281C276.566 199.281 277.206 198.641 277.206 197.852C277.206 197.064 276.566 196.424 275.776 196.424C274.986 196.424 274.346 197.064 274.346 197.852C274.346 198.641 274.986 199.281 275.776 199.281Z" fill="#383A48"/>
<path d="M275.776 206.337C276.566 206.337 277.206 205.698 277.206 204.909C277.206 204.12 276.566 203.48 275.776 203.48C274.986 203.48 274.346 204.12 274.346 204.909C274.346 205.698 274.986 206.337 275.776 206.337Z" fill="#383A48"/>
<path d="M275.776 213.365C276.566 213.365 277.206 212.726 277.206 211.937C277.206 211.148 276.566 210.508 275.776 210.508C274.986 210.508 274.346 211.148 274.346 211.937C274.346 212.726 274.986 213.365 275.776 213.365Z" fill="#383A48"/>
<path d="M275.776 220.421C276.566 220.421 277.206 219.782 277.206 218.993C277.206 218.204 276.566 217.565 275.776 217.565C274.986 217.565 274.346 218.204 274.346 218.993C274.346 219.782 274.986 220.421 275.776 220.421Z" fill="#383A48"/>
<path d="M275.776 227.478C276.566 227.478 277.206 226.838 277.206 226.049C277.206 225.261 276.566 224.621 275.776 224.621C274.986 224.621 274.346 225.261 274.346 226.049C274.346 226.838 274.986 227.478 275.776 227.478Z" fill="#383A48"/>
<path d="M275.776 234.506C276.566 234.506 277.206 233.866 277.206 233.077C277.206 232.288 276.566 231.649 275.776 231.649C274.986 231.649 274.346 232.288 274.346 233.077C274.346 233.866 274.986 234.506 275.776 234.506Z" fill="#383A48"/>
<path d="M268.71 234.506C269.5 234.506 270.141 233.866 270.141 233.077C270.141 232.288 269.5 231.649 268.71 231.649C267.921 231.649 267.28 232.288 267.28 233.077C267.28 233.866 267.921 234.506 268.71 234.506Z" fill="#383A48"/>
<path d="M425.089 203.452C425.879 203.452 426.52 202.812 426.52 202.023C426.52 201.235 425.879 200.595 425.089 200.595C424.299 200.595 423.659 201.235 423.659 202.023C423.659 202.812 424.299 203.452 425.089 203.452Z" fill="#383A48"/>
<path d="M418.052 147.087C418.842 147.087 419.482 146.447 419.482 145.658C419.482 144.869 418.842 144.23 418.052 144.23C417.262 144.23 416.622 144.869 416.622 145.658C416.622 146.447 417.262 147.087 418.052 147.087Z" fill="#383A48"/>
<path d="M418.052 154.143C418.842 154.143 419.482 153.503 419.482 152.715C419.482 151.926 418.842 151.286 418.052 151.286C417.262 151.286 416.622 151.926 416.622 152.715C416.622 153.503 417.262 154.143 418.052 154.143Z" fill="#383A48"/>
<path d="M418.052 161.171C418.842 161.171 419.482 160.531 419.482 159.742C419.482 158.953 418.842 158.314 418.052 158.314C417.262 158.314 416.622 158.953 416.622 159.742C416.622 160.531 417.262 161.171 418.052 161.171Z" fill="#383A48"/>
<path d="M418.052 168.227C418.842 168.227 419.482 167.588 419.482 166.799C419.482 166.01 418.842 165.37 418.052 165.37C417.262 165.37 416.622 166.01 416.622 166.799C416.622 167.588 417.262 168.227 418.052 168.227Z" fill="#383A48"/>
<path d="M418.052 175.284C418.842 175.284 419.482 174.644 419.482 173.855C419.482 173.066 418.842 172.427 418.052 172.427C417.262 172.427 416.622 173.066 416.622 173.855C416.622 174.644 417.262 175.284 418.052 175.284Z" fill="#383A48"/>
<path d="M418.052 182.311C418.842 182.311 419.482 181.672 419.482 180.883C419.482 180.094 418.842 179.454 418.052 179.454C417.262 179.454 416.622 180.094 416.622 180.883C416.622 181.672 417.262 182.311 418.052 182.311Z" fill="#383A48"/>
<path d="M418.052 189.368C418.842 189.368 419.482 188.728 419.482 187.939C419.482 187.15 418.842 186.511 418.052 186.511C417.262 186.511 416.622 187.15 416.622 187.939C416.622 188.728 417.262 189.368 418.052 189.368Z" fill="#383A48"/>
<path d="M418.052 196.424C418.842 196.424 419.482 195.785 419.482 194.996C419.482 194.207 418.842 193.567 418.052 193.567C417.262 193.567 416.622 194.207 416.622 194.996C416.622 195.785 417.262 196.424 418.052 196.424Z" fill="#383A48"/>
<path d="M418.052 203.452C418.842 203.452 419.482 202.812 419.482 202.023C419.482 201.235 418.842 200.595 418.052 200.595C417.262 200.595 416.622 201.235 416.622 202.023C416.622 202.812 417.262 203.452 418.052 203.452Z" fill="#383A48"/>
<path d="M410.988 140.03C411.778 140.03 412.418 139.391 412.418 138.602C412.418 137.813 411.778 137.173 410.988 137.173C410.198 137.173 409.558 137.813 409.558 138.602C409.558 139.391 410.198 140.03 410.988 140.03Z" fill="#383A48"/>
<path d="M410.988 147.087C411.778 147.087 412.418 146.447 412.418 145.658C412.418 144.869 411.778 144.23 410.988 144.23C410.198 144.23 409.558 144.869 409.558 145.658C409.558 146.447 410.198 147.087 410.988 147.087Z" fill="#383A48"/>
<path d="M410.988 154.143C411.778 154.143 412.418 153.503 412.418 152.715C412.418 151.926 411.778 151.286 410.988 151.286C410.198 151.286 409.558 151.926 409.558 152.715C409.558 153.503 410.198 154.143 410.988 154.143Z" fill="#383A48"/>
<path d="M410.988 161.171C411.778 161.171 412.418 160.531 412.418 159.742C412.418 158.953 411.778 158.314 410.988 158.314C410.198 158.314 409.558 158.953 409.558 159.742C409.558 160.531 410.198 161.171 410.988 161.171Z" fill="#383A48"/>
<path d="M410.988 168.227C411.778 168.227 412.418 167.588 412.418 166.799C412.418 166.01 411.778 165.37 410.988 165.37C410.198 165.37 409.558 166.01 409.558 166.799C409.558 167.588 410.198 168.227 410.988 168.227Z" fill="#383A48"/>
<path d="M410.988 175.284C411.778 175.284 412.418 174.644 412.418 173.855C412.418 173.066 411.778 172.427 410.988 172.427C410.198 172.427 409.558 173.066 409.558 173.855C409.558 174.644 410.198 175.284 410.988 175.284Z" fill="#383A48"/>
<path d="M410.988 182.311C411.778 182.311 412.418 181.672 412.418 180.883C412.418 180.094 411.778 179.454 410.988 179.454C410.198 179.454 409.558 180.094 409.558 180.883C409.558 181.672 410.198 182.311 410.988 182.311Z" fill="#383A48"/>
<path d="M410.988 189.368C411.778 189.368 412.418 188.728 412.418 187.939C412.418 187.15 411.778 186.511 410.988 186.511C410.198 186.511 409.558 187.15 409.558 187.939C409.558 188.728 410.198 189.368 410.988 189.368Z" fill="#383A48"/>
<path d="M410.988 196.424C411.778 196.424 412.418 195.785 412.418 194.996C412.418 194.207 411.778 193.567 410.988 193.567C410.198 193.567 409.558 194.207 409.558 194.996C409.558 195.785 410.198 196.424 410.988 196.424Z" fill="#383A48"/>
<path d="M410.988 203.452C411.778 203.452 412.418 202.812 412.418 202.023C412.418 201.235 411.778 200.595 410.988 200.595C410.198 200.595 409.558 201.235 409.558 202.023C409.558 202.812 410.198 203.452 410.988 203.452Z" fill="#383A48"/>
<path d="M403.922 133.002C404.712 133.002 405.353 132.363 405.353 131.574C405.353 130.785 404.712 130.146 403.922 130.146C403.133 130.146 402.492 130.785 402.492 131.574C402.492 132.363 403.133 133.002 403.922 133.002Z" fill="#383A48"/>
<path d="M403.922 140.03C404.712 140.03 405.353 139.391 405.353 138.602C405.353 137.813 404.712 137.173 403.922 137.173C403.133 137.173 402.492 137.813 402.492 138.602C402.492 139.391 403.133 140.03 403.922 140.03Z" fill="#383A48"/>
<path d="M403.922 147.087C404.712 147.087 405.353 146.447 405.353 145.658C405.353 144.869 404.712 144.23 403.922 144.23C403.133 144.23 402.492 144.869 402.492 145.658C402.492 146.447 403.133 147.087 403.922 147.087Z" fill="#383A48"/>
<path d="M403.922 154.143C404.712 154.143 405.353 153.503 405.353 152.715C405.353 151.926 404.712 151.286 403.922 151.286C403.133 151.286 402.492 151.926 402.492 152.715C402.492 153.503 403.133 154.143 403.922 154.143Z" fill="#383A48"/>
<path d="M403.922 161.171C404.712 161.171 405.353 160.531 405.353 159.742C405.353 158.953 404.712 158.314 403.922 158.314C403.133 158.314 402.492 158.953 402.492 159.742C402.492 160.531 403.133 161.171 403.922 161.171Z" fill="#383A48"/>
<path d="M403.922 168.227C404.712 168.227 405.353 167.588 405.353 166.799C405.353 166.01 404.712 165.37 403.922 165.37C403.133 165.37 402.492 166.01 402.492 166.799C402.492 167.588 403.133 168.227 403.922 168.227Z" fill="#383A48"/>
<path d="M403.922 175.284C404.712 175.284 405.353 174.644 405.353 173.855C405.353 173.066 404.712 172.427 403.922 172.427C403.133 172.427 402.492 173.066 402.492 173.855C402.492 174.644 403.133 175.284 403.922 175.284Z" fill="#383A48"/>
<path d="M403.922 182.311C404.712 182.311 405.353 181.672 405.353 180.883C405.353 180.094 404.712 179.454 403.922 179.454C403.133 179.454 402.492 180.094 402.492 180.883C402.492 181.672 403.133 182.311 403.922 182.311Z" fill="#383A48"/>
<path d="M403.922 189.368C404.712 189.368 405.353 188.728 405.353 187.939C405.353 187.15 404.712 186.511 403.922 186.511C403.133 186.511 402.492 187.15 402.492 187.939C402.492 188.728 403.133 189.368 403.922 189.368Z" fill="#383A48"/>
<path d="M403.922 196.424C404.712 196.424 405.353 195.785 405.353 194.996C405.353 194.207 404.712 193.567 403.922 193.567C403.133 193.567 402.492 194.207 402.492 194.996C402.492 195.785 403.133 196.424 403.922 196.424Z" fill="#383A48"/>
<path d="M403.922 203.452C404.712 203.452 405.353 202.812 405.353 202.023C405.353 201.235 404.712 200.595 403.922 200.595C403.133 200.595 402.492 201.235 402.492 202.023C402.492 202.812 403.133 203.452 403.922 203.452Z" fill="#383A48"/>
<path d="M396.885 133.002C397.675 133.002 398.315 132.363 398.315 131.574C398.315 130.785 397.675 130.146 396.885 130.146C396.095 130.146 395.455 130.785 395.455 131.574C395.455 132.363 396.095 133.002 396.885 133.002Z" fill="#383A48"/>
<path d="M396.885 140.03C397.675 140.03 398.315 139.391 398.315 138.602C398.315 137.813 397.675 137.173 396.885 137.173C396.095 137.173 395.455 137.813 395.455 138.602C395.455 139.391 396.095 140.03 396.885 140.03Z" fill="#383A48"/>
<path d="M396.885 147.087C397.675 147.087 398.315 146.447 398.315 145.658C398.315 144.869 397.675 144.23 396.885 144.23C396.095 144.23 395.455 144.869 395.455 145.658C395.455 146.447 396.095 147.087 396.885 147.087Z" fill="#383A48"/>
<path d="M396.885 154.143C397.675 154.143 398.315 153.503 398.315 152.715C398.315 151.926 397.675 151.286 396.885 151.286C396.095 151.286 395.455 151.926 395.455 152.715C395.455 153.503 396.095 154.143 396.885 154.143Z" fill="#383A48"/>
<path d="M396.885 161.171C397.675 161.171 398.315 160.531 398.315 159.742C398.315 158.953 397.675 158.314 396.885 158.314C396.095 158.314 395.455 158.953 395.455 159.742C395.455 160.531 396.095 161.171 396.885 161.171Z" fill="#383A48"/>
<path d="M396.885 168.227C397.675 168.227 398.315 167.588 398.315 166.799C398.315 166.01 397.675 165.37 396.885 165.37C396.095 165.37 395.455 166.01 395.455 166.799C395.455 167.588 396.095 168.227 396.885 168.227Z" fill="#383A48"/>
<path d="M396.885 175.284C397.675 175.284 398.315 174.644 398.315 173.855C398.315 173.066 397.675 172.427 396.885 172.427C396.095 172.427 395.455 173.066 395.455 173.855C395.455 174.644 396.095 175.284 396.885 175.284Z" fill="#383A48"/>
<path d="M396.885 182.311C397.675 182.311 398.315 181.672 398.315 180.883C398.315 180.094 397.675 179.454 396.885 179.454C396.095 179.454 395.455 180.094 395.455 180.883C395.455 181.672 396.095 182.311 396.885 182.311Z" fill="#383A48"/>
<path d="M396.885 189.368C397.675 189.368 398.315 188.728 398.315 187.939C398.315 187.15 397.675 186.511 396.885 186.511C396.095 186.511 395.455 187.15 395.455 187.939C395.455 188.728 396.095 189.368 396.885 189.368Z" fill="#383A48"/>
<path d="M396.885 196.424C397.675 196.424 398.315 195.785 398.315 194.996C398.315 194.207 397.675 193.567 396.885 193.567C396.095 193.567 395.455 194.207 395.455 194.996C395.455 195.785 396.095 196.424 396.885 196.424Z" fill="#383A48"/>
<path d="M396.885 203.452C397.675 203.452 398.315 202.812 398.315 202.023C398.315 201.235 397.675 200.595 396.885 200.595C396.095 200.595 395.455 201.235 395.455 202.023C395.455 202.812 396.095 203.452 396.885 203.452Z" fill="#383A48"/>
<path d="M389.82 133.002C390.61 133.002 391.25 132.363 391.25 131.574C391.25 130.785 390.61 130.146 389.82 130.146C389.03 130.146 388.39 130.785 388.39 131.574C388.39 132.363 389.03 133.002 389.82 133.002Z" fill="#383A48"/>
<path d="M389.82 140.03C390.61 140.03 391.25 139.391 391.25 138.602C391.25 137.813 390.61 137.173 389.82 137.173C389.03 137.173 388.39 137.813 388.39 138.602C388.39 139.391 389.03 140.03 389.82 140.03Z" fill="#383A48"/>
<path d="M389.82 147.087C390.61 147.087 391.25 146.447 391.25 145.658C391.25 144.869 390.61 144.23 389.82 144.23C389.03 144.23 388.39 144.869 388.39 145.658C388.39 146.447 389.03 147.087 389.82 147.087Z" fill="#383A48"/>
<path d="M389.82 154.143C390.61 154.143 391.25 153.503 391.25 152.715C391.25 151.926 390.61 151.286 389.82 151.286C389.03 151.286 388.39 151.926 388.39 152.715C388.39 153.503 389.03 154.143 389.82 154.143Z" fill="#383A48"/>
<path d="M389.82 161.171C390.61 161.171 391.25 160.531 391.25 159.742C391.25 158.953 390.61 158.314 389.82 158.314C389.03 158.314 388.39 158.953 388.39 159.742C388.39 160.531 389.03 161.171 389.82 161.171Z" fill="#383A48"/>
<path d="M389.82 168.227C390.61 168.227 391.25 167.588 391.25 166.799C391.25 166.01 390.61 165.37 389.82 165.37C389.03 165.37 388.39 166.01 388.39 166.799C388.39 167.588 389.03 168.227 389.82 168.227Z" fill="#383A48"/>
<path d="M389.82 175.284C390.61 175.284 391.25 174.644 391.25 173.855C391.25 173.066 390.61 172.427 389.82 172.427C389.03 172.427 388.39 173.066 388.39 173.855C388.39 174.644 389.03 175.284 389.82 175.284Z" fill="#383A48"/>
<path d="M389.82 182.311C390.61 182.311 391.25 181.672 391.25 180.883C391.25 180.094 390.61 179.454 389.82 179.454C389.03 179.454 388.39 180.094 388.39 180.883C388.39 181.672 389.03 182.311 389.82 182.311Z" fill="#383A48"/>
<path d="M389.82 189.368C390.61 189.368 391.25 188.728 391.25 187.939C391.25 187.15 390.61 186.511 389.82 186.511C389.03 186.511 388.39 187.15 388.39 187.939C388.39 188.728 389.03 189.368 389.82 189.368Z" fill="#383A48"/>
<path d="M389.82 196.424C390.61 196.424 391.25 195.785 391.25 194.996C391.25 194.207 390.61 193.567 389.82 193.567C389.03 193.567 388.39 194.207 388.39 194.996C388.39 195.785 389.03 196.424 389.82 196.424Z" fill="#383A48"/>
<path d="M389.82 203.452C390.61 203.452 391.25 202.812 391.25 202.023C391.25 201.235 390.61 200.595 389.82 200.595C389.03 200.595 388.39 201.235 388.39 202.023C388.39 202.812 389.03 203.452 389.82 203.452Z" fill="#383A48"/>
<path d="M382.754 140.03C383.544 140.03 384.185 139.391 384.185 138.602C384.185 137.813 383.544 137.173 382.754 137.173C381.965 137.173 381.324 137.813 381.324 138.602C381.324 139.391 381.965 140.03 382.754 140.03Z" fill="#383A48"/>
<path d="M382.754 147.087C383.544 147.087 384.185 146.447 384.185 145.658C384.185 144.869 383.544 144.23 382.754 144.23C381.965 144.23 381.324 144.869 381.324 145.658C381.324 146.447 381.965 147.087 382.754 147.087Z" fill="#383A48"/>
<path d="M382.754 154.143C383.544 154.143 384.185 153.503 384.185 152.715C384.185 151.926 383.544 151.286 382.754 151.286C381.965 151.286 381.324 151.926 381.324 152.715C381.324 153.503 381.965 154.143 382.754 154.143Z" fill="#383A48"/>
<path d="M382.754 161.171C383.544 161.171 384.185 160.531 384.185 159.742C384.185 158.953 383.544 158.314 382.754 158.314C381.965 158.314 381.324 158.953 381.324 159.742C381.324 160.531 381.965 161.171 382.754 161.171Z" fill="#383A48"/>
<path d="M382.754 168.227C383.544 168.227 384.185 167.588 384.185 166.799C384.185 166.01 383.544 165.37 382.754 165.37C381.965 165.37 381.324 166.01 381.324 166.799C381.324 167.588 381.965 168.227 382.754 168.227Z" fill="#383A48"/>
<path d="M382.754 175.284C383.544 175.284 384.185 174.644 384.185 173.855C384.185 173.066 383.544 172.427 382.754 172.427C381.965 172.427 381.324 173.066 381.324 173.855C381.324 174.644 381.965 175.284 382.754 175.284Z" fill="#383A48"/>
<path d="M382.754 182.311C383.544 182.311 384.185 181.672 384.185 180.883C384.185 180.094 383.544 179.454 382.754 179.454C381.965 179.454 381.324 180.094 381.324 180.883C381.324 181.672 381.965 182.311 382.754 182.311Z" fill="#383A48"/>
<path d="M382.754 189.368C383.544 189.368 384.185 188.728 384.185 187.939C384.185 187.15 383.544 186.511 382.754 186.511C381.965 186.511 381.324 187.15 381.324 187.939C381.324 188.728 381.965 189.368 382.754 189.368Z" fill="#383A48"/>
<path d="M382.754 196.424C383.544 196.424 384.185 195.785 384.185 194.996C384.185 194.207 383.544 193.567 382.754 193.567C381.965 193.567 381.324 194.207 381.324 194.996C381.324 195.785 381.965 196.424 382.754 196.424Z" fill="#383A48"/>
<path d="M382.754 203.452C383.544 203.452 384.185 202.812 384.185 202.023C384.185 201.235 383.544 200.595 382.754 200.595C381.965 200.595 381.324 201.235 381.324 202.023C381.324 202.812 381.965 203.452 382.754 203.452Z" fill="#383A48"/>
<path d="M375.718 147.087C376.508 147.087 377.149 146.447 377.149 145.658C377.149 144.869 376.508 144.23 375.718 144.23C374.928 144.23 374.288 144.869 374.288 145.658C374.288 146.447 374.928 147.087 375.718 147.087Z" fill="#383A48"/>
<path d="M375.718 154.143C376.508 154.143 377.149 153.503 377.149 152.715C377.149 151.926 376.508 151.286 375.718 151.286C374.928 151.286 374.288 151.926 374.288 152.715C374.288 153.503 374.928 154.143 375.718 154.143Z" fill="#383A48"/>
<path d="M375.718 161.171C376.508 161.171 377.149 160.531 377.149 159.742C377.149 158.953 376.508 158.314 375.718 158.314C374.928 158.314 374.288 158.953 374.288 159.742C374.288 160.531 374.928 161.171 375.718 161.171Z" fill="#383A48"/>
<path d="M375.718 168.227C376.508 168.227 377.149 167.588 377.149 166.799C377.149 166.01 376.508 165.37 375.718 165.37C374.928 165.37 374.288 166.01 374.288 166.799C374.288 167.588 374.928 168.227 375.718 168.227Z" fill="#383A48"/>
<path d="M375.718 175.284C376.508 175.284 377.149 174.644 377.149 173.855C377.149 173.066 376.508 172.427 375.718 172.427C374.928 172.427 374.288 173.066 374.288 173.855C374.288 174.644 374.928 175.284 375.718 175.284Z" fill="#383A48"/>
<path d="M375.718 182.311C376.508 182.311 377.149 181.672 377.149 180.883C377.149 180.094 376.508 179.454 375.718 179.454C374.928 179.454 374.288 180.094 374.288 180.883C374.288 181.672 374.928 182.311 375.718 182.311Z" fill="#383A48"/>
<path d="M375.718 189.368C376.508 189.368 377.149 188.728 377.149 187.939C377.149 187.15 376.508 186.511 375.718 186.511C374.928 186.511 374.288 187.15 374.288 187.939C374.288 188.728 374.928 189.368 375.718 189.368Z" fill="#383A48"/>
<path d="M375.718 196.424C376.508 196.424 377.149 195.785 377.149 194.996C377.149 194.207 376.508 193.567 375.718 193.567C374.928 193.567 374.288 194.207 374.288 194.996C374.288 195.785 374.928 196.424 375.718 196.424Z" fill="#383A48"/>
<path d="M375.718 203.452C376.508 203.452 377.149 202.812 377.149 202.023C377.149 201.235 376.508 200.595 375.718 200.595C374.928 200.595 374.288 201.235 374.288 202.023C374.288 202.812 374.928 203.452 375.718 203.452Z" fill="#383A48"/>
<path d="M241.307 171.57L210.043 148.572C209.614 148.258 209.042 148.201 208.556 148.458C208.069 148.715 207.783 149.201 207.783 149.743V172.655C207.783 173.455 208.412 174.084 209.213 174.084L240.478 174.169C241.107 174.169 241.651 173.769 241.822 173.198C241.994 172.57 241.794 171.941 241.307 171.57Z" fill="#383A48"/>
<path d="M130.724 57.0437H71.3516V168.289C71.3516 182.331 88.2824 189.467 98.4178 179.723L179.559 101.806L130.724 57.0437Z" fill="#F3F6E6"/>
<path d="M87.4188 185.655C85.1153 185.655 82.783 185.197 80.5083 184.251C73.972 181.471 69.9121 175.368 69.9121 168.289V57.0437C69.9121 56.2413 70.5456 55.6109 71.3518 55.6109H130.725C131.099 55.6109 131.445 55.7542 131.704 55.9834L180.538 100.745C180.826 101.003 180.999 101.376 180.999 101.777C180.999 102.178 180.855 102.551 180.567 102.837L99.4258 180.755C96.0569 183.965 91.7954 185.655 87.4188 185.655ZM72.7915 58.4765V168.289C72.7915 174.193 76.1892 179.294 81.6312 181.615C87.102 183.907 93.1488 182.818 97.4103 178.692L177.457 101.834L130.149 58.4765H72.7915Z" fill="#F3F6E6"/>
<path d="M111.42 169.581C103.024 161.007 103.195 147.307 111.763 138.933C120.359 130.558 134.095 130.729 142.492 139.274" fill="#6002FD"/>
<path d="M110.392 170.578C101.482 161.463 101.653 146.822 110.763 137.907C119.902 129.02 134.581 129.191 143.52 138.277L141.492 140.271C133.667 132.296 120.787 132.154 112.791 139.958C104.794 147.762 104.652 160.608 112.477 168.584L110.392 170.578Z" fill="#6002FD"/>
<path d="M111.42 169.581C119.816 178.154 133.581 178.297 142.149 169.922C150.745 161.548 150.888 147.819 142.492 139.274" fill="#383A48"/>
<path d="M126.956 177.528C126.87 177.528 126.784 177.528 126.698 177.528C120.501 177.471 114.732 174.993 110.392 170.578L112.448 168.584C116.246 172.457 121.329 174.622 126.756 174.679C132.182 174.736 137.294 172.685 141.178 168.897C145.062 165.109 147.232 160.039 147.289 154.627C147.346 149.215 145.29 144.117 141.492 140.243L143.519 138.249C147.86 142.664 150.202 148.475 150.116 154.655C150.059 160.836 147.575 166.59 143.148 170.919C138.779 175.192 133.038 177.528 126.956 177.528Z" fill="#383A48"/>
<path d="M332.97 253.957H438.844C452.459 253.957 463.511 242.892 463.511 229.26V207.187C446.364 226.38 410.446 212.063 392.245 230.572C373.73 249.366 361.966 250.307 332.97 253.957Z" fill="#F3F6E6"/>
<path d="M438.844 255.383H332.969C332.229 255.383 331.602 254.784 331.545 254.043C331.488 253.301 332.029 252.645 332.798 252.531L335.476 252.189C362.479 248.795 373.644 247.398 391.247 229.545C400.618 220.02 414.405 218.851 427.735 217.739C441.35 216.598 454.197 215.514 462.485 206.217C462.884 205.789 463.511 205.618 464.052 205.846C464.593 206.046 464.963 206.588 464.963 207.187V229.26C464.935 243.662 453.228 255.383 438.844 255.383ZM353.734 252.531H438.844C451.661 252.531 462.087 242.093 462.087 229.26V210.609C453.086 218.48 440.325 219.535 427.934 220.591C415.117 221.674 401.872 222.786 393.241 231.57C379.597 245.459 369.286 249.793 353.734 252.531Z" fill="#F3F6E6"/>
<path d="M232.856 101.666H126.648V57.3822H232.856L256.913 74.0671C260.717 76.7241 260.717 82.3524 256.913 84.9808L232.856 101.666Z" fill="#F6E049"/>
<path d="M232.857 103.094H126.649C125.848 103.094 125.219 102.466 125.219 101.666V57.3822C125.219 56.5823 125.848 55.9537 126.649 55.9537H232.857C233.143 55.9537 233.429 56.0394 233.686 56.2109L257.743 72.8957C259.917 74.4099 261.204 76.8955 261.204 79.5525C261.204 82.181 259.888 84.6666 257.743 86.1522L233.686 102.837C233.429 103.008 233.143 103.094 232.857 103.094ZM128.079 100.237H232.399L256.084 83.8095C257.514 82.8381 258.315 81.2667 258.315 79.5525C258.315 77.8098 257.514 76.2384 256.084 75.2385L232.399 58.8107H128.079V100.237Z" fill="#383A48"/>
<path d="M130.568 101.666C142.906 101.666 152.908 91.6758 152.908 79.3525C152.908 67.0293 142.906 57.0394 130.568 57.0394C118.229 57.0394 108.228 67.0293 108.228 79.3525C108.228 91.6758 118.229 101.666 130.568 101.666Z" fill="#F6E049"/>
<path d="M130.568 103.094C117.467 103.094 106.798 92.4376 106.798 79.3525C106.798 66.2675 117.467 55.6109 130.568 55.6109C143.669 55.6109 154.338 66.2675 154.338 79.3525C154.338 92.4376 143.669 103.094 130.568 103.094ZM130.568 58.4679C119.041 58.4679 109.658 67.8388 109.658 79.3525C109.658 90.8662 119.041 100.237 130.568 100.237C142.096 100.237 151.478 90.8662 151.478 79.3525C151.478 67.8388 142.096 58.4679 130.568 58.4679Z" fill="#383A48"/>
<path d="M130.567 90.0663C136.492 90.0663 141.294 85.2696 141.294 79.3525C141.294 73.4355 136.492 68.6388 130.567 68.6388C124.643 68.6388 119.841 73.4355 119.841 79.3525C119.841 85.2696 124.643 90.0663 130.567 90.0663Z" fill="#383A48"/>
<path d="M130.568 91.4948C123.875 91.4948 118.411 86.0379 118.411 79.3525C118.411 72.6672 123.875 67.2103 130.568 67.2103C137.261 67.2103 142.725 72.6672 142.725 79.3525C142.725 86.0379 137.261 91.4948 130.568 91.4948ZM130.568 70.0673C125.448 70.0673 121.272 74.2385 121.272 79.3525C121.272 84.4666 125.448 88.6378 130.568 88.6378C135.688 88.6378 139.864 84.4666 139.864 79.3525C139.864 74.2385 135.688 70.0673 130.568 70.0673Z" fill="#383A48"/>
<path d="M232.313 102.751C225.477 102.751 219.928 97.1802 219.928 90.352C219.928 86.895 221.415 83.5809 224.161 81.0096C224.848 80.3525 225.191 79.7811 225.191 79.324C225.191 78.7811 224.676 78.1812 224.218 77.7812C221.444 75.1813 219.928 71.8672 219.928 68.3817C219.928 61.5534 225.477 55.9823 232.313 55.9823C233.114 55.9823 233.744 56.6108 233.744 57.4108C233.744 58.2107 233.114 58.8393 232.313 58.8393C227.05 58.8393 222.788 63.1248 222.788 68.3817C222.788 71.0387 223.99 73.6385 226.163 75.6956C227.393 76.8384 228.023 78.0383 228.051 79.324C228.051 80.6096 227.422 81.8667 226.106 83.0952C223.961 85.1237 222.788 87.7235 222.788 90.3806C222.788 95.6374 227.05 99.9229 232.313 99.9229C233.114 99.9229 233.744 100.551 233.744 101.351C233.744 102.151 233.114 102.751 232.313 102.751Z" fill="#383A48"/>
<path d="M250.562 69.6673V89.4092L256.484 85.4951C260.86 82.6095 260.803 76.1813 256.369 73.3814L250.562 69.6673Z" fill="#383A48"/>
<path d="M250.563 90.8377C250.334 90.8377 250.105 90.7805 249.877 90.6662C249.419 90.4091 249.133 89.9234 249.133 89.4092V69.6673C249.133 69.1531 249.419 68.6674 249.877 68.4102C250.334 68.1531 250.906 68.1817 251.335 68.4674L257.142 72.1815C259.631 73.7528 261.147 76.4384 261.175 79.3811C261.204 82.3238 259.745 85.0665 257.285 86.6665L251.364 90.5805C251.107 90.752 250.849 90.8377 250.563 90.8377ZM251.993 72.2672V86.7522L255.683 84.2951C257.342 83.2095 258.315 81.381 258.286 79.4097C258.258 77.4384 257.256 75.6384 255.597 74.5814L251.993 72.2672Z" fill="#383A48"/>
<path d="M221.358 69.8102H150.019C149.218 69.8102 148.589 69.1816 148.589 68.3817C148.589 67.5817 149.218 66.9532 150.019 66.9532H221.358C222.159 66.9532 222.789 67.5817 222.789 68.3817C222.789 69.1816 222.159 69.8102 221.358 69.8102Z" fill="#383A48"/>
<path d="M221.358 91.7805H150.019C149.218 91.7805 148.589 91.152 148.589 90.352C148.589 89.552 149.218 88.9235 150.019 88.9235H221.358C222.159 88.9235 222.789 89.552 222.789 90.352C222.789 91.152 222.159 91.7805 221.358 91.7805Z" fill="#383A48"/>
<path d="M399.593 235.705C399.22 235.705 398.847 235.562 398.588 235.276L309.672 146.594C309.098 146.022 309.098 145.134 309.672 144.562C310.245 143.989 311.135 143.989 311.709 144.562L400.625 233.243C401.199 233.816 401.199 234.703 400.625 235.276C400.339 235.562 399.966 235.705 399.593 235.705Z" fill="#AAC6FC"/>
<path d="M440.539 229.711L433.625 236.607L435.72 238.697L442.634 231.801L440.539 229.711Z" fill="#383A48"/>
<path d="M435.72 229.712L433.625 231.801L440.539 238.697L442.634 236.607L435.72 229.712Z" fill="#383A48"/>
<path d="M182.766 136.883L175.853 143.78L177.948 145.869L184.861 138.973L182.766 136.883Z" fill="#383A48"/>
<path d="M177.948 136.884L175.853 138.973L182.766 145.869L184.861 143.779L177.948 136.884Z" fill="#383A48"/>
<path d="M91.5082 88.9724L84.9238 95.5403L86.9194 97.5304L93.5037 90.9624L91.5082 88.9724Z" fill="#383A48"/>
<path d="M86.9191 88.973L84.9238 90.963L91.5082 97.53L93.5034 95.54L86.9191 88.973Z" fill="#383A48"/>
</svg>
