<svg width="549" height="308" viewBox="0 0 549 308" fill="none" xmlns="http://www.w3.org/2000/svg">
<path d="M328.811 43.5468C328.554 43.0625 328.069 42.7776 327.555 42.7776H66.6205C65.8213 42.7776 65.1934 43.4044 65.1934 44.202V218.881C65.1934 219.679 65.8213 220.305 66.6205 220.305C67.4197 220.305 68.0476 219.679 68.0476 218.881C68.0476 187.489 86.5431 180.054 107.95 171.48C128.215 163.332 151.22 154.131 160.925 122.084C164.949 108.809 171.657 100.976 182.046 97.4147C191.665 94.1388 203.396 94.6231 216.953 95.1928C233.365 95.8765 251.975 96.6741 271.127 90.6065C293.276 83.5988 312.085 68.7004 328.668 45.0281C329.011 44.5723 329.068 44.0026 328.811 43.5468Z" fill="#F3F6E6"/>
<path d="M69.3887 66.222L72.5283 51.523L76.6099 48.1901H86.3714L88.9973 51.523L85.8576 66.222L81.8046 69.5549H72.0146L69.3887 66.222ZM74.4692 64.7122L75.2399 65.6808H79.9494L81.4621 64.4274L83.1461 56.5651L74.4692 64.7122ZM83.8882 53.0328L83.1461 52.0642H78.4366L76.8953 53.3176L75.2399 61.1514L83.8882 53.0328Z" fill="#6002FD"/>
<path d="M89.1689 69.4125L89.9967 65.5383H92.9936L95.8193 52.2351H92.7653L93.593 48.361H101.414L97.7602 65.5383H100.814L99.9865 69.4125H89.1689Z" fill="#6002FD"/>
<path d="M102.755 69.4125L103.583 65.5383H106.58L109.405 52.2351H106.351L107.179 48.361H115L111.346 65.5383H114.343L113.515 69.4125H102.755Z" fill="#6002FD"/>
<path d="M116.312 69.4125L117.14 65.5383H120.137L122.963 52.2351H119.909L120.737 48.361H128.557L124.904 65.5383H127.929L127.102 69.4125H116.312Z" fill="#6002FD"/>
<path d="M130.812 66.222L133.952 51.523L138.034 48.1901H147.795L150.421 51.523L147.281 66.222L143.228 69.5549H133.438L130.812 66.222ZM135.922 64.7122L136.692 65.6808H141.402L142.914 64.4274L144.599 56.5651L135.922 64.7122ZM145.341 53.0328L144.599 52.0642H139.889L138.348 53.3176L136.692 61.1514L145.341 53.0328Z" fill="#6002FD"/>
<path d="M151.533 66.222L154.673 51.523L158.754 48.1901H168.516L171.142 51.523L168.002 66.222L163.949 69.5549H154.188L151.533 66.222ZM156.642 64.7122L157.413 65.6808H162.122L163.635 64.4274L165.319 56.5651L156.642 64.7122ZM166.061 53.0328L165.319 52.0642H160.61L159.068 53.3176L157.413 61.1514L166.061 53.0328Z" fill="#6002FD"/>
<path d="M171.342 69.4125L172.17 65.5383H175.166L177.992 52.2351H174.938L175.766 48.361H183.586L179.933 65.5383H182.93L182.102 69.4125H171.342Z" fill="#6002FD"/>
<path d="M184.9 69.4125L185.728 65.5383H188.725L191.551 52.2351H188.497L189.324 48.361H197.145L193.492 65.5383H196.489L195.661 69.4125H184.9Z" fill="#6002FD"/>
<path d="M199.399 66.222L202.539 51.523L206.621 48.1901H216.382L219.008 51.523L215.868 66.222L211.844 69.5549H202.054L199.399 66.222ZM204.509 64.7122L205.279 65.6808H209.989L211.501 64.4274L213.185 56.5651L204.509 64.7122ZM213.928 53.0328L213.185 52.0642H208.476L206.935 53.3176L205.279 61.1514L213.928 53.0328Z" fill="#6002FD"/>
<path d="M68.4473 97.7565L69.275 93.8824H72.2719L75.0976 80.5792H72.0436L72.8713 76.705H80.692L77.0385 93.8824H80.0355L79.2078 97.7565H68.4473Z" fill="#6002FD"/>
<path d="M82.9473 94.5661L86.0869 79.867L90.1685 76.5341H99.93L102.556 79.867L99.4162 94.5661L95.3632 97.899H85.5732L82.9473 94.5661ZM88.0564 93.0563L88.827 94.0248H93.5365L95.0493 92.7714L96.7333 84.9091L88.0564 93.0563ZM97.4754 81.3768L96.7333 80.4083H92.0238L90.4825 81.6617L88.827 89.4955L97.4754 81.3768Z" fill="#6002FD"/>
<path d="M102.756 97.7565L103.584 93.8824H106.581L109.406 80.5792H106.352L107.18 76.705H115.001L111.347 93.8824H114.344L113.516 97.7565H102.756Z" fill="#6002FD"/>
<path d="M117.255 94.5661L120.395 79.867L124.476 76.5341H134.238L136.864 79.867L133.724 94.5661L129.671 97.899H119.881L117.255 94.5661ZM122.335 93.0563L123.106 94.0248H127.816L129.328 92.7714L131.012 84.9091L122.335 93.0563ZM131.754 81.3768L131.012 80.4083H126.303L124.762 81.6617L123.106 89.4955L131.754 81.3768Z" fill="#6002FD"/>
<path d="M137.977 94.5661L141.116 79.867L145.198 76.5341H154.959L157.585 79.867L154.446 94.5661L150.393 97.899H140.602L137.977 94.5661ZM143.086 93.0563L143.856 94.0248H148.566L150.079 92.7714L151.763 84.9091L143.086 93.0563ZM152.505 81.3768L151.763 80.4083H147.053L145.512 81.6617L143.856 89.4955L152.505 81.3768Z" fill="#6002FD"/>
<path d="M69.3887 124.705L72.5283 110.006L76.6099 106.673H86.3714L88.9973 110.006L85.8576 124.705L81.8046 128.038H72.0146L69.3887 124.705ZM74.4692 123.195L75.2399 124.164H79.9494L81.4621 122.91L83.1461 115.048L74.4692 123.195ZM83.8882 111.515L83.1461 110.547H78.4366L76.8953 111.8L75.2399 119.634L83.8882 111.515Z" fill="#6002FD"/>
<path d="M89.1689 127.867L89.9967 123.993H92.9936L95.8193 110.689H92.7653L93.593 106.815H101.414L97.7602 123.993H100.814L99.9865 127.867H89.1689Z" fill="#6002FD"/>
<path d="M102.755 127.867L103.583 123.993H106.58L109.377 110.689H106.323L107.15 106.815H114.971L111.318 123.993H114.315L113.487 127.867H102.755Z" fill="#6002FD"/>
<path d="M480.23 42.3499C479.429 42.3499 478.799 42.9792 478.799 43.7801C478.799 65.9203 469.499 86.9162 450.41 107.998C433.64 126.477 411.604 142.553 392.144 156.712C371.023 172.102 352.794 185.374 344.237 198.876C332.475 217.469 304.916 220.186 272.978 223.361C254.09 225.221 232.712 227.338 212.508 233.173C189.298 239.866 170.983 250.507 156.473 265.697C156.073 266.097 155.958 266.726 156.187 267.241C156.416 267.756 156.931 268.1 157.503 268.1L480.23 269.043C480.602 269.043 480.974 268.9 481.232 268.614C481.49 268.357 481.661 267.985 481.661 267.613V43.7801C481.661 42.9792 481.032 42.3499 480.23 42.3499Z" fill="#F3F6E6"/>
<path d="M480.231 269.072H80.7786C79.9773 269.072 79.3477 268.443 79.3477 267.642C79.3477 266.841 79.9773 266.212 80.7786 266.212H480.231C481.032 266.212 481.662 266.841 481.662 267.642C481.662 268.443 481.032 269.072 480.231 269.072Z" fill="#383A48"/>
<path d="M480.774 233.116C480.23 232.887 479.629 233.03 479.229 233.43L446.003 266.641C445.603 267.041 445.459 267.67 445.688 268.185C445.917 268.729 446.432 269.072 447.005 269.072H480.23C481.032 269.072 481.661 268.443 481.661 267.642V234.432C481.661 233.859 481.318 233.316 480.774 233.116Z" fill="#383A48"/>
<path d="M278.189 77.0738C277.73 77.0738 277.3 76.8734 277.014 76.4726L271.279 68.4285C270.82 67.7987 270.963 66.8826 271.623 66.4246C272.254 65.9666 273.171 66.1097 273.63 66.7681L279.365 74.8122C279.824 75.442 279.68 76.3581 279.021 76.8161C278.763 76.9879 278.476 77.0738 278.189 77.0738Z" fill="#383A48"/>
<path d="M293.674 72.5794C292.957 72.5794 292.355 72.0354 292.24 71.3198L291.007 61.5008C290.921 60.7278 291.466 60.0122 292.24 59.8976C293.014 59.8118 293.731 60.3557 293.846 61.1286L295.079 70.9476C295.165 71.7205 294.62 72.4362 293.846 72.5507C293.788 72.5794 293.731 72.5794 293.674 72.5794Z" fill="#383A48"/>
<path d="M266.347 87.6943C266.175 87.6943 266.032 87.6657 265.86 87.6084L256.57 84.2305C255.824 83.9728 255.451 83.1426 255.709 82.3983C255.968 81.654 256.799 81.2819 257.545 81.5395L266.863 84.8889C267.609 85.1465 267.982 85.9767 267.724 86.721C267.494 87.3222 266.95 87.6943 266.347 87.6943Z" fill="#383A48"/>
<path d="M64.0486 233.139C63.9626 233.139 63.8481 233.139 63.7621 233.11C62.9888 232.94 62.5018 232.202 62.6451 231.436L63.9626 225.191C65.0224 220.167 69.9777 216.931 75.0475 217.981L80.7761 219.173C82.4661 219.514 84.2133 219.201 85.6741 218.236C87.1349 217.3 88.1087 215.852 88.4811 214.149L89.6841 208.472C90.7439 203.447 95.6991 200.212 100.769 201.262L106.498 202.454C110.021 203.164 113.458 200.921 114.203 197.458L115.406 191.781C115.921 189.34 117.353 187.268 119.444 185.905C121.535 184.543 124.027 184.06 126.49 184.571L132.248 185.763C133.021 185.934 133.508 186.672 133.365 187.438C133.193 188.204 132.448 188.687 131.675 188.545L125.918 187.353C124.228 187.012 122.48 187.324 121.02 188.29C119.559 189.226 118.585 190.674 118.213 192.377L117.01 198.054C115.95 203.078 110.995 206.314 105.925 205.264L100.196 204.072C96.673 203.362 93.2358 205.605 92.4911 209.068L91.2881 214.745C90.7725 217.186 89.3404 219.258 87.2494 220.621C85.1585 221.983 82.6666 222.466 80.2033 221.955L74.4746 220.763C70.9515 220.053 67.5144 222.295 66.7697 225.759L65.4521 232.003C65.3089 232.685 64.7074 233.139 64.0486 233.139Z" fill="#383A48"/>
<path d="M465.116 100.387C473.462 100.387 480.228 93.6673 480.228 85.3782C480.228 77.089 473.462 70.3693 465.116 70.3693C456.77 70.3693 450.004 77.089 450.004 85.3782C450.004 93.6673 456.77 100.387 465.116 100.387Z" fill="#F6E049"/>
<path d="M465.116 101.811C455.997 101.811 448.57 94.4347 448.57 85.3781C448.57 76.3216 455.997 68.9453 465.116 68.9453C474.235 68.9453 481.662 76.3216 481.662 85.3781C481.662 94.4632 474.235 101.811 465.116 101.811ZM465.116 71.7933C457.574 71.7933 451.438 77.888 451.438 85.3781C451.438 92.8683 457.574 98.963 465.116 98.963C472.658 98.963 478.794 92.8683 478.794 85.3781C478.794 77.888 472.658 71.7933 465.116 71.7933Z" fill="#383A48"/>
<path d="M451.638 85.3782C459.985 85.3782 466.751 78.6585 466.751 70.3694C466.751 62.0802 459.985 55.3605 451.638 55.3605C443.292 55.3605 436.526 62.0802 436.526 70.3694C436.526 78.6585 443.292 85.3782 451.638 85.3782Z" fill="#E0719E"/>
<path d="M451.639 86.8022C442.52 86.8022 435.093 79.4259 435.093 70.3694C435.093 61.3128 442.52 53.9365 451.639 53.9365C460.757 53.9365 468.184 61.3128 468.184 70.3694C468.184 79.4259 460.757 86.8022 451.639 86.8022ZM451.639 56.7845C444.097 56.7845 437.96 62.8792 437.96 70.3694C437.96 77.8595 444.097 83.9542 451.639 83.9542C459.18 83.9542 465.317 77.8595 465.317 70.3694C465.317 62.8792 459.18 56.7845 451.639 56.7845Z" fill="#383A48"/>
<path d="M438.161 70.3694C446.507 70.3694 453.273 63.6497 453.273 55.3605C453.273 47.0714 446.507 40.3517 438.161 40.3517C429.815 40.3517 423.049 47.0714 423.049 55.3605C423.049 63.6497 429.815 70.3694 438.161 70.3694Z" fill="#AAC6FC"/>
<path d="M438.161 71.7933C429.042 71.7933 421.615 64.4171 421.615 55.3605C421.615 46.3039 429.042 38.9277 438.161 38.9277C447.28 38.9277 454.707 46.3039 454.707 55.3605C454.707 64.4171 447.28 71.7933 438.161 71.7933ZM438.161 41.7757C430.619 41.7757 424.483 47.8703 424.483 55.3605C424.483 62.8507 430.619 68.9454 438.161 68.9454C445.703 68.9454 451.839 62.8507 451.839 55.3605C451.839 47.8703 445.703 41.7757 438.161 41.7757Z" fill="#383A48"/>
<path d="M386.703 153.196H343.896V209.291H386.703V153.196Z" fill="#383A48"/>
<path d="M403.935 181.23H326.694C308.86 181.23 294.381 166.799 294.381 149.024V105.76C294.381 87.9853 308.86 73.5543 326.694 73.5543H403.935C421.769 73.5543 436.248 87.9853 436.248 105.76V149.053C436.248 166.827 421.769 181.23 403.935 181.23Z" fill="#F3F6E6"/>
<path d="M403.935 182.658H326.694C308.086 182.658 292.947 167.57 292.947 149.024V105.76C292.947 87.2137 308.086 72.1255 326.694 72.1255H403.935C422.543 72.1255 437.681 87.2137 437.681 105.76V149.053C437.681 167.57 422.543 182.658 403.935 182.658ZM326.694 74.9831C309.663 74.9831 295.814 88.7854 295.814 105.76V149.053C295.814 166.027 309.663 179.829 326.694 179.829H403.935C420.966 179.829 434.814 166.027 434.814 149.053V105.76C434.814 88.7854 420.966 74.9831 403.935 74.9831H326.694Z" fill="#383A48"/>
<path d="M393.01 97.1297H337.588C325.747 97.1297 316.113 106.731 316.113 118.533V136.222C316.113 148.024 325.747 157.626 337.588 157.626H393.01C404.852 157.626 414.485 148.024 414.485 136.222V118.562C414.514 106.731 404.88 97.1297 393.01 97.1297Z" fill="#383A48"/>
<path d="M338.449 114.961H338.191C334.521 114.961 331.539 117.933 331.539 121.591V133.164C331.539 136.822 334.521 139.794 338.191 139.794H338.449C342.119 139.794 345.101 136.822 345.101 133.164V121.591C345.129 117.933 342.119 114.961 338.449 114.961Z" fill="#F6E049"/>
<path d="M392.437 114.961H392.179C388.509 114.961 385.527 117.933 385.527 121.591V133.164C385.527 136.822 388.509 139.794 392.179 139.794H392.437C396.107 139.794 399.089 136.822 399.089 133.164V121.591C399.089 117.933 396.107 114.961 392.437 114.961Z" fill="#F6E049"/>
<path d="M365.314 136.594C360.239 136.594 356.082 132.479 356.082 127.392C356.082 126.592 356.713 125.963 357.516 125.963C358.318 125.963 358.949 126.592 358.949 127.392C358.949 130.878 361.788 133.736 365.314 133.736C368.841 133.736 371.679 130.907 371.679 127.392C371.679 126.592 372.31 125.963 373.113 125.963C373.916 125.963 374.547 126.592 374.547 127.392C374.547 132.45 370.389 136.594 365.314 136.594Z" fill="#F6E049"/>
<path d="M365.315 226.409C354.276 226.409 345.359 217.493 345.359 206.52V199.318H385.299V206.52C385.27 217.493 376.353 226.409 365.315 226.409Z" fill="#AAC6FC"/>
<path d="M365.315 227.837C353.502 227.837 343.926 218.264 343.926 206.52V199.318C343.926 198.518 344.557 197.89 345.359 197.89H385.299C386.102 197.89 386.732 198.518 386.732 199.318V206.52C386.704 218.264 377.099 227.837 365.315 227.837ZM346.764 200.719V206.491C346.764 216.664 355.079 224.951 365.286 224.951C375.493 224.951 383.808 216.664 383.808 206.491V200.719H346.764Z" fill="#383A48"/>
<path d="M428.019 200.862H407.978V240.811H428.019C439.086 240.811 448.06 231.867 448.06 220.836C448.06 209.806 439.086 200.862 428.019 200.862Z" fill="#AAC6FC"/>
<path d="M428.019 242.24H407.978C407.175 242.24 406.544 241.611 406.544 240.811V200.861C406.544 200.061 407.175 199.433 407.978 199.433H428.019C439.86 199.433 449.494 209.034 449.494 220.836C449.494 232.638 439.86 242.24 428.019 242.24ZM409.382 239.382H427.99C438.255 239.382 446.598 231.067 446.598 220.836C446.598 210.606 438.255 202.29 427.99 202.29H409.382V239.382Z" fill="#383A48"/>
<path d="M302.61 200.862H322.651V240.811H302.61C291.543 240.811 282.568 231.867 282.568 220.836C282.568 209.806 291.543 200.862 302.61 200.862Z" fill="#AAC6FC"/>
<path d="M322.651 242.24H302.61C290.768 242.24 281.135 232.638 281.135 220.836C281.135 209.034 290.768 199.433 302.61 199.433H322.651C323.454 199.433 324.085 200.061 324.085 200.861V240.811C324.085 241.611 323.454 242.24 322.651 242.24ZM302.61 202.29C292.345 202.29 284.002 210.606 284.002 220.836C284.002 231.067 292.345 239.382 302.61 239.382H321.218V202.29H302.61Z" fill="#383A48"/>
<path d="M409.096 267.216H321.533C309.606 267.216 299.943 257.585 299.943 245.698V224.351C299.943 211.378 310.494 200.862 323.511 200.862H407.175C420.192 200.862 430.743 211.378 430.743 224.351V245.698C430.686 257.585 421.023 267.216 409.096 267.216Z" fill="#F6E049"/>
<path d="M409.096 268.644H321.533C308.832 268.644 298.51 258.357 298.51 245.698V224.351C298.51 210.606 309.72 199.433 323.511 199.433H407.175C420.966 199.433 432.177 210.606 432.177 224.351V245.698C432.119 258.357 421.798 268.644 409.096 268.644ZM323.483 202.29C311.269 202.29 301.348 212.178 301.348 224.351V245.698C301.348 256.785 310.38 265.787 321.504 265.787H409.067C420.192 265.787 429.223 256.785 429.223 245.698V224.351C429.223 212.178 419.303 202.29 407.089 202.29H323.483Z" fill="#383A48"/>
<path d="M395.449 267.216H335.152V249.184C335.152 241.811 341.145 235.81 348.571 235.81H382.03C389.428 235.81 395.449 241.783 395.449 249.184V267.216Z" fill="#F3F6E6"/>
<path d="M396.882 268.644H333.719V249.184C333.719 241.011 340.371 234.381 348.571 234.381H382.03C390.23 234.381 396.882 241.011 396.882 249.184V268.644ZM336.615 265.787H394.044V249.184C394.044 242.611 388.682 237.239 382.059 237.239H348.599C342.005 237.239 336.615 242.583 336.615 249.184V265.787Z" fill="#383A48"/>
<path d="M291.933 110.498L266.638 155.406L246.881 190.439L204.113 266.253L185.698 216.052L123.659 266.794L100.934 239.103L162.716 188.561L119.348 158.537L203.342 135.172L242.17 124.358L291.933 110.498Z" fill="#E0719E"/>
<path d="M289.849 112.405L246.425 188.247C226.411 177.006 211.794 158.565 205.513 136.026L242.456 125.581L289.849 112.405Z" fill="#F6E049"/>
<path d="M289.849 112.405L266.524 153.129C261.186 150.112 256.497 146.076 252.725 141.252C248.953 136.427 246.171 130.909 244.54 125.012L289.849 112.405Z" fill="#F3F6E6"/>
<path d="M123.659 268.217H123.517C123.139 268.176 122.792 267.992 122.546 267.704L99.8201 240.014C99.5859 239.722 99.4757 239.35 99.513 238.977C99.5503 238.605 99.7323 238.262 100.02 238.022L160.375 188.674L118.549 159.703C118.325 159.551 118.15 159.338 118.044 159.089C117.938 158.84 117.906 158.567 117.951 158.3C117.996 158.034 118.116 157.786 118.298 157.586C118.48 157.386 118.716 157.242 118.977 157.171L241.799 122.992L291.562 109.132C291.834 109.059 292.121 109.066 292.39 109.152C292.658 109.238 292.896 109.399 293.075 109.616C293.245 109.837 293.347 110.103 293.367 110.382C293.387 110.66 293.325 110.938 293.189 111.181L205.369 266.936C205.235 267.174 205.034 267.369 204.79 267.495C204.547 267.621 204.272 267.674 203.999 267.647C203.726 267.622 203.467 267.52 203.25 267.354C203.032 267.188 202.867 266.964 202.771 266.708L185.042 218.385L124.573 267.904C124.312 268.107 123.99 268.217 123.659 268.217ZM102.932 239.302L123.859 264.773L184.813 214.942C184.991 214.799 185.2 214.7 185.422 214.65C185.645 214.601 185.876 214.603 186.098 214.657C186.319 214.717 186.522 214.828 186.691 214.981C186.859 215.135 186.989 215.326 187.069 215.539L204.427 262.838L289.049 112.775L203.77 136.509L122.689 159.077L163.572 187.365C163.756 187.487 163.907 187.652 164.011 187.845C164.116 188.039 164.171 188.255 164.172 188.475C164.184 188.696 164.144 188.917 164.055 189.12C163.966 189.323 163.83 189.502 163.658 189.642L102.932 239.302Z" fill="#383A48"/>
<path d="M371.056 50.9L364.143 57.7964L366.238 59.8859L373.151 52.9895L371.056 50.9Z" fill="#383A48"/>
<path d="M366.238 50.9007L364.143 52.9902L371.056 59.8856L373.151 57.7961L366.238 50.9007Z" fill="#383A48"/>
<path d="M205.069 110.361L198.155 117.258L200.251 119.347L207.164 112.451L205.069 110.361Z" fill="#383A48"/>
<path d="M200.25 110.362L198.155 112.451L205.069 119.347L207.164 117.257L200.25 110.362Z" fill="#383A48"/>
<path d="M458.124 179.661L451.21 186.557L453.305 188.647L460.219 181.751L458.124 179.661Z" fill="#383A48"/>
<path d="M453.305 179.662L451.21 181.751L458.124 188.647L460.219 186.557L453.305 179.662Z" fill="#383A48"/>
</svg>
