<svg width="515" height="354" viewBox="0 0 515 354" fill="none" xmlns="http://www.w3.org/2000/svg">
<path d="M392.553 226.073L482.269 148.129C498.635 134.287 508.967 114.586 511.064 93.2207C513.162 71.8552 506.859 50.5127 493.498 33.7371C465.194 -1.7818 413.506 -7.5275 378.082 20.8528L284.256 97.404L392.553 226.073Z" fill="#AAC6FC"/>
<path d="M392.552 228.975H392.32C391.937 228.953 391.562 228.848 391.223 228.667C390.883 228.487 390.586 228.236 390.352 227.93L281.998 99.3193C281.745 99.0284 281.554 98.6896 281.434 98.3231C281.315 97.9565 281.27 97.5696 281.302 97.1853C281.335 96.8011 281.444 96.4272 281.623 96.0859C281.802 95.7447 282.048 95.443 282.345 95.1987L376.171 18.6474C412.81 -10.7195 466.409 -4.74168 495.697 31.9379C509.549 49.2988 516.091 71.3979 513.928 93.5251C511.766 115.652 501.07 136.058 484.12 150.392L394.462 228.278C393.931 228.736 393.252 228.983 392.552 228.975ZM288.307 97.8104L392.899 221.952L480.358 145.923C496.174 132.583 506.164 113.573 508.197 92.9497C510.23 72.3266 504.145 51.7234 491.24 35.5363C484.737 27.3924 476.698 20.6125 467.583 15.5838C458.467 10.5551 448.452 7.37601 438.111 6.22809C427.77 5.08017 417.305 5.98589 407.312 8.89353C397.32 11.8012 387.997 16.6538 379.876 23.1743L288.307 97.8104Z" fill="#383A48"/>
<path d="M499.98 53.2373C501.579 53.2373 502.874 51.9381 502.874 50.3355C502.874 48.7328 501.579 47.4336 499.98 47.4336C498.382 47.4336 497.086 48.7328 497.086 50.3355C497.086 51.9381 498.382 53.2373 499.98 53.2373Z" fill="#1B1B1B"/>
<path d="M499.98 67.5733C501.579 67.5733 502.874 66.2741 502.874 64.6714C502.874 63.0687 501.579 61.7695 499.98 61.7695C498.382 61.7695 497.086 63.0687 497.086 64.6714C497.086 66.2741 498.382 67.5733 499.98 67.5733Z" fill="#1B1B1B"/>
<path d="M499.98 81.9072C501.579 81.9072 502.874 80.608 502.874 79.0054C502.874 77.4027 501.579 76.1035 499.98 76.1035C498.382 76.1035 497.086 77.4027 497.086 79.0054C497.086 80.608 498.382 81.9072 499.98 81.9072Z" fill="#1B1B1B"/>
<path d="M499.98 96.1856C501.579 96.1856 502.874 94.8864 502.874 93.2837C502.874 91.6811 501.579 90.3818 499.98 90.3818C498.382 90.3818 497.086 91.6811 497.086 93.2837C497.086 94.8864 498.382 96.1856 499.98 96.1856Z" fill="#1B1B1B"/>
<path d="M499.98 110.521C501.579 110.521 502.874 109.221 502.874 107.619C502.874 106.016 501.579 104.717 499.98 104.717C498.382 104.717 497.086 106.016 497.086 107.619C497.086 109.221 498.382 110.521 499.98 110.521Z" fill="#1B1B1B"/>
<path d="M499.98 124.855C501.579 124.855 502.874 123.556 502.874 121.954C502.874 120.351 501.579 119.052 499.98 119.052C498.382 119.052 497.086 120.351 497.086 121.954C497.086 123.556 498.382 124.855 499.98 124.855Z" fill="#1B1B1B"/>
<path d="M485.683 38.96C487.281 38.96 488.577 37.6608 488.577 36.0581C488.577 34.4555 487.281 33.1562 485.683 33.1562C484.085 33.1562 482.789 34.4555 482.789 36.0581C482.789 37.6608 484.085 38.96 485.683 38.96Z" fill="#1B1B1B"/>
<path d="M485.683 53.2373C487.281 53.2373 488.577 51.9381 488.577 50.3355C488.577 48.7328 487.281 47.4336 485.683 47.4336C484.085 47.4336 482.789 48.7328 482.789 50.3355C482.789 51.9381 484.085 53.2373 485.683 53.2373Z" fill="#1B1B1B"/>
<path d="M485.683 67.5733C487.281 67.5733 488.577 66.2741 488.577 64.6714C488.577 63.0687 487.281 61.7695 485.683 61.7695C484.085 61.7695 482.789 63.0687 482.789 64.6714C482.789 66.2741 484.085 67.5733 485.683 67.5733Z" fill="#1B1B1B"/>
<path d="M485.683 81.9072C487.281 81.9072 488.577 80.608 488.577 79.0054C488.577 77.4027 487.281 76.1035 485.683 76.1035C484.085 76.1035 482.789 77.4027 482.789 79.0054C482.789 80.608 484.085 81.9072 485.683 81.9072Z" fill="#1B1B1B"/>
<path d="M485.683 96.1856C487.281 96.1856 488.577 94.8864 488.577 93.2837C488.577 91.6811 487.281 90.3818 485.683 90.3818C484.085 90.3818 482.789 91.6811 482.789 93.2837C482.789 94.8864 484.085 96.1856 485.683 96.1856Z" fill="#1B1B1B"/>
<path d="M485.683 110.521C487.281 110.521 488.577 109.221 488.577 107.619C488.577 106.016 487.281 104.717 485.683 104.717C484.085 104.717 482.789 106.016 482.789 107.619C482.789 109.221 484.085 110.521 485.683 110.521Z" fill="#1B1B1B"/>
<path d="M485.683 124.855C487.281 124.855 488.577 123.556 488.577 121.954C488.577 120.351 487.281 119.052 485.683 119.052C484.085 119.052 482.789 120.351 482.789 121.954C482.789 123.556 484.085 124.855 485.683 124.855Z" fill="#1B1B1B"/>
<path d="M485.683 139.133C487.281 139.133 488.577 137.834 488.577 136.231C488.577 134.628 487.281 133.329 485.683 133.329C484.085 133.329 482.789 134.628 482.789 136.231C482.789 137.834 484.085 139.133 485.683 139.133Z" fill="#1B1B1B"/>
<path d="M471.444 24.625C473.043 24.625 474.338 23.3258 474.338 21.7232C474.338 20.1205 473.043 18.8213 471.444 18.8213C469.846 18.8213 468.55 20.1205 468.55 21.7232C468.55 23.3258 469.846 24.625 471.444 24.625Z" fill="#1B1B1B"/>
<path d="M471.444 38.96C473.043 38.96 474.338 37.6608 474.338 36.0581C474.338 34.4555 473.043 33.1562 471.444 33.1562C469.846 33.1562 468.55 34.4555 468.55 36.0581C468.55 37.6608 469.846 38.96 471.444 38.96Z" fill="#1B1B1B"/>
<path d="M471.444 53.2373C473.043 53.2373 474.338 51.9381 474.338 50.3355C474.338 48.7328 473.043 47.4336 471.444 47.4336C469.846 47.4336 468.55 48.7328 468.55 50.3355C468.55 51.9381 469.846 53.2373 471.444 53.2373Z" fill="#1B1B1B"/>
<path d="M471.444 67.5733C473.043 67.5733 474.338 66.2741 474.338 64.6714C474.338 63.0687 473.043 61.7695 471.444 61.7695C469.846 61.7695 468.55 63.0687 468.55 64.6714C468.55 66.2741 469.846 67.5733 471.444 67.5733Z" fill="#1B1B1B"/>
<path d="M471.444 81.9072C473.043 81.9072 474.338 80.608 474.338 79.0054C474.338 77.4027 473.043 76.1035 471.444 76.1035C469.846 76.1035 468.55 77.4027 468.55 79.0054C468.55 80.608 469.846 81.9072 471.444 81.9072Z" fill="#1B1B1B"/>
<path d="M471.444 96.1856C473.043 96.1856 474.338 94.8864 474.338 93.2837C474.338 91.6811 473.043 90.3818 471.444 90.3818C469.846 90.3818 468.55 91.6811 468.55 93.2837C468.55 94.8864 469.846 96.1856 471.444 96.1856Z" fill="#1B1B1B"/>
<path d="M471.444 110.521C473.043 110.521 474.338 109.221 474.338 107.619C474.338 106.016 473.043 104.717 471.444 104.717C469.846 104.717 468.55 106.016 468.55 107.619C468.55 109.221 469.846 110.521 471.444 110.521Z" fill="#1B1B1B"/>
<path d="M471.444 124.855C473.043 124.855 474.338 123.556 474.338 121.954C474.338 120.351 473.043 119.052 471.444 119.052C469.846 119.052 468.55 120.351 468.55 121.954C468.55 123.556 469.846 124.855 471.444 124.855Z" fill="#1B1B1B"/>
<path d="M471.444 139.133C473.043 139.133 474.338 137.834 474.338 136.231C474.338 134.628 473.043 133.329 471.444 133.329C469.846 133.329 468.55 134.628 468.55 136.231C468.55 137.834 469.846 139.133 471.444 139.133Z" fill="#1B1B1B"/>
<path d="M471.444 153.469C473.043 153.469 474.338 152.17 474.338 150.567C474.338 148.964 473.043 147.665 471.444 147.665C469.846 147.665 468.55 148.964 468.55 150.567C468.55 152.17 469.846 153.469 471.444 153.469Z" fill="#1B1B1B"/>
<path d="M457.148 24.625C458.747 24.625 460.042 23.3258 460.042 21.7232C460.042 20.1205 458.747 18.8213 457.148 18.8213C455.55 18.8213 454.254 20.1205 454.254 21.7232C454.254 23.3258 455.55 24.625 457.148 24.625Z" fill="#1B1B1B"/>
<path d="M457.148 38.96C458.747 38.96 460.042 37.6608 460.042 36.0581C460.042 34.4555 458.747 33.1562 457.148 33.1562C455.55 33.1562 454.254 34.4555 454.254 36.0581C454.254 37.6608 455.55 38.96 457.148 38.96Z" fill="#1B1B1B"/>
<path d="M457.148 53.2373C458.747 53.2373 460.042 51.9381 460.042 50.3355C460.042 48.7328 458.747 47.4336 457.148 47.4336C455.55 47.4336 454.254 48.7328 454.254 50.3355C454.254 51.9381 455.55 53.2373 457.148 53.2373Z" fill="#1B1B1B"/>
<path d="M457.148 67.5733C458.747 67.5733 460.042 66.2741 460.042 64.6714C460.042 63.0687 458.747 61.7695 457.148 61.7695C455.55 61.7695 454.254 63.0687 454.254 64.6714C454.254 66.2741 455.55 67.5733 457.148 67.5733Z" fill="#1B1B1B"/>
<path d="M457.148 81.9072C458.747 81.9072 460.042 80.608 460.042 79.0054C460.042 77.4027 458.747 76.1035 457.148 76.1035C455.55 76.1035 454.254 77.4027 454.254 79.0054C454.254 80.608 455.55 81.9072 457.148 81.9072Z" fill="#1B1B1B"/>
<path d="M457.148 96.1856C458.747 96.1856 460.042 94.8864 460.042 93.2837C460.042 91.6811 458.747 90.3818 457.148 90.3818C455.55 90.3818 454.254 91.6811 454.254 93.2837C454.254 94.8864 455.55 96.1856 457.148 96.1856Z" fill="#1B1B1B"/>
<path d="M457.148 110.521C458.747 110.521 460.042 109.221 460.042 107.619C460.042 106.016 458.747 104.717 457.148 104.717C455.55 104.717 454.254 106.016 454.254 107.619C454.254 109.221 455.55 110.521 457.148 110.521Z" fill="#1B1B1B"/>
<path d="M457.148 124.855C458.747 124.855 460.042 123.556 460.042 121.954C460.042 120.351 458.747 119.052 457.148 119.052C455.55 119.052 454.254 120.351 454.254 121.954C454.254 123.556 455.55 124.855 457.148 124.855Z" fill="#1B1B1B"/>
<path d="M457.148 139.133C458.747 139.133 460.042 137.834 460.042 136.231C460.042 134.628 458.747 133.329 457.148 133.329C455.55 133.329 454.254 134.628 454.254 136.231C454.254 137.834 455.55 139.133 457.148 139.133Z" fill="#1B1B1B"/>
<path d="M457.148 153.469C458.747 153.469 460.042 152.17 460.042 150.567C460.042 148.964 458.747 147.665 457.148 147.665C455.55 147.665 454.254 148.964 454.254 150.567C454.254 152.17 455.55 153.469 457.148 153.469Z" fill="#1B1B1B"/>
<path d="M442.851 10.2901C444.449 10.2901 445.745 8.99086 445.745 7.3882C445.745 5.78554 444.449 4.48633 442.851 4.48633C441.253 4.48633 439.957 5.78554 439.957 7.3882C439.957 8.99086 441.253 10.2901 442.851 10.2901Z" fill="#1B1B1B"/>
<path d="M442.851 24.625C444.449 24.625 445.745 23.3258 445.745 21.7232C445.745 20.1205 444.449 18.8213 442.851 18.8213C441.253 18.8213 439.957 20.1205 439.957 21.7232C439.957 23.3258 441.253 24.625 442.851 24.625Z" fill="#1B1B1B"/>
<path d="M442.851 38.96C444.449 38.96 445.745 37.6608 445.745 36.0581C445.745 34.4555 444.449 33.1562 442.851 33.1562C441.253 33.1562 439.957 34.4555 439.957 36.0581C439.957 37.6608 441.253 38.96 442.851 38.96Z" fill="#1B1B1B"/>
<path d="M442.851 53.2373C444.449 53.2373 445.745 51.9381 445.745 50.3355C445.745 48.7328 444.449 47.4336 442.851 47.4336C441.253 47.4336 439.957 48.7328 439.957 50.3355C439.957 51.9381 441.253 53.2373 442.851 53.2373Z" fill="#1B1B1B"/>
<path d="M442.851 67.5733C444.449 67.5733 445.745 66.2741 445.745 64.6714C445.745 63.0687 444.449 61.7695 442.851 61.7695C441.253 61.7695 439.957 63.0687 439.957 64.6714C439.957 66.2741 441.253 67.5733 442.851 67.5733Z" fill="#1B1B1B"/>
<path d="M442.851 81.9072C444.449 81.9072 445.745 80.608 445.745 79.0054C445.745 77.4027 444.449 76.1035 442.851 76.1035C441.253 76.1035 439.957 77.4027 439.957 79.0054C439.957 80.608 441.253 81.9072 442.851 81.9072Z" fill="#1B1B1B"/>
<path d="M442.851 96.1856C444.449 96.1856 445.745 94.8864 445.745 93.2837C445.745 91.6811 444.449 90.3818 442.851 90.3818C441.253 90.3818 439.957 91.6811 439.957 93.2837C439.957 94.8864 441.253 96.1856 442.851 96.1856Z" fill="#1B1B1B"/>
<path d="M442.851 110.521C444.449 110.521 445.745 109.221 445.745 107.619C445.745 106.016 444.449 104.717 442.851 104.717C441.253 104.717 439.957 106.016 439.957 107.619C439.957 109.221 441.253 110.521 442.851 110.521Z" fill="#1B1B1B"/>
<path d="M442.851 124.855C444.449 124.855 445.745 123.556 445.745 121.954C445.745 120.351 444.449 119.052 442.851 119.052C441.253 119.052 439.957 120.351 439.957 121.954C439.957 123.556 441.253 124.855 442.851 124.855Z" fill="#1B1B1B"/>
<path d="M442.851 139.133C444.449 139.133 445.745 137.834 445.745 136.231C445.745 134.628 444.449 133.329 442.851 133.329C441.253 133.329 439.957 134.628 439.957 136.231C439.957 137.834 441.253 139.133 442.851 139.133Z" fill="#1B1B1B"/>
<path d="M442.851 153.469C444.449 153.469 445.745 152.17 445.745 150.567C445.745 148.964 444.449 147.665 442.851 147.665C441.253 147.665 439.957 148.964 439.957 150.567C439.957 152.17 441.253 153.469 442.851 153.469Z" fill="#1B1B1B"/>
<path d="M442.851 167.803C444.449 167.803 445.745 166.504 445.745 164.901C445.745 163.298 444.449 161.999 442.851 161.999C441.253 161.999 439.957 163.298 439.957 164.901C439.957 166.504 441.253 167.803 442.851 167.803Z" fill="#1B1B1B"/>
<path d="M428.611 10.2901C430.209 10.2901 431.505 8.99086 431.505 7.3882C431.505 5.78554 430.209 4.48633 428.611 4.48633C427.013 4.48633 425.717 5.78554 425.717 7.3882C425.717 8.99086 427.013 10.2901 428.611 10.2901Z" fill="#1B1B1B"/>
<path d="M428.611 24.625C430.209 24.625 431.505 23.3258 431.505 21.7232C431.505 20.1205 430.209 18.8213 428.611 18.8213C427.013 18.8213 425.717 20.1205 425.717 21.7232C425.717 23.3258 427.013 24.625 428.611 24.625Z" fill="#1B1B1B"/>
<path d="M428.611 38.96C430.209 38.96 431.505 37.6608 431.505 36.0581C431.505 34.4555 430.209 33.1562 428.611 33.1562C427.013 33.1562 425.717 34.4555 425.717 36.0581C425.717 37.6608 427.013 38.96 428.611 38.96Z" fill="#1B1B1B"/>
<path d="M428.611 53.2373C430.209 53.2373 431.505 51.9381 431.505 50.3355C431.505 48.7328 430.209 47.4336 428.611 47.4336C427.013 47.4336 425.717 48.7328 425.717 50.3355C425.717 51.9381 427.013 53.2373 428.611 53.2373Z" fill="#1B1B1B"/>
<path d="M428.611 67.5733C430.209 67.5733 431.505 66.2741 431.505 64.6714C431.505 63.0687 430.209 61.7695 428.611 61.7695C427.013 61.7695 425.717 63.0687 425.717 64.6714C425.717 66.2741 427.013 67.5733 428.611 67.5733Z" fill="#1B1B1B"/>
<path d="M428.611 81.9072C430.209 81.9072 431.505 80.608 431.505 79.0054C431.505 77.4027 430.209 76.1035 428.611 76.1035C427.013 76.1035 425.717 77.4027 425.717 79.0054C425.717 80.608 427.013 81.9072 428.611 81.9072Z" fill="#1B1B1B"/>
<path d="M428.611 96.1856C430.209 96.1856 431.505 94.8864 431.505 93.2837C431.505 91.6811 430.209 90.3818 428.611 90.3818C427.013 90.3818 425.717 91.6811 425.717 93.2837C425.717 94.8864 427.013 96.1856 428.611 96.1856Z" fill="#1B1B1B"/>
<path d="M428.611 110.521C430.209 110.521 431.505 109.221 431.505 107.619C431.505 106.016 430.209 104.717 428.611 104.717C427.013 104.717 425.717 106.016 425.717 107.619C425.717 109.221 427.013 110.521 428.611 110.521Z" fill="#1B1B1B"/>
<path d="M428.611 124.855C430.209 124.855 431.505 123.556 431.505 121.954C431.505 120.351 430.209 119.052 428.611 119.052C427.013 119.052 425.717 120.351 425.717 121.954C425.717 123.556 427.013 124.855 428.611 124.855Z" fill="#1B1B1B"/>
<path d="M428.611 139.133C430.209 139.133 431.505 137.834 431.505 136.231C431.505 134.628 430.209 133.329 428.611 133.329C427.013 133.329 425.717 134.628 425.717 136.231C425.717 137.834 427.013 139.133 428.611 139.133Z" fill="#1B1B1B"/>
<path d="M428.611 153.469C430.209 153.469 431.505 152.17 431.505 150.567C431.505 148.964 430.209 147.665 428.611 147.665C427.013 147.665 425.717 148.964 425.717 150.567C425.717 152.17 427.013 153.469 428.611 153.469Z" fill="#1B1B1B"/>
<path d="M428.611 167.803C430.209 167.803 431.505 166.504 431.505 164.901C431.505 163.298 430.209 161.999 428.611 161.999C427.013 161.999 425.717 163.298 425.717 164.901C425.717 166.504 427.013 167.803 428.611 167.803Z" fill="#1B1B1B"/>
<path d="M428.611 182.08C430.209 182.08 431.505 180.781 431.505 179.178C431.505 177.576 430.209 176.276 428.611 176.276C427.013 176.276 425.717 177.576 425.717 179.178C425.717 180.781 427.013 182.08 428.611 182.08Z" fill="#1B1B1B"/>
<path d="M414.315 10.2901C415.913 10.2901 417.209 8.99086 417.209 7.3882C417.209 5.78554 415.913 4.48633 414.315 4.48633C412.717 4.48633 411.421 5.78554 411.421 7.3882C411.421 8.99086 412.717 10.2901 414.315 10.2901Z" fill="#1B1B1B"/>
<path d="M414.315 24.625C415.913 24.625 417.209 23.3258 417.209 21.7232C417.209 20.1205 415.913 18.8213 414.315 18.8213C412.717 18.8213 411.421 20.1205 411.421 21.7232C411.421 23.3258 412.717 24.625 414.315 24.625Z" fill="#1B1B1B"/>
<path d="M414.315 38.96C415.913 38.96 417.209 37.6608 417.209 36.0581C417.209 34.4555 415.913 33.1562 414.315 33.1562C412.717 33.1562 411.421 34.4555 411.421 36.0581C411.421 37.6608 412.717 38.96 414.315 38.96Z" fill="#1B1B1B"/>
<path d="M414.315 53.2373C415.913 53.2373 417.209 51.9381 417.209 50.3355C417.209 48.7328 415.913 47.4336 414.315 47.4336C412.717 47.4336 411.421 48.7328 411.421 50.3355C411.421 51.9381 412.717 53.2373 414.315 53.2373Z" fill="#1B1B1B"/>
<path d="M414.315 67.5733C415.913 67.5733 417.209 66.2741 417.209 64.6714C417.209 63.0687 415.913 61.7695 414.315 61.7695C412.717 61.7695 411.421 63.0687 411.421 64.6714C411.421 66.2741 412.717 67.5733 414.315 67.5733Z" fill="#1B1B1B"/>
<path d="M414.315 81.9072C415.913 81.9072 417.209 80.608 417.209 79.0054C417.209 77.4027 415.913 76.1035 414.315 76.1035C412.717 76.1035 411.421 77.4027 411.421 79.0054C411.421 80.608 412.717 81.9072 414.315 81.9072Z" fill="#1B1B1B"/>
<path d="M414.315 96.1856C415.913 96.1856 417.209 94.8864 417.209 93.2837C417.209 91.6811 415.913 90.3818 414.315 90.3818C412.717 90.3818 411.421 91.6811 411.421 93.2837C411.421 94.8864 412.717 96.1856 414.315 96.1856Z" fill="#1B1B1B"/>
<path d="M414.315 110.521C415.913 110.521 417.209 109.221 417.209 107.619C417.209 106.016 415.913 104.717 414.315 104.717C412.717 104.717 411.421 106.016 411.421 107.619C411.421 109.221 412.717 110.521 414.315 110.521Z" fill="#1B1B1B"/>
<path d="M414.315 124.855C415.913 124.855 417.209 123.556 417.209 121.954C417.209 120.351 415.913 119.052 414.315 119.052C412.717 119.052 411.421 120.351 411.421 121.954C411.421 123.556 412.717 124.855 414.315 124.855Z" fill="#1B1B1B"/>
<path d="M414.315 139.133C415.913 139.133 417.209 137.834 417.209 136.231C417.209 134.628 415.913 133.329 414.315 133.329C412.717 133.329 411.421 134.628 411.421 136.231C411.421 137.834 412.717 139.133 414.315 139.133Z" fill="#1B1B1B"/>
<path d="M414.315 153.469C415.913 153.469 417.209 152.17 417.209 150.567C417.209 148.964 415.913 147.665 414.315 147.665C412.717 147.665 411.421 148.964 411.421 150.567C411.421 152.17 412.717 153.469 414.315 153.469Z" fill="#1B1B1B"/>
<path d="M414.315 167.803C415.913 167.803 417.209 166.504 417.209 164.901C417.209 163.298 415.913 161.999 414.315 161.999C412.717 161.999 411.421 163.298 411.421 164.901C411.421 166.504 412.717 167.803 414.315 167.803Z" fill="#1B1B1B"/>
<path d="M414.315 182.08C415.913 182.08 417.209 180.781 417.209 179.178C417.209 177.576 415.913 176.276 414.315 176.276C412.717 176.276 411.421 177.576 411.421 179.178C411.421 180.781 412.717 182.08 414.315 182.08Z" fill="#1B1B1B"/>
<path d="M414.315 196.416C415.913 196.416 417.209 195.117 417.209 193.514C417.209 191.912 415.913 190.612 414.315 190.612C412.717 190.612 411.421 191.912 411.421 193.514C411.421 195.117 412.717 196.416 414.315 196.416Z" fill="#1B1B1B"/>
<path d="M400.018 24.625C401.616 24.625 402.912 23.3258 402.912 21.7232C402.912 20.1205 401.616 18.8213 400.018 18.8213C398.419 18.8213 397.124 20.1205 397.124 21.7232C397.124 23.3258 398.419 24.625 400.018 24.625Z" fill="#1B1B1B"/>
<path d="M400.018 38.96C401.616 38.96 402.912 37.6608 402.912 36.0581C402.912 34.4555 401.616 33.1562 400.018 33.1562C398.419 33.1562 397.124 34.4555 397.124 36.0581C397.124 37.6608 398.419 38.96 400.018 38.96Z" fill="#1B1B1B"/>
<path d="M400.018 53.2373C401.616 53.2373 402.912 51.9381 402.912 50.3355C402.912 48.7328 401.616 47.4336 400.018 47.4336C398.419 47.4336 397.124 48.7328 397.124 50.3355C397.124 51.9381 398.419 53.2373 400.018 53.2373Z" fill="#1B1B1B"/>
<path d="M400.018 67.5733C401.616 67.5733 402.912 66.2741 402.912 64.6714C402.912 63.0687 401.616 61.7695 400.018 61.7695C398.419 61.7695 397.124 63.0687 397.124 64.6714C397.124 66.2741 398.419 67.5733 400.018 67.5733Z" fill="#1B1B1B"/>
<path d="M400.018 81.9072C401.616 81.9072 402.912 80.608 402.912 79.0054C402.912 77.4027 401.616 76.1035 400.018 76.1035C398.419 76.1035 397.124 77.4027 397.124 79.0054C397.124 80.608 398.419 81.9072 400.018 81.9072Z" fill="#1B1B1B"/>
<path d="M400.018 96.1856C401.616 96.1856 402.912 94.8864 402.912 93.2837C402.912 91.6811 401.616 90.3818 400.018 90.3818C398.419 90.3818 397.124 91.6811 397.124 93.2837C397.124 94.8864 398.419 96.1856 400.018 96.1856Z" fill="#1B1B1B"/>
<path d="M400.018 110.521C401.616 110.521 402.912 109.221 402.912 107.619C402.912 106.016 401.616 104.717 400.018 104.717C398.419 104.717 397.124 106.016 397.124 107.619C397.124 109.221 398.419 110.521 400.018 110.521Z" fill="#1B1B1B"/>
<path d="M400.018 124.855C401.616 124.855 402.912 123.556 402.912 121.954C402.912 120.351 401.616 119.052 400.018 119.052C398.419 119.052 397.124 120.351 397.124 121.954C397.124 123.556 398.419 124.855 400.018 124.855Z" fill="#1B1B1B"/>
<path d="M400.018 139.133C401.616 139.133 402.912 137.834 402.912 136.231C402.912 134.628 401.616 133.329 400.018 133.329C398.419 133.329 397.124 134.628 397.124 136.231C397.124 137.834 398.419 139.133 400.018 139.133Z" fill="#1B1B1B"/>
<path d="M400.018 153.469C401.616 153.469 402.912 152.17 402.912 150.567C402.912 148.964 401.616 147.665 400.018 147.665C398.419 147.665 397.124 148.964 397.124 150.567C397.124 152.17 398.419 153.469 400.018 153.469Z" fill="#1B1B1B"/>
<path d="M400.018 167.803C401.616 167.803 402.912 166.504 402.912 164.901C402.912 163.298 401.616 161.999 400.018 161.999C398.419 161.999 397.124 163.298 397.124 164.901C397.124 166.504 398.419 167.803 400.018 167.803Z" fill="#1B1B1B"/>
<path d="M400.018 182.08C401.616 182.08 402.912 180.781 402.912 179.178C402.912 177.576 401.616 176.276 400.018 176.276C398.419 176.276 397.124 177.576 397.124 179.178C397.124 180.781 398.419 182.08 400.018 182.08Z" fill="#1B1B1B"/>
<path d="M400.018 196.416C401.616 196.416 402.912 195.117 402.912 193.514C402.912 191.912 401.616 190.612 400.018 190.612C398.419 190.612 397.124 191.912 397.124 193.514C397.124 195.117 398.419 196.416 400.018 196.416Z" fill="#1B1B1B"/>
<path d="M400.018 210.751C401.616 210.751 402.912 209.452 402.912 207.849C402.912 206.246 401.616 204.947 400.018 204.947C398.419 204.947 397.124 206.246 397.124 207.849C397.124 209.452 398.419 210.751 400.018 210.751Z" fill="#1B1B1B"/>
<path d="M385.779 24.625C387.377 24.625 388.673 23.3258 388.673 21.7232C388.673 20.1205 387.377 18.8213 385.779 18.8213C384.181 18.8213 382.885 20.1205 382.885 21.7232C382.885 23.3258 384.181 24.625 385.779 24.625Z" fill="#1B1B1B"/>
<path d="M385.779 38.96C387.377 38.96 388.673 37.6608 388.673 36.0581C388.673 34.4555 387.377 33.1562 385.779 33.1562C384.181 33.1562 382.885 34.4555 382.885 36.0581C382.885 37.6608 384.181 38.96 385.779 38.96Z" fill="#1B1B1B"/>
<path d="M385.779 53.2373C387.377 53.2373 388.673 51.9381 388.673 50.3355C388.673 48.7328 387.377 47.4336 385.779 47.4336C384.181 47.4336 382.885 48.7328 382.885 50.3355C382.885 51.9381 384.181 53.2373 385.779 53.2373Z" fill="#1B1B1B"/>
<path d="M385.779 67.5733C387.377 67.5733 388.673 66.2741 388.673 64.6714C388.673 63.0687 387.377 61.7695 385.779 61.7695C384.181 61.7695 382.885 63.0687 382.885 64.6714C382.885 66.2741 384.181 67.5733 385.779 67.5733Z" fill="#1B1B1B"/>
<path d="M385.779 81.9072C387.377 81.9072 388.673 80.608 388.673 79.0054C388.673 77.4027 387.377 76.1035 385.779 76.1035C384.181 76.1035 382.885 77.4027 382.885 79.0054C382.885 80.608 384.181 81.9072 385.779 81.9072Z" fill="#1B1B1B"/>
<path d="M385.779 96.1856C387.377 96.1856 388.673 94.8864 388.673 93.2837C388.673 91.6811 387.377 90.3818 385.779 90.3818C384.181 90.3818 382.885 91.6811 382.885 93.2837C382.885 94.8864 384.181 96.1856 385.779 96.1856Z" fill="#1B1B1B"/>
<path d="M385.779 110.521C387.377 110.521 388.673 109.221 388.673 107.619C388.673 106.016 387.377 104.717 385.779 104.717C384.181 104.717 382.885 106.016 382.885 107.619C382.885 109.221 384.181 110.521 385.779 110.521Z" fill="#1B1B1B"/>
<path d="M385.779 124.855C387.377 124.855 388.673 123.556 388.673 121.954C388.673 120.351 387.377 119.052 385.779 119.052C384.181 119.052 382.885 120.351 382.885 121.954C382.885 123.556 384.181 124.855 385.779 124.855Z" fill="#1B1B1B"/>
<path d="M385.779 139.133C387.377 139.133 388.673 137.834 388.673 136.231C388.673 134.628 387.377 133.329 385.779 133.329C384.181 133.329 382.885 134.628 382.885 136.231C382.885 137.834 384.181 139.133 385.779 139.133Z" fill="#1B1B1B"/>
<path d="M385.779 153.469C387.377 153.469 388.673 152.17 388.673 150.567C388.673 148.964 387.377 147.665 385.779 147.665C384.181 147.665 382.885 148.964 382.885 150.567C382.885 152.17 384.181 153.469 385.779 153.469Z" fill="#1B1B1B"/>
<path d="M385.779 167.803C387.377 167.803 388.673 166.504 388.673 164.901C388.673 163.298 387.377 161.999 385.779 161.999C384.181 161.999 382.885 163.298 382.885 164.901C382.885 166.504 384.181 167.803 385.779 167.803Z" fill="#1B1B1B"/>
<path d="M385.779 182.08C387.377 182.08 388.673 180.781 388.673 179.178C388.673 177.576 387.377 176.276 385.779 176.276C384.181 176.276 382.885 177.576 382.885 179.178C382.885 180.781 384.181 182.08 385.779 182.08Z" fill="#1B1B1B"/>
<path d="M385.779 196.416C387.377 196.416 388.673 195.117 388.673 193.514C388.673 191.912 387.377 190.612 385.779 190.612C384.181 190.612 382.885 191.912 382.885 193.514C382.885 195.117 384.181 196.416 385.779 196.416Z" fill="#1B1B1B"/>
<path d="M385.779 210.751C387.377 210.751 388.673 209.452 388.673 207.849C388.673 206.246 387.377 204.947 385.779 204.947C384.181 204.947 382.885 206.246 382.885 207.849C382.885 209.452 384.181 210.751 385.779 210.751Z" fill="#1B1B1B"/>
<path d="M385.779 225.028C387.377 225.028 388.673 223.729 388.673 222.126C388.673 220.524 387.377 219.225 385.779 219.225C384.181 219.225 382.885 220.524 382.885 222.126C382.885 223.729 384.181 225.028 385.779 225.028Z" fill="#1B1B1B"/>
<path d="M371.483 38.96C373.081 38.96 374.377 37.6608 374.377 36.0581C374.377 34.4555 373.081 33.1562 371.483 33.1562C369.884 33.1562 368.589 34.4555 368.589 36.0581C368.589 37.6608 369.884 38.96 371.483 38.96Z" fill="#1B1B1B"/>
<path d="M371.483 53.2373C373.081 53.2373 374.377 51.9381 374.377 50.3355C374.377 48.7328 373.081 47.4336 371.483 47.4336C369.884 47.4336 368.589 48.7328 368.589 50.3355C368.589 51.9381 369.884 53.2373 371.483 53.2373Z" fill="#1B1B1B"/>
<path d="M371.483 67.5733C373.081 67.5733 374.377 66.2741 374.377 64.6714C374.377 63.0687 373.081 61.7695 371.483 61.7695C369.884 61.7695 368.589 63.0687 368.589 64.6714C368.589 66.2741 369.884 67.5733 371.483 67.5733Z" fill="#1B1B1B"/>
<path d="M371.483 81.9072C373.081 81.9072 374.377 80.608 374.377 79.0054C374.377 77.4027 373.081 76.1035 371.483 76.1035C369.884 76.1035 368.589 77.4027 368.589 79.0054C368.589 80.608 369.884 81.9072 371.483 81.9072Z" fill="#1B1B1B"/>
<path d="M371.483 96.1856C373.081 96.1856 374.377 94.8864 374.377 93.2837C374.377 91.6811 373.081 90.3818 371.483 90.3818C369.884 90.3818 368.589 91.6811 368.589 93.2837C368.589 94.8864 369.884 96.1856 371.483 96.1856Z" fill="#1B1B1B"/>
<path d="M371.483 110.521C373.081 110.521 374.377 109.221 374.377 107.619C374.377 106.016 373.081 104.717 371.483 104.717C369.884 104.717 368.589 106.016 368.589 107.619C368.589 109.221 369.884 110.521 371.483 110.521Z" fill="#1B1B1B"/>
<path d="M371.483 124.855C373.081 124.855 374.377 123.556 374.377 121.954C374.377 120.351 373.081 119.052 371.483 119.052C369.884 119.052 368.589 120.351 368.589 121.954C368.589 123.556 369.884 124.855 371.483 124.855Z" fill="#1B1B1B"/>
<path d="M371.483 139.133C373.081 139.133 374.377 137.834 374.377 136.231C374.377 134.628 373.081 133.329 371.483 133.329C369.884 133.329 368.589 134.628 368.589 136.231C368.589 137.834 369.884 139.133 371.483 139.133Z" fill="#1B1B1B"/>
<path d="M371.483 153.469C373.081 153.469 374.377 152.17 374.377 150.567C374.377 148.964 373.081 147.665 371.483 147.665C369.884 147.665 368.589 148.964 368.589 150.567C368.589 152.17 369.884 153.469 371.483 153.469Z" fill="#1B1B1B"/>
<path d="M371.483 167.803C373.081 167.803 374.377 166.504 374.377 164.901C374.377 163.298 373.081 161.999 371.483 161.999C369.884 161.999 368.589 163.298 368.589 164.901C368.589 166.504 369.884 167.803 371.483 167.803Z" fill="#1B1B1B"/>
<path d="M371.483 182.08C373.081 182.08 374.377 180.781 374.377 179.178C374.377 177.576 373.081 176.276 371.483 176.276C369.884 176.276 368.589 177.576 368.589 179.178C368.589 180.781 369.884 182.08 371.483 182.08Z" fill="#1B1B1B"/>
<path d="M371.483 196.416C373.081 196.416 374.377 195.117 374.377 193.514C374.377 191.912 373.081 190.612 371.483 190.612C369.884 190.612 368.589 191.912 368.589 193.514C368.589 195.117 369.884 196.416 371.483 196.416Z" fill="#1B1B1B"/>
<path d="M371.483 210.751C373.081 210.751 374.377 209.452 374.377 207.849C374.377 206.246 373.081 204.947 371.483 204.947C369.884 204.947 368.589 206.246 368.589 207.849C368.589 209.452 369.884 210.751 371.483 210.751Z" fill="#1B1B1B"/>
<path d="M371.483 225.028C373.081 225.028 374.377 223.729 374.377 222.126C374.377 220.524 373.081 219.225 371.483 219.225C369.884 219.225 368.589 220.524 368.589 222.126C368.589 223.729 369.884 225.028 371.483 225.028Z" fill="#1B1B1B"/>
<path d="M357.186 53.2373C358.784 53.2373 360.08 51.9381 360.08 50.3355C360.08 48.7328 358.784 47.4336 357.186 47.4336C355.587 47.4336 354.292 48.7328 354.292 50.3355C354.292 51.9381 355.587 53.2373 357.186 53.2373Z" fill="#1B1B1B"/>
<path d="M357.186 67.5733C358.784 67.5733 360.08 66.2741 360.08 64.6714C360.08 63.0687 358.784 61.7695 357.186 61.7695C355.587 61.7695 354.292 63.0687 354.292 64.6714C354.292 66.2741 355.587 67.5733 357.186 67.5733Z" fill="#1B1B1B"/>
<path d="M357.186 81.9072C358.784 81.9072 360.08 80.608 360.08 79.0054C360.08 77.4027 358.784 76.1035 357.186 76.1035C355.587 76.1035 354.292 77.4027 354.292 79.0054C354.292 80.608 355.587 81.9072 357.186 81.9072Z" fill="#1B1B1B"/>
<path d="M357.186 96.1856C358.784 96.1856 360.08 94.8864 360.08 93.2837C360.08 91.6811 358.784 90.3818 357.186 90.3818C355.587 90.3818 354.292 91.6811 354.292 93.2837C354.292 94.8864 355.587 96.1856 357.186 96.1856Z" fill="#1B1B1B"/>
<path d="M357.186 110.521C358.784 110.521 360.08 109.221 360.08 107.619C360.08 106.016 358.784 104.717 357.186 104.717C355.587 104.717 354.292 106.016 354.292 107.619C354.292 109.221 355.587 110.521 357.186 110.521Z" fill="#1B1B1B"/>
<path d="M357.186 124.855C358.784 124.855 360.08 123.556 360.08 121.954C360.08 120.351 358.784 119.052 357.186 119.052C355.587 119.052 354.292 120.351 354.292 121.954C354.292 123.556 355.587 124.855 357.186 124.855Z" fill="#1B1B1B"/>
<path d="M357.186 139.133C358.784 139.133 360.08 137.834 360.08 136.231C360.08 134.628 358.784 133.329 357.186 133.329C355.587 133.329 354.292 134.628 354.292 136.231C354.292 137.834 355.587 139.133 357.186 139.133Z" fill="#1B1B1B"/>
<path d="M357.186 153.469C358.784 153.469 360.08 152.17 360.08 150.567C360.08 148.964 358.784 147.665 357.186 147.665C355.587 147.665 354.292 148.964 354.292 150.567C354.292 152.17 355.587 153.469 357.186 153.469Z" fill="#1B1B1B"/>
<path d="M357.186 167.803C358.784 167.803 360.08 166.504 360.08 164.901C360.08 163.298 358.784 161.999 357.186 161.999C355.587 161.999 354.292 163.298 354.292 164.901C354.292 166.504 355.587 167.803 357.186 167.803Z" fill="#1B1B1B"/>
<path d="M357.186 182.08C358.784 182.08 360.08 180.781 360.08 179.178C360.08 177.576 358.784 176.276 357.186 176.276C355.587 176.276 354.292 177.576 354.292 179.178C354.292 180.781 355.587 182.08 357.186 182.08Z" fill="#1B1B1B"/>
<path d="M357.186 196.416C358.784 196.416 360.08 195.117 360.08 193.514C360.08 191.912 358.784 190.612 357.186 190.612C355.587 190.612 354.292 191.912 354.292 193.514C354.292 195.117 355.587 196.416 357.186 196.416Z" fill="#1B1B1B"/>
<path d="M357.186 210.751C358.784 210.751 360.08 209.452 360.08 207.849C360.08 206.246 358.784 204.947 357.186 204.947C355.587 204.947 354.292 206.246 354.292 207.849C354.292 209.452 355.587 210.751 357.186 210.751Z" fill="#1B1B1B"/>
<path d="M357.186 225.028C358.784 225.028 360.08 223.729 360.08 222.126C360.08 220.524 358.784 219.225 357.186 219.225C355.587 219.225 354.292 220.524 354.292 222.126C354.292 223.729 355.587 225.028 357.186 225.028Z" fill="#1B1B1B"/>
<path d="M342.948 67.5733C344.546 67.5733 345.842 66.2741 345.842 64.6714C345.842 63.0687 344.546 61.7695 342.948 61.7695C341.349 61.7695 340.054 63.0687 340.054 64.6714C340.054 66.2741 341.349 67.5733 342.948 67.5733Z" fill="#1B1B1B"/>
<path d="M342.948 81.9072C344.546 81.9072 345.842 80.608 345.842 79.0054C345.842 77.4027 344.546 76.1035 342.948 76.1035C341.349 76.1035 340.054 77.4027 340.054 79.0054C340.054 80.608 341.349 81.9072 342.948 81.9072Z" fill="#1B1B1B"/>
<path d="M342.948 96.1856C344.546 96.1856 345.842 94.8864 345.842 93.2837C345.842 91.6811 344.546 90.3818 342.948 90.3818C341.349 90.3818 340.054 91.6811 340.054 93.2837C340.054 94.8864 341.349 96.1856 342.948 96.1856Z" fill="#1B1B1B"/>
<path d="M342.948 110.521C344.546 110.521 345.842 109.221 345.842 107.619C345.842 106.016 344.546 104.717 342.948 104.717C341.349 104.717 340.054 106.016 340.054 107.619C340.054 109.221 341.349 110.521 342.948 110.521Z" fill="#1B1B1B"/>
<path d="M342.948 124.855C344.546 124.855 345.842 123.556 345.842 121.954C345.842 120.351 344.546 119.052 342.948 119.052C341.349 119.052 340.054 120.351 340.054 121.954C340.054 123.556 341.349 124.855 342.948 124.855Z" fill="#1B1B1B"/>
<path d="M342.948 139.133C344.546 139.133 345.842 137.834 345.842 136.231C345.842 134.628 344.546 133.329 342.948 133.329C341.349 133.329 340.054 134.628 340.054 136.231C340.054 137.834 341.349 139.133 342.948 139.133Z" fill="#1B1B1B"/>
<path d="M342.948 153.469C344.546 153.469 345.842 152.17 345.842 150.567C345.842 148.964 344.546 147.665 342.948 147.665C341.349 147.665 340.054 148.964 340.054 150.567C340.054 152.17 341.349 153.469 342.948 153.469Z" fill="#1B1B1B"/>
<path d="M342.948 167.803C344.546 167.803 345.842 166.504 345.842 164.901C345.842 163.298 344.546 161.999 342.948 161.999C341.349 161.999 340.054 163.298 340.054 164.901C340.054 166.504 341.349 167.803 342.948 167.803Z" fill="#1B1B1B"/>
<path d="M342.948 182.08C344.546 182.08 345.842 180.781 345.842 179.178C345.842 177.576 344.546 176.276 342.948 176.276C341.349 176.276 340.054 177.576 340.054 179.178C340.054 180.781 341.349 182.08 342.948 182.08Z" fill="#1B1B1B"/>
<path d="M342.948 196.416C344.546 196.416 345.842 195.117 345.842 193.514C345.842 191.912 344.546 190.612 342.948 190.612C341.349 190.612 340.054 191.912 340.054 193.514C340.054 195.117 341.349 196.416 342.948 196.416Z" fill="#1B1B1B"/>
<path d="M342.948 210.751C344.546 210.751 345.842 209.452 345.842 207.849C345.842 206.246 344.546 204.947 342.948 204.947C341.349 204.947 340.054 206.246 340.054 207.849C340.054 209.452 341.349 210.751 342.948 210.751Z" fill="#1B1B1B"/>
<path d="M342.948 225.028C344.546 225.028 345.842 223.729 345.842 222.126C345.842 220.524 344.546 219.225 342.948 219.225C341.349 219.225 340.054 220.524 340.054 222.126C340.054 223.729 341.349 225.028 342.948 225.028Z" fill="#1B1B1B"/>
<path d="M328.651 67.5733C330.249 67.5733 331.545 66.2741 331.545 64.6714C331.545 63.0687 330.249 61.7695 328.651 61.7695C327.052 61.7695 325.756 63.0687 325.756 64.6714C325.756 66.2741 327.052 67.5733 328.651 67.5733Z" fill="#1B1B1B"/>
<path d="M328.651 81.9072C330.249 81.9072 331.545 80.608 331.545 79.0054C331.545 77.4027 330.249 76.1035 328.651 76.1035C327.052 76.1035 325.756 77.4027 325.756 79.0054C325.756 80.608 327.052 81.9072 328.651 81.9072Z" fill="#1B1B1B"/>
<path d="M328.651 96.1856C330.249 96.1856 331.545 94.8864 331.545 93.2837C331.545 91.6811 330.249 90.3818 328.651 90.3818C327.052 90.3818 325.756 91.6811 325.756 93.2837C325.756 94.8864 327.052 96.1856 328.651 96.1856Z" fill="#1B1B1B"/>
<path d="M328.651 110.521C330.249 110.521 331.545 109.221 331.545 107.619C331.545 106.016 330.249 104.717 328.651 104.717C327.052 104.717 325.756 106.016 325.756 107.619C325.756 109.221 327.052 110.521 328.651 110.521Z" fill="#1B1B1B"/>
<path d="M328.651 124.855C330.249 124.855 331.545 123.556 331.545 121.954C331.545 120.351 330.249 119.052 328.651 119.052C327.052 119.052 325.756 120.351 325.756 121.954C325.756 123.556 327.052 124.855 328.651 124.855Z" fill="#1B1B1B"/>
<path d="M328.651 139.133C330.249 139.133 331.545 137.834 331.545 136.231C331.545 134.628 330.249 133.329 328.651 133.329C327.052 133.329 325.756 134.628 325.756 136.231C325.756 137.834 327.052 139.133 328.651 139.133Z" fill="#1B1B1B"/>
<path d="M328.651 153.469C330.249 153.469 331.545 152.17 331.545 150.567C331.545 148.964 330.249 147.665 328.651 147.665C327.052 147.665 325.756 148.964 325.756 150.567C325.756 152.17 327.052 153.469 328.651 153.469Z" fill="#1B1B1B"/>
<path d="M328.651 167.803C330.249 167.803 331.545 166.504 331.545 164.901C331.545 163.298 330.249 161.999 328.651 161.999C327.052 161.999 325.756 163.298 325.756 164.901C325.756 166.504 327.052 167.803 328.651 167.803Z" fill="#1B1B1B"/>
<path d="M328.651 182.08C330.249 182.08 331.545 180.781 331.545 179.178C331.545 177.576 330.249 176.276 328.651 176.276C327.052 176.276 325.756 177.576 325.756 179.178C325.756 180.781 327.052 182.08 328.651 182.08Z" fill="#1B1B1B"/>
<path d="M328.651 196.416C330.249 196.416 331.545 195.117 331.545 193.514C331.545 191.912 330.249 190.612 328.651 190.612C327.052 190.612 325.756 191.912 325.756 193.514C325.756 195.117 327.052 196.416 328.651 196.416Z" fill="#1B1B1B"/>
<path d="M328.651 210.751C330.249 210.751 331.545 209.452 331.545 207.849C331.545 206.246 330.249 204.947 328.651 204.947C327.052 204.947 325.756 206.246 325.756 207.849C325.756 209.452 327.052 210.751 328.651 210.751Z" fill="#1B1B1B"/>
<path d="M328.651 225.028C330.249 225.028 331.545 223.729 331.545 222.126C331.545 220.524 330.249 219.225 328.651 219.225C327.052 219.225 325.756 220.524 325.756 222.126C325.756 223.729 327.052 225.028 328.651 225.028Z" fill="#1B1B1B"/>
<path d="M342.6 268.73L432.259 190.786C466.293 162 469.824 110.114 441.983 75.2918C413.679 39.7729 361.991 34.0272 326.567 62.4075L232.683 139.017L342.6 268.73Z" fill="#F6E049"/>
<path d="M342.6 271.632H342.368C341.991 271.608 341.622 271.509 341.284 271.339C340.946 271.17 340.646 270.934 340.4 270.646L230.483 140.874C230.231 140.583 230.039 140.244 229.919 139.878C229.8 139.511 229.755 139.124 229.787 138.74C229.82 138.356 229.929 137.982 230.108 137.641C230.287 137.299 230.533 136.998 230.83 136.753L324.656 60.2021C361.295 30.8352 414.894 36.813 444.182 73.4926C473.354 110.056 468.839 163.683 434.052 193.05L344.394 270.936C344.156 271.165 343.875 271.345 343.567 271.465C343.259 271.584 342.93 271.641 342.6 271.632ZM236.85 139.365L342.889 264.61L430.348 188.581C462.762 161.187 466.929 111.217 439.725 77.0909C412.463 42.9069 362.453 37.3353 328.361 64.6709L236.85 139.365Z" fill="#383A48"/>
<path d="M237.778 129.44L229.674 136.869C225.2 140.95 221.571 145.874 218.995 151.361C216.419 156.849 214.946 162.791 214.661 168.849C214.376 174.907 215.285 180.962 217.334 186.668C219.384 192.374 222.535 197.619 226.606 202.103L282.636 263.913C286.705 268.4 291.617 272.038 297.089 274.621C302.561 277.204 308.488 278.681 314.529 278.966C320.571 279.252 326.61 278.341 332.3 276.286C337.991 274.231 343.222 271.072 347.694 266.989L402.45 217.019" fill="#F6E049"/>
<path d="M316.728 281.905C309.907 281.922 303.159 280.505 296.918 277.746C290.677 274.987 285.082 270.947 280.494 265.887L224.464 204.077C215.739 194.441 211.181 181.729 211.789 168.728C212.396 155.727 218.12 143.498 227.706 134.722L235.809 127.293C236.09 127.032 236.42 126.829 236.779 126.696C237.138 126.562 237.521 126.502 237.903 126.517C238.286 126.532 238.662 126.623 239.01 126.785C239.358 126.946 239.67 127.175 239.93 127.458C240.189 127.741 240.39 128.072 240.521 128.433C240.652 128.794 240.711 129.178 240.694 129.561C240.676 129.945 240.584 130.322 240.421 130.67C240.258 131.018 240.029 131.33 239.745 131.588L231.642 139.017C223.182 146.752 218.127 157.536 217.584 169.003C217.042 180.47 221.056 191.685 228.748 200.188L284.777 261.998C292.492 270.481 303.246 275.549 314.682 276.093C326.119 276.637 337.303 272.612 345.784 264.9L400.54 214.93C400.821 214.669 401.15 214.465 401.51 214.332C401.869 214.199 402.251 214.138 402.634 214.153C403.017 214.169 403.393 214.26 403.741 214.421C404.089 214.583 404.401 214.811 404.66 215.094C404.92 215.377 405.121 215.709 405.252 216.07C405.383 216.431 405.441 216.814 405.424 217.198C405.407 217.582 405.315 217.958 405.152 218.306C404.989 218.654 404.759 218.966 404.476 219.225L349.72 269.195C340.663 277.368 328.912 281.895 316.728 281.905Z" fill="#383A48"/>
<path d="M316.379 204.889C307.755 195.429 293.458 194.443 284.429 202.684L187.593 290.959C178.505 299.2 178.158 313.593 186.782 323.111C195.407 332.572 209.703 333.558 218.733 325.317L315.569 237.042C324.598 228.743 325.003 214.349 316.379 204.889Z" fill="#F6E049"/>
<path d="M204.147 333.79C200.465 333.784 196.825 333 193.464 331.49C190.104 329.98 187.097 327.778 184.641 325.027C174.975 314.406 175.438 298.155 185.683 288.811L282.461 200.537C284.922 198.292 287.812 196.574 290.957 195.486C294.102 194.398 297.434 193.964 300.751 194.21C307.576 194.693 313.947 197.814 318.521 202.916C328.187 213.537 327.724 229.787 317.479 239.131L220.701 327.464C216.159 331.562 210.258 333.818 204.147 333.79ZM299.015 200.014C294.343 199.966 289.829 201.71 286.397 204.889L189.561 293.106C181.689 300.303 181.4 312.839 188.925 321.138C196.449 329.438 208.952 330.308 216.823 323.17L313.601 234.895C321.473 227.698 321.762 215.162 314.238 206.863C310.662 202.876 305.681 200.441 300.346 200.072C299.904 200.023 299.46 200.003 299.015 200.014Z" fill="#383A48"/>
<path d="M286.803 172.272C278.178 162.812 264.229 161.477 255.662 169.312L149.623 266.061C140.999 273.896 140.999 287.941 149.623 297.459C158.248 306.977 172.197 308.254 180.764 300.419L286.803 203.729C295.369 195.836 295.427 181.732 286.803 172.272Z" fill="#F6E049"/>
<path d="M167.278 308.428C166.467 308.428 165.715 308.37 164.905 308.312C158.197 307.63 151.985 304.463 147.482 299.432C137.816 288.811 137.932 272.851 147.714 263.971L253.695 167.165C256.094 165.001 258.923 163.37 261.995 162.38C265.068 161.39 268.315 161.062 271.522 161.419C278.23 162.102 284.442 165.268 288.945 170.299C293.525 175.284 296.084 181.803 296.122 188.581C296.159 191.814 295.519 195.019 294.242 197.988C292.966 200.957 291.082 203.625 288.713 205.818L182.732 302.508C178.497 306.345 172.985 308.456 167.278 308.428ZM269.149 167.107C264.882 167.05 260.75 168.604 257.573 171.46L151.592 268.208C144.183 274.998 144.241 287.186 151.765 295.486C155.292 299.476 160.192 301.984 165.483 302.508C167.888 302.774 170.321 302.529 172.625 301.789C174.929 301.049 177.051 299.831 178.854 298.213L284.893 201.523C286.663 199.873 288.067 197.868 289.014 195.638C289.961 193.408 290.431 191.004 290.392 188.581C290.34 183.262 288.318 178.153 284.719 174.246C281.192 170.255 276.293 167.747 271.001 167.223C270.365 167.165 269.728 167.107 269.149 167.107Z" fill="#383A48"/>
<path d="M263.939 136.695C259.802 132.152 254.038 129.436 247.91 129.143C241.781 128.849 235.786 131.001 231.236 135.128L130.232 227.291C127.941 229.33 126.075 231.805 124.744 234.572C123.413 237.339 122.643 240.343 122.478 243.411C122.313 246.478 122.758 249.548 123.785 252.442C124.812 255.336 126.402 257.997 128.463 260.271C130.524 262.544 133.014 264.385 135.789 265.687C138.564 266.988 141.57 267.724 144.631 267.852C147.692 267.981 150.748 267.498 153.622 266.434C156.496 265.369 159.13 263.743 161.373 261.65L262.376 169.486C266.906 165.337 269.613 159.559 269.906 153.414C270.199 147.269 268.053 141.258 263.939 136.695Z" fill="#F6E049"/>
<path d="M145.803 270.53C140.549 270.536 135.418 268.947 131.082 265.973C126.746 262.999 123.41 258.779 121.512 253.867C119.614 248.956 119.244 243.583 120.449 238.457C121.654 233.33 124.379 228.689 128.265 225.144L229.268 133.039C233.079 129.57 237.829 127.311 242.92 126.547C248.01 125.783 253.212 126.548 257.869 128.746C262.526 130.944 266.43 134.477 269.086 138.897C271.742 143.318 273.033 148.429 272.795 153.584C272.641 157.008 271.809 160.367 270.348 163.466C268.888 166.565 266.827 169.341 264.286 171.634L163.341 263.739C158.539 268.109 152.287 270.53 145.803 270.53ZM246.806 132.052C241.773 132.045 236.919 133.929 233.204 137.334L132.2 229.439C130.229 231.232 128.629 233.398 127.493 235.811C126.358 238.225 125.708 240.84 125.581 243.506C125.454 246.172 125.853 248.837 126.755 251.348C127.657 253.859 129.044 256.167 130.836 258.14C132.629 260.113 134.792 261.712 137.202 262.846C139.611 263.979 142.22 264.625 144.879 264.746C147.539 264.867 150.195 264.462 152.698 263.552C155.2 262.642 157.499 261.246 159.463 259.445L260.466 167.339C263.488 164.582 265.606 160.971 266.542 156.983C267.478 152.995 267.187 148.816 265.709 144.997C264.23 141.178 261.633 137.897 258.259 135.586C254.885 133.276 250.892 132.044 246.806 132.052Z" fill="#383A48"/>
<path d="M234.361 196.938L288.538 256.659C305.092 274.882 333.454 276.043 351.803 259.328L388.442 225.899C423.402 193.978 426.238 139.829 394.809 105.123C363.379 70.4167 309.318 68.1532 274.299 100.074L237.718 133.503C219.312 150.276 217.807 178.714 234.361 196.938Z" fill="#F6E049"/>
<path d="M277.078 129.73L285.181 137.159C289.656 141.24 293.285 146.164 295.861 151.651C298.437 157.139 299.909 163.081 300.194 169.139C300.479 175.197 299.571 181.252 297.521 186.958C295.472 192.664 292.321 197.909 288.249 202.393L232.22 264.203C228.15 268.69 223.239 272.328 217.767 274.911C212.294 277.494 206.368 278.971 200.326 279.256C194.284 279.542 188.246 278.631 182.555 276.576C176.865 274.521 171.634 271.362 167.161 267.279L112.405 217.309" fill="#F6E049"/>
<path d="M198.069 282.195C185.901 282.226 174.166 277.669 165.193 269.427L110.437 219.457C110.153 219.198 109.924 218.886 109.761 218.538C109.598 218.191 109.505 217.814 109.488 217.43C109.471 217.046 109.53 216.663 109.661 216.302C109.792 215.941 109.993 215.609 110.252 215.326C110.512 215.044 110.824 214.815 111.172 214.653C111.519 214.492 111.895 214.401 112.278 214.386C112.661 214.37 113.043 214.431 113.403 214.564C113.762 214.698 114.092 214.901 114.373 215.162L169.128 265.132C177.607 272.849 188.793 276.877 200.231 276.333C211.668 275.789 222.423 270.717 230.136 262.231L286.165 200.421C293.856 191.917 297.871 180.702 297.328 169.235C296.786 157.768 291.73 146.985 283.271 139.249L275.167 131.821C274.604 131.296 274.27 130.569 274.24 129.799C274.209 129.029 274.484 128.277 275.004 127.71C275.525 127.142 276.248 126.804 277.016 126.77C277.784 126.735 278.535 127.007 279.103 127.526L287.207 134.955C296.792 143.728 302.52 155.951 303.138 168.949C303.757 181.947 299.215 194.661 290.506 204.309L234.477 266.119C230.162 270.903 224.941 274.779 219.118 277.519C213.294 280.259 206.985 281.809 200.558 282.079C199.69 282.137 198.88 282.195 198.069 282.195Z" fill="#383A48"/>
<path d="M149.275 221.431C157.437 212.435 170.981 211.448 179.49 219.167L270.479 302.161C278.988 309.938 279.277 323.518 271.116 332.514C262.955 341.51 249.41 342.496 240.902 334.778L149.912 251.784C141.404 244.065 141.114 230.484 149.275 221.431Z" fill="#F6E049"/>
<path d="M272.447 300.07L227.762 259.328C227.222 258.833 226.514 258.563 225.783 258.574C225.051 258.584 224.351 258.875 223.826 259.386C223.542 259.662 223.317 259.993 223.165 260.36C223.014 260.726 222.938 261.12 222.943 261.517C222.949 261.914 223.035 262.305 223.197 262.667C223.359 263.029 223.593 263.354 223.884 263.623L268.569 304.365C270.319 305.975 271.721 307.93 272.687 310.106C273.653 312.282 274.162 314.635 274.183 317.017C274.224 322.051 272.37 326.916 268.99 330.638C265.61 334.361 260.953 336.668 255.951 337.098C253.586 337.292 251.206 337.002 248.957 336.243C246.708 335.485 244.636 334.275 242.869 332.687L151.88 249.694C151.256 249.118 150.676 248.497 150.143 247.836L140.593 239.131C141.148 244.831 143.787 250.123 148.002 253.988L238.991 336.982C243.25 340.861 248.807 342.995 254.561 342.96C255.14 342.96 255.777 342.96 256.356 342.902C262.855 342.409 268.911 339.414 273.257 334.544C277.66 329.738 280.062 323.426 279.971 316.901C279.934 313.728 279.247 310.597 277.953 307.702C276.659 304.806 274.784 302.209 272.447 300.07Z" fill="#383A48"/>
<path d="M197.664 205.992C205.826 196.997 219.37 196.01 227.936 203.787L319.158 287.013C327.724 294.79 328.013 308.428 319.852 317.424C311.691 326.42 298.147 327.407 289.58 319.629L198.359 236.404C189.792 228.627 189.503 215.046 197.664 205.992Z" fill="#F6E049"/>
<path d="M328.535 299.491C327.937 293.886 325.299 288.7 321.126 284.923L257.514 226.886C256.945 226.366 256.193 226.092 255.424 226.125C254.654 226.157 253.928 226.493 253.405 227.06C252.886 227.631 252.613 228.384 252.646 229.156C252.678 229.928 253.013 230.655 253.578 231.181L317.306 289.276C319.037 290.886 320.423 292.834 321.378 294.999C322.334 297.164 322.839 299.502 322.862 301.87C322.954 306.911 321.11 311.794 317.711 315.509C310.649 323.344 298.9 324.215 291.549 317.54L227.763 259.329C227.223 258.833 226.515 258.564 225.784 258.574C225.052 258.585 224.352 258.876 223.827 259.387C223.543 259.663 223.318 259.994 223.166 260.361C223.015 260.727 222.939 261.121 222.944 261.518C222.95 261.914 223.036 262.306 223.198 262.668C223.36 263.03 223.594 263.355 223.885 263.623L287.671 321.777C291.956 325.651 297.529 327.783 303.299 327.755C306.676 327.719 310.014 327.014 313.119 325.68C316.224 324.346 319.035 322.41 321.391 319.983C323.747 317.555 325.601 314.685 326.847 311.537C328.093 308.389 328.706 305.025 328.651 301.638C328.651 300.942 328.593 300.245 328.535 299.491Z" fill="#383A48"/>
<path d="M227.937 172.678C236.446 163.276 250.337 161.941 258.846 169.776L364.017 265.712C372.583 273.489 372.583 287.418 364.017 296.82C355.508 306.222 341.617 307.557 333.108 299.722L227.937 203.844C219.429 196.009 219.371 182.08 227.937 172.678Z" fill="#F6E049"/>
<path d="M369.978 268.44C368.877 266.639 367.533 264.998 365.984 263.565L359.386 257.529L288.423 192.817C287.854 192.297 287.102 192.024 286.333 192.056C285.563 192.089 284.837 192.425 284.313 192.992C283.795 193.563 283.522 194.316 283.554 195.088C283.587 195.859 283.922 196.587 284.487 197.112L355.45 261.824L362.048 267.86C363.808 269.491 365.203 271.477 366.141 273.688C367.078 275.899 367.538 278.284 367.489 280.686C367.431 285.958 365.432 291.022 361.875 294.905C354.408 303.088 342.369 304.307 335.018 297.633L257.456 226.885C256.887 226.365 256.136 226.092 255.366 226.124C254.596 226.157 253.871 226.493 253.347 227.059C252.828 227.631 252.555 228.384 252.588 229.156C252.62 229.927 252.956 230.655 253.52 231.18L317.306 289.276L328.535 299.49L331.197 301.928C335.398 305.731 340.876 307.804 346.536 307.731C353.634 307.587 360.399 304.687 365.408 299.643C370.417 294.599 373.279 287.803 373.393 280.686C373.398 276.367 372.216 272.13 369.978 268.44Z" fill="#383A48"/>
<path d="M394.231 251.842C387.169 267.047 368.647 269.949 357.418 259.677L284.314 192.992L279.394 188.523L256.415 167.513C253.052 164.449 250.665 160.457 249.553 156.039C248.441 151.62 248.653 146.971 250.164 142.673C252.07 137.32 255.828 132.831 260.756 130.021C262.904 128.79 265.258 127.964 267.702 127.584C269.022 127.371 270.359 127.274 271.696 127.293C277.426 127.351 283.33 129.325 287.324 132.981L337.565 178.831L388.732 225.493C395.504 231.703 398.051 243.542 394.231 251.842Z" fill="#F6E049"/>
<path d="M390.757 223.403L289.291 130.891C284.95 126.945 278.409 124.507 271.753 124.449C270.242 124.45 268.732 124.566 267.238 124.797C266.66 124.914 266.023 125.03 265.502 125.146C267.007 126.829 268.512 128.512 269.959 130.311C270.459 130.264 270.961 130.244 271.464 130.253H271.695C276.905 130.311 282.056 132.11 285.355 135.186L386.822 227.756C392.668 233.095 394.867 243.6 391.626 250.622C390.285 253.612 388.261 256.242 385.716 258.299C383.172 260.356 380.179 261.783 376.982 262.462C373.864 263.095 370.641 262.984 367.574 262.137C364.508 261.29 361.683 259.732 359.328 257.587L288.365 192.875C287.796 192.355 287.044 192.082 286.275 192.114C285.505 192.147 284.779 192.483 284.256 193.049C283.737 193.62 283.464 194.374 283.496 195.146C283.529 195.917 283.864 196.645 284.429 197.17L355.392 261.882C360.193 266.253 366.445 268.673 372.93 268.672C374.641 268.671 376.348 268.496 378.024 268.15C382.108 267.299 385.935 265.495 389.193 262.883C392.452 260.271 395.05 256.926 396.777 253.118C401.176 243.716 398.456 230.425 390.757 223.403Z" fill="#383A48"/>
<path d="M288.365 188.58L225.159 257.587C208.952 275.462 181.4 276.391 163.052 259.618L126.413 226.189C91.4524 194.268 88.0953 140.7 118.946 106.632C149.797 72.6217 169.593 61.6526 211.499 88.4079L254.563 114.002C272.911 130.717 304.572 170.705 288.365 188.58Z" fill="#F6E049"/>
<path d="M94.3464 202.741L32.1238 150.218C15.7572 136.376 5.42538 116.675 3.32809 95.3096C1.23079 73.9441 7.53364 52.6016 20.8948 35.8259C49.1988 0.307063 100.887 -5.43864 136.31 22.9416L195.292 69.8358" fill="#F3F6E6"/>
<path d="M94.3463 205.644C93.6655 205.643 93.0081 205.395 92.4941 204.948L30.2136 152.482C13.264 138.148 2.56808 117.742 0.405627 95.615C-1.75682 73.4878 4.78518 51.3887 18.6373 34.0278C47.9253 -2.65183 101.524 -8.62968 138.105 20.7372L197.086 67.6314C197.384 67.8665 197.633 68.1585 197.818 68.4905C198.002 68.8226 198.12 69.1881 198.163 69.5659C198.206 69.9437 198.174 70.3263 198.068 70.6916C197.963 71.0569 197.786 71.3976 197.549 71.6941C197.067 72.2859 196.374 72.6657 195.617 72.7524C194.86 72.8391 194.1 72.626 193.497 72.1584L134.516 25.2641C118.249 12.2123 97.5085 6.11186 76.7874 8.28426C56.0663 10.4567 37.033 20.727 23.8102 36.8706C10.5875 53.0141 4.24006 73.7311 6.14279 94.534C8.04552 115.337 18.0452 134.551 33.9759 148.013L96.1985 200.537C96.6463 200.921 96.9666 201.433 97.1165 202.004C97.2664 202.575 97.2389 203.179 97.0376 203.734C96.8362 204.29 96.4706 204.77 95.9897 205.111C95.5088 205.452 94.9354 205.639 94.3463 205.644Z" fill="#383A48"/>
<path d="M157.322 53.2373C158.92 53.2373 160.216 51.9381 160.216 50.3355C160.216 48.7328 158.92 47.4336 157.322 47.4336C155.723 47.4336 154.428 48.7328 154.428 50.3355C154.428 51.9381 155.723 53.2373 157.322 53.2373Z" fill="#383A48"/>
<path d="M155.817 62.6397C156.338 62.3495 156.859 62.0593 157.38 61.8271H157.322C156.804 61.836 156.296 61.9797 155.85 62.2442C155.403 62.5088 155.033 62.885 154.775 63.3361C155.095 63.0645 155.444 62.8308 155.817 62.6397Z" fill="#383A48"/>
<path d="M143.025 38.96C144.623 38.96 145.919 37.6608 145.919 36.0581C145.919 34.4555 144.623 33.1562 143.025 33.1562C141.426 33.1562 140.131 34.4555 140.131 36.0581C140.131 37.6608 141.426 38.96 143.025 38.96Z" fill="#383A48"/>
<path d="M143.025 53.2373C144.623 53.2373 145.919 51.9381 145.919 50.3355C145.919 48.7328 144.623 47.4336 143.025 47.4336C141.426 47.4336 140.131 48.7328 140.131 50.3355C140.131 51.9381 141.426 53.2373 143.025 53.2373Z" fill="#383A48"/>
<path d="M143.025 67.5733C144.623 67.5733 145.919 66.2741 145.919 64.6714C145.919 63.0687 144.623 61.7695 143.025 61.7695C141.426 61.7695 140.131 63.0687 140.131 64.6714C140.131 66.2741 141.426 67.5733 143.025 67.5733Z" fill="#383A48"/>
<path d="M128.786 24.625C130.384 24.625 131.68 23.3258 131.68 21.7232C131.68 20.1205 130.384 18.8213 128.786 18.8213C127.187 18.8213 125.892 20.1205 125.892 21.7232C125.892 23.3258 127.187 24.625 128.786 24.625Z" fill="#383A48"/>
<path d="M128.786 38.96C130.384 38.96 131.68 37.6608 131.68 36.0581C131.68 34.4555 130.384 33.1562 128.786 33.1562C127.187 33.1562 125.892 34.4555 125.892 36.0581C125.892 37.6608 127.187 38.96 128.786 38.96Z" fill="#383A48"/>
<path d="M128.786 53.2373C130.384 53.2373 131.68 51.9381 131.68 50.3355C131.68 48.7328 130.384 47.4336 128.786 47.4336C127.187 47.4336 125.892 48.7328 125.892 50.3355C125.892 51.9381 127.187 53.2373 128.786 53.2373Z" fill="#383A48"/>
<path d="M128.786 67.5733C130.384 67.5733 131.68 66.2741 131.68 64.6714C131.68 63.0687 130.384 61.7695 128.786 61.7695C127.187 61.7695 125.892 63.0687 125.892 64.6714C125.892 66.2741 127.187 67.5733 128.786 67.5733Z" fill="#383A48"/>
<path d="M128.786 81.9072C130.384 81.9072 131.68 80.608 131.68 79.0054C131.68 77.4027 130.384 76.1035 128.786 76.1035C127.187 76.1035 125.892 77.4027 125.892 79.0054C125.892 80.608 127.187 81.9072 128.786 81.9072Z" fill="#383A48"/>
<path d="M128.785 96.1856C129.304 96.1767 129.811 96.033 130.257 95.7685C130.704 95.504 131.074 95.1277 131.332 94.6766C131.448 94.3864 131.564 94.0962 131.679 93.748C131.679 93.5739 131.737 93.4578 131.737 93.2837C131.737 92.5141 131.432 91.776 130.89 91.2318C130.347 90.6876 129.611 90.3818 128.843 90.3818C128.076 90.3818 127.339 90.6876 126.797 91.2318C126.254 91.776 125.949 92.5141 125.949 93.2837C125.939 93.6627 126.005 94.0399 126.143 94.3928C126.281 94.7457 126.489 95.0671 126.753 95.3379C127.018 95.6086 127.334 95.8232 127.683 95.9689C128.032 96.1145 128.407 96.1882 128.785 96.1856Z" fill="#383A48"/>
<path d="M114.49 24.625C116.088 24.625 117.384 23.3258 117.384 21.7232C117.384 20.1205 116.088 18.8213 114.49 18.8213C112.891 18.8213 111.596 20.1205 111.596 21.7232C111.596 23.3258 112.891 24.625 114.49 24.625Z" fill="#383A48"/>
<path d="M114.49 38.96C116.088 38.96 117.384 37.6608 117.384 36.0581C117.384 34.4555 116.088 33.1562 114.49 33.1562C112.891 33.1562 111.596 34.4555 111.596 36.0581C111.596 37.6608 112.891 38.96 114.49 38.96Z" fill="#383A48"/>
<path d="M114.49 53.2373C116.088 53.2373 117.384 51.9381 117.384 50.3355C117.384 48.7328 116.088 47.4336 114.49 47.4336C112.891 47.4336 111.596 48.7328 111.596 50.3355C111.596 51.9381 112.891 53.2373 114.49 53.2373Z" fill="#383A48"/>
<path d="M114.49 67.5733C116.088 67.5733 117.384 66.2741 117.384 64.6714C117.384 63.0687 116.088 61.7695 114.49 61.7695C112.891 61.7695 111.596 63.0687 111.596 64.6714C111.596 66.2741 112.891 67.5733 114.49 67.5733Z" fill="#383A48"/>
<path d="M114.49 81.9072C116.088 81.9072 117.384 80.608 117.384 79.0054C117.384 77.4027 116.088 76.1035 114.49 76.1035C112.891 76.1035 111.596 77.4027 111.596 79.0054C111.596 80.608 112.891 81.9072 114.49 81.9072Z" fill="#383A48"/>
<path d="M114.49 96.1856C116.088 96.1856 117.384 94.8864 117.384 93.2837C117.384 91.6811 116.088 90.3818 114.49 90.3818C112.891 90.3818 111.596 91.6811 111.596 93.2837C111.596 94.8864 112.891 96.1856 114.49 96.1856Z" fill="#383A48"/>
<path d="M114.49 110.521C116.088 110.521 117.384 109.221 117.384 107.619C117.384 106.016 116.088 104.717 114.49 104.717C112.891 104.717 111.596 106.016 111.596 107.619C111.596 109.221 112.891 110.521 114.49 110.521Z" fill="#383A48"/>
<path d="M100.192 10.2901C101.791 10.2901 103.086 8.99086 103.086 7.3882C103.086 5.78554 101.791 4.48633 100.192 4.48633C98.5941 4.48633 97.2984 5.78554 97.2984 7.3882C97.2984 8.99086 98.5941 10.2901 100.192 10.2901Z" fill="#383A48"/>
<path d="M100.192 24.625C101.791 24.625 103.086 23.3258 103.086 21.7232C103.086 20.1205 101.791 18.8213 100.192 18.8213C98.5941 18.8213 97.2984 20.1205 97.2984 21.7232C97.2984 23.3258 98.5941 24.625 100.192 24.625Z" fill="#383A48"/>
<path d="M100.192 38.96C101.791 38.96 103.086 37.6608 103.086 36.0581C103.086 34.4555 101.791 33.1562 100.192 33.1562C98.5941 33.1562 97.2984 34.4555 97.2984 36.0581C97.2984 37.6608 98.5941 38.96 100.192 38.96Z" fill="#383A48"/>
<path d="M100.192 53.2373C101.791 53.2373 103.086 51.9381 103.086 50.3355C103.086 48.7328 101.791 47.4336 100.192 47.4336C98.5941 47.4336 97.2984 48.7328 97.2984 50.3355C97.2984 51.9381 98.5941 53.2373 100.192 53.2373Z" fill="#383A48"/>
<path d="M100.192 67.5733C101.791 67.5733 103.086 66.2741 103.086 64.6714C103.086 63.0687 101.791 61.7695 100.192 61.7695C98.5941 61.7695 97.2984 63.0687 97.2984 64.6714C97.2984 66.2741 98.5941 67.5733 100.192 67.5733Z" fill="#383A48"/>
<path d="M100.192 81.9072C101.791 81.9072 103.086 80.608 103.086 79.0054C103.086 77.4027 101.791 76.1035 100.192 76.1035C98.5941 76.1035 97.2984 77.4027 97.2984 79.0054C97.2984 80.608 98.5941 81.9072 100.192 81.9072Z" fill="#383A48"/>
<path d="M100.192 96.1856C101.791 96.1856 103.086 94.8864 103.086 93.2837C103.086 91.6811 101.791 90.3818 100.192 90.3818C98.5941 90.3818 97.2984 91.6811 97.2984 93.2837C97.2984 94.8864 98.5941 96.1856 100.192 96.1856Z" fill="#383A48"/>
<path d="M100.192 110.521C101.791 110.521 103.086 109.221 103.086 107.619C103.086 106.016 101.791 104.717 100.192 104.717C98.5941 104.717 97.2984 106.016 97.2984 107.619C97.2984 109.221 98.5941 110.521 100.192 110.521Z" fill="#383A48"/>
<path d="M100.192 124.855C101.791 124.855 103.086 123.556 103.086 121.954C103.086 120.351 101.791 119.052 100.192 119.052C98.5941 119.052 97.2984 120.351 97.2984 121.954C97.2984 123.556 98.5941 124.855 100.192 124.855Z" fill="#383A48"/>
<path d="M100.713 139.133C101.235 137.587 101.854 136.075 102.565 134.606C102.278 134.199 101.891 133.872 101.442 133.658C100.993 133.444 100.496 133.35 99.9999 133.384C99.5036 133.418 99.0244 133.579 98.6084 133.853C98.1923 134.126 97.8534 134.502 97.6243 134.945C97.3952 135.388 97.2835 135.882 97.3 136.381C97.3165 136.879 97.4606 137.365 97.7185 137.791C97.9765 138.218 98.3395 138.571 98.7727 138.816C99.2059 139.061 99.6947 139.19 100.192 139.191C100.361 139.143 100.537 139.124 100.713 139.133Z" fill="#383A48"/>
<path d="M98.5714 148.188C98.191 148.455 97.8814 148.812 97.6695 149.226C97.4577 149.641 97.35 150.101 97.3559 150.567C97.3606 151.351 97.6725 152.101 98.2241 152.656C98.2246 151.16 98.3407 149.666 98.5714 148.188Z" fill="#383A48"/>
<path d="M99.556 164.089C99.3824 163.45 99.2087 162.812 99.0929 162.231C98.4731 162.485 97.9605 162.947 97.6432 163.538C97.3258 164.13 97.2233 164.813 97.3533 165.472C97.4833 166.13 97.8377 166.723 98.3557 167.148C98.8737 167.574 99.5231 167.805 100.193 167.803C100.387 167.812 100.583 167.793 100.772 167.745C100.308 166.526 99.9033 165.307 99.556 164.089Z" fill="#383A48"/>
<path d="M100.192 182.08C101.791 182.08 103.086 180.781 103.086 179.178C103.086 177.576 101.791 176.276 100.192 176.276C98.5941 176.276 97.2984 177.576 97.2984 179.178C97.2984 180.781 98.5941 182.08 100.192 182.08Z" fill="#383A48"/>
<path d="M100.192 196.416C101.791 196.416 103.086 195.117 103.086 193.514C103.086 191.912 101.791 190.612 100.192 190.612C98.5941 190.612 97.2984 191.912 97.2984 193.514C97.2984 195.117 98.5941 196.416 100.192 196.416Z" fill="#383A48"/>
<path d="M85.9526 10.2901C87.5509 10.2901 88.8466 8.99086 88.8466 7.3882C88.8466 5.78554 87.5509 4.48633 85.9526 4.48633C84.3542 4.48633 83.0585 5.78554 83.0585 7.3882C83.0585 8.99086 84.3542 10.2901 85.9526 10.2901Z" fill="#383A48"/>
<path d="M85.9526 24.625C87.5509 24.625 88.8466 23.3258 88.8466 21.7232C88.8466 20.1205 87.5509 18.8213 85.9526 18.8213C84.3542 18.8213 83.0585 20.1205 83.0585 21.7232C83.0585 23.3258 84.3542 24.625 85.9526 24.625Z" fill="#383A48"/>
<path d="M85.9526 38.96C87.5509 38.96 88.8466 37.6608 88.8466 36.0581C88.8466 34.4555 87.5509 33.1562 85.9526 33.1562C84.3542 33.1562 83.0585 34.4555 83.0585 36.0581C83.0585 37.6608 84.3542 38.96 85.9526 38.96Z" fill="#383A48"/>
<path d="M85.9526 53.2373C87.5509 53.2373 88.8466 51.9381 88.8466 50.3355C88.8466 48.7328 87.5509 47.4336 85.9526 47.4336C84.3542 47.4336 83.0585 48.7328 83.0585 50.3355C83.0585 51.9381 84.3542 53.2373 85.9526 53.2373Z" fill="#383A48"/>
<path d="M85.9526 67.5733C87.5509 67.5733 88.8466 66.2741 88.8466 64.6714C88.8466 63.0687 87.5509 61.7695 85.9526 61.7695C84.3542 61.7695 83.0585 63.0687 83.0585 64.6714C83.0585 66.2741 84.3542 67.5733 85.9526 67.5733Z" fill="#383A48"/>
<path d="M85.9526 81.9072C87.5509 81.9072 88.8466 80.608 88.8466 79.0054C88.8466 77.4027 87.5509 76.1035 85.9526 76.1035C84.3542 76.1035 83.0585 77.4027 83.0585 79.0054C83.0585 80.608 84.3542 81.9072 85.9526 81.9072Z" fill="#383A48"/>
<path d="M85.9526 96.1856C87.5509 96.1856 88.8466 94.8864 88.8466 93.2837C88.8466 91.6811 87.5509 90.3818 85.9526 90.3818C84.3542 90.3818 83.0585 91.6811 83.0585 93.2837C83.0585 94.8864 84.3542 96.1856 85.9526 96.1856Z" fill="#383A48"/>
<path d="M85.9526 110.521C87.5509 110.521 88.8466 109.221 88.8466 107.619C88.8466 106.016 87.5509 104.717 85.9526 104.717C84.3542 104.717 83.0585 106.016 83.0585 107.619C83.0585 109.221 84.3542 110.521 85.9526 110.521Z" fill="#383A48"/>
<path d="M85.9526 124.855C87.5509 124.855 88.8466 123.556 88.8466 121.954C88.8466 120.351 87.5509 119.052 85.9526 119.052C84.3542 119.052 83.0585 120.351 83.0585 121.954C83.0585 123.556 84.3542 124.855 85.9526 124.855Z" fill="#383A48"/>
<path d="M85.9526 139.133C87.5509 139.133 88.8466 137.834 88.8466 136.231C88.8466 134.628 87.5509 133.329 85.9526 133.329C84.3542 133.329 83.0585 134.628 83.0585 136.231C83.0585 137.834 84.3542 139.133 85.9526 139.133Z" fill="#383A48"/>
<path d="M85.9526 153.469C87.5509 153.469 88.8466 152.17 88.8466 150.567C88.8466 148.964 87.5509 147.665 85.9526 147.665C84.3542 147.665 83.0585 148.964 83.0585 150.567C83.0585 152.17 84.3542 153.469 85.9526 153.469Z" fill="#383A48"/>
<path d="M85.9526 167.803C87.5509 167.803 88.8466 166.504 88.8466 164.901C88.8466 163.298 87.5509 161.999 85.9526 161.999C84.3542 161.999 83.0585 163.298 83.0585 164.901C83.0585 166.504 84.3542 167.803 85.9526 167.803Z" fill="#383A48"/>
<path d="M85.9526 182.08C87.5509 182.08 88.8466 180.781 88.8466 179.178C88.8466 177.576 87.5509 176.276 85.9526 176.276C84.3542 176.276 83.0585 177.576 83.0585 179.178C83.0585 180.781 84.3542 182.08 85.9526 182.08Z" fill="#383A48"/>
<path d="M85.9526 196.416C87.5509 196.416 88.8466 195.117 88.8466 193.514C88.8466 191.912 87.5509 190.612 85.9526 190.612C84.3542 190.612 83.0585 191.912 83.0585 193.514C83.0585 195.117 84.3542 196.416 85.9526 196.416Z" fill="#383A48"/>
<path d="M71.6574 10.2901C73.2558 10.2901 74.5516 8.99086 74.5516 7.3882C74.5516 5.78554 73.2558 4.48633 71.6574 4.48633C70.0591 4.48633 68.7633 5.78554 68.7633 7.3882C68.7633 8.99086 70.0591 10.2901 71.6574 10.2901Z" fill="#383A48"/>
<path d="M71.6574 24.625C73.2558 24.625 74.5516 23.3258 74.5516 21.7232C74.5516 20.1205 73.2558 18.8213 71.6574 18.8213C70.0591 18.8213 68.7633 20.1205 68.7633 21.7232C68.7633 23.3258 70.0591 24.625 71.6574 24.625Z" fill="#383A48"/>
<path d="M71.6574 38.96C73.2558 38.96 74.5516 37.6608 74.5516 36.0581C74.5516 34.4555 73.2558 33.1562 71.6574 33.1562C70.0591 33.1562 68.7633 34.4555 68.7633 36.0581C68.7633 37.6608 70.0591 38.96 71.6574 38.96Z" fill="#383A48"/>
<path d="M71.6574 53.2373C73.2558 53.2373 74.5516 51.9381 74.5516 50.3355C74.5516 48.7328 73.2558 47.4336 71.6574 47.4336C70.0591 47.4336 68.7633 48.7328 68.7633 50.3355C68.7633 51.9381 70.0591 53.2373 71.6574 53.2373Z" fill="#383A48"/>
<path d="M71.6574 67.5733C73.2558 67.5733 74.5516 66.2741 74.5516 64.6714C74.5516 63.0687 73.2558 61.7695 71.6574 61.7695C70.0591 61.7695 68.7633 63.0687 68.7633 64.6714C68.7633 66.2741 70.0591 67.5733 71.6574 67.5733Z" fill="#383A48"/>
<path d="M71.6574 81.9072C73.2558 81.9072 74.5516 80.608 74.5516 79.0054C74.5516 77.4027 73.2558 76.1035 71.6574 76.1035C70.0591 76.1035 68.7633 77.4027 68.7633 79.0054C68.7633 80.608 70.0591 81.9072 71.6574 81.9072Z" fill="#383A48"/>
<path d="M71.6574 96.1856C73.2558 96.1856 74.5516 94.8864 74.5516 93.2837C74.5516 91.6811 73.2558 90.3818 71.6574 90.3818C70.0591 90.3818 68.7633 91.6811 68.7633 93.2837C68.7633 94.8864 70.0591 96.1856 71.6574 96.1856Z" fill="#383A48"/>
<path d="M71.6574 110.521C73.2558 110.521 74.5516 109.221 74.5516 107.619C74.5516 106.016 73.2558 104.717 71.6574 104.717C70.0591 104.717 68.7633 106.016 68.7633 107.619C68.7633 109.221 70.0591 110.521 71.6574 110.521Z" fill="#383A48"/>
<path d="M71.6574 124.855C73.2558 124.855 74.5516 123.556 74.5516 121.954C74.5516 120.351 73.2558 119.052 71.6574 119.052C70.0591 119.052 68.7633 120.351 68.7633 121.954C68.7633 123.556 70.0591 124.855 71.6574 124.855Z" fill="#383A48"/>
<path d="M71.6574 139.133C73.2558 139.133 74.5516 137.834 74.5516 136.231C74.5516 134.628 73.2558 133.329 71.6574 133.329C70.0591 133.329 68.7633 134.628 68.7633 136.231C68.7633 137.834 70.0591 139.133 71.6574 139.133Z" fill="#383A48"/>
<path d="M71.6574 153.469C73.2558 153.469 74.5516 152.17 74.5516 150.567C74.5516 148.964 73.2558 147.665 71.6574 147.665C70.0591 147.665 68.7633 148.964 68.7633 150.567C68.7633 152.17 70.0591 153.469 71.6574 153.469Z" fill="#383A48"/>
<path d="M71.6574 167.803C73.2558 167.803 74.5516 166.504 74.5516 164.901C74.5516 163.298 73.2558 161.999 71.6574 161.999C70.0591 161.999 68.7633 163.298 68.7633 164.901C68.7633 166.504 70.0591 167.803 71.6574 167.803Z" fill="#383A48"/>
<path d="M71.6574 182.08C73.2558 182.08 74.5516 180.781 74.5516 179.178C74.5516 177.576 73.2558 176.276 71.6574 176.276C70.0591 176.276 68.7633 177.576 68.7633 179.178C68.7633 180.781 70.0591 182.08 71.6574 182.08Z" fill="#383A48"/>
<path d="M57.3593 24.625C58.9576 24.625 60.2533 23.3258 60.2533 21.7232C60.2533 20.1205 58.9576 18.8213 57.3593 18.8213C55.7609 18.8213 54.4652 20.1205 54.4652 21.7232C54.4652 23.3258 55.7609 24.625 57.3593 24.625Z" fill="#383A48"/>
<path d="M57.3593 38.96C58.9576 38.96 60.2533 37.6608 60.2533 36.0581C60.2533 34.4555 58.9576 33.1562 57.3593 33.1562C55.7609 33.1562 54.4652 34.4555 54.4652 36.0581C54.4652 37.6608 55.7609 38.96 57.3593 38.96Z" fill="#383A48"/>
<path d="M57.3593 53.2373C58.9576 53.2373 60.2533 51.9381 60.2533 50.3355C60.2533 48.7328 58.9576 47.4336 57.3593 47.4336C55.7609 47.4336 54.4652 48.7328 54.4652 50.3355C54.4652 51.9381 55.7609 53.2373 57.3593 53.2373Z" fill="#383A48"/>
<path d="M57.3593 67.5733C58.9576 67.5733 60.2533 66.2741 60.2533 64.6714C60.2533 63.0687 58.9576 61.7695 57.3593 61.7695C55.7609 61.7695 54.4652 63.0687 54.4652 64.6714C54.4652 66.2741 55.7609 67.5733 57.3593 67.5733Z" fill="#383A48"/>
<path d="M57.3593 81.9072C58.9576 81.9072 60.2533 80.608 60.2533 79.0054C60.2533 77.4027 58.9576 76.1035 57.3593 76.1035C55.7609 76.1035 54.4652 77.4027 54.4652 79.0054C54.4652 80.608 55.7609 81.9072 57.3593 81.9072Z" fill="#383A48"/>
<path d="M57.3593 96.1856C58.9576 96.1856 60.2533 94.8864 60.2533 93.2837C60.2533 91.6811 58.9576 90.3818 57.3593 90.3818C55.7609 90.3818 54.4652 91.6811 54.4652 93.2837C54.4652 94.8864 55.7609 96.1856 57.3593 96.1856Z" fill="#383A48"/>
<path d="M57.3593 110.521C58.9576 110.521 60.2533 109.221 60.2533 107.619C60.2533 106.016 58.9576 104.717 57.3593 104.717C55.7609 104.717 54.4652 106.016 54.4652 107.619C54.4652 109.221 55.7609 110.521 57.3593 110.521Z" fill="#383A48"/>
<path d="M57.3593 124.855C58.9576 124.855 60.2533 123.556 60.2533 121.954C60.2533 120.351 58.9576 119.052 57.3593 119.052C55.7609 119.052 54.4652 120.351 54.4652 121.954C54.4652 123.556 55.7609 124.855 57.3593 124.855Z" fill="#383A48"/>
<path d="M57.3593 139.133C58.9576 139.133 60.2533 137.834 60.2533 136.231C60.2533 134.628 58.9576 133.329 57.3593 133.329C55.7609 133.329 54.4652 134.628 54.4652 136.231C54.4652 137.834 55.7609 139.133 57.3593 139.133Z" fill="#383A48"/>
<path d="M57.3593 153.469C58.9576 153.469 60.2533 152.17 60.2533 150.567C60.2533 148.964 58.9576 147.665 57.3593 147.665C55.7609 147.665 54.4652 148.964 54.4652 150.567C54.4652 152.17 55.7609 153.469 57.3593 153.469Z" fill="#383A48"/>
<path d="M57.3593 167.803C58.9576 167.803 60.2533 166.504 60.2533 164.901C60.2533 163.298 58.9576 161.999 57.3593 161.999C55.7609 161.999 54.4652 163.298 54.4652 164.901C54.4652 166.504 55.7609 167.803 57.3593 167.803Z" fill="#383A48"/>
<path d="M43.1214 24.625C44.7197 24.625 46.0155 23.3258 46.0155 21.7232C46.0155 20.1205 44.7197 18.8213 43.1214 18.8213C41.523 18.8213 40.2273 20.1205 40.2273 21.7232C40.2273 23.3258 41.523 24.625 43.1214 24.625Z" fill="#383A48"/>
<path d="M43.1214 38.96C44.7197 38.96 46.0155 37.6608 46.0155 36.0581C46.0155 34.4555 44.7197 33.1562 43.1214 33.1562C41.523 33.1562 40.2273 34.4555 40.2273 36.0581C40.2273 37.6608 41.523 38.96 43.1214 38.96Z" fill="#383A48"/>
<path d="M43.1214 53.2373C44.7197 53.2373 46.0155 51.9381 46.0155 50.3355C46.0155 48.7328 44.7197 47.4336 43.1214 47.4336C41.523 47.4336 40.2273 48.7328 40.2273 50.3355C40.2273 51.9381 41.523 53.2373 43.1214 53.2373Z" fill="#383A48"/>
<path d="M43.1214 67.5733C44.7197 67.5733 46.0155 66.2741 46.0155 64.6714C46.0155 63.0687 44.7197 61.7695 43.1214 61.7695C41.523 61.7695 40.2273 63.0687 40.2273 64.6714C40.2273 66.2741 41.523 67.5733 43.1214 67.5733Z" fill="#383A48"/>
<path d="M43.1214 81.9072C44.7197 81.9072 46.0155 80.608 46.0155 79.0054C46.0155 77.4027 44.7197 76.1035 43.1214 76.1035C41.523 76.1035 40.2273 77.4027 40.2273 79.0054C40.2273 80.608 41.523 81.9072 43.1214 81.9072Z" fill="#383A48"/>
<path d="M43.1214 96.1856C44.7197 96.1856 46.0155 94.8864 46.0155 93.2837C46.0155 91.6811 44.7197 90.3818 43.1214 90.3818C41.523 90.3818 40.2273 91.6811 40.2273 93.2837C40.2273 94.8864 41.523 96.1856 43.1214 96.1856Z" fill="#383A48"/>
<path d="M43.1214 110.521C44.7197 110.521 46.0155 109.221 46.0155 107.619C46.0155 106.016 44.7197 104.717 43.1214 104.717C41.523 104.717 40.2273 106.016 40.2273 107.619C40.2273 109.221 41.523 110.521 43.1214 110.521Z" fill="#383A48"/>
<path d="M43.1214 124.855C44.7197 124.855 46.0155 123.556 46.0155 121.954C46.0155 120.351 44.7197 119.052 43.1214 119.052C41.523 119.052 40.2273 120.351 40.2273 121.954C40.2273 123.556 41.523 124.855 43.1214 124.855Z" fill="#383A48"/>
<path d="M43.1214 139.133C44.7197 139.133 46.0155 137.834 46.0155 136.231C46.0155 134.628 44.7197 133.329 43.1214 133.329C41.523 133.329 40.2273 134.628 40.2273 136.231C40.2273 137.834 41.523 139.133 43.1214 139.133Z" fill="#383A48"/>
<path d="M43.1214 153.469C44.7197 153.469 46.0155 152.17 46.0155 150.567C46.0155 148.964 44.7197 147.665 43.1214 147.665C41.523 147.665 40.2273 148.964 40.2273 150.567C40.2273 152.17 41.523 153.469 43.1214 153.469Z" fill="#383A48"/>
<path d="M28.8243 38.96C30.4227 38.96 31.7184 37.6608 31.7184 36.0581C31.7184 34.4555 30.4227 33.1562 28.8243 33.1562C27.2259 33.1562 25.9302 34.4555 25.9302 36.0581C25.9302 37.6608 27.2259 38.96 28.8243 38.96Z" fill="#383A48"/>
<path d="M28.8243 53.2373C30.4227 53.2373 31.7184 51.9381 31.7184 50.3355C31.7184 48.7328 30.4227 47.4336 28.8243 47.4336C27.2259 47.4336 25.9302 48.7328 25.9302 50.3355C25.9302 51.9381 27.2259 53.2373 28.8243 53.2373Z" fill="#383A48"/>
<path d="M28.8243 67.5733C30.4227 67.5733 31.7184 66.2741 31.7184 64.6714C31.7184 63.0687 30.4227 61.7695 28.8243 61.7695C27.2259 61.7695 25.9302 63.0687 25.9302 64.6714C25.9302 66.2741 27.2259 67.5733 28.8243 67.5733Z" fill="#383A48"/>
<path d="M28.8243 81.9072C30.4227 81.9072 31.7184 80.608 31.7184 79.0054C31.7184 77.4027 30.4227 76.1035 28.8243 76.1035C27.2259 76.1035 25.9302 77.4027 25.9302 79.0054C25.9302 80.608 27.2259 81.9072 28.8243 81.9072Z" fill="#383A48"/>
<path d="M28.8243 96.1856C30.4227 96.1856 31.7184 94.8864 31.7184 93.2837C31.7184 91.6811 30.4227 90.3818 28.8243 90.3818C27.2259 90.3818 25.9302 91.6811 25.9302 93.2837C25.9302 94.8864 27.2259 96.1856 28.8243 96.1856Z" fill="#383A48"/>
<path d="M28.8243 110.521C30.4227 110.521 31.7184 109.221 31.7184 107.619C31.7184 106.016 30.4227 104.717 28.8243 104.717C27.2259 104.717 25.9302 106.016 25.9302 107.619C25.9302 109.221 27.2259 110.521 28.8243 110.521Z" fill="#383A48"/>
<path d="M28.8243 124.855C30.4227 124.855 31.7184 123.556 31.7184 121.954C31.7184 120.351 30.4227 119.052 28.8243 119.052C27.2259 119.052 25.9302 120.351 25.9302 121.954C25.9302 123.556 27.2259 124.855 28.8243 124.855Z" fill="#383A48"/>
<path d="M28.8243 139.133C30.4227 139.133 31.7184 137.834 31.7184 136.231C31.7184 134.628 30.4227 133.329 28.8243 133.329C27.2259 133.329 25.9302 134.628 25.9302 136.231C25.9302 137.834 27.2259 139.133 28.8243 139.133Z" fill="#383A48"/>
<path d="M14.5281 53.2373C16.1264 53.2373 17.4221 51.9381 17.4221 50.3355C17.4221 48.7328 16.1264 47.4336 14.5281 47.4336C12.9297 47.4336 11.634 48.7328 11.634 50.3355C11.634 51.9381 12.9297 53.2373 14.5281 53.2373Z" fill="#383A48"/>
<path d="M14.5281 67.5733C16.1264 67.5733 17.4221 66.2741 17.4221 64.6714C17.4221 63.0687 16.1264 61.7695 14.5281 61.7695C12.9297 61.7695 11.634 63.0687 11.634 64.6714C11.634 66.2741 12.9297 67.5733 14.5281 67.5733Z" fill="#383A48"/>
<path d="M14.5281 81.9072C16.1264 81.9072 17.4221 80.608 17.4221 79.0054C17.4221 77.4027 16.1264 76.1035 14.5281 76.1035C12.9297 76.1035 11.634 77.4027 11.634 79.0054C11.634 80.608 12.9297 81.9072 14.5281 81.9072Z" fill="#383A48"/>
<path d="M14.5281 96.1856C16.1264 96.1856 17.4221 94.8864 17.4221 93.2837C17.4221 91.6811 16.1264 90.3818 14.5281 90.3818C12.9297 90.3818 11.634 91.6811 11.634 93.2837C11.634 94.8864 12.9297 96.1856 14.5281 96.1856Z" fill="#383A48"/>
<path d="M14.5281 110.521C16.1264 110.521 17.4221 109.221 17.4221 107.619C17.4221 106.016 16.1264 104.717 14.5281 104.717C12.9297 104.717 11.634 106.016 11.634 107.619C11.634 109.221 12.9297 110.521 14.5281 110.521Z" fill="#383A48"/>
<path d="M14.5281 124.855C16.1264 124.855 17.4221 123.556 17.4221 121.954C17.4221 120.351 16.1264 119.052 14.5281 119.052C12.9297 119.052 11.634 120.351 11.634 121.954C11.634 123.556 12.9297 124.855 14.5281 124.855Z" fill="#383A48"/>
<path d="M167.161 267.279L77.2131 190.902C43.1788 162.116 42.5421 110.172 70.3252 75.2917C98.6293 39.7729 150.317 34.0272 185.741 62.4075L210.514 81.6758C214.705 84.9276 219.451 87.386 224.521 88.9305L316.958 116.614C331.081 120.677 313.89 127.351 309.897 141.512C305.903 155.673 316.553 171.982 302.43 167.919L252.652 153.062C231.757 146.678 191.413 194.791 157.61 144.879" fill="#F6E049"/>
<path d="M167.161 270.181C166.481 270.18 165.823 269.932 165.309 269.485L75.3614 193.108C58.5757 178.888 48.7359 158.459 47.694 135.535C46.7764 113.063 54.0151 91.0208 68.0683 73.4926C97.3563 36.813 150.955 30.8352 187.536 60.2021L212.251 79.4705C216.147 82.5254 220.586 84.8101 225.332 86.2028L317.769 113.887C320.663 114.699 324.078 116.092 325.062 119.226C326.162 122.766 323.441 125.958 320.374 129.731C317.595 133.097 314.065 137.334 312.618 142.383C311.228 147.374 311.807 152.772 312.386 157.531C313.023 162.87 313.544 167.513 310.534 170.067C307.929 172.272 304.167 171.576 301.562 170.821L251.784 155.964C245.938 154.165 237.603 157.705 227.937 161.767C218.039 165.888 206.405 170.821 194.308 170.821C181.227 170.821 167.682 165.134 155.18 146.678C154.96 146.368 154.805 146.016 154.724 145.645C154.643 145.273 154.637 144.889 154.707 144.515C154.777 144.141 154.922 143.785 155.133 143.469C155.343 143.152 155.615 142.882 155.932 142.673C156.244 142.459 156.594 142.309 156.964 142.232C157.333 142.154 157.714 142.15 158.085 142.22C158.456 142.29 158.81 142.433 159.126 142.64C159.442 142.847 159.714 143.115 159.926 143.428C181.342 175.058 204.9 165.134 225.622 156.428C236.33 151.959 245.591 148.071 253.405 150.45L303.125 165.308C305.961 166.12 306.714 165.714 306.714 165.714C307.35 164.96 306.829 160.781 306.54 158.285C305.961 153.236 305.209 146.968 306.945 140.874C308.74 134.606 312.676 129.905 315.801 126.074C317.248 124.333 319.216 121.954 319.39 121.025C319.158 120.793 318.406 120.213 316.033 119.516L223.712 91.7164C218.297 90.1005 213.232 87.4824 208.778 83.9974L184.005 64.729C167.593 51.558 146.636 45.4614 125.742 47.7795C104.847 50.0977 85.7266 60.6408 72.583 77.0909C59.3282 93.7477 52.4982 114.351 53.4243 135.244C54.3504 156.544 63.4957 175.522 79.0658 188.639L169.014 265.016C169.304 265.259 169.544 265.557 169.719 265.893C169.894 266.229 170.001 266.597 170.033 266.975C170.065 267.352 170.023 267.733 169.907 268.094C169.792 268.455 169.606 268.79 169.361 269.079C169.105 269.422 168.774 269.7 168.392 269.891C168.01 270.083 167.588 270.182 167.161 270.181Z" fill="#383A48"/>
<path d="M334.034 171.402L283.793 125.553C279.451 121.606 272.853 119.168 266.254 119.11C265.656 119.113 265.071 119.295 264.576 119.633C263.65 120.271 262.782 120.91 261.913 121.49C255.894 125.727 249.7 130.137 242.986 135.013C224.406 148.535 210.92 158.982 209.878 159.795C205.089 163.127 201.391 167.807 199.253 173.245C197.114 178.683 196.631 184.634 197.863 190.347C199.096 196.06 201.989 201.278 206.177 205.344C210.366 209.409 215.662 212.139 221.396 213.189C223.172 213.516 224.974 213.672 226.779 213.653C232.764 213.66 238.606 211.816 243.507 208.372L285.876 178.25C286.601 177.745 287.377 177.317 288.192 176.974C293.401 174.826 301.62 175.407 310.302 176.045C317.132 176.509 324.888 177.032 332.413 176.393C332.975 176.346 333.511 176.133 333.954 175.783C334.396 175.432 334.726 174.958 334.902 174.42C335.049 173.886 335.045 173.321 334.892 172.788C334.739 172.256 334.442 171.776 334.034 171.402Z" fill="#383A48"/>
<path d="M354.755 148.826C332.239 170.009 295.426 151.553 281.361 161.652L238.992 191.773C233.181 195.798 226.014 197.344 219.067 196.071C212.12 194.797 205.962 190.809 201.948 184.983C197.933 179.157 196.392 171.97 197.662 165.005C198.932 158.039 202.909 151.864 208.72 147.839C208.72 147.839 262.897 105.704 309.202 77.5557" fill="#F6E049"/>
<path d="M223.943 199.434C222.139 199.423 220.339 199.268 218.56 198.969C212.827 197.918 207.534 195.19 203.345 191.127C199.157 187.065 196.262 181.85 195.024 176.141C193.786 170.431 194.261 164.482 196.389 159.043C198.517 153.603 202.204 148.917 206.983 145.575C209.125 143.892 262.492 102.627 307.697 75.1177C308.024 74.9173 308.387 74.7836 308.766 74.7244C309.144 74.6651 309.531 74.6814 309.903 74.7724C310.276 74.8634 310.626 75.0272 310.935 75.2545C311.244 75.4818 311.505 75.7681 311.703 76.0968C311.902 76.4256 312.033 76.7904 312.09 77.1703C312.148 77.5502 312.129 77.9377 312.037 78.3105C311.944 78.6834 311.779 79.0342 311.551 79.3428C311.323 79.6514 311.036 79.9118 310.707 80.1089C265.096 107.793 211.035 149.754 210.514 150.16L210.398 150.276C207.837 152.052 205.649 154.316 203.96 156.94C202.272 159.563 201.115 162.495 200.556 165.567C199.997 168.639 200.047 171.791 200.703 174.843C201.358 177.896 202.608 180.789 204.379 183.357C206.15 185.926 208.408 188.119 211.025 189.813C213.641 191.506 216.565 192.666 219.628 193.227C222.692 193.787 225.836 193.737 228.88 193.079C231.924 192.422 234.81 191.169 237.371 189.393L279.683 159.33C286.339 154.571 296.295 155.267 307.871 156.08C323.152 157.124 340.4 158.343 352.787 146.736C353.347 146.205 354.095 145.919 354.866 145.94C355.636 145.962 356.367 146.29 356.897 146.852C357.426 147.414 357.711 148.163 357.69 148.936C357.668 149.709 357.341 150.441 356.781 150.973C342.6 164.321 323.152 162.928 307.524 161.884C297.047 161.129 288.018 160.549 283.098 164.089L240.728 194.21C235.777 197.589 229.932 199.408 223.943 199.434Z" fill="#383A48"/>
<path d="M270.595 304.773C262.665 296.067 248.889 295.719 239.86 304.018L230.483 312.782C221.396 321.081 220.469 334.836 228.341 343.541C236.271 352.247 250.047 352.595 259.076 344.296L268.395 335.532C277.541 327.291 278.467 313.478 270.595 304.773Z" fill="#F6E049"/>
<path d="M243.796 353.234C240.488 353.252 237.212 352.575 234.181 351.246C231.15 349.916 228.431 347.964 226.2 345.515C217.228 335.648 218.27 319.978 228.515 310.634L237.834 301.87C248.137 292.468 263.765 292.933 272.737 302.799C281.708 312.665 280.666 328.336 270.421 337.68L261.102 346.443C256.378 350.789 250.207 353.21 243.796 353.234ZM255.083 300.942C250.152 300.964 245.406 302.826 241.77 306.165L232.451 314.929C224.521 322.125 223.653 334.139 230.483 341.626C237.313 349.113 249.295 349.403 257.167 342.206L266.485 333.443C274.415 326.246 275.283 314.232 268.453 306.746C266.755 304.892 264.688 303.417 262.384 302.417C260.08 301.417 257.593 300.915 255.083 300.942Z" fill="#383A48"/>
<path d="M234.998 279.177C226.663 270.007 212.309 269.601 202.816 278.19L188.288 291.539C178.853 300.187 177.927 314.58 186.204 323.75C194.539 332.92 208.894 333.326 218.386 324.736L232.915 311.388C242.407 302.74 243.333 288.347 234.998 279.177Z" fill="#F6E049"/>
<path d="M202.586 333.79C199.112 333.81 195.672 333.097 192.491 331.697C189.31 330.297 186.458 328.242 184.121 325.665C174.745 315.334 175.786 299.026 186.379 289.392L200.907 276.043C205.96 271.386 212.626 268.887 219.487 269.079C222.834 269.162 226.129 269.924 229.173 271.321C232.217 272.717 234.947 274.719 237.198 277.203C239.449 279.688 241.174 282.605 242.268 285.777C243.363 288.949 243.804 292.311 243.566 295.66C243.094 302.509 240.005 308.913 234.941 313.535L220.413 326.884C215.53 331.322 209.176 333.784 202.586 333.79ZM218.677 274.882C213.544 274.885 208.602 276.834 204.843 280.338L190.315 293.686C182.038 301.231 181.227 313.825 188.405 321.776C195.64 329.728 208.2 330.076 216.477 322.531L231.005 309.182C234.981 305.597 237.409 300.602 237.777 295.253C237.964 292.686 237.63 290.107 236.794 287.673C235.959 285.239 234.639 283 232.915 281.092C231.181 279.193 229.083 277.664 226.746 276.597C224.408 275.53 221.881 274.947 219.313 274.882H218.677Z" fill="#383A48"/>
<path d="M176.075 208.139C171.938 203.596 166.175 200.881 160.046 200.587C153.917 200.293 147.922 202.445 143.372 206.572L123.634 225.318C121.342 227.357 119.477 229.832 118.146 232.599C116.815 235.366 116.044 238.37 115.88 241.438C115.715 244.505 116.16 247.575 117.187 250.469C118.214 253.364 119.804 256.024 121.865 258.298C123.925 260.571 126.416 262.412 129.191 263.714C131.966 265.015 134.971 265.751 138.033 265.879C141.094 266.008 144.15 265.526 147.024 264.461C149.898 263.396 152.532 261.77 154.775 259.677L174.512 240.931C176.768 238.884 178.598 236.411 179.898 233.653C181.197 230.895 181.941 227.907 182.086 224.86C182.232 221.814 181.775 218.768 180.744 215.899C179.712 213.029 178.126 210.392 176.075 208.139Z" fill="#F6E049"/>
<path d="M139.263 268.615C134.009 268.623 128.876 267.037 124.538 264.066C120.2 261.095 116.86 256.877 114.957 251.968C113.053 247.058 112.675 241.686 113.873 236.557C115.071 231.428 117.787 226.782 121.667 223.23L141.347 204.484C141.362 204.484 141.377 204.478 141.388 204.467C141.398 204.456 141.404 204.441 141.404 204.426C146.513 199.779 153.251 197.353 160.141 197.68C167.031 198.006 173.51 201.058 178.159 206.167C182.793 211.29 185.213 218.045 184.887 224.954C184.562 231.862 181.518 238.359 176.423 243.021L156.743 261.767C156.735 261.767 156.728 261.768 156.721 261.771C156.714 261.774 156.708 261.778 156.702 261.784C156.697 261.789 156.692 261.796 156.69 261.803C156.687 261.81 156.685 261.817 156.685 261.825C151.933 266.2 145.714 268.624 139.263 268.615ZM145.34 208.721L125.661 227.467C125.645 227.467 125.631 227.473 125.62 227.484C125.609 227.495 125.603 227.509 125.603 227.525C123.635 229.318 122.039 231.482 120.906 233.895C119.774 236.307 119.127 238.92 119.004 241.583C118.88 244.246 119.282 246.908 120.186 249.415C121.09 251.923 122.478 254.227 124.272 256.195C127.885 260.171 132.923 262.55 138.281 262.811C143.64 263.072 148.884 261.194 152.865 257.588L172.545 238.842C172.552 238.842 172.56 238.841 172.567 238.838C172.574 238.835 172.58 238.83 172.586 238.825C172.591 238.82 172.595 238.813 172.598 238.806C172.601 238.799 172.603 238.792 172.603 238.784C174.569 236.99 176.163 234.825 177.294 232.412C178.425 230 179.071 227.388 179.194 224.725C179.318 222.063 178.917 219.402 178.014 216.895C177.112 214.387 175.725 212.083 173.934 210.114C172.148 208.139 169.992 206.536 167.588 205.397C165.184 204.258 162.58 203.605 159.925 203.476C157.27 203.346 154.615 203.743 152.112 204.643C149.61 205.543 147.309 206.929 145.34 208.721Z" fill="#383A48"/>
<path d="M202.18 246.502C198.043 241.958 192.28 239.243 186.151 238.949C180.022 238.656 174.027 240.808 169.477 244.935L149.739 263.681C147.447 265.719 145.582 268.194 144.251 270.961C142.92 273.728 142.149 276.732 141.985 279.8C141.82 282.867 142.265 285.937 143.292 288.832C144.319 291.726 145.909 294.387 147.97 296.66C150.03 298.934 152.521 300.774 155.296 302.076C158.071 303.377 161.076 304.113 164.138 304.242C167.199 304.37 170.255 303.888 173.129 302.823C176.003 301.758 178.637 300.132 180.88 298.039L200.617 279.293C202.873 277.246 204.703 274.773 206.002 272.015C207.302 269.257 208.046 266.269 208.191 263.223C208.337 260.176 207.88 257.131 206.849 254.261C205.817 251.392 204.23 248.755 202.18 246.502Z" fill="#F6E049"/>
<path d="M165.367 306.978C160.113 306.985 154.98 305.4 150.642 302.428C146.304 299.457 142.964 295.24 141.06 290.33C139.157 285.42 138.779 280.048 139.977 274.919C141.174 269.79 143.891 265.144 147.771 261.592L167.451 242.846C167.466 242.846 167.481 242.84 167.491 242.829C167.502 242.818 167.508 242.804 167.508 242.788C172.613 238.124 179.356 235.685 186.254 236.006C193.152 236.327 199.641 239.382 204.292 244.5C208.943 249.618 211.377 256.379 211.056 263.296C210.736 270.213 207.689 276.719 202.585 281.383L182.905 300.129C182.897 300.129 182.89 300.131 182.883 300.134C182.876 300.137 182.869 300.141 182.864 300.146C182.859 300.152 182.854 300.158 182.851 300.165C182.848 300.172 182.847 300.18 182.847 300.187C178.073 304.564 171.836 306.987 165.367 306.978ZM171.502 247.083L151.765 265.829C151.757 265.829 151.75 265.831 151.742 265.834C151.735 265.836 151.729 265.841 151.724 265.846C151.718 265.851 151.714 265.858 151.711 265.865C151.708 265.872 151.707 265.88 151.707 265.887C149.739 267.68 148.143 269.845 147.01 272.257C145.878 274.669 145.231 277.282 145.108 279.945C144.984 282.609 145.386 285.27 146.29 287.778C147.194 290.285 148.582 292.589 150.375 294.558C153.989 298.534 159.027 300.912 164.385 301.174C169.744 301.435 174.988 299.557 178.969 295.95L198.649 277.204C198.664 277.204 198.679 277.198 198.69 277.187C198.7 277.177 198.706 277.162 198.706 277.146C200.675 275.354 202.271 273.189 203.403 270.777C204.535 268.364 205.182 265.751 205.306 263.088C205.429 260.425 205.028 257.763 204.124 255.256C203.22 252.748 201.831 250.444 200.038 248.476C198.258 246.501 196.107 244.899 193.708 243.76C191.309 242.621 188.71 241.968 186.058 241.838C183.407 241.709 180.757 242.106 178.259 243.006C175.761 243.906 173.465 245.291 171.502 247.083Z" fill="#383A48"/>
</svg>
