<svg width="220" height="75" viewBox="0 0 220 75" fill="none" xmlns="http://www.w3.org/2000/svg">
<g clip-path="url(#clip0_1462:29821)">
<path d="M22.7772 24.2757L34.8729 21.4197L30.6931 34.483L37.2881 37.6437L18.5862 52.2864L20.6601 60.6829L2.18485 57.6605V75H0V0L6.92365 10.7723L15.2342 7.83691L12.42 25.5116L22.135 16.6195L22.7772 24.2757Z" fill="#FF3D00"/>
<path d="M70.2833 9.48268C69.7241 4.95533 66.2121 2.35187 61.562 2.35187C56.2547 2.35187 52.2031 6.0082 52.2031 12.4211C52.2031 18.8149 56.1861 22.4904 61.562 22.4904C66.7124 22.4904 69.8222 19.15 70.2833 15.5415L65.9864 15.5223C65.5842 17.6185 63.8968 18.8245 61.6307 18.8245C58.5797 18.8245 56.5098 16.6135 56.5098 12.4211C56.5098 8.34366 58.5503 6.01778 61.6601 6.01778C63.9851 6.01778 65.6627 7.32908 65.9864 9.48268H70.2833Z" fill="black"/>
<path d="M77.5477 22.5C79.7746 22.5 81.2167 21.5524 81.9525 20.1837H82.0702V22.2224H86.0335V12.3063C86.0335 8.8031 82.9923 7.32908 79.6373 7.32908C76.0271 7.32908 73.6531 9.01367 73.0743 11.6937L76.9395 12C77.224 11.0237 78.1167 10.3058 79.6176 10.3058C81.0401 10.3058 81.8544 11.0046 81.8544 12.2106V12.268C81.8544 13.2156 80.8243 13.34 78.205 13.5889C75.2227 13.8569 72.5445 14.8332 72.5445 18.1162C72.5445 21.026 74.6733 22.5 77.5477 22.5ZM78.7445 19.686C77.4594 19.686 76.5373 19.1021 76.5373 17.9822C76.5373 16.8336 77.5085 16.2689 78.98 16.0679C79.8923 15.9435 81.3835 15.7329 81.8838 15.4075V16.9676C81.8838 18.5087 80.579 19.686 78.7445 19.686Z" fill="black"/>
<path d="M93.4549 13.7229C93.4647 11.8277 94.6223 10.7174 96.3097 10.7174C97.9872 10.7174 98.9976 11.7894 98.9878 13.5889V22.2224H103.167V12.8614C103.167 9.43482 101.107 7.32908 97.9676 7.32908C95.7309 7.32908 94.1122 8.40109 93.4353 10.1144H93.2587V7.52051H89.2758V22.2224H93.4549V13.7229Z" fill="black"/>
<path d="M110.758 22.5C112.984 22.5 114.427 21.5524 115.162 20.1837H115.28V22.2224H119.243V12.3063C119.243 8.8031 116.202 7.32908 112.847 7.32908C109.237 7.32908 106.863 9.01367 106.284 11.6937L110.149 12C110.434 11.0237 111.327 10.3058 112.828 10.3058C114.25 10.3058 115.064 11.0046 115.064 12.2106V12.268C115.064 13.2156 114.034 13.34 111.415 13.5889C108.433 13.8569 105.754 14.8332 105.754 18.1162C105.754 21.026 107.883 22.5 110.758 22.5ZM111.954 19.686C110.669 19.686 109.747 19.1021 109.747 17.9822C109.747 16.8336 110.718 16.2689 112.19 16.0679C113.102 15.9435 114.593 15.7329 115.094 15.4075V16.9676C115.094 18.5087 113.789 19.686 111.954 19.686Z" fill="black"/>
<path d="M128.038 22.4617C130.471 22.4617 131.737 21.093 132.315 19.8678H132.492V22.2224H136.612V2.61987H132.443V9.98997H132.315C131.756 8.79353 130.55 7.32908 128.028 7.32908C124.722 7.32908 121.926 9.83683 121.926 14.8906C121.926 19.8104 124.605 22.4617 128.038 22.4617ZM129.363 19.217C127.312 19.217 126.194 17.4366 126.194 14.8715C126.194 12.3254 127.293 10.5738 129.363 10.5738C131.393 10.5738 132.531 12.2489 132.531 14.8715C132.531 17.4941 131.374 19.217 129.363 19.217Z" fill="black"/>
<path d="M140.048 22.2224H144.227V7.52051H140.048V22.2224ZM142.148 5.62534C143.394 5.62534 144.414 4.6969 144.414 3.55788C144.414 2.42844 143.394 1.5 142.148 1.5C140.912 1.5 139.891 2.42844 139.891 3.55788C139.891 4.6969 140.912 5.62534 142.148 5.62534Z" fill="black"/>
<path d="M151.872 22.5C154.099 22.5 155.541 21.5524 156.277 20.1837H156.395V22.2224H160.358V12.3063C160.358 8.8031 157.317 7.32908 153.962 7.32908C150.351 7.32908 147.977 9.01367 147.399 11.6937L151.264 12C151.548 11.0237 152.441 10.3058 153.942 10.3058C155.364 10.3058 156.179 11.0046 156.179 12.2106V12.268C156.179 13.2156 155.149 13.34 152.529 13.5889C149.547 13.8569 146.869 14.8332 146.869 18.1162C146.869 21.026 148.998 22.5 151.872 22.5ZM153.069 19.686C151.784 19.686 150.862 19.1021 150.862 17.9822C150.862 16.8336 151.833 16.2689 153.304 16.0679C154.217 15.9435 155.708 15.7329 156.208 15.4075V16.9676C156.208 18.5087 154.903 19.686 153.069 19.686Z" fill="black"/>
<path d="M167.779 13.7229C167.789 11.8277 168.947 10.7174 170.634 10.7174C172.312 10.7174 173.322 11.7894 173.312 13.5889V22.2224H177.491V12.8614C177.491 9.43482 175.431 7.32908 172.292 7.32908C170.055 7.32908 168.436 8.40109 167.76 10.1144H167.583V7.52051H163.6V22.2224H167.779V13.7229Z" fill="black"/>
<path d="M57.8743 25.1194H53.6953V44.713H57.8743V25.1194Z" fill="black"/>
<path d="M65.3468 36.2173C65.3564 34.323 66.4952 33.2132 68.1553 33.2132C69.8056 33.2132 70.7997 34.2847 70.79 36.0834V44.713H74.9015V35.3563C74.9015 31.9312 72.8747 29.8264 69.7863 29.8264C67.5858 29.8264 65.9934 30.8979 65.3275 32.6105H65.1537V30.0178H61.2353V44.713H65.3468V36.2173Z" fill="black"/>
<path d="M86.0269 30.0178H83.2377V26.497H79.1263V30.0178H77.0995V33.0793H79.1263V40.733C79.107 43.6128 81.0855 45.0383 84.0677 44.9139C85.1294 44.8756 85.8821 44.6651 86.2971 44.5312L85.6505 41.4984C85.4478 41.5367 85.0135 41.6323 84.6275 41.6323C83.8071 41.6323 83.2377 41.3262 83.2377 40.1973V33.0793H86.0269V30.0178Z" fill="black"/>
<path d="M95.3017 45C98.9692 45 101.44 43.2301 102.019 40.5034L98.2164 40.2547C97.8014 41.374 96.7398 41.9576 95.3693 41.9576C93.3136 41.9576 92.0107 40.6087 92.0107 38.4178V38.4082H102.106V37.2888C102.106 32.2948 99.0561 29.8264 95.1377 29.8264C90.7753 29.8264 87.9475 32.8975 87.9475 37.4323C87.9475 42.0916 90.7367 45 95.3017 45ZM92.0107 35.8825C92.0975 34.2082 93.3811 32.8688 95.2052 32.8688C96.9907 32.8688 98.2261 34.1317 98.2357 35.8825H92.0107Z" fill="black"/>
<path d="M104.789 44.713H108.9V36.3991C108.9 34.5909 110.232 33.3472 112.047 33.3472C112.616 33.3472 113.398 33.4428 113.784 33.5672V29.9508C113.417 29.8647 112.906 29.8073 112.491 29.8073C110.831 29.8073 109.47 30.764 108.929 32.5818H108.775V30.0178H104.789V44.713Z" fill="black"/>
<path d="M120.021 36.2173C120.031 34.323 121.169 33.2132 122.829 33.2132C124.48 33.2132 125.474 34.2847 125.464 36.0834V44.713H129.576V35.3563C129.576 31.9312 127.549 29.8264 124.461 29.8264C122.26 29.8264 120.668 30.8979 120.002 32.6105H119.828V30.0178H115.91V44.713H120.021V36.2173Z" fill="black"/>
<path d="M137.043 44.9904C139.234 44.9904 140.653 44.0433 141.377 42.6752H141.493V44.713H145.392V34.8014C145.392 31.2998 142.4 29.8264 139.099 29.8264C135.547 29.8264 133.212 31.5102 132.642 34.1891L136.445 34.4952C136.725 33.5194 137.603 32.8018 139.08 32.8018C140.479 32.8018 141.28 33.5002 141.28 34.7057V34.7631C141.28 35.7102 140.267 35.8346 137.69 36.0834C134.756 36.3513 132.121 37.3271 132.121 40.6087C132.121 43.5171 134.215 44.9904 137.043 44.9904ZM138.221 42.1777C136.956 42.1777 136.049 41.5941 136.049 40.4747C136.049 39.3266 137.005 38.7622 138.452 38.5613C139.35 38.4369 140.817 38.2264 141.309 37.9011V39.4606C141.309 41.0009 140.026 42.1777 138.221 42.1777Z" fill="black"/>
<path d="M156.466 30.0178H153.677V26.497H149.566V30.0178H147.539V33.0793H149.566V40.733C149.546 43.6128 151.525 45.0383 154.507 44.9139C155.569 44.8756 156.322 44.6651 156.737 44.5312L156.09 41.4984C155.887 41.5367 155.453 41.6323 155.067 41.6323C154.247 41.6323 153.677 41.3262 153.677 40.1973V33.0793H156.466V30.0178Z" fill="black"/>
<path d="M159.145 44.713H163.256V30.0178H159.145V44.713ZM161.21 28.1235C162.436 28.1235 163.439 27.1954 163.439 26.0569C163.439 24.928 162.436 24 161.21 24C159.994 24 158.99 24.928 158.99 26.0569C158.99 27.1954 159.994 28.1235 161.21 28.1235Z" fill="black"/>
<path d="M173.247 45C177.745 45 180.544 41.9481 180.544 37.4228C180.544 32.8688 177.745 29.8264 173.247 29.8264C168.75 29.8264 165.951 32.8688 165.951 37.4228C165.951 41.9481 168.75 45 173.247 45ZM173.267 41.8428C171.192 41.8428 170.13 39.9581 170.13 37.3941C170.13 34.8301 171.192 32.9358 173.267 32.9358C175.303 32.9358 176.365 34.8301 176.365 37.3941C176.365 39.9581 175.303 41.8428 173.267 41.8428Z" fill="black"/>
<path d="M187.329 36.2173C187.338 34.323 188.477 33.2132 190.137 33.2132C191.787 33.2132 192.782 34.2847 192.772 36.0834V44.713H196.883V35.3563C196.883 31.9312 194.857 29.8264 191.768 29.8264C189.568 29.8264 187.975 30.8979 187.309 32.6105H187.136V30.0178H183.217V44.713H187.329V36.2173Z" fill="black"/>
<path d="M204.351 44.9904C206.542 44.9904 207.961 44.0433 208.684 42.6752H208.8V44.713H212.699V34.8014C212.699 31.2998 209.707 29.8264 206.407 29.8264C202.855 29.8264 200.519 31.5102 199.95 34.1891L203.753 34.4952C204.032 33.5194 204.911 32.8018 206.387 32.8018C207.787 32.8018 208.588 33.5002 208.588 34.7057V34.7631C208.588 35.7102 207.574 35.8346 204.998 36.0834C202.064 36.3513 199.429 37.3271 199.429 40.6087C199.429 43.5171 201.523 44.9904 204.351 44.9904ZM205.528 42.1777C204.264 42.1777 203.357 41.5941 203.357 40.4747C203.357 39.3266 204.312 38.7622 205.76 38.5613C206.658 38.4369 208.125 38.2264 208.617 37.9011V39.4606C208.617 41.0009 207.333 42.1777 205.528 42.1777Z" fill="black"/>
<path d="M220 25.1194H215.889V44.713H220V25.1194Z" fill="black"/>
<path d="M148.892 54.4135C148.346 49.8654 144.92 47.25 140.384 47.25C135.206 47.25 131.254 50.9231 131.254 57.3654C131.254 63.7885 135.139 67.4808 140.384 67.4808C145.408 67.4808 148.442 64.125 148.892 60.5L144.7 60.4808C144.307 62.5865 142.661 63.7981 140.451 63.7981C137.474 63.7981 135.455 61.5769 135.455 57.3654C135.455 53.2692 137.446 50.9327 140.479 50.9327C142.748 50.9327 144.384 52.25 144.7 54.4135H148.892Z" fill="black"/>
<path d="M158.486 67.5C162.122 67.5 164.572 65.7212 165.146 62.9808L161.376 62.7308C160.964 63.8558 159.912 64.4423 158.553 64.4423C156.514 64.4423 155.222 63.0865 155.222 60.8846V60.875H165.232V59.75C165.232 54.7308 162.208 52.25 158.323 52.25C153.997 52.25 151.193 55.3365 151.193 59.8942C151.193 64.5769 153.959 67.5 158.486 67.5ZM155.222 58.3365C155.308 56.6538 156.581 55.3077 158.39 55.3077C160.16 55.3077 161.385 56.5769 161.395 58.3365H155.222Z" fill="black"/>
<path d="M171.97 58.6731C171.979 56.7692 173.109 55.6538 174.755 55.6538C176.391 55.6538 177.377 56.7308 177.367 58.5385V67.2115H181.444V57.8077C181.444 54.3654 179.434 52.25 176.372 52.25C174.19 52.25 172.611 53.3269 171.951 55.0481H171.778V52.4423H167.893V67.2115H171.97V58.6731Z" fill="black"/>
<path d="M192.476 52.4423H189.71V48.9038H185.634V52.4423H183.624V55.5192H185.634V63.2115C185.614 66.1058 187.576 67.5385 190.533 67.4135C191.586 67.375 192.333 67.1635 192.744 67.0288L192.103 63.9808C191.902 64.0192 191.471 64.1154 191.088 64.1154C190.275 64.1154 189.71 63.8077 189.71 62.6731V55.5192H192.476V52.4423Z" fill="black"/>
<path d="M201.673 67.5C205.31 67.5 207.76 65.7212 208.334 62.9808L204.563 62.7308C204.152 63.8558 203.099 64.4423 201.74 64.4423C199.702 64.4423 198.41 63.0865 198.41 60.8846V60.875H208.42V59.75C208.42 54.7308 205.396 52.25 201.51 52.25C197.185 52.25 194.381 55.3365 194.381 59.8942C194.381 64.5769 197.146 67.5 201.673 67.5ZM198.41 58.3365C198.496 56.6538 199.769 55.3077 201.577 55.3077C203.348 55.3077 204.573 56.5769 204.582 58.3365H198.41Z" fill="black"/>
<path d="M211.08 67.2115H215.157V58.8558C215.157 57.0385 216.478 55.7885 218.277 55.7885C218.842 55.7885 219.617 55.8846 220 56.0096V52.375C219.636 52.2885 219.129 52.2308 218.717 52.2308C217.071 52.2308 215.722 53.1923 215.186 55.0192H215.033V52.4423H211.08V67.2115Z" fill="black"/>
<path d="M55.5325 54.0736H56.3539C56.3291 53.1617 55.5298 52.5 54.3832 52.5C53.2505 52.5 52.3823 53.1533 52.3823 54.1347C52.3823 54.9271 52.9445 55.3914 53.8513 55.6388L54.5183 55.8223C55.1219 55.9836 55.5877 56.1837 55.5877 56.6897C55.5877 57.2458 55.0612 57.6128 54.3364 57.6128C53.6804 57.6128 53.1347 57.3181 53.0851 56.6981H52.2307C52.2858 57.7295 53.0768 58.3662 54.3419 58.3662C55.6676 58.3662 56.431 57.6628 56.431 56.6981C56.431 55.6722 55.5243 55.2746 54.8077 55.0967L54.2564 54.9521C53.8155 54.8381 53.2284 54.6296 53.2312 54.0847C53.2312 53.601 53.6694 53.2423 54.3639 53.2423C55.0116 53.2423 55.4719 53.5481 55.5325 54.0736Z" fill="black"/>
<path d="M57.4487 58.2717H58.3004V56.2699H59.4579C60.7671 56.2699 61.4148 55.472 61.4148 54.4211C61.4148 53.373 60.7726 52.5778 59.4607 52.5778H57.4487V58.2717ZM58.3004 55.5415V53.3146H59.3698C60.2131 53.3146 60.5576 53.7761 60.5576 54.4211C60.5576 55.0661 60.2131 55.5415 59.3808 55.5415H58.3004Z" fill="black"/>
<path d="M67.3164 55.4247C67.3164 53.6037 66.236 52.5 64.7752 52.5C63.3089 52.5 62.2313 53.6037 62.2313 55.4247C62.2313 57.243 63.3089 58.3495 64.7752 58.3495C66.236 58.3495 67.3164 57.2458 67.3164 55.4247ZM66.473 55.4247C66.473 56.8121 65.7454 57.5655 64.7752 57.5655C63.8023 57.5655 63.0774 56.8121 63.0774 55.4247C63.0774 54.0374 63.8023 53.284 64.7752 53.284C65.7454 53.284 66.473 54.0374 66.473 55.4247Z" fill="black"/>
<path d="M68.3782 58.2717H69.2298V56.117H70.3874C70.4067 56.117 70.4232 56.117 70.4425 56.117L71.5891 58.2717H72.5592L71.3079 55.9669C71.9997 55.7083 72.3442 55.1273 72.3442 54.3627C72.3442 53.3146 71.6993 52.5778 70.3901 52.5778H68.3782V58.2717ZM69.2298 55.3775V53.3146H70.2992C71.1398 53.3146 71.4871 53.7177 71.4871 54.3627C71.4871 55.0049 71.1398 55.3775 70.3102 55.3775H69.2298Z" fill="black"/>
<path d="M73.1022 53.3174H74.8606V58.2717H75.7095V53.3174H77.4706V52.5778H73.1022V53.3174Z" fill="black"/>
<path d="M81.5146 54.0736H82.3359C82.3111 53.1617 81.5118 52.5 80.3653 52.5C79.2325 52.5 78.3643 53.1533 78.3643 54.1347C78.3643 54.9271 78.9266 55.3914 79.8333 55.6388L80.5003 55.8223C81.1039 55.9836 81.5697 56.1837 81.5697 56.6897C81.5697 57.2458 81.0433 57.6128 80.3184 57.6128C79.6624 57.6128 79.1167 57.3181 79.0671 56.6981H78.2127C78.2678 57.7295 79.0588 58.3662 80.3239 58.3662C81.6496 58.3662 82.4131 57.6628 82.4131 56.6981C82.4131 55.6722 81.5063 55.2746 80.7897 55.0967L80.2385 54.9521C79.7975 54.8381 79.2104 54.6296 79.2132 54.0847C79.2132 53.601 79.6514 53.2423 80.346 53.2423C80.9937 53.2423 81.4539 53.5481 81.5146 54.0736Z" fill="black"/>
<path d="M54.0304 67.4861C54.5403 67.4861 55.1053 67.3137 55.4857 66.9551L55.866 67.4055H56.7976L55.9956 66.438C56.2353 66.1155 56.4641 65.6095 56.4641 64.8199H55.7199C55.7199 65.2008 55.6317 65.54 55.4857 65.8236L54.3557 64.4613L54.7415 64.1749C55.2101 63.8302 55.4912 63.4326 55.4912 62.8905C55.4912 62.226 54.9593 61.6505 54.0911 61.6505C53.2312 61.6505 52.6662 62.2093 52.6662 62.9961C52.6662 63.5049 52.9307 63.908 53.2863 64.3445C52.6413 64.7949 52.2031 65.2147 52.2031 65.8931C52.2031 66.8077 52.8949 67.4861 54.0304 67.4861ZM55.0226 66.4046C54.7305 66.6493 54.3805 66.7827 54.0332 66.7827C53.4213 66.7827 53.0217 66.3629 53.0217 65.8708C53.0217 65.6957 53.1678 65.3454 53.6088 65.0173L53.7576 64.9061L55.0226 66.4046ZM53.9009 63.908C53.6446 63.5911 53.4434 63.2991 53.4434 63.01C53.4434 62.6792 53.7135 62.3455 54.1104 62.3455C54.4907 62.3455 54.7388 62.6458 54.7388 62.9127C54.7388 63.2519 54.5541 63.4576 54.2482 63.6606L53.9009 63.908Z" fill="black"/>
<path d="M59.5634 67.4055H63.1353V66.6659H60.415V64.9228H62.9176V64.186H60.415V62.4512H63.1022V61.7117H59.5634V67.4055Z" fill="black"/>
<path d="M66.0671 67.4055C67.787 67.4055 68.7819 66.3295 68.7819 64.5502C68.7819 62.7793 67.787 61.7117 66.125 61.7117H64.2398V67.4055H66.0671ZM65.0915 66.6548V62.4623H66.0727C67.3074 62.4623 67.9441 63.2074 67.9441 64.5502C67.9441 65.8986 67.3074 66.6548 66.0203 66.6548H65.0915Z" fill="black"/>
<path d="M73.4708 61.7117V65.3871C73.4708 66.16 72.9416 66.716 72.0817 66.716C71.2246 66.716 70.6926 66.16 70.6926 65.3871V61.7117H69.841V65.4566C69.841 66.652 70.7284 67.5 72.0817 67.5C73.435 67.5 74.3252 66.652 74.3252 65.4566V61.7117H73.4708Z" fill="black"/>
<path d="M80.2516 63.5633C80.0586 62.3455 79.1133 61.6338 77.9199 61.6338C76.4591 61.6338 75.3815 62.7376 75.3815 64.5586C75.3815 66.3796 76.4536 67.4833 77.9199 67.4833C79.1601 67.4833 80.0669 66.6993 80.2516 65.5733L79.3917 65.5706C79.2456 66.299 78.6392 66.6993 77.9254 66.6993C76.958 66.6993 76.2276 65.9514 76.2276 64.5586C76.2276 63.1768 76.9552 62.4178 77.9281 62.4178C78.6475 62.4178 79.2511 62.8265 79.3917 63.5633H80.2516Z" fill="black"/>
<path d="M81.7096 67.4055L82.2277 65.8986H84.4326L84.948 67.4055H85.852L83.8208 61.7117H82.8368L80.8055 67.4055H81.7096ZM82.4758 65.1758L83.3081 62.7459H83.3522L84.1846 65.1758H82.4758Z" fill="black"/>
<path d="M85.7142 62.4512H87.4726V67.4055H88.3215V62.4512H90.0827V61.7117H85.7142V62.4512Z" fill="black"/>
<path d="M91.8997 61.7117H91.048V67.4055H91.8997V61.7117Z" fill="black"/>
<path d="M98.0431 64.5586C98.0431 62.7376 96.9627 61.6338 95.5019 61.6338C94.0357 61.6338 92.958 62.7376 92.958 64.5586C92.958 66.3768 94.0357 67.4833 95.5019 67.4833C96.9627 67.4833 98.0431 66.3796 98.0431 64.5586ZM97.1997 64.5586C97.1997 65.9459 96.4721 66.6993 95.5019 66.6993C94.529 66.6993 93.8041 65.9459 93.8041 64.5586C93.8041 63.1713 94.529 62.4178 95.5019 62.4178C96.4721 62.4178 97.1997 63.1713 97.1997 64.5586Z" fill="black"/>
<path d="M103.661 61.7117H102.817V65.8931H102.765L99.8931 61.7117H99.1049V67.4055H99.9565V63.2296H100.009L102.878 67.4055H103.661V61.7117Z" fill="black"/>
</g>
<defs>
<clipPath id="clip0_1462:29821">
<rect width="220" height="75" fill="white"/>
</clipPath>
</defs>
</svg>
