<svg width="117" height="40" viewBox="0 0 117 40" fill="none" xmlns="http://www.w3.org/2000/svg">
<g clip-path="url(#clip0_1456:28944)">
<path d="M12.1133 12.947L18.546 11.4238L16.3231 18.3909L19.8305 20.0766L9.8845 27.8861L10.9874 32.3642L1.16194 30.7523V40H0V0L3.68212 5.74523L8.10185 4.17969L6.60519 13.6062L11.7718 8.86375L12.1133 12.947Z" fill="#FF3D00"/>
<path d="M37.379 5.05748C37.0816 2.64289 35.2139 1.25438 32.7409 1.25438C29.9184 1.25438 27.7637 3.20442 27.7637 6.62466C27.7637 10.0347 29.8819 11.9949 32.7409 11.9949C35.48 11.9949 37.1338 10.2134 37.379 8.28884L35.0939 8.27863C34.88 9.39658 33.9826 10.0398 32.7774 10.0398C31.1549 10.0398 30.054 8.86058 30.054 6.62466C30.054 4.45 31.1392 3.20953 32.7931 3.20953C34.0296 3.20953 34.9217 3.90889 35.0939 5.05748H37.379Z" fill="white"/>
<path d="M41.2424 12C42.4267 12 43.1936 11.4947 43.5849 10.7647H43.6475V11.852H45.7553V6.5634C45.7553 4.69503 44.1379 3.90889 42.3536 3.90889C40.4337 3.90889 39.1711 4.80734 38.8633 6.23669L40.9189 6.40005C41.0702 5.87935 41.545 5.49649 42.3432 5.49649C43.0997 5.49649 43.5327 5.86915 43.5327 6.51235V6.54298C43.5327 7.04836 42.9849 7.11472 41.5919 7.24745C40.0059 7.39039 38.5816 7.91108 38.5816 9.66203C38.5816 11.2139 39.7137 12 41.2424 12ZM41.8789 10.4992C41.1954 10.4992 40.705 10.1878 40.705 9.59057C40.705 8.97799 41.2215 8.6768 42.0041 8.5696C42.4893 8.50324 43.2823 8.39093 43.5484 8.21737V9.04945C43.5484 9.87133 42.8545 10.4992 41.8789 10.4992Z" fill="white"/>
<path d="M49.7021 7.31892C49.7073 6.30816 50.323 5.716 51.2203 5.716C52.1125 5.716 52.6498 6.28774 52.6446 7.24745V11.852H54.8672V6.85948C54.8672 5.03195 53.7716 3.90889 52.102 3.90889C50.9125 3.90889 50.0517 4.48063 49.6917 5.3944H49.5978V4.01099H47.4796V11.852H49.7021V7.31892Z" fill="white"/>
<path d="M58.904 12C60.0883 12 60.8552 11.4947 61.2465 10.7647H61.3091V11.852H63.4169V6.5634C63.4169 4.69503 61.7996 3.90889 60.0153 3.90889C58.0953 3.90889 56.8328 4.80734 56.5249 6.23669L58.5805 6.40005C58.7318 5.87935 59.2066 5.49649 60.0048 5.49649C60.7613 5.49649 61.1944 5.86915 61.1944 6.51235V6.54298C61.1944 7.04836 60.6466 7.11472 59.2536 7.24745C57.6675 7.39039 56.2432 7.91108 56.2432 9.66203C56.2432 11.2139 57.3754 12 58.904 12ZM59.5405 10.4992C58.857 10.4992 58.3666 10.1878 58.3666 9.59057C58.3666 8.97799 58.8831 8.6768 59.6657 8.5696C60.1509 8.50324 60.9439 8.39093 61.21 8.21737V9.04945C61.21 9.87133 60.5161 10.4992 59.5405 10.4992Z" fill="white"/>
<path d="M68.0941 11.9796C69.388 11.9796 70.061 11.2496 70.3689 10.5962H70.4628V11.852H72.654V1.39731H70.4367V5.32803H70.3689C70.0715 4.68993 69.4298 3.90889 68.0889 3.90889C66.3307 3.90889 64.8438 5.24636 64.8438 7.94171C64.8438 10.5656 66.2681 11.9796 68.0941 11.9796ZM68.7985 10.2491C67.7081 10.2491 67.1133 9.29959 67.1133 7.9315C67.1133 6.57361 67.6976 5.63943 68.7985 5.63943C69.8784 5.63943 70.4836 6.53277 70.4836 7.9315C70.4836 9.33022 69.868 10.2491 68.7985 10.2491Z" fill="white"/>
<path d="M74.4813 11.852H76.7039V4.01099H74.4813V11.852ZM75.5978 3.00023C76.2604 3.00023 76.803 2.50506 76.803 1.89759C76.803 1.29522 76.2604 0.800049 75.5978 0.800049C74.9405 0.800049 74.3979 1.29522 74.3979 1.89759C74.3979 2.50506 74.9405 3.00023 75.5978 3.00023Z" fill="white"/>
<path d="M80.7694 12C81.9537 12 82.7206 11.4947 83.1119 10.7647H83.1745V11.852H85.2823V6.5634C85.2823 4.69503 83.665 3.90889 81.8807 3.90889C79.9607 3.90889 78.6982 4.80734 78.3903 6.23669L80.4459 6.40005C80.5972 5.87935 81.072 5.49649 81.8702 5.49649C82.6267 5.49649 83.0598 5.86915 83.0598 6.51235V6.54298C83.0598 7.04836 82.512 7.11472 81.119 7.24745C79.5329 7.39039 78.1086 7.91108 78.1086 9.66203C78.1086 11.2139 79.2408 12 80.7694 12ZM81.4059 10.4992C80.7224 10.4992 80.232 10.1878 80.232 9.59057C80.232 8.97799 80.7485 8.6768 81.5311 8.5696C82.0163 8.50324 82.8093 8.39093 83.0754 8.21737V9.04945C83.0754 9.87133 82.3815 10.4992 81.4059 10.4992Z" fill="white"/>
<path d="M89.2291 7.31892C89.2344 6.30816 89.85 5.716 90.7474 5.716C91.6395 5.716 92.1769 6.28774 92.1717 7.24745V11.852H94.3942V6.85948C94.3942 5.03195 93.2986 3.90889 91.6291 3.90889C90.4395 3.90889 89.5787 4.48063 89.2187 5.3944H89.1248V4.01099H87.0066V11.852H89.2291V7.31892Z" fill="white"/>
<path d="M30.7791 13.397H28.5566V23.847H30.7791V13.397Z" fill="white"/>
<path d="M34.7531 19.3159C34.7582 18.3057 35.3639 17.7138 36.2467 17.7138C37.1244 17.7138 37.6531 18.2852 37.6479 19.2445V23.847H39.8345V18.8567C39.8345 17.03 38.7566 15.9075 37.1141 15.9075C35.9439 15.9075 35.097 16.479 34.7428 17.3923H34.6504V16.0095H32.5666V23.847H34.7531V19.3159Z" fill="white"/>
<path d="M45.7512 16.0095H44.2678V14.1318H42.0813V16.0095H41.0034V17.6423H42.0813V21.7243C42.071 23.2602 43.1232 24.0205 44.7092 23.9541C45.2738 23.9337 45.6742 23.8215 45.8949 23.75L45.551 22.1325C45.4432 22.1529 45.2122 22.204 45.0069 22.204C44.5707 22.204 44.2678 22.0407 44.2678 21.4386V17.6423H45.7512V16.0095Z" fill="white"/>
<path d="M50.6837 24C52.6341 24 53.9481 23.0561 54.2561 21.6019L52.2338 21.4692C52.0131 22.0662 51.4485 22.3774 50.7196 22.3774C49.6264 22.3774 48.9334 21.658 48.9334 20.4895V20.4844H54.3022V19.8874C54.3022 17.2239 52.6803 15.9075 50.5964 15.9075C48.2765 15.9075 46.7726 17.5454 46.7726 19.964C46.7726 22.4489 48.2559 24 50.6837 24ZM48.9334 19.1374C48.9796 18.2444 49.6623 17.5301 50.6324 17.5301C51.5819 17.5301 52.2389 18.2036 52.244 19.1374H48.9334Z" fill="white"/>
<path d="M55.7291 23.847H57.9157V19.4129C57.9157 18.4485 58.624 17.7852 59.5889 17.7852C59.8918 17.7852 60.3075 17.8362 60.5128 17.9026V15.9738C60.3178 15.9279 60.0457 15.8973 59.825 15.8973C58.9422 15.8973 58.2185 16.4075 57.9311 17.377H57.8489V16.0095H55.7291V23.847Z" fill="white"/>
<path d="M63.8298 19.3159C63.8349 18.3057 64.4406 17.7138 65.3234 17.7138C66.2011 17.7138 66.7298 18.2852 66.7247 19.2445V23.847H68.9112V18.8567C68.9112 17.03 67.8333 15.9075 66.1909 15.9075C65.0206 15.9075 64.1737 16.479 63.8196 17.3923H63.7272V16.0095H61.6433V23.847H63.8298V19.3159Z" fill="white"/>
<path d="M72.8826 23.9949C74.0477 23.9949 74.8022 23.4898 75.1872 22.7601H75.2488V23.847H77.3224V18.5608C77.3224 16.6933 75.7313 15.9075 73.9759 15.9075C72.087 15.9075 70.8449 16.8055 70.5421 18.2342L72.5644 18.3975C72.7132 17.877 73.1803 17.4944 73.9656 17.4944C74.7099 17.4944 75.1359 17.8668 75.1359 18.5098V18.5404C75.1359 19.0455 74.5969 19.1118 73.2265 19.2445C71.6662 19.3874 70.2649 19.9078 70.2649 21.658C70.2649 23.2092 71.3787 23.9949 72.8826 23.9949ZM73.5088 22.4948C72.8364 22.4948 72.3539 22.1836 72.3539 21.5866C72.3539 20.9743 72.8621 20.6732 73.632 20.5661C74.1093 20.4997 74.8895 20.3875 75.1513 20.214V21.0457C75.1513 21.8672 74.4686 22.4948 73.5088 22.4948Z" fill="white"/>
<path d="M83.2122 16.0095H81.7288V14.1318H79.5423V16.0095H78.4644V17.6423H79.5423V21.7243C79.532 23.2602 80.5842 24.0205 82.1702 23.9541C82.7348 23.9337 83.1352 23.8215 83.3559 23.75L83.012 22.1325C82.9042 22.1529 82.6732 22.204 82.4679 22.204C82.0316 22.204 81.7288 22.0407 81.7288 21.4386V17.6423H83.2122V16.0095Z" fill="white"/>
<path d="M84.6365 23.847H86.823V16.0095H84.6365V23.847ZM85.7349 14.9992C86.3867 14.9992 86.9205 14.5043 86.9205 13.8971C86.9205 13.295 86.3867 12.8 85.7349 12.8C85.0882 12.8 84.5544 13.295 84.5544 13.8971C84.5544 14.5043 85.0882 14.9992 85.7349 14.9992Z" fill="white"/>
<path d="M92.1366 24C94.5285 24 96.017 22.3723 96.017 19.9589C96.017 17.5301 94.5285 15.9075 92.1366 15.9075C89.7448 15.9075 88.2563 17.5301 88.2563 19.9589C88.2563 22.3723 89.7448 24 92.1366 24ZM92.1469 22.3162C91.0434 22.3162 90.4788 21.311 90.4788 19.9436C90.4788 18.5761 91.0434 17.5658 92.1469 17.5658C93.2299 17.5658 93.7945 18.5761 93.7945 19.9436C93.7945 21.311 93.2299 22.3162 92.1469 22.3162Z" fill="white"/>
<path d="M99.6252 19.3159C99.6304 18.3057 100.236 17.7138 101.119 17.7138C101.997 17.7138 102.525 18.2852 102.52 19.2445V23.847H104.707V18.8567C104.707 17.03 103.629 15.9075 101.986 15.9075C100.816 15.9075 99.9691 16.479 99.615 17.3923H99.5226V16.0095H97.4387V23.847H99.6252V19.3159Z" fill="white"/>
<path d="M108.678 23.9949C109.843 23.9949 110.598 23.4898 110.983 22.7601H111.044V23.847H113.118V18.5608C113.118 16.6933 111.527 15.9075 109.771 15.9075C107.882 15.9075 106.64 16.8055 106.338 18.2342L108.36 18.3975C108.509 17.877 108.976 17.4944 109.761 17.4944C110.505 17.4944 110.931 17.8668 110.931 18.5098V18.5404C110.931 19.0455 110.392 19.1118 109.022 19.2445C107.462 19.3874 106.06 19.9078 106.06 21.658C106.06 23.2092 107.174 23.9949 108.678 23.9949ZM109.304 22.4948C108.632 22.4948 108.149 22.1836 108.149 21.5866C108.149 20.9743 108.658 20.6732 109.427 20.5661C109.905 20.4997 110.685 20.3875 110.947 20.214V21.0457C110.947 21.8672 110.264 22.4948 109.304 22.4948Z" fill="white"/>
<path d="M117.001 13.397H114.814V23.847H117.001V13.397Z" fill="white"/>
<path d="M79.1828 29.0205C78.8927 26.5948 77.0706 25.2 74.6582 25.2C71.9047 25.2 69.8027 27.1589 69.8027 30.5948C69.8027 34.0205 71.8691 35.9897 74.6582 35.9897C77.3302 35.9897 78.9436 34.2 79.1828 32.2666L76.9535 32.2564C76.7449 33.3794 75.8695 34.0256 74.6938 34.0256C73.1109 34.0256 72.037 32.841 72.037 30.5948C72.037 28.4102 73.0957 27.1641 74.7091 27.1641C75.9153 27.1641 76.7856 27.8666 76.9535 29.0205H79.1828Z" fill="white"/>
<path d="M84.285 36C86.2191 36 87.522 35.0512 87.8274 33.5897L85.8221 33.4564C85.6032 34.0564 85.0434 34.3692 84.3207 34.3692C83.2366 34.3692 82.5495 33.6461 82.5495 32.4717V32.4666H87.8732V31.8666C87.8732 29.1897 86.2649 27.8666 84.1985 27.8666C81.898 27.8666 80.4068 29.5128 80.4068 31.9435C80.4068 34.441 81.8777 36 84.285 36ZM82.5495 31.1128C82.5953 30.2153 83.2722 29.4974 84.2341 29.4974C85.1757 29.4974 85.8272 30.1743 85.8323 31.1128H82.5495Z" fill="white"/>
<path d="M91.4562 31.2923C91.4613 30.2769 92.0619 29.682 92.9373 29.682C93.8076 29.682 94.3318 30.2564 94.3267 31.2205V35.8461H96.4948V30.8307C96.4948 28.9948 95.426 27.8666 93.7974 27.8666C92.637 27.8666 91.7972 28.441 91.446 29.3589H91.3544V27.9692H89.2881V35.8461H91.4562V31.2923Z" fill="white"/>
<path d="M102.362 27.9692H100.891V26.082H98.7228V27.9692H97.654V29.6102H98.7228V33.7128C98.7126 35.2564 99.756 36.0205 101.329 35.9538C101.888 35.9333 102.285 35.8205 102.504 35.7487L102.163 34.123C102.056 34.1435 101.827 34.1948 101.624 34.1948C101.191 34.1948 100.891 34.0307 100.891 33.4256V29.6102H102.362V27.9692Z" fill="white"/>
<path d="M107.253 36C109.187 36 110.49 35.0512 110.795 33.5897L108.79 33.4564C108.571 34.0564 108.011 34.3692 107.288 34.3692C106.204 34.3692 105.517 33.6461 105.517 32.4717V32.4666H110.841V31.8666C110.841 29.1897 109.233 27.8666 107.166 27.8666C104.866 27.8666 103.375 29.5128 103.375 31.9435C103.375 34.441 104.846 36 107.253 36ZM105.517 31.1128C105.563 30.2153 106.24 29.4974 107.202 29.4974C108.144 29.4974 108.795 30.1743 108.8 31.1128H105.517Z" fill="white"/>
<path d="M112.256 35.8461H114.424V31.3897C114.424 30.4205 115.126 29.7538 116.083 29.7538C116.384 29.7538 116.796 29.8051 116.999 29.8717V27.9333C116.806 27.8871 116.536 27.8564 116.317 27.8564C115.442 27.8564 114.724 28.3692 114.439 29.3435H114.358V27.9692H112.256V35.8461Z" fill="white"/>
<path d="M29.5343 28.8392H29.9711C29.9579 28.3529 29.5328 28 28.9231 28C28.3207 28 27.8589 28.3484 27.8589 28.8719C27.8589 29.2945 28.158 29.5421 28.6402 29.674L28.9949 29.7719C29.3159 29.8579 29.5636 29.9647 29.5636 30.2345C29.5636 30.5311 29.2837 30.7268 28.8982 30.7268C28.5493 30.7268 28.2591 30.5696 28.2327 30.239H27.7783C27.8076 30.7891 28.2283 31.1286 28.9011 31.1286C29.6061 31.1286 30.0121 30.7535 30.0121 30.239C30.0121 29.6918 29.5299 29.4798 29.1488 29.3849L28.8557 29.3078C28.6211 29.247 28.3089 29.1358 28.3104 28.8452C28.3104 28.5872 28.5435 28.3959 28.9128 28.3959C29.2573 28.3959 29.5021 28.559 29.5343 28.8392Z" fill="white"/>
<path d="M30.5534 31.0782H31.0063V30.0106H31.6219C32.3182 30.0106 32.6626 29.5851 32.6626 29.0246C32.6626 28.4656 32.3211 28.0415 31.6234 28.0415H30.5534V31.0782ZM31.0063 29.6221V28.4344H31.575C32.0235 28.4344 32.2068 28.6806 32.2068 29.0246C32.2068 29.3686 32.0235 29.6221 31.5809 29.6221H31.0063Z" fill="white"/>
<path d="M35.8012 29.5599C35.8012 28.5887 35.2266 28 34.4497 28C33.67 28 33.0968 28.5887 33.0968 29.5599C33.0968 30.5296 33.67 31.1197 34.4497 31.1197C35.2266 31.1197 35.8012 30.5311 35.8012 29.5599ZM35.3526 29.5599C35.3526 30.2998 34.9657 30.7016 34.4497 30.7016C33.9323 30.7016 33.5468 30.2998 33.5468 29.5599C33.5468 28.82 33.9323 28.4181 34.4497 28.4181C34.9657 28.4181 35.3526 28.82 35.3526 29.5599Z" fill="white"/>
<path d="M36.3658 31.0782H36.8188V29.9291H37.4344C37.4446 29.9291 37.4534 29.9291 37.4637 29.9291L38.0735 31.0782H38.5894L37.924 29.849C38.2919 29.7111 38.4751 29.4012 38.4751 28.9935C38.4751 28.4344 38.1321 28.0415 37.4359 28.0415H36.3658V31.0782ZM36.8188 29.5347V28.4344H37.3875C37.8345 28.4344 38.0192 28.6495 38.0192 28.9935C38.0192 29.336 37.8345 29.5347 37.3933 29.5347H36.8188Z" fill="white"/>
<path d="M38.8782 28.4359H39.8133V31.0782H40.2648V28.4359H41.2014V28.0415H38.8782V28.4359Z" fill="white"/>
<path d="M43.352 28.8392H43.7888C43.7756 28.3529 43.3506 28 42.7408 28C42.1384 28 41.6767 28.3484 41.6767 28.8719C41.6767 29.2945 41.9757 29.5421 42.4579 29.674L42.8126 29.7719C43.1336 29.8579 43.3813 29.9647 43.3813 30.2345C43.3813 30.5311 43.1014 30.7268 42.7159 30.7268C42.367 30.7268 42.0768 30.5696 42.0504 30.239H41.596C41.6254 30.7891 42.046 31.1286 42.7188 31.1286C43.4239 31.1286 43.8299 30.7535 43.8299 30.239C43.8299 29.6918 43.3476 29.4798 42.9665 29.3849L42.6734 29.3078C42.4389 29.247 42.1267 29.1358 42.1281 28.8452C42.1281 28.5872 42.3612 28.3959 42.7305 28.3959C43.075 28.3959 43.3198 28.559 43.352 28.8392Z" fill="white"/>
<path d="M28.7355 35.9926C29.0066 35.9926 29.3071 35.9007 29.5094 35.7094L29.7117 35.9496H30.2071L29.7806 35.4336C29.9081 35.2616 30.0297 34.9917 30.0297 34.5706H29.634C29.634 34.7738 29.5871 34.9547 29.5094 35.1059L28.9084 34.3793L29.1136 34.2266C29.3628 34.0428 29.5123 33.8307 29.5123 33.5416C29.5123 33.1872 29.2294 32.8803 28.7677 32.8803C28.3104 32.8803 28.0099 33.1783 28.0099 33.5979C28.0099 33.8693 28.1506 34.0843 28.3397 34.3171C27.9967 34.5573 27.7637 34.7812 27.7637 35.143C27.7637 35.6308 28.1316 35.9926 28.7355 35.9926ZM29.2631 35.4158C29.1078 35.5463 28.9216 35.6174 28.7369 35.6174C28.4115 35.6174 28.199 35.3936 28.199 35.1311C28.199 35.0377 28.2767 34.8509 28.5112 34.6759L28.5904 34.6166L29.2631 35.4158ZM28.6666 34.0843C28.5303 33.9152 28.4233 33.7595 28.4233 33.6053C28.4233 33.4289 28.5669 33.251 28.778 33.251C28.9803 33.251 29.1122 33.4111 29.1122 33.5534C29.1122 33.7343 29.014 33.8441 28.8513 33.9523L28.6666 34.0843Z" fill="white"/>
<path d="M31.678 35.9496H33.5776V35.5552H32.1309V34.6255H33.4618V34.2325H32.1309V33.3073H33.56V32.9129H31.678V35.9496Z" fill="white"/>
<path d="M35.1368 35.9496C36.0514 35.9496 36.5806 35.3758 36.5806 34.4268C36.5806 33.4823 36.0514 32.9129 35.1676 32.9129H34.165V35.9496H35.1368ZM34.6179 35.5492V33.3132H35.1397C35.7964 33.3132 36.135 33.7106 36.135 34.4268C36.135 35.1459 35.7964 35.5492 35.1119 35.5492H34.6179Z" fill="white"/>
<path d="M39.0742 32.9129V34.8731C39.0742 35.2853 38.7928 35.5819 38.3355 35.5819C37.8796 35.5819 37.5967 35.2853 37.5967 34.8731V32.9129H37.1438V34.9102C37.1438 35.5478 37.6158 36 38.3355 36C39.0552 36 39.5286 35.5478 39.5286 34.9102V32.9129H39.0742Z" fill="white"/>
<path d="M42.6803 33.9004C42.5777 33.251 42.075 32.8714 41.4403 32.8714C40.6635 32.8714 40.0903 33.46 40.0903 34.4312C40.0903 35.4024 40.6605 35.9911 41.4403 35.9911C42.0999 35.9911 42.5821 35.573 42.6803 34.9724L42.223 34.971C42.1453 35.3594 41.8229 35.573 41.4432 35.573C40.9288 35.573 40.5403 35.1741 40.5403 34.4312C40.5403 33.6943 40.9273 33.2895 41.4447 33.2895C41.8273 33.2895 42.1483 33.5075 42.223 33.9004H42.6803Z" fill="white"/>
<path d="M43.4557 35.9496L43.7313 35.1459H44.9039L45.178 35.9496H45.6588L44.5785 32.9129H44.0552L42.975 35.9496H43.4557ZM43.8632 34.7604L44.3059 33.4645H44.3293L44.772 34.7604H43.8632Z" fill="white"/>
<path d="M45.5855 33.3073H46.5206V35.9496H46.9721V33.3073H47.9087V32.9129H45.5855V33.3073Z" fill="white"/>
<path d="M48.875 32.9129H48.4221V35.9496H48.875V32.9129Z" fill="white"/>
<path d="M52.1422 34.4312C52.1422 33.46 51.5676 32.8714 50.7908 32.8714C50.011 32.8714 49.4379 33.46 49.4379 34.4312C49.4379 35.401 50.011 35.9911 50.7908 35.9911C51.5676 35.9911 52.1422 35.4024 52.1422 34.4312ZM51.6937 34.4312C51.6937 35.1711 51.3067 35.573 50.7908 35.573C50.2733 35.573 49.8878 35.1711 49.8878 34.4312C49.8878 33.6913 50.2733 33.2895 50.7908 33.2895C51.3067 33.2895 51.6937 33.6913 51.6937 34.4312Z" fill="white"/>
<path d="M55.1298 32.9129H54.6812V35.143H54.6534L53.1261 32.9129H52.7069V35.9496H53.1598V33.7225H53.1876L54.7135 35.9496H55.1298V32.9129Z" fill="white"/>
</g>
<defs>
<clipPath id="clip0_1456:28944">
<rect width="117" height="40" fill="white"/>
</clipPath>
</defs>
</svg>
