<svg width="300" height="98" viewBox="0 0 300 98" fill="none" xmlns="http://www.w3.org/2000/svg">
<path fill-rule="evenodd" clip-rule="evenodd" d="M19.55 97.9998C30.3472 97.9998 39.1 89.2246 39.1 78.3998C39.1 67.575 30.3472 58.7998 19.55 58.7998C8.75283 58.7998 0 67.575 0 78.3998C0 89.2246 8.75283 97.9998 19.55 97.9998Z" fill="#01579B"/>
<path d="M15.1761 39.2C12.2296 39.2 9.3719 38.8029 6.60293 38.0088C3.86946 37.1786 1.66848 36.1138 0 34.8144L2.92872 28.2088C4.5262 29.4 6.42543 30.3565 8.62641 31.0785C10.8274 31.8004 13.0284 32.1613 15.2293 32.1613C17.6788 32.1613 19.4893 31.8004 20.6608 31.0785C21.8323 30.3204 22.418 29.3278 22.418 28.1006C22.418 27.1982 22.063 26.4582 21.353 25.8807C20.6785 25.267 19.791 24.7797 18.6905 24.4188C17.6256 24.0578 16.1701 23.6608 14.3241 23.2276C11.4841 22.5418 9.1589 21.856 7.34842 21.1702C5.53794 20.4843 3.97596 19.3834 2.66247 17.8674C1.38449 16.3514 0.745492 14.33 0.745492 11.8033C0.745492 9.60147 1.33124 7.61621 2.50272 5.84751C3.67421 4.04272 5.43144 2.61694 7.77442 1.57016C10.1529 0.523388 13.0461 0 16.4541 0C18.8325 0 21.1578 0.288766 23.4297 0.866297C25.7017 1.44383 27.6897 2.27403 29.3937 3.3569L26.7312 10.0166C23.2878 8.03131 19.8443 7.03867 16.4008 7.03867C13.9868 7.03867 12.1941 7.43573 11.0226 8.22983C9.88664 9.02394 9.31865 10.0707 9.31865 11.3702C9.31865 12.6696 9.97539 13.6442 11.2889 14.2939C12.6379 14.9075 14.6791 15.5212 17.4126 16.1348C20.2525 16.8206 22.5778 17.5064 24.3882 18.1923C26.1987 18.8781 27.743 19.961 29.0209 21.4409C30.3344 22.9208 30.9912 24.9241 30.9912 27.4508C30.9912 29.6166 30.3877 31.6018 29.1807 33.4066C28.0092 35.1753 26.2342 36.5831 23.8557 37.6298C21.4773 38.6766 18.584 39.2 15.1761 39.2Z" fill="#102027"/>
<path d="M95.3535 0.649722L83.1594 38.5503H73.894L65.6936 12.8862L57.2269 38.5503H48.0148L35.7674 0.649722H44.7133L53.1267 27.2884L61.9129 0.649722H69.9003L78.4202 27.505L87.0998 0.649722H95.3535Z" fill="#102027"/>
<path d="M102.299 0.649722H110.926V38.5503H102.299V0.649722Z" fill="#102027"/>
<path d="M130.528 7.6884V17.705H147.781V24.7436H130.528V38.5503H121.902V0.649722H150.071V7.6884H130.528Z" fill="#102027"/>
<path d="M166.022 7.79668H154.094V0.649722H186.576V7.79668H174.648V38.5503H166.022V7.79668Z" fill="#102027"/>
<path d="M85.7738 77.8042H93.7296V93.181C91.6869 94.7331 89.3217 95.9243 86.6339 96.7545C83.9462 97.5847 81.2405 97.9998 78.5169 97.9998C74.6107 97.9998 71.0987 97.1696 67.9809 95.5092C64.8631 93.8127 62.4083 91.4845 60.6164 88.5247C58.8604 85.5287 57.9824 82.1538 57.9824 78.3998C57.9824 74.6458 58.8604 71.2889 60.6164 68.3291C62.4083 65.3331 64.881 63.005 68.0346 61.3446C71.1883 59.6481 74.7361 58.7998 78.6782 58.7998C81.9751 58.7998 84.9675 59.3593 87.6553 60.4783C90.343 61.5972 92.6007 63.2215 94.4284 65.3512L88.8379 70.549C86.1501 67.6974 82.9069 66.2716 79.1082 66.2716C76.7071 66.2716 74.5748 66.777 72.7113 67.7876C70.8478 68.7983 69.3964 70.2241 68.3572 72.065C67.3179 73.9059 66.7983 76.0175 66.7983 78.3998C66.7983 80.746 67.3179 82.8396 68.3572 84.6805C69.3964 86.5213 70.8299 87.9652 72.6576 89.012C74.5211 90.0226 76.6355 90.528 79.0007 90.528C81.5093 90.528 83.767 89.9865 85.7738 88.9037V77.8042Z" fill="#102027"/>
<path d="M103.969 59.4495H112.677V90.2031H131.546V97.3501H103.969V59.4495Z" fill="#102027"/>
<path d="M156.154 97.9998C152.248 97.9998 148.718 97.1515 145.565 95.455C142.447 93.7585 139.992 91.4304 138.2 88.4705C136.444 85.4746 135.566 82.1177 135.566 78.3998C135.566 74.6819 136.444 71.3431 138.2 68.3832C139.992 65.3873 142.447 63.0411 145.565 61.3446C148.718 59.6481 152.248 58.7998 156.154 58.7998C160.061 58.7998 163.573 59.6481 166.69 61.3446C169.808 63.0411 172.263 65.3873 174.055 68.3832C175.847 71.3431 176.743 74.6819 176.743 78.3998C176.743 82.1177 175.847 85.4746 174.055 88.4705C172.263 91.4304 169.808 93.7585 166.69 95.455C163.573 97.1515 160.061 97.9998 156.154 97.9998ZM156.154 90.528C158.376 90.528 160.383 90.0226 162.175 89.012C163.967 87.9652 165.365 86.5213 166.368 84.6805C167.407 82.8396 167.927 80.746 167.927 78.3998C167.927 76.0536 167.407 73.96 166.368 72.1191C165.365 70.2783 163.967 68.8525 162.175 67.8418C160.383 66.795 158.376 66.2716 156.154 66.2716C153.933 66.2716 151.926 66.795 150.134 67.8418C148.342 68.8525 146.926 70.2783 145.887 72.1191C144.884 73.96 144.382 76.0536 144.382 78.3998C144.382 80.746 144.884 82.8396 145.887 84.6805C146.926 86.5213 148.342 87.9652 150.134 89.012C151.926 90.0226 153.933 90.528 156.154 90.528Z" fill="#102027"/>
<path d="M213.068 77.6418C215.218 78.3276 216.902 79.4827 218.121 81.107C219.339 82.6952 219.948 84.6624 219.948 87.0086C219.948 90.3295 218.658 92.8923 216.078 94.697C213.534 96.4657 209.807 97.3501 204.897 97.3501H185.438V59.4495H203.822C208.409 59.4495 211.921 60.3339 214.358 62.1026C216.831 63.8713 218.067 66.2716 218.067 69.3037C218.067 71.1446 217.619 72.7869 216.723 74.2307C215.863 75.6746 214.645 76.8116 213.068 77.6418ZM194.092 66.0551V74.9888H202.747C204.897 74.9888 206.528 74.6097 207.638 73.8517C208.749 73.0937 209.305 71.9748 209.305 70.4948C209.305 69.0149 208.749 67.914 207.638 67.1921C206.528 66.4341 204.897 66.0551 202.747 66.0551H194.092ZM204.252 90.7446C206.545 90.7446 208.266 90.3655 209.412 89.6075C210.595 88.8495 211.186 87.6764 211.186 86.0882C211.186 82.9479 208.875 81.3777 204.252 81.3777H194.092V90.7446H204.252Z" fill="#102027"/>
<path d="M253.473 89.2285H236.002L232.669 97.3501H223.746L240.518 59.4495H249.119L265.944 97.3501H256.806L253.473 89.2285ZM250.731 82.5689L244.764 68.0584L238.798 82.5689H250.731Z" fill="#102027"/>
<path d="M271.998 59.4495H280.706V90.2031H299.574V97.3501H271.998V59.4495Z" fill="#102027"/>
</svg>
