<svg width="302" height="98" viewBox="0 0 302 98" fill="none" xmlns="http://www.w3.org/2000/svg">
<path fill-rule="evenodd" clip-rule="evenodd" d="M19.6808 97.9998C30.5502 97.9998 39.3615 89.2246 39.3615 78.3998C39.3615 67.575 30.5502 58.7998 19.6808 58.7998C8.81138 58.7998 0 67.575 0 78.3998C0 89.2246 8.81138 97.9998 19.6808 97.9998Z" fill="#102027"/>
<path d="M15.2776 39.2C12.3114 39.2 9.43459 38.8029 6.6471 38.0088C3.89534 37.1786 1.67964 36.1138 0 34.8144L2.94831 28.2088C4.55648 29.4 6.46841 30.3565 8.68411 31.0785C10.8998 31.8004 13.1155 32.1613 15.3312 32.1613C17.7971 32.1613 19.6197 31.8004 20.799 31.0785C21.9783 30.3204 22.568 29.3278 22.568 28.1006C22.568 27.1982 22.2106 26.4582 21.4959 25.8807C20.8168 25.267 19.9234 24.7797 18.8156 24.4188C17.7435 24.0578 16.2782 23.6608 14.4199 23.2276C11.5609 22.5418 9.22017 21.856 7.39757 21.1702C5.57498 20.4843 4.00255 19.3834 2.68028 17.8674C1.39375 16.3514 0.750479 14.33 0.750479 11.8033C0.750479 9.60147 1.34014 7.61621 2.51946 5.84751C3.69879 4.04272 5.46777 2.61694 7.82642 1.57016C10.2208 0.523388 13.1334 0 16.5641 0C18.9585 0 21.2993 0.288766 23.5865 0.866297C25.8736 1.44383 27.8749 2.27403 29.5903 3.3569L26.91 10.0166C23.4435 8.03131 19.977 7.03867 16.5105 7.03867C14.0804 7.03867 12.2757 7.43573 11.0964 8.22983C9.95278 9.02394 9.38098 10.0707 9.38098 11.3702C9.38098 12.6696 10.0421 13.6442 11.3644 14.2939C12.7224 14.9075 14.7773 15.5212 17.529 16.1348C20.388 16.8206 22.7288 17.5064 24.5514 18.1923C26.374 18.8781 27.9285 19.961 29.2151 21.4409C30.5373 22.9208 31.1985 24.9241 31.1985 27.4508C31.1985 29.6166 30.5909 31.6018 29.3759 33.4066C28.1966 35.1753 26.4097 36.5831 24.0153 37.6298C21.6209 38.6766 18.7084 39.2 15.2776 39.2Z" fill="white"/>
<path d="M95.9913 0.649722L83.7156 38.5503H74.3883L66.133 12.8862L57.6097 38.5503H48.3359L36.0066 0.649722H45.0124L53.4821 27.2884L62.327 0.649722H70.3678L78.9447 27.505L87.6824 0.649722H95.9913Z" fill="white"/>
<path d="M102.984 0.649722H111.668V38.5503H102.984V0.649722Z" fill="white"/>
<path d="M131.401 7.6884V17.705H148.769V24.7436H131.401V38.5503H122.717V0.649722H151.074V7.6884H131.401Z" fill="white"/>
<path d="M167.132 7.79668H155.125V0.649722H187.824V7.79668H175.816V38.5503H167.132V7.79668Z" fill="white"/>
<path d="M86.3484 77.8042H94.3574V93.181C92.301 94.7331 89.92 95.9243 87.2142 96.7545C84.5085 97.5847 81.7847 97.9998 79.0429 97.9998C75.1106 97.9998 71.5751 97.1696 68.4364 95.5092C65.2978 93.8127 62.8265 91.4845 61.0227 88.5247C59.255 85.5287 58.3711 82.1538 58.3711 78.3998C58.3711 74.6458 59.255 71.2889 61.0227 68.3291C62.8265 65.3331 65.3158 63.005 68.4905 61.3446C71.6653 59.6481 75.2368 58.7998 79.2053 58.7998C82.5243 58.7998 85.5367 59.3593 88.2424 60.4783C90.9482 61.5972 93.221 63.2215 95.0609 65.3512L89.4329 70.549C86.7272 67.6974 83.4623 66.2716 79.6382 66.2716C77.2211 66.2716 75.0745 66.777 73.1985 67.7876C71.3226 68.7983 69.8615 70.2241 68.8152 72.065C67.769 73.9059 67.2459 76.0175 67.2459 78.3998C67.2459 80.746 67.769 82.8396 68.8152 84.6805C69.8615 86.5213 71.3045 87.9652 73.1444 89.0119C75.0204 90.0226 77.1489 90.528 79.5299 90.528C82.0553 90.528 84.3281 89.9865 86.3484 88.9037V77.8042Z" fill="white"/>
<path d="M104.665 59.4495H113.432V90.2031H132.426V97.3501H104.665V59.4495Z" fill="white"/>
<path d="M157.2 97.9998C153.267 97.9998 149.714 97.1515 146.539 95.455C143.401 93.7585 140.929 91.4304 139.125 88.4705C137.358 85.4746 136.474 82.1177 136.474 78.3998C136.474 74.6819 137.358 71.3431 139.125 68.3832C140.929 65.3873 143.401 63.0411 146.539 61.3446C149.714 59.6481 153.267 58.7998 157.2 58.7998C161.132 58.7998 164.668 59.6481 167.806 61.3446C170.945 63.0411 173.416 65.3873 175.22 68.3832C177.024 71.3431 177.926 74.6819 177.926 78.3998C177.926 82.1177 177.024 85.4746 175.22 88.4705C173.416 91.4304 170.945 93.7585 167.806 95.455C164.668 97.1515 161.132 97.9998 157.2 97.9998ZM157.2 90.528C159.437 90.528 161.457 90.0226 163.261 89.0119C165.064 87.9652 166.471 86.5213 167.482 84.6805C168.528 82.8396 169.051 80.746 169.051 78.3998C169.051 76.0536 168.528 73.96 167.482 72.1191C166.471 70.2783 165.064 68.8525 163.261 67.8418C161.457 66.795 159.437 66.2716 157.2 66.2716C154.963 66.2716 152.943 66.795 151.139 67.8418C149.335 68.8525 147.91 70.2783 146.864 72.1191C145.854 73.96 145.349 76.0536 145.349 78.3998C145.349 80.746 145.854 82.8396 146.864 84.6805C147.91 86.5213 149.335 87.9652 151.139 89.0119C152.943 90.0226 154.963 90.528 157.2 90.528Z" fill="white"/>
<path d="M214.494 77.6418C216.658 78.3276 218.354 79.4827 219.581 81.107C220.807 82.6952 221.42 84.6624 221.42 87.0086C221.42 90.3294 220.122 92.8922 217.524 94.697C214.963 96.4657 211.211 97.3501 206.268 97.3501H186.679V59.4495H205.186C209.804 59.4495 213.339 60.3339 215.792 62.1026C218.282 63.8713 219.526 66.2716 219.526 69.3037C219.526 71.1446 219.075 72.7869 218.174 74.2307C217.308 75.6746 216.081 76.8116 214.494 77.6418ZM195.391 66.055V74.9887H204.104C206.268 74.9887 207.91 74.6097 209.028 73.8517C210.147 73.0937 210.706 71.9748 210.706 70.4948C210.706 69.0149 210.147 67.914 209.028 67.1921C207.91 66.4341 206.268 66.055 204.104 66.055H195.391ZM205.619 90.7445C207.928 90.7445 209.66 90.3655 210.814 89.6075C212.004 88.8495 212.6 87.6764 212.6 86.0882C212.6 82.9479 210.273 81.3777 205.619 81.3777H195.391V90.7445H205.619Z" fill="white"/>
<path d="M255.169 89.2285H237.582L234.227 97.3501H225.244L242.127 59.4495H250.786L267.724 97.3501H258.524L255.169 89.2285ZM252.409 82.5689L246.402 68.0584L240.396 82.5689H252.409Z" fill="white"/>
<path d="M273.818 59.4495H282.585V90.2031H301.579V97.3501H273.818V59.4495Z" fill="white"/>
</svg>
