<svg width="299" height="98" viewBox="0 0 299 98" fill="none" xmlns="http://www.w3.org/2000/svg">
<path fill-rule="evenodd" clip-rule="evenodd" d="M19.4846 97.9998C30.2457 97.9998 38.9692 89.2246 38.9692 78.3998C38.9692 67.575 30.2457 58.7998 19.4846 58.7998C8.72356 58.7998 0 67.575 0 78.3998C0 89.2246 8.72356 97.9998 19.4846 97.9998Z" fill="#01579B"/>
<path d="M15.1253 39.2C12.1887 39.2 9.34056 38.8029 6.58085 38.0088C3.85652 37.1786 1.6629 36.1138 0 34.8144L2.91892 28.2088C4.51106 29.4 6.40394 30.3565 8.59756 31.0785C10.7912 31.8004 12.9848 32.1613 15.1784 32.1613C17.6197 32.1613 19.4241 31.8004 20.5917 31.0785C21.7592 30.3204 22.343 29.3278 22.343 28.1006C22.343 27.1982 21.9892 26.4582 21.2816 25.8807C20.6094 25.267 19.7248 24.7797 18.628 24.4188C17.5666 24.0578 16.116 23.6608 14.2762 23.2276C11.4457 22.5418 9.12827 21.856 7.32384 21.1702C5.51942 20.4843 3.96266 19.3834 2.65357 17.8674C1.37985 16.3514 0.742999 14.33 0.742999 11.8033C0.742999 9.60147 1.32678 7.61621 2.49435 5.84751C3.66192 4.04272 5.41328 2.61694 7.74842 1.57016C10.1189 0.523388 13.0025 0 16.399 0C18.7696 0 21.087 0.288766 23.3514 0.866297C25.6158 1.44383 27.5971 2.27403 29.2954 3.3569L26.6418 10.0166C23.2099 8.03131 19.7779 7.03867 16.346 7.03867C13.9401 7.03867 12.1533 7.43573 10.9858 8.22983C9.85358 9.02394 9.28748 10.0707 9.28748 11.3702C9.28748 12.6696 9.94203 13.6442 11.2511 14.2939C12.5956 14.9075 14.63 15.5212 17.3543 16.1348C20.1848 16.8206 22.5022 17.5064 24.3067 18.1923C26.1111 18.8781 27.6502 19.961 28.9239 21.4409C30.233 22.9208 30.8875 24.9241 30.8875 27.4508C30.8875 29.6166 30.286 31.6018 29.0831 33.4066C27.9155 35.1753 26.1465 36.5831 23.776 37.6298C21.4054 38.6766 18.5219 39.2 15.1253 39.2Z" fill="white"/>
<path d="M95.0346 0.649722L82.8813 38.5503H73.6469L65.4739 12.8862L57.0355 38.5503H47.8542L35.6478 0.649722H44.5638L52.949 27.2884L61.7058 0.649722H69.6665L78.1579 27.505L86.8085 0.649722H95.0346Z" fill="white"/>
<path d="M101.957 0.649722H110.555V38.5503H101.957V0.649722Z" fill="white"/>
<path d="M130.092 7.6884V17.705H147.287V24.7436H130.092V38.5503H121.494V0.649722H149.569V7.6884H130.092Z" fill="white"/>
<path d="M165.466 7.79668H153.578V0.649722H185.952V7.79668H174.064V38.5503H165.466V7.79668Z" fill="white"/>
<path d="M85.4875 77.8042H93.4167V93.181C91.3808 94.7331 89.0235 95.9243 86.3447 96.7545C83.666 97.5847 80.9693 97.9998 78.2549 97.9998C74.3617 97.9998 70.8615 97.1696 67.7541 95.5092C64.6467 93.8127 62.2001 91.4845 60.4143 88.5247C58.6641 85.5287 57.7891 82.1538 57.7891 78.3998C57.7891 74.6458 58.6641 71.2889 60.4143 68.3291C62.2001 65.3331 64.6646 63.005 67.8077 61.3446C70.9507 59.6481 74.4867 58.7998 78.4156 58.7998C81.7015 58.7998 84.6839 59.3593 87.3627 60.4783C90.0414 61.5972 92.2916 63.2215 94.1132 65.3512L88.5413 70.549C85.8626 67.6974 82.6302 66.2716 78.8442 66.2716C76.4511 66.2716 74.326 66.777 72.4687 67.7876C70.6114 68.7983 69.1649 70.2241 68.1291 72.065C67.0933 73.9059 66.5754 76.0175 66.5754 78.3998C66.5754 80.746 67.0933 82.8396 68.1291 84.6805C69.1649 86.5213 70.5936 87.9652 72.4151 89.0119C74.2724 90.0226 76.3797 90.528 78.737 90.528C81.2372 90.528 83.4874 89.9865 85.4875 88.9037V77.8042Z" fill="white"/>
<path d="M103.622 59.4495H112.301V90.2031H131.106V97.3501H103.622V59.4495Z" fill="white"/>
<path d="M155.633 97.9998C151.74 97.9998 148.221 97.1515 145.078 95.455C141.971 93.7585 139.524 91.4304 137.739 88.4705C135.988 85.4746 135.113 82.1177 135.113 78.3998C135.113 74.6819 135.988 71.3431 137.739 68.3832C139.524 65.3873 141.971 63.0411 145.078 61.3446C148.221 59.6481 151.74 58.7998 155.633 58.7998C159.526 58.7998 163.026 59.6481 166.134 61.3446C169.241 63.0411 171.687 65.3873 173.473 68.3832C175.259 71.3431 176.152 74.6819 176.152 78.3998C176.152 82.1177 175.259 85.4746 173.473 88.4705C171.687 91.4304 169.241 93.7585 166.134 95.455C163.026 97.1515 159.526 97.9998 155.633 97.9998ZM155.633 90.528C157.847 90.528 159.847 90.0226 161.633 89.0119C163.419 87.9652 164.812 86.5213 165.812 84.6805C166.848 82.8396 167.366 80.746 167.366 78.3998C167.366 76.0536 166.848 73.96 165.812 72.1191C164.812 70.2783 163.419 68.8525 161.633 67.8418C159.847 66.795 157.847 66.2716 155.633 66.2716C153.418 66.2716 151.418 66.795 149.632 67.8418C147.846 68.8525 146.436 70.2783 145.4 72.1191C144.4 73.96 143.9 76.0536 143.9 78.3998C143.9 80.746 144.4 82.8396 145.4 84.6805C146.436 86.5213 147.846 87.9652 149.632 89.0119C151.418 90.0226 153.418 90.528 155.633 90.528Z" fill="white"/>
<path d="M212.356 77.6418C214.499 78.3276 216.177 79.4827 217.392 81.107C218.606 82.6952 219.213 84.6624 219.213 87.0086C219.213 90.3294 217.927 92.8922 215.356 94.697C212.82 96.4657 209.105 97.3501 204.212 97.3501H184.818V59.4495H203.141C207.712 59.4495 211.213 60.3339 213.641 62.1026C216.106 63.8713 217.338 66.2716 217.338 69.3037C217.338 71.1446 216.892 72.7869 215.999 74.2307C215.142 75.6746 213.927 76.8116 212.356 77.6418ZM193.444 66.055V74.9887H202.069C204.212 74.9887 205.837 74.6097 206.945 73.8517C208.052 73.0937 208.605 71.9748 208.605 70.4948C208.605 69.0149 208.052 67.914 206.945 67.1921C205.837 66.4341 204.212 66.055 202.069 66.055H193.444ZM203.569 90.7445C205.855 90.7445 207.57 90.3655 208.713 89.6075C209.891 88.8495 210.481 87.6764 210.481 86.0882C210.481 82.9479 208.177 81.3777 203.569 81.3777H193.444V90.7445H203.569Z" fill="white"/>
<path d="M252.625 89.2285H235.214L231.892 97.3501H222.998L239.714 59.4495H248.286L265.055 97.3501H255.947L252.625 89.2285ZM249.893 82.5689L243.946 68.0584L237.999 82.5689H249.893Z" fill="white"/>
<path d="M271.089 59.4495H279.768V90.2031H298.573V97.3501H271.089V59.4495Z" fill="white"/>
</svg>
