<svg width="330" height="330" viewBox="0 0 330 330" fill="none" xmlns="http://www.w3.org/2000/svg">
<rect width="330" height="330" rx="60" fill="white"/>
<path d="M71.7166 152.567H41.6526L39.4432 171.556C38.2595 181.871 35.0243 185.856 31 185.856V200H39.9955V194.764H66.3508V200H75.3464V185.856H71.7166V152.567ZM62.7211 185.856H44.0198C46.2293 183.199 47.4918 178.354 48.1231 172.571L49.4645 160.928H62.7211V185.856Z" fill="black"/>
<path d="M90.624 176.244H123.292C123.686 169.68 122.503 163.429 118.321 158.349C114.375 153.739 108.457 151.394 102.223 151.394C95.9108 151.394 89.9927 153.739 86.1262 158.349C82.6543 162.491 80.9972 168.117 80.9972 174.134C80.9972 179.448 82.6543 184.684 86.1262 188.904C89.9138 193.514 96.3843 195.937 102.697 195.937C111.298 195.937 117.532 192.107 121.319 186.403L114.375 181.714C111.219 185.543 107.826 187.731 102.223 187.731C98.6726 187.731 95.2007 186.325 93.2279 183.668C91.6498 181.558 90.9396 178.979 90.624 176.244ZM102.223 159.521C105.853 159.521 109.167 160.928 111.14 163.585C112.245 164.991 112.955 166.867 113.428 168.821H91.0185C91.4131 166.867 92.1232 165.07 93.2279 163.585C95.2007 160.928 98.6726 159.521 102.223 159.521Z" fill="black"/>
<path d="M136.01 152.567L132.696 178.589C132.065 183.59 131.591 186.403 125.989 186.403V194.764C135.852 196.171 139.955 190.857 141.297 180.62L143.822 160.928H157.552V194.764H166.547V152.567H136.01Z" fill="black"/>
<path d="M211.253 194.764V169.368C211.253 164.132 209.911 159.287 205.808 155.849C202.81 153.27 198.233 151.394 193.656 151.394C186.239 151.394 180.715 153.895 176.218 158.427L181.82 164.679C184.819 161.709 188.606 160.303 192.867 160.303C198.154 160.303 201.232 162.725 201.784 166.711C195.313 167.648 186.555 168.508 181.189 170.93C175.823 173.431 173.693 177.495 173.693 182.965C173.693 190.857 179.216 195.937 187.738 195.937C194.445 195.937 198.785 194.295 202.967 189.216V194.764H211.253ZM200.364 182.574C198.312 185.856 194.524 188.044 189.948 188.044C186.002 188.044 183.083 185.621 183.083 182.261C183.083 178.979 186.318 177.182 190.105 176.4C193.814 175.541 198.154 174.759 201.863 174.134C201.863 177.104 201.863 180.073 200.364 182.574Z" fill="black"/>
<path d="M244.586 136C244.586 138.501 242.534 140.532 240.009 140.532C237.484 140.532 235.511 138.501 235.511 136H228.094C228.094 142.564 233.381 147.878 240.009 147.878C246.637 147.878 252.003 142.564 252.003 136H244.586ZM258 152.567H249.636L229.593 179.057V152.567H219.966V194.764H228.409L248.373 167.492V194.764H258V152.567Z" fill="black"/>
<path d="M299 124C299 131.18 293.18 137 286 137C278.82 137 273 131.18 273 124C273 116.82 278.82 111 286 111C293.18 111 299 116.82 299 124Z" fill="#F20C1A"/>
<g opacity="0.4">
<mask id="mask0_1385:29868" style="mask-type:alpha" maskUnits="userSpaceOnUse" x="0" y="0" width="330" height="330">
<rect width="330" height="330" fill="white"/>
</mask>
<g mask="url(#mask0_1385:29868)">
<path opacity="0.5" fill-rule="evenodd" clip-rule="evenodd" d="M227.572 292.796C241.512 285.943 254.173 276.885 265.096 266.066L306.352 307.322H227.572V292.796ZM165.697 307.322V307.305C187.334 307.201 207.847 302.251 226.197 293.473V307.322H165.697ZM103.822 307.322V293.473C122.173 302.251 142.685 307.201 164.322 307.305V307.322H103.822ZM23.6708 307.322L64.9235 266.066C75.8465 276.885 88.5103 285.943 102.447 292.796V307.322H23.6708ZM37.2226 227.572C44.0756 241.512 53.1341 254.173 63.9526 265.096L22.6971 306.351V227.572H37.2226ZM22.6971 165.697H22.7136C22.8181 187.337 27.7681 207.846 36.5461 226.197H22.6971V165.697ZM22.6971 103.822H36.5461C27.7681 122.173 22.8181 142.685 22.7136 164.322H22.6971V103.822ZM22.6971 23.6704L63.9526 64.9231C53.1341 75.8461 44.0756 88.5099 37.2226 102.447H22.6971V23.6704ZM102.447 37.2223C88.5103 44.0753 75.8465 53.1338 64.9235 63.9523L23.6708 22.6968H102.447V37.2223ZM164.322 22.6968V22.7133C142.685 22.8178 122.173 27.7706 103.822 36.5458V22.6968H164.322ZM226.197 22.6968V36.5458C207.847 27.7706 187.334 22.8178 165.697 22.7133V22.6968H226.197ZM306.352 22.6968L265.096 63.9523C254.173 53.1338 241.512 44.0753 227.572 37.2223V22.6968H306.352ZM292.797 102.447C285.946 88.5099 276.888 75.8461 266.069 64.9231L307.322 23.6704V102.447H292.797ZM307.323 164.322H307.306C307.204 142.685 302.252 122.173 293.476 103.822H307.323V164.322ZM307.323 226.197H293.476C302.252 207.846 307.204 187.337 307.306 165.697H307.323V226.197ZM228.546 227.572H291.252C284.506 241.135 275.651 253.466 265.096 264.122L228.546 227.572ZM227.572 228.543L264.125 265.096C253.466 275.65 241.135 284.502 227.572 291.251V228.543ZM165.697 253.68C189.136 253.499 210.423 244.179 226.197 229.117V291.958C207.877 300.824 187.356 305.826 165.697 305.93V253.68ZM103.822 229.117C119.596 244.179 140.884 253.499 164.322 253.68V305.93C142.663 305.826 122.143 300.824 103.822 291.958V229.117ZM102.447 228.545V291.251C88.887 284.502 76.5533 275.65 65.897 265.096L102.447 228.545ZM101.476 227.572L64.9234 264.122C54.3689 253.466 45.5167 241.135 38.7682 227.572H101.476ZM76.3387 165.697C76.5202 189.135 85.84 210.423 100.902 226.197H38.0615C29.1955 207.876 24.1932 187.356 24.0887 165.697H76.3387ZM100.902 103.822C85.84 119.596 76.5202 140.884 76.3387 164.322H24.0887C24.1932 142.663 29.1955 122.142 38.0642 103.822H100.902ZM101.476 102.447H38.7682C45.5167 88.8866 54.3689 76.5528 64.9234 65.8966L101.476 102.447ZM102.447 101.473L65.897 64.9231C76.5533 54.3686 88.887 45.5164 102.447 38.7679V101.473ZM164.322 76.3383C140.884 76.5198 119.596 85.8396 103.822 100.901V38.0638C122.143 29.1951 142.663 24.1928 164.322 24.0883V76.3383ZM226.197 100.901C210.423 85.8396 189.136 76.5198 165.697 76.3383V24.0883C187.356 24.1928 207.877 29.1951 226.197 38.0638V100.901ZM227.572 101.476V38.7679C241.135 45.5164 253.466 54.3686 264.125 64.9231L227.572 101.476ZM228.546 102.447L265.096 65.8966C275.651 76.5528 284.503 88.8866 291.252 102.447H228.546ZM253.681 164.322C253.502 140.884 244.179 119.596 229.118 103.822H291.958C300.824 122.142 305.826 142.663 305.931 164.322H253.681ZM253.681 165.697H305.931C305.826 187.356 300.824 207.876 291.958 226.197H229.118C244.179 210.423 253.502 189.135 253.681 165.697ZM165.697 227.572H225.826C210.245 242.724 189.053 252.124 165.697 252.305V227.572ZM164.323 227.572V252.305C140.967 252.124 119.775 242.724 104.194 227.572H164.323ZM102.447 165.697V225.826C87.2976 210.244 77.8981 189.053 77.7139 165.697H102.447ZM102.447 164.322H77.7139C77.8981 140.966 87.2976 119.775 102.447 104.193V164.322ZM164.323 102.447H104.194C119.775 87.2971 140.967 77.8976 164.323 77.7133V102.447ZM165.697 102.447V77.7133C189.053 77.8976 210.245 87.2971 225.826 102.447H165.697ZM227.572 164.322V104.193C242.725 119.775 252.124 140.966 252.306 164.322H227.572ZM227.572 165.697H252.306C252.124 189.053 242.725 210.244 227.572 225.828V165.697ZM165.697 166.668L225.227 226.197H165.697V166.668ZM164.323 166.67V226.197H104.796L164.323 166.67ZM163.352 165.697L103.822 225.226V165.697H163.352ZM163.352 164.322H103.822V104.793L163.352 164.322ZM164.323 163.348L104.796 103.822H164.323V163.348ZM165.697 163.351V103.822H225.227L165.697 163.351ZM226.198 165.697V225.223L166.671 165.697H226.198ZM166.671 164.322L226.198 104.795V164.322H166.671ZM307.322 306.351L266.069 265.096C276.888 254.173 285.946 241.512 292.797 227.572H307.322V306.351ZM333.734 332.759L309.672 308.697H330.698V307.322H308.698V227.572H330.698V226.197H308.698V165.697H330.698V164.322H308.698V103.822H330.698V102.447H308.698V22.6968H330.698V21.3218H309.672L330.984 0.00932419L330.011 -0.961426L308.698 20.3511V-0.678176H307.323V21.3218H227.573V-0.678176H226.198V21.3218H165.698V-0.678176H164.323V21.3218H103.823V-0.678176H102.448V21.3218H22.6981V-0.678176H21.3231V20.3511L0.0106094 -0.961426L-0.962891 0.00932419L20.3524 21.3218H-0.676891V22.6968H21.3231V102.447H-0.676891V103.822H21.3231V164.322H-0.676891V165.697H21.3231V226.197H-0.676891V227.572H21.3231V307.322H-0.676891V308.697H20.3524L-0.962891 330.009L0.0106094 330.983L21.3231 309.67V330.697H22.6981V308.697H102.448V330.697H103.823V308.697H164.323V330.697H165.698V308.697H226.198V330.697H227.573V308.697H307.323V330.697H308.698V309.67L332.761 333.733L333.734 332.759Z" fill="#7467C6"/>
</g>
</g>
</svg>
