<svg width="130" height="44" viewBox="0 0 130 44" fill="none" xmlns="http://www.w3.org/2000/svg">
<path fill-rule="evenodd" clip-rule="evenodd" d="M124.102 12.7531C127.359 12.7531 129.999 10.1129 129.999 6.85602C129.999 3.59918 127.359 0.958984 124.102 0.958984C120.845 0.958984 118.205 3.59918 118.205 6.85602C118.205 10.1129 120.845 12.7531 124.102 12.7531ZM97.6254 15.4805C98.8048 15.4805 99.7631 14.5222 99.7631 13.3428H103.228C103.228 16.4388 100.721 18.945 97.6254 18.945C94.5294 18.945 92.06 16.4388 92.06 13.3428H95.5246C95.5246 14.5222 96.446 15.4805 97.6254 15.4805ZM102.122 21.1565H106.029V41.0592H101.532V28.1961L92.2074 41.0592H88.2637V21.1565H92.7603V33.651L102.122 21.1565ZM27.8496 32.3241H43.1084C43.2927 29.2281 42.7398 26.2796 40.7864 23.8839C38.9436 21.7093 36.1793 20.6036 33.2676 20.6036C30.319 20.6036 27.5547 21.7093 25.7488 23.8839C24.127 25.8373 23.3531 28.491 23.3531 31.329C23.3531 33.8353 24.127 36.3047 25.7488 38.295C27.5179 40.4695 30.5402 41.6121 33.4887 41.6121C37.5061 41.6121 40.4178 39.8061 42.187 37.1155L38.9436 34.9041C37.4693 36.7101 35.8844 37.7421 33.2676 37.7421C31.609 37.7421 29.9873 37.0787 29.0659 35.8255C28.3287 34.8304 27.997 33.6141 27.8496 32.3241ZM33.2676 24.4367C34.963 24.4367 36.511 25.1002 37.4324 26.3533C37.9484 27.0167 38.2801 27.9013 38.5013 28.8227H28.0339C28.2182 27.9013 28.5499 27.0536 29.0659 26.3533C29.9873 25.1002 31.609 24.4367 33.2676 24.4367ZM19.0182 21.1565H4.97569L3.9437 30.1127C3.39084 34.9778 1.87971 36.8575 0 36.8575V43.5286H4.2017V41.0592H16.5119V43.5286H20.7136V36.8575H19.0182V21.1565ZM14.8165 36.8575H6.0814C7.1134 35.6044 7.70311 33.3193 7.99797 30.5918L8.62454 25.1002H14.8165V36.8575ZM47.5008 33.4298L49.0488 21.1565H63.3125V41.0592H59.1108V25.1002H52.6977L51.5182 34.3881C50.8917 39.2164 48.9751 41.7227 44.368 41.0592V37.1155C46.9848 37.1155 47.206 35.7887 47.5008 33.4298ZM84.1938 41.0592V29.0807C84.1938 26.6113 83.5672 24.3262 81.6507 22.7044C80.2501 21.4882 78.1124 20.6036 75.9747 20.6036C72.5101 20.6036 69.9301 21.783 67.8293 23.9207L70.4462 26.8693C71.8467 25.4687 73.6159 24.8053 75.6061 24.8053C78.0756 24.8053 79.513 25.9479 79.771 27.8276C79.2847 27.8987 78.7707 27.9689 78.2401 28.0414C75.4732 28.4194 72.2543 28.8591 70.1513 29.8178C67.645 30.9973 66.6499 32.9138 66.6499 35.4938C66.6499 39.2164 69.2299 41.6121 73.2104 41.6121C76.3433 41.6121 78.3704 40.8381 80.3238 38.4424V41.0592H84.1938ZM79.1075 35.3095C78.1493 36.8575 76.3801 37.8895 74.2424 37.8895C72.3996 37.8895 71.0359 36.747 71.0359 35.1621C71.0359 33.6141 72.547 32.7664 74.3161 32.3978C76.0484 31.9924 78.0756 31.6238 79.8078 31.329C79.8078 32.7295 79.8078 34.1301 79.1075 35.3095Z" fill="white"/>
</svg>
