<svg width="330" height="109" viewBox="0 0 330 109" fill="none" xmlns="http://www.w3.org/2000/svg">
<path d="M13.1466 50.615L13.0956 51.0577L12.6603 54.8354C12.6287 55.1097 12.8255 55.3577 13.0998 55.3894L12.779 58.1736C12.5047 58.142 12.2566 58.3388 12.225 58.6131L11.3545 66.1685C11.3228 66.4428 11.5196 66.6908 11.7939 66.7225L11.4731 69.5067C11.1988 69.4751 10.9508 69.6719 10.9192 69.9462L10.4839 73.7239L10.4838 73.7247C10.3414 74.9779 10.1738 76.1507 9.98292 77.2464C9.93566 77.5176 10.1165 77.7759 10.3872 77.8244C10.2228 78.716 10.0423 79.5562 9.84667 80.3466C9.58062 80.2788 9.30932 80.4384 9.2396 80.7044C8.50819 83.4948 7.58601 85.5964 6.53097 87.1121C6.37525 87.3358 6.42763 87.6423 6.64696 87.8019C6.07561 88.551 5.46493 89.152 4.82067 89.6159C4.67203 89.3929 4.37228 89.3261 4.14237 89.4679C3.16538 90.0704 2.11393 90.3507 1 90.3507H0.5V90.8507V96.4784C0.5 96.7546 0.723858 96.9784 1 96.9784V101.606C0.723858 101.606 0.5 101.83 0.5 102.106V107.734V108.234H1H4.54451C4.82065 108.234 5.04451 108.01 5.04451 107.734H7.58901C7.58901 108.01 7.81287 108.234 8.08901 108.234H11.6335H12.1335V107.734V105.651C12.1335 105.374 11.9097 105.151 11.6335 105.151V104.067C11.9097 104.067 12.1335 103.844 12.1335 103.567V101.984H15.0951C15.3713 101.984 15.5951 101.76 15.5951 101.484H18.0567C18.0567 101.76 18.2806 101.984 18.5567 101.984H25.4799C25.756 101.984 25.9799 101.76 25.9799 101.484H28.4415C28.4415 101.76 28.6653 101.984 28.9415 101.984H35.8647C36.1408 101.984 36.3647 101.76 36.3647 101.484H38.8263C38.8263 101.76 39.0501 101.984 39.3263 101.984H42.2879V103.567C42.2879 103.844 42.5117 104.067 42.7879 104.067V105.151C42.5117 105.151 42.2879 105.374 42.2879 105.651V107.734V108.234H42.7879H46.3324C46.6085 108.234 46.8324 108.01 46.8324 107.734H49.3769C49.3769 108.01 49.6007 108.234 49.8769 108.234H53.4214H53.9214V107.734V102.106C53.9214 101.83 53.6975 101.606 53.4214 101.606V96.9784C53.6975 96.9784 53.9214 96.7546 53.9214 96.4784V90.8507V90.3507H53.4214H51.9912C51.715 90.3507 51.4912 90.5746 51.4912 90.8507H51.0609C51.0609 90.5746 50.8371 90.3507 50.5609 90.3507H49.6307V86.4356C49.6307 86.1595 49.4068 85.9356 49.1307 85.9356V82.5206C49.4068 82.5206 49.6307 82.2967 49.6307 82.0206V73.1904C49.6307 72.9142 49.4068 72.6904 49.1307 72.6904V69.2753C49.4068 69.2753 49.6307 69.0514 49.6307 68.7753V59.9451C49.6307 59.669 49.4068 59.4451 49.1307 59.4451V56.03C49.4068 56.03 49.6307 55.8062 49.6307 55.53V51.115V50.615H49.1307H45.182C44.9058 50.615 44.682 50.8388 44.682 51.115H41.7333C41.7333 50.8388 41.5094 50.615 41.2333 50.615H33.3359C33.0597 50.615 32.8359 50.8388 32.8359 51.115H29.8872C29.8872 50.8388 29.6633 50.615 29.3872 50.615H21.4897C21.2136 50.615 20.9897 50.8388 20.9897 51.115H18.041C18.041 50.8388 17.8172 50.615 17.541 50.615H13.5923H13.1466ZM17.3896 90.3507C18.2016 89.1641 18.8878 87.7266 19.4666 86.099C19.5592 85.8388 19.4233 85.5529 19.1631 85.4603C19.1616 85.4598 19.1602 85.4593 19.1588 85.4588C19.6124 84.1061 19.9994 82.6164 20.3267 81.0171C20.3275 81.0173 20.3283 81.0174 20.3291 81.0176C20.6001 81.0703 20.8626 80.8933 20.9153 80.6222C21.2553 78.8731 21.5266 77.004 21.7379 75.049C21.738 75.0485 21.7381 75.048 21.7381 75.0475L22.2663 70.4177C22.2976 70.1433 22.1006 69.8955 21.8262 69.8642L22.2415 66.225C22.5158 66.2563 22.7636 66.0593 22.7949 65.7849L23.2729 61.5955H28.0502C28.3263 61.5955 28.5502 61.3717 28.5502 61.0955H32.7737C32.7737 61.3717 32.9975 61.5955 33.2737 61.5955H37.9972V66.0547C37.9972 66.3309 38.221 66.5547 38.4972 66.5547V70.5139C38.221 70.5139 37.9972 70.7378 37.9972 71.0139V80.9323C37.9972 81.2085 38.221 81.4323 38.4972 81.4323V85.3915C38.221 85.3915 37.9972 85.6154 37.9972 85.8915V90.3507H34.8127C34.5366 90.3507 34.3127 90.5746 34.3127 90.8507H31.6283C31.6283 90.5746 31.4045 90.3507 31.1283 90.3507H23.7595C23.4833 90.3507 23.2595 90.5746 23.2595 90.8507H20.575C20.575 90.5746 20.3512 90.3507 20.075 90.3507H17.3896ZM110.568 79.8777L110.596 79.4074C110.673 78.1231 110.7 76.8474 110.67 75.5846C110.663 75.3086 110.434 75.0901 110.158 75.0967C110.157 75.0967 110.156 75.0968 110.155 75.0968C110.121 74.1629 110.055 73.2373 109.954 72.3219C109.955 72.3218 109.956 72.3216 109.957 72.3215C110.231 72.2871 110.426 72.0372 110.391 71.7632C110.069 69.1936 109.465 66.6998 108.51 64.3247C108.407 64.0685 108.116 63.9443 107.86 64.0473C107.858 64.0479 107.857 64.0485 107.855 64.0491C107.495 63.1995 107.087 62.3667 106.63 61.5525C106.631 61.5517 106.633 61.5508 106.634 61.5499C106.872 61.4099 106.952 61.1034 106.812 60.8654C106.17 59.7751 105.438 58.7188 104.608 57.7014L104.609 57.7014L104.602 57.6941C103.807 56.7555 102.945 55.8939 102.027 55.1098C101.817 54.9305 101.501 54.9554 101.322 55.1655C101.32 55.1669 101.319 55.1683 101.318 55.1697C100.652 54.6266 99.9573 54.1236 99.2371 53.661C99.238 53.6595 99.239 53.6579 99.2399 53.6564C99.3841 53.4209 99.31 53.1131 99.0745 52.9689C97.0108 51.7056 94.7561 50.7598 92.3873 50.1337C92.1203 50.0632 91.8467 50.2224 91.7761 50.4894C91.7757 50.4909 91.7753 50.4924 91.7749 50.494C90.9462 50.2918 90.1037 50.1288 89.2508 50.0053C89.251 50.0038 89.2512 50.0023 89.2514 50.0008C89.286 49.7269 89.092 49.4767 88.818 49.4421C87.6248 49.2913 86.4135 49.2158 85.1925 49.2158C83.9689 49.2158 82.757 49.2898 81.5651 49.4376C81.2911 49.4715 81.0965 49.7212 81.1304 49.9953C81.1306 49.9968 81.1308 49.9982 81.131 49.9997C80.2756 50.1213 79.4317 50.282 78.6027 50.4814C78.6023 50.4799 78.6019 50.4784 78.6015 50.4768C78.5319 50.2096 78.2587 50.0495 77.9915 50.1192C75.6089 50.7406 73.35 51.6822 71.292 52.942C71.0565 53.0862 70.9825 53.394 71.1266 53.6295C71.1276 53.6311 71.1286 53.6326 71.1295 53.6342C70.4079 54.0982 69.7134 54.6031 69.0494 55.1487C69.0482 55.1472 69.047 55.1458 69.0457 55.1443C68.8655 54.9351 68.5498 54.9115 68.3405 55.0917C67.4232 55.8817 66.5663 56.7506 65.7795 57.698L65.7794 57.698C65.0483 58.5788 64.3842 59.5138 63.7862 60.4959C63.6426 60.7317 63.7174 61.0394 63.9532 61.183C63.9547 61.1839 63.9562 61.1848 63.9577 61.1856C63.5637 61.8638 63.2006 62.5641 62.8681 63.2843C62.8667 63.2837 62.8652 63.283 62.8638 63.2824C62.6109 63.1714 62.316 63.2864 62.205 63.5393C61.3061 65.5875 60.6457 67.7821 60.2148 70.0727C60.1638 70.3441 60.3424 70.6055 60.6138 70.6565C60.615 70.6567 60.6163 70.657 60.6175 70.6572C60.4845 71.4279 60.3775 72.2096 60.2961 73.0004C60.2949 73.0003 60.2938 73.0002 60.2926 73.0001C60.0176 72.9756 59.7747 73.1787 59.7503 73.4538C59.6506 74.5743 59.6012 75.7112 59.6012 76.8593C59.6012 77.9352 59.6566 79.0087 59.7685 80.0746C59.7973 80.3493 60.0433 80.5485 60.3179 80.5197C60.3193 80.5196 60.3207 80.5194 60.3221 80.5193C60.4098 81.2376 60.5236 81.9519 60.664 82.6605C60.6626 82.6608 60.6612 82.6611 60.6598 82.6614C60.3899 82.7197 60.2184 82.9859 60.2767 83.2558C60.7307 85.355 61.4161 87.4023 62.3405 89.3542C62.4587 89.6037 62.7569 89.7102 63.0064 89.592C63.0078 89.5914 63.0092 89.5907 63.0107 89.59C63.3313 90.2354 63.6789 90.8695 64.0539 91.4907C64.14 91.6333 64.2275 91.7751 64.3164 91.9163C64.8751 92.803 65.4908 93.6621 66.1641 94.4885L65.7763 94.8041C65.7764 94.8042 65.7764 94.8043 65.7765 94.8044C66.5669 95.7758 67.4524 96.6667 68.4149 97.4759C68.6262 97.6536 68.9416 97.6263 69.1193 97.4149C69.1206 97.4134 69.1219 97.4119 69.1232 97.4103C69.8132 97.9627 70.5415 98.4744 71.3019 98.945C71.301 98.9465 71.3001 98.948 71.2992 98.9496C71.1589 99.1875 71.2381 99.494 71.476 99.6342C73.5932 100.882 75.9335 101.824 78.3714 102.452C78.6389 102.52 78.9115 102.359 78.9803 102.092C78.9806 102.091 78.981 102.089 78.9813 102.088C79.8443 102.294 80.719 102.46 81.5999 102.586C81.5997 102.588 81.5995 102.589 81.5993 102.591C81.5648 102.865 81.7589 103.115 82.0329 103.149C83.2676 103.305 84.5123 103.383 85.7522 103.383C87.2691 103.383 88.7264 103.283 90.1235 103.09C90.397 103.052 90.5881 102.799 90.5502 102.526C90.55 102.524 90.5498 102.523 90.5496 102.522C91.6697 102.347 92.7484 102.11 93.7857 101.817C93.7862 101.818 93.7866 101.82 93.7871 101.821C93.8674 102.085 94.1467 102.235 94.4109 102.154C97.3491 101.261 99.9552 99.9097 102.223 98.1934C102.443 98.0268 102.487 97.7132 102.32 97.493C102.319 97.4916 102.318 97.4903 102.317 97.4889C103.188 96.8011 104.005 96.0574 104.77 95.2638C104.771 95.2649 104.772 95.266 104.773 95.2672C104.976 95.4547 105.292 95.4425 105.48 95.2398C106.474 94.1656 107.375 93.0073 108.183 91.7784L108.453 91.3675L108.047 91.0906L105.311 89.225C105.083 89.0695 104.772 89.1283 104.616 89.3565L102.706 88.0543C102.862 87.8261 102.803 87.5151 102.575 87.3595L99.8388 85.494L99.4598 85.2356L99.1698 85.5909C97.9343 87.1044 96.6781 88.3872 95.3145 89.4249C95.0966 89.5906 95.0529 89.9003 95.215 90.1197C93.9806 91.0031 92.6505 91.7012 91.1674 92.198C91.0851 91.9382 90.8093 91.7916 90.5474 91.8701C88.9739 92.3412 87.2138 92.5894 85.1925 92.5894C83.8754 92.5894 82.5691 92.4186 81.3294 92.0842C81.0656 92.0131 80.7941 92.1669 80.7188 92.4285C79.738 92.1272 78.8018 91.7244 77.9365 91.223C78.0775 90.991 78.0075 90.6878 77.7773 90.5415C76.6786 89.8433 75.7201 88.974 74.9618 87.9428L74.9608 87.9414C74.3532 87.1211 73.857 86.2365 73.4521 85.2997C73.3437 85.0487 73.054 84.9318 72.8022 85.036C72.5393 84.3708 72.3189 83.6838 72.1341 82.9796C72.3994 82.9134 72.5628 82.6459 72.4995 82.3791C72.3069 81.5672 72.1592 80.7313 72.0462 79.8777H75.7716C76.0477 79.8777 76.2716 79.6539 76.2716 79.3777H79.5623C79.5623 79.6539 79.7862 79.8777 80.0623 79.8777H88.6438C88.9199 79.8777 89.1438 79.6539 89.1438 79.3777H92.4345C92.4345 79.6539 92.6583 79.8777 92.9345 79.8777H101.516C101.792 79.8777 102.016 79.6539 102.016 79.3777H105.307C105.307 79.6539 105.531 79.8777 105.807 79.8777H110.097H110.568ZM95.33 64.5631L95.3298 64.5632L95.3381 64.5739C95.7696 65.1287 96.1512 65.7529 96.4888 66.4299C96.6107 66.6745 96.906 66.7754 97.1516 66.6581C97.3276 67.0431 97.4901 67.4407 97.6404 67.8479C97.3828 67.9392 97.2459 68.221 97.3343 68.4805C97.5047 68.9804 97.658 69.4942 97.7962 70.0165H94.0227C93.7466 70.0165 93.5227 70.2403 93.5227 70.5165H90.1076C90.1076 70.2403 89.8838 70.0165 89.6076 70.0165H80.7775C80.5013 70.0165 80.2775 70.2403 80.2775 70.5165H76.8624C76.8624 70.2403 76.6385 70.0165 76.3624 70.0165H72.5666C72.6891 69.4886 72.8319 68.9727 72.9963 68.4711C73.0815 68.211 72.9417 67.9312 72.6837 67.8426C72.8292 67.4392 72.989 67.0449 73.1638 66.661C73.4095 66.778 73.7047 66.6768 73.8264 66.4322C74.1558 65.77 74.5331 65.1449 74.9615 64.5635L74.9618 64.5631C75.7201 63.5319 76.6786 62.6626 77.7773 61.9644C78.0075 61.8181 78.0775 61.5149 77.9365 61.2829C78.8018 60.7815 79.738 60.3787 80.7188 60.0774C80.7941 60.339 81.0656 60.4928 81.3294 60.4217C82.5691 60.0873 83.8754 59.9166 85.1925 59.9166C86.5257 59.9166 87.8183 60.0837 89.0321 60.4103C89.2958 60.4813 89.5671 60.3275 89.6424 60.066C90.6185 60.3666 91.5428 60.7702 92.3957 61.2736C92.2528 61.5043 92.3201 61.808 92.5488 61.9563C93.6255 62.6544 94.5673 63.5259 95.33 64.5631ZM124.69 50.615L124.635 51.0524L124.2 54.5036C124.165 54.7776 124.359 55.0277 124.633 55.0623L124.323 57.5213C124.049 57.4868 123.799 57.6809 123.765 57.9548L122.894 64.8573C122.859 65.1313 123.053 65.3814 123.327 65.4159L123.017 67.875C122.743 67.8405 122.493 68.0346 122.459 68.3085L121.588 75.211C121.554 75.485 121.748 75.7351 122.022 75.7696L121.711 78.2287C121.437 78.1942 121.187 78.3882 121.153 78.6622L120.718 82.1134L120.717 82.114C120.493 83.9057 120.291 85.4201 119.945 86.6771C119.873 86.94 120.025 87.2115 120.285 87.2888C119.867 88.5871 119.259 89.6021 118.266 90.3103C118.124 90.0871 117.83 90.0124 117.598 90.1447C116.632 90.694 115.27 91.0037 113.285 91.0037H112.785V91.5037V94.8305C112.785 95.1067 113.009 95.3305 113.285 95.3305V97.6574C113.009 97.6574 112.785 97.8812 112.785 98.1574V101.484V101.917L113.214 101.979C114.977 102.233 116.596 102.308 118.081 102.207C118.357 102.188 118.565 101.95 118.546 101.674C118.546 101.672 118.546 101.669 118.546 101.667C119.888 101.536 121.106 101.252 122.209 100.821C122.211 100.825 122.212 100.828 122.214 100.831C122.325 101.084 122.62 101.198 122.873 101.087C125.876 99.7627 128.011 97.348 129.492 94.0275C129.604 93.7753 129.491 93.4797 129.239 93.3673C129.237 93.3664 129.235 93.3656 129.233 93.3648C129.69 92.2703 130.08 91.0756 130.412 89.7847C130.413 89.785 130.415 89.7853 130.416 89.7856C130.684 89.8504 130.954 89.6853 131.019 89.4169C131.374 87.9449 131.657 86.3588 131.877 84.6656L131.877 84.6642L132.374 80.7466C132.409 80.4726 132.215 80.2224 131.941 80.1876L132.313 77.262C132.587 77.2968 132.837 77.1029 132.872 76.829L133.867 68.9937C133.901 68.7198 133.708 68.4695 133.434 68.4347L133.805 65.5092C134.079 65.5439 134.329 65.3501 134.364 65.0761L134.806 61.5955H139.776C140.052 61.5955 140.276 61.3717 140.276 61.0955H144.686C144.686 61.3717 144.91 61.5955 145.186 61.5955H150.096V65.5832C150.096 65.8593 150.32 66.0832 150.596 66.0832V69.5708C150.32 69.5708 150.096 69.7947 150.096 70.0708V79.0461C150.096 79.3222 150.32 79.5461 150.596 79.5461V83.0337C150.32 83.0337 150.096 83.2576 150.096 83.5337V92.509C150.096 92.7851 150.32 93.009 150.596 93.009V96.4966C150.32 96.4966 150.096 96.7205 150.096 96.9966V101.484V101.984H150.596H154.14C154.416 101.984 154.64 101.76 154.64 101.484H157.185C157.185 101.76 157.409 101.984 157.685 101.984H161.229H161.729V101.484V97.2868C161.729 97.0107 161.505 96.7868 161.229 96.7868V93.5894C161.505 93.5894 161.729 93.3655 161.729 93.0894V84.6945C161.729 84.4183 161.505 84.1945 161.229 84.1945V80.997C161.505 80.997 161.729 80.7732 161.729 80.497V72.1022C161.729 71.826 161.505 71.6022 161.229 71.6022V68.4047C161.505 68.4047 161.729 68.1809 161.729 67.9047V59.5098C161.729 59.2337 161.505 59.0098 161.229 59.0098V55.8124C161.505 55.8124 161.729 55.5885 161.729 55.3124V51.115V50.615H161.229H157.218C156.942 50.615 156.718 50.8388 156.718 51.115H153.707C153.707 50.8388 153.484 50.615 153.207 50.615H145.186C144.91 50.615 144.686 50.8388 144.686 51.115H141.675C141.675 50.8388 141.451 50.615 141.175 50.615H133.153C132.877 50.615 132.653 50.8388 132.653 51.115H129.642C129.642 50.8388 129.418 50.615 129.142 50.615H125.131H124.69ZM211.684 60.0568C212.457 61.5229 213.015 63.0895 213.397 64.7287C213.399 64.7283 213.4 64.7279 213.402 64.7275C213.672 64.6708 213.937 64.8439 213.994 65.1142C214.402 67.0601 214.575 69.0938 214.575 71.1694V74.5377C214.575 74.8139 214.351 75.0377 214.075 75.0377V77.406C214.351 77.406 214.575 77.6299 214.575 77.906V84.6427C214.575 84.9188 214.351 85.1427 214.075 85.1427V87.511C214.351 87.511 214.575 87.7348 214.575 88.011V94.7476C214.575 95.0238 214.351 95.2476 214.075 95.2476V97.6159C214.351 97.6159 214.575 97.8398 214.575 98.1159V101.484V101.984H214.075H210.81C210.534 101.984 210.31 101.76 210.31 101.484H208.046C208.046 101.76 207.822 101.984 207.546 101.984H204.281H203.781V101.484V99.2767C203.781 99.0006 204.005 98.7767 204.281 98.7767V97.5692C204.005 97.5692 203.781 97.3453 203.781 97.0692V96.2203C203.298 96.7631 202.81 97.2701 202.317 97.7429C202.117 97.9339 201.801 97.927 201.61 97.7275C201.608 97.7262 201.607 97.7249 201.606 97.7236C200.992 98.2863 200.369 98.7949 199.731 99.2533C199.733 99.2551 199.734 99.2569 199.735 99.2588C199.89 99.4873 199.831 99.7982 199.603 99.9533C197.637 101.288 195.536 102.173 193.185 102.709C192.915 102.77 192.647 102.601 192.586 102.332C192.586 102.33 192.585 102.328 192.585 102.327C191.817 102.483 191.022 102.604 190.193 102.692C190.194 102.694 190.194 102.695 190.194 102.697C190.219 102.972 190.016 103.215 189.741 103.239C188.642 103.338 187.491 103.383 186.279 103.383C184.753 103.383 183.302 103.247 181.939 102.982C181.668 102.929 181.491 102.667 181.543 102.396C181.544 102.393 181.544 102.391 181.545 102.389C180.443 102.146 179.405 101.814 178.436 101.401C178.435 101.403 178.434 101.405 178.433 101.408C178.317 101.658 178.02 101.767 177.769 101.651C174.987 100.358 172.779 98.3775 171.298 95.8338C171.159 95.5952 171.24 95.2891 171.479 95.1501C171.481 95.1486 171.484 95.1471 171.487 95.1456C170.985 94.2072 170.582 93.1946 170.284 92.1143C170.282 92.1149 170.279 92.1156 170.277 92.1162C170.008 92.1811 169.738 92.0161 169.673 91.7476C169.345 90.3886 169.175 88.9351 169.175 87.3995C169.175 85.2049 169.454 83.1793 170.069 81.3368C170.157 81.0749 170.44 80.9334 170.702 81.0208C170.705 81.0217 170.707 81.0227 170.71 81.0237C171.295 79.4551 172.142 78.0396 173.285 76.7818C173.282 76.7797 173.28 76.7775 173.278 76.7754C173.081 76.5823 173.077 76.2657 173.27 76.0683C174.6 74.7094 176.274 73.5472 178.324 72.5825L178.329 72.5799C179.532 72.0319 180.868 71.5523 182.293 71.1272C182.558 71.0483 182.836 71.1988 182.915 71.4634C182.915 71.4644 182.916 71.4653 182.916 71.4662C183.897 71.1855 184.922 70.9285 185.975 70.6911C185.974 70.6905 185.974 70.69 185.974 70.6894C185.915 70.4196 186.086 70.1532 186.356 70.0944C189.009 69.516 191.822 69.0565 194.578 68.6538C194.851 68.6139 195.105 68.803 195.145 69.0763C195.145 69.0764 195.145 69.0766 195.145 69.0768C196.2 68.9247 197.246 68.7802 198.271 68.6398C198.234 68.3662 198.425 68.1141 198.699 68.0767L198.939 68.044C200.101 67.8853 201.229 67.7312 202.307 67.5761C202.04 66.1583 201.481 64.9453 200.653 63.9575C200.479 63.7501 200.502 63.443 200.702 63.2638C199.869 62.393 198.813 61.7009 197.542 61.21C197.451 61.465 197.172 61.6013 196.913 61.515C195.618 61.0822 194.093 60.8493 192.342 60.8493C190.722 60.8493 189.166 61.0268 187.686 61.3865C187.419 61.4511 187.151 61.2897 187.083 61.0253C185.849 61.3613 184.664 61.8243 183.538 62.4179C183.669 62.6574 183.583 62.9582 183.345 63.0928C182.02 63.8415 180.78 64.7833 179.636 65.9264L179.261 66.3016L178.909 65.9047L176.701 63.4173C176.518 63.2108 176.537 62.8948 176.743 62.7115L175.2 60.972C174.993 61.1553 174.677 61.1365 174.494 60.9299L172.286 58.4426L171.976 58.0933L172.304 57.7602C173.225 56.823 174.183 55.9561 175.184 55.1631C175.4 54.9916 175.714 55.028 175.886 55.2444C175.887 55.2455 175.888 55.2467 175.889 55.2478C176.639 54.6745 177.413 54.1432 178.212 53.6552C178.211 53.6538 178.21 53.6524 178.209 53.651C178.07 53.4126 178.15 53.1064 178.389 52.967C180.586 51.682 182.972 50.7124 185.586 50.0812C185.855 50.0164 186.125 50.1814 186.189 50.4499C186.19 50.4513 186.19 50.4528 186.191 50.4542C187.088 50.2544 188.012 50.0944 188.966 49.975C188.966 49.9738 188.966 49.9725 188.966 49.9712C188.936 49.6966 189.134 49.4498 189.408 49.4198C190.65 49.2843 191.937 49.2158 193.274 49.2158C195.058 49.2158 196.837 49.453 198.551 49.8781C198.819 49.9446 198.982 50.2158 198.915 50.4838C198.915 50.4856 198.915 50.4873 198.914 50.4891C200.286 50.8612 201.612 51.3558 202.857 51.9469C202.857 51.9453 202.858 51.9437 202.859 51.9421C202.983 51.6952 203.283 51.5955 203.53 51.7192C205.183 52.5482 206.689 53.5457 207.965 54.6533C209.616 56.0508 210.901 57.6393 211.88 59.372C212.016 59.6124 211.931 59.9174 211.69 60.0532C211.688 60.0544 211.686 60.0556 211.684 60.0568ZM202.568 83.243C202.726 82.4492 202.823 81.6361 202.882 80.8111C202.608 80.794 202.399 80.5593 202.414 80.285C202.465 79.3545 202.473 78.4091 202.475 77.452C201.168 77.6761 199.802 77.9159 198.416 78.1691C198.145 78.2187 197.884 78.0389 197.835 77.7675C196.621 77.9912 195.394 78.225 194.18 78.4671C194.235 78.7376 194.06 79.001 193.789 79.0557C192.209 79.3749 190.657 79.7079 189.191 80.0511L189.179 80.0539L189.179 80.0538C187.872 80.3261 186.632 80.7019 185.538 81.1919C185.288 81.3034 184.996 81.1945 184.881 80.9485C183.953 81.4075 183.135 81.9561 182.479 82.6032C182.673 82.7864 182.69 83.0925 182.513 83.2958C181.729 84.1938 181.275 85.2678 181.275 86.56C181.275 87.8592 181.665 89.0241 182.354 89.9929C182.51 90.2127 182.464 90.5156 182.252 90.6787C182.866 91.4156 183.652 92.0309 184.571 92.4941C184.685 92.25 184.973 92.139 185.222 92.2462C186.288 92.7052 187.53 92.9625 188.89 92.9625C190.536 92.9625 192.089 92.7134 193.517 92.2562C193.778 92.1729 194.056 92.314 194.143 92.5719C195.382 92.1283 196.526 91.5301 197.554 90.8023C197.393 90.5833 197.436 90.2745 197.653 90.1087C198.905 89.1518 199.96 87.9891 200.775 86.6743C201.343 85.7165 201.723 84.6926 201.975 83.6172C202.038 83.3512 202.302 83.1852 202.568 83.243ZM259.197 50.615L259.047 50.8151L256.414 54.3286C256.249 54.5495 256.294 54.8629 256.515 55.0285L254.482 57.7416C254.261 57.5761 253.948 57.621 253.782 57.842L248.517 64.8688C248.351 65.0898 248.396 65.4032 248.617 65.5687L246.585 68.2819C246.364 68.1163 246.05 68.1612 245.885 68.3822L240.62 75.409C240.454 75.63 240.499 75.9434 240.72 76.109L238.687 78.8221C238.466 78.6565 238.153 78.7015 237.987 78.9225L236.255 81.2345V79.2223C236.255 78.9461 236.031 78.7223 235.755 78.7223V76.2088C236.031 76.2088 236.255 75.985 236.255 75.7088V68.682C236.255 68.4059 236.031 68.182 235.755 68.182V65.6686C236.031 65.6686 236.255 65.4447 236.255 65.1686V58.1418C236.255 57.8656 236.031 57.6418 235.755 57.6418V55.1284C236.031 55.1284 236.255 54.9045 236.255 54.6284V51.115V50.615H235.755H231.962C231.685 50.615 231.462 50.8388 231.462 51.115H228.668C228.668 50.8388 228.444 50.615 228.168 50.615H224.375H223.875V51.115V55.3124C223.875 55.5885 224.099 55.8124 224.375 55.8124V59.0098C224.099 59.0098 223.875 59.2337 223.875 59.5098V67.9047C223.875 68.1809 224.099 68.4047 224.375 68.4047V71.6022C224.099 71.6022 223.875 71.826 223.875 72.1022V80.497C223.875 80.7732 224.099 80.997 224.375 80.997V84.1945C224.099 84.1945 223.875 84.4183 223.875 84.6945V93.0894C223.875 93.3655 224.099 93.5894 224.375 93.5894V96.7868C224.099 96.7868 223.875 97.0107 223.875 97.2868V101.484V101.984H224.375H227.702C227.978 101.984 228.202 101.76 228.202 101.484H230.529C230.529 101.76 230.753 101.984 231.029 101.984H234.356H234.611L234.76 101.778L237.383 98.1607C237.545 97.9371 237.495 97.6245 237.271 97.4624L239.306 94.655C239.53 94.817 239.843 94.7672 240.005 94.5436L245.249 87.3095C245.411 87.0859 245.361 86.7733 245.138 86.6112L247.173 83.8038C247.396 83.9659 247.709 83.916 247.871 83.6924L253.115 76.4583C253.277 76.2348 253.227 75.9221 253.004 75.76L255.039 72.9526C255.263 73.1147 255.575 73.0648 255.737 72.8413L257.455 70.4724V72.5478C257.455 72.824 257.678 73.0478 257.955 73.0478V75.6649C257.678 75.6649 257.455 75.8887 257.455 76.1649V83.399C257.455 83.6751 257.678 83.899 257.955 83.899V86.516C257.678 86.516 257.455 86.7399 257.455 87.016V94.2501C257.455 94.5263 257.678 94.7501 257.955 94.7501V97.3672C257.678 97.3672 257.455 97.5911 257.455 97.8672V101.484V101.984H257.955H261.748C262.024 101.984 262.248 101.76 262.248 101.484H265.041C265.041 101.76 265.265 101.984 265.541 101.984H269.334H269.834V101.484V97.2868C269.834 97.0107 269.611 96.7868 269.334 96.7868V93.5894C269.611 93.5894 269.834 93.3655 269.834 93.0894V84.6945C269.834 84.4183 269.611 84.1945 269.334 84.1945V80.997C269.611 80.997 269.834 80.7732 269.834 80.497V72.1022C269.834 71.826 269.611 71.6022 269.334 71.6022V68.4047C269.611 68.4047 269.834 68.1809 269.834 67.9047V59.5098C269.834 59.2337 269.611 59.0098 269.334 59.0098V55.8124C269.611 55.8124 269.834 55.5885 269.834 55.3124V51.115V50.615H269.334H266.039C265.762 50.615 265.539 50.8388 265.539 51.115H263.243C263.243 50.8388 263.019 50.615 262.743 50.615H259.447H259.197ZM252.32 33.7944C252.185 34.0267 252.258 34.3222 252.482 34.4657C252.128 34.9646 251.692 35.401 251.193 35.7551C251.049 35.5314 250.754 35.4582 250.521 35.5927C249.799 36.0108 248.962 36.2504 248.067 36.2504C247.173 36.2504 246.346 36.0108 245.639 35.5938C245.408 35.4576 245.112 35.5283 244.967 35.7503C244.478 35.3954 244.053 34.9581 243.709 34.4585C243.935 34.3185 244.013 34.0241 243.882 33.7899C243.48 33.0702 243.251 32.2342 243.251 31.3403V30.8403H242.751H239.828C239.552 30.8403 239.328 31.0642 239.328 31.3403H237.405C237.405 31.0642 237.181 30.8403 236.905 30.8403H233.983H233.483V31.3403C233.483 32.6501 233.651 33.9204 233.969 35.1298C234.039 35.3969 234.313 35.5565 234.58 35.4863C234.583 35.4856 234.586 35.4848 234.588 35.484C234.85 36.3553 235.193 37.1909 235.608 37.982C235.606 37.9834 235.603 37.9848 235.6 37.9863C235.361 38.1231 235.277 38.4285 235.414 38.6684C236.688 40.9012 238.529 42.7627 240.747 44.0539C240.985 44.1928 241.291 44.112 241.43 43.8733C241.432 43.8707 241.433 43.8681 241.435 43.8655C242.223 44.2871 243.056 44.6357 243.926 44.9023C243.925 44.9051 243.924 44.908 243.923 44.9109C243.852 45.1777 244.01 45.4518 244.277 45.5232C245.485 45.8463 246.755 46.0184 248.067 46.0184C249.381 46.0184 250.655 45.846 251.868 45.5223C252.134 45.451 252.293 45.177 252.222 44.9102C252.221 44.9073 252.22 44.9045 252.219 44.9017C253.092 44.6351 253.929 44.2866 254.722 43.8651C254.723 43.8677 254.724 43.8703 254.726 43.8728C254.864 44.1119 255.17 44.1936 255.409 44.0554C257.637 42.7671 259.494 40.9101 260.782 38.682C260.921 38.443 260.839 38.1371 260.6 37.9989C260.597 37.9974 260.595 37.9959 260.592 37.9945C261.014 37.2023 261.362 36.3653 261.629 35.4924C261.631 35.4932 261.634 35.494 261.637 35.4948C261.904 35.566 262.178 35.4074 262.249 35.1406C262.573 33.9281 262.745 32.6541 262.745 31.3403V30.8403H262.245H259.323C259.047 30.8403 258.823 31.0642 258.823 31.3403H256.9C256.9 31.0642 256.676 30.8403 256.4 30.8403H253.477H252.977V31.3403C252.977 32.2347 252.738 33.0724 252.32 33.7944Z" stroke="#7467C6" stroke-linecap="round" stroke-dasharray="8 4"/>
<path d="M328.246 7.89775C328.7 8.74597 329.074 9.6431 329.358 10.5792C329.096 10.6539 328.942 10.9251 329.012 11.1891C329.331 12.3798 329.5 13.6317 329.5 14.924C329.5 16.2164 329.331 17.4682 329.012 18.6589C328.942 18.923 329.096 19.1942 329.358 19.2689C329.074 20.205 328.7 21.1021 328.246 21.9503C328.008 21.8178 327.707 21.9002 327.57 22.1368C326.304 24.3259 324.478 26.1515 322.289 27.418C322.053 27.5549 321.97 27.856 322.103 28.0939C321.254 28.5474 320.357 28.9213 319.421 29.2057C319.347 28.9439 319.075 28.7894 318.811 28.86C317.621 29.1782 316.369 29.3481 315.076 29.3481C313.784 29.3481 312.532 29.1782 311.341 28.86C311.077 28.7894 310.806 28.9439 310.732 29.2057C309.795 28.9213 308.898 28.5474 308.05 28.0939C308.183 27.856 308.1 27.5549 307.864 27.418C305.675 26.1515 303.849 24.3259 302.582 22.1368C302.445 21.9002 302.144 21.8178 301.906 21.9503C301.453 21.1021 301.079 20.205 300.795 19.2689C301.057 19.1942 301.211 18.923 301.14 18.6589C300.822 17.4682 300.652 16.2164 300.652 14.924C300.652 13.6317 300.822 12.3798 301.14 11.1891C301.211 10.9251 301.057 10.6539 300.795 10.5792C301.079 9.64311 301.453 8.74596 301.906 7.89775C302.144 8.03023 302.445 7.94782 302.582 7.71123C303.849 5.52217 305.675 3.69661 307.864 2.43004C308.1 2.29315 308.183 1.99206 308.05 1.75415C308.898 1.30067 309.795 0.926741 310.732 0.642325C310.806 0.904175 311.077 1.05869 311.341 0.988109C312.532 0.669829 313.784 0.5 315.076 0.5C316.369 0.5 317.621 0.669829 318.811 0.988109C319.075 1.05869 319.347 0.904176 319.421 0.642326C320.357 0.926743 321.254 1.30067 322.103 1.75415C321.97 1.99206 322.053 2.29315 322.289 2.43004C324.478 3.69661 326.304 5.52217 327.57 7.71123C327.707 7.94782 328.008 8.03022 328.246 7.89775Z" stroke="#7467C6" stroke-linecap="round" stroke-dasharray="8 4"/>
</svg>
