<svg width="102" height="20" viewBox="0 0 102 20" fill="none" xmlns="http://www.w3.org/2000/svg">
<path d="M7.62207 3.89362C5.47442 3.89362 3.93737 4.61702 2.94776 5.70213L2.90565 4.40425H0V19.9787H3.34782V15.0426C4.31637 15.7872 5.70603 16.1915 7.62207 16.1915C11.9174 16.1915 13.7913 13.8298 13.7913 10.0426C13.7913 6.2766 11.9174 3.89362 7.62207 3.89362ZM6.77985 13.4894C4.40059 13.4894 3.0741 12.1915 3.0741 10.0426C3.0741 7.91489 4.40059 6.61702 6.77985 6.61702C9.0749 6.61702 10.4224 7.53192 10.4224 10.0426C10.4224 12.5745 9.0749 13.4894 6.77985 13.4894Z" fill="#6002FD"/>
<path d="M23.25 16.2128C27.7558 16.2128 30.3878 14.3191 30.3878 10.0426C30.3878 5.78723 27.7769 3.89362 23.25 3.89362C18.7231 3.89362 16.1122 5.78723 16.1122 10.0426C16.1122 14.3191 18.7231 16.2128 23.25 16.2128ZM23.25 13.4894C20.4075 13.4894 19.46 12.2553 19.46 10.0426C19.46 7.80851 20.4075 6.61702 23.25 6.61702C26.0714 6.61702 27.0189 7.80851 27.0189 10.0426C27.0189 12.2553 26.0714 13.4894 23.25 13.4894Z" fill="#6002FD"/>
<path d="M33.4535 15.7447H36.8013V0H33.4535V15.7447Z" fill="#6002FD"/>
<path d="M49.924 4.40425L46.913 13.7021H46.1129L42.9546 4.40425H39.2067L43.5231 15.7447H46.2603C45.8392 16.9787 45.4812 17.4043 43.5441 17.4043H41.1228V20H43.481C47.4184 20 48.1342 19.617 49.8187 14.8723L53.5455 4.40425H49.924Z" fill="#6002FD"/>
<path d="M65.5532 0V5.42553C64.5004 4.40425 62.9633 3.89362 61.0894 3.89362C57.4258 3.89362 54.9833 5.91489 54.9833 10C54.9833 14.1489 57.2784 16.2128 61.0894 16.2128C63.3634 16.2128 65.0268 15.4468 66.0374 14.0851L66.1638 15.7447H68.901V0H65.5532ZM61.9316 13.4894C59.7629 13.4894 58.3312 12.6809 58.3312 10.0426C58.3312 7.42553 59.7629 6.6383 61.9316 6.6383C64.4583 6.6383 65.7006 7.97872 65.7006 10.0426C65.7006 12.0851 64.4583 13.4894 61.9316 13.4894Z" fill="white"/>
<path d="M79.0726 3.93617C74.5246 3.93617 71.9979 6.02128 71.9979 10.0426C71.9979 14.6596 74.9036 16.1702 79.0936 16.1702C82.9678 16.1702 85.4734 14.7234 85.9367 12.4255H82.6309C82.2309 13.2979 80.9676 13.6596 79.22 13.6596C76.6512 13.6596 75.3879 12.8085 75.3036 10.8511H86.084C86.1262 6.17021 83.8522 3.93617 79.0726 3.93617ZM75.3668 8.82979C75.5774 7.06383 76.7986 6.34043 79.0726 6.34043C81.136 6.34043 82.4836 7.08511 82.6941 8.82979H75.3668Z" fill="white"/>
<path d="M98.2732 4.40425C97.2204 7.53192 96.1676 10.8511 95.157 13.8723H94.42C93.4094 10.8511 92.3776 7.53192 91.3038 4.40425H87.5559L91.8091 15.7447H97.7678L102 4.40425H98.2732Z" fill="white"/>
</svg>
