<svg width="134" height="26" viewBox="0 0 134 26" fill="none" xmlns="http://www.w3.org/2000/svg">
<path d="M10.0133 5.0617C7.19188 5.0617 5.17262 6.00213 3.87255 7.41277L3.81723 5.72553H0V25.9723H4.39811V19.5553C5.67052 20.5234 7.49615 21.0489 10.0133 21.0489C15.6562 21.0489 18.118 17.9787 18.118 13.0553C18.118 8.15957 15.6562 5.0617 10.0133 5.0617ZM8.90687 17.5362C5.78117 17.5362 4.03852 15.8489 4.03852 13.0553C4.03852 10.2894 5.78117 8.60213 8.90687 8.60213C11.9219 8.60213 13.6922 9.79149 13.6922 13.0553C13.6922 16.3468 11.9219 17.5362 8.90687 17.5362Z" fill="white"/>
<path d="M30.5441 21.0766C36.4636 21.0766 39.9212 18.6149 39.9212 13.0553C39.9212 7.5234 36.4912 5.0617 30.5441 5.0617C24.597 5.0617 21.167 7.5234 21.167 13.0553C21.167 18.6149 24.597 21.0766 30.5441 21.0766ZM30.5441 17.5362C26.8099 17.5362 25.5651 15.9319 25.5651 13.0553C25.5651 10.1511 26.8099 8.60213 30.5441 8.60213C34.2507 8.60213 35.4954 10.1511 35.4954 13.0553C35.4954 15.9319 34.2507 17.5362 30.5441 17.5362Z" fill="white"/>
<path d="M43.9487 20.4681H48.3468V0H43.9487V20.4681Z" fill="white"/>
<path d="M65.5864 5.72553L61.6308 17.8128H60.5797L56.4305 5.72553H51.5069L57.1774 20.4681H60.7733C60.2201 22.0723 59.7499 22.6255 57.2051 22.6255H54.024V26H57.1221C62.2947 26 63.2352 25.5021 65.4481 19.334L70.3441 5.72553H65.5864Z" fill="white"/>
<path d="M86.1192 0V7.05319C84.7362 5.72553 82.7169 5.0617 80.2551 5.0617C75.4421 5.0617 72.2334 7.68936 72.2334 13C72.2334 18.3936 75.2484 21.0766 80.2551 21.0766C83.2425 21.0766 85.4277 20.0809 86.7555 18.3106L86.9214 20.4681H90.5174V0H86.1192ZM81.3615 17.5362C78.5125 17.5362 76.6315 16.4851 76.6315 13.0553C76.6315 9.65319 78.5125 8.62979 81.3615 8.62979C84.6809 8.62979 86.3129 10.3723 86.3129 13.0553C86.3129 15.7106 84.6809 17.5362 81.3615 17.5362Z" fill="white"/>
<path d="M103.88 5.11702C97.9052 5.11702 94.5859 7.82766 94.5859 13.0553C94.5859 19.0574 98.4031 21.0213 103.908 21.0213C108.997 21.0213 112.289 19.1404 112.898 16.1532H108.555C108.029 17.2872 106.37 17.7574 104.074 17.7574C100.699 17.7574 99.0394 16.6511 98.9287 14.1064H113.091C113.146 8.02128 110.159 5.11702 103.88 5.11702ZM99.0117 11.4787C99.2883 9.18298 100.893 8.24255 103.88 8.24255C106.591 8.24255 108.361 9.21064 108.638 11.4787H99.0117Z" fill="white"/>
<path d="M129.104 5.72553C127.721 9.79149 126.338 14.1064 125.01 18.034H124.042C122.715 14.1064 121.359 9.79149 119.949 5.72553H115.025L120.612 20.4681H128.44L134 5.72553H129.104Z" fill="white"/>
</svg>
