<svg width="220" height="26" viewBox="0 0 220 26" fill="none" xmlns="http://www.w3.org/2000/svg">
<path d="M15.9133 0.755615C20.5634 0.755615 23.7998 1.56847 25.6225 3.19419C27.4451 4.79701 28.3565 7.06385 28.3565 9.99472C28.3565 12.0097 27.9943 13.727 27.2699 15.1466C26.5455 16.5434 25.272 17.6424 23.4493 18.4439C21.6266 19.2224 19.1146 19.6116 15.9133 19.6116H8.62261V25.6565H0C0.18694 21.2144 0.28041 17.0586 0.28041 13.1889C0.28041 9.31924 0.18694 5.16336 0 0.721269H8.62261V0.755615H15.9133ZM13.4597 12.9828C15.3992 12.9828 16.848 12.9141 17.806 12.7768C18.7875 12.6165 19.4651 12.3417 19.839 11.9524C20.2363 11.5632 20.4349 10.9908 20.4349 10.2351C20.4349 9.47953 20.2479 8.91854 19.8741 8.55218C19.5235 8.16292 18.8576 7.8996 17.8761 7.76222C16.9181 7.62484 15.4459 7.55614 13.4597 7.55614H8.62261V12.9828H13.4597Z" fill="#6002FD"/>
<path d="M48.1489 26C42.7978 26 38.8603 24.8666 36.3366 22.5997C33.813 20.31 32.5511 17.1044 32.5511 12.9828C32.5511 8.90709 33.8013 5.72435 36.3016 3.43461C38.8253 1.14487 42.7744 0 48.1489 0C53.5468 0 57.4959 1.14487 59.9962 3.43461C62.5199 5.72435 63.7818 8.90709 63.7818 12.9828C63.7818 17.1273 62.5316 20.3329 60.0313 22.5997C57.531 24.8666 53.5702 26 48.1489 26ZM48.1489 18.9934C50.7427 18.9934 52.6121 18.5126 53.7571 17.5509C54.9021 16.5663 55.4746 15.0436 55.4746 12.9828C55.4746 10.9679 54.9021 9.46808 53.7571 8.48349C52.6121 7.4989 50.7427 7.0066 48.1489 7.0066C45.5785 7.0066 43.7208 7.4989 42.5758 8.48349C41.4308 9.46808 40.8583 10.9679 40.8583 12.9828C40.8583 15.0207 41.4308 16.5319 42.5758 17.5165C43.7208 18.5011 45.5785 18.9934 48.1489 18.9934Z" fill="#6002FD"/>
<path d="M76.53 18.7186C83.3066 18.6728 88.9148 18.5583 93.3546 18.3752C93.0509 19.5429 92.8639 20.6649 92.7938 21.7411C92.7237 22.8173 92.6887 24.1224 92.6887 25.6565H67.9775C68.1645 21.2144 68.2579 17.0586 68.2579 13.1889C68.2579 9.31924 68.1645 5.16336 67.9775 0.721269H76.53V18.7186Z" fill="#6002FD"/>
<path d="M124.194 0.721269L123.528 1.71731C121.027 5.51827 118.878 8.88419 117.078 11.8151C115.302 14.723 113.819 17.402 112.627 19.852V25.6565H103.478V19.2682C102.614 17.5509 101.597 15.7878 100.429 13.9789C99.2606 12.1471 97.6015 9.63981 95.4517 6.45707C93.7692 4.02994 92.484 2.11801 91.596 0.721269H101.41C102.111 2.11801 103.256 4.19022 104.845 6.93791C106.434 9.7314 107.521 11.7006 108.105 12.8454C108.923 11.1739 110.021 9.12461 111.4 6.69749C113.012 3.85821 114.099 1.86614 114.66 0.721269H124.194Z" fill="#6002FD"/>
<path d="M138.682 0.343461C143.076 0.343461 146.546 0.870101 149.093 1.92338C151.64 2.95376 153.416 4.3963 154.42 6.25099C155.449 8.08278 155.963 10.3382 155.963 13.0172C155.963 15.5588 155.379 17.7798 154.21 19.6803C153.042 21.5808 151.289 23.0577 148.952 24.111C146.616 25.1413 143.742 25.6565 140.33 25.6565C138.25 25.6565 136.135 25.6565 133.986 25.6565C131.836 25.6565 129.663 25.6451 127.466 25.6222C127.653 21.1114 127.746 16.9097 127.746 13.0172C127.746 9.07882 127.653 4.96874 127.466 0.686921C130.247 0.457948 133.986 0.343461 138.682 0.343461ZM141.311 18.8217C143.484 18.8217 144.933 18.3065 145.658 17.2761C146.382 16.2457 146.744 14.8261 146.744 13.0172C146.744 11.277 146.359 9.86878 145.588 8.7926C144.84 7.71642 143.414 7.17833 141.311 7.17833C139.045 7.17833 137.351 7.24703 136.229 7.38441V18.8217H141.311Z" fill="#6002FD"/>
<path d="M168.426 19.3712C177.306 19.3254 183.744 19.1995 187.739 18.9934C187.576 19.9322 187.471 20.9053 187.424 21.9128C187.401 22.8974 187.389 24.1453 187.389 25.6565H160.154C160.341 21.2144 160.434 17.0586 160.434 13.1889C160.434 9.31924 160.341 5.16336 160.154 0.721269H187.389V6.93791H168.426V10.2351C169.548 10.258 171.207 10.2695 173.403 10.2695C177.119 10.2695 180.963 10.2008 184.935 10.0634V15.9709C180.963 15.8336 177.119 15.7649 173.403 15.7649C171.207 15.7649 169.548 15.7763 168.426 15.7992V19.3712Z" fill="#6002FD"/>
<path d="M220 0.721269L217.687 5.97622C215.654 10.6244 214.053 14.3452 212.885 17.1387C211.716 19.9322 210.641 22.7715 209.66 25.6565H199.18C198.221 22.8173 197.158 20.0123 195.99 17.2417C194.845 14.4483 193.303 10.8763 191.363 6.52576C191.036 5.79304 190.183 3.85821 188.804 0.721269H198.549C199.25 2.94232 200.29 5.79304 201.668 9.27345C202.883 12.3417 203.865 14.9978 204.613 17.2417C205.103 15.6618 205.687 13.9789 206.365 12.1929C207.066 10.384 207.487 9.2849 207.627 8.89564C208.982 5.39234 209.975 2.66755 210.606 0.721269H220Z" fill="#6002FD"/>
</svg>
