<svg width="111" height="36" viewBox="0 0 111 36" fill="none" xmlns="http://www.w3.org/2000/svg">
<path fill-rule="evenodd" clip-rule="evenodd" d="M7.19231 36.0001C11.1645 36.0001 14.3846 32.7766 14.3846 28.8001C14.3846 24.8236 11.1645 21.6001 7.19231 21.6001C3.22011 21.6001 0 24.8236 0 28.8001C0 32.7766 3.22011 36.0001 7.19231 36.0001Z" fill="#102027"/>
<path d="M5.58318 14.4C4.49919 14.4 3.44786 14.2541 2.42917 13.9624C1.42355 13.6575 0.613823 13.2663 0 12.789L1.07746 10.3624C1.66516 10.8 2.36387 11.1514 3.17359 11.4166C3.98332 11.6818 4.79304 11.8144 5.60277 11.8144C6.50391 11.8144 7.16997 11.6818 7.60096 11.4166C8.03194 11.1381 8.24743 10.7735 8.24743 10.3227C8.24743 9.99116 8.11683 9.71934 7.85563 9.50718C7.60749 9.28177 7.28098 9.10276 6.87612 8.97017C6.48432 8.83757 5.94886 8.69171 5.26973 8.5326C4.22493 8.28066 3.3695 8.02873 2.70343 7.7768C2.03737 7.52486 1.46273 7.12044 0.979505 6.56354C0.509342 6.00663 0.274261 5.26409 0.274261 4.33591C0.274261 3.52707 0.489752 2.79779 0.920734 2.14807C1.35172 1.48508 1.99819 0.961325 2.86015 0.576795C3.73518 0.192265 4.79957 0 6.05334 0C6.92836 0 7.7838 0.106077 8.61964 0.318232C9.45548 0.530387 10.1868 0.835359 10.8137 1.23315L9.83423 3.67956C8.5674 2.95028 7.30057 2.58564 6.03375 2.58564C5.14566 2.58564 4.48613 2.73149 4.05515 3.0232C3.63723 3.31492 3.42827 3.69945 3.42827 4.1768C3.42827 4.65414 3.66988 5.01215 4.1531 5.25083C4.64938 5.47624 5.40034 5.70166 6.40596 5.92707C7.45076 6.17901 8.3062 6.43094 8.97226 6.68287C9.63832 6.93481 10.2064 7.3326 10.6766 7.87624C11.1598 8.41989 11.4014 9.1558 11.4014 10.084C11.4014 10.8796 11.1794 11.6088 10.7354 12.2718C10.3044 12.9215 9.65139 13.4387 8.77636 13.8232C7.90134 14.2077 6.83694 14.4 5.58318 14.4Z" fill="white"/>
<path d="M35.0799 0.238673L30.5938 14.1613H27.1851L24.1682 4.7337L21.0534 14.1613H17.6643L13.1586 0.238673H16.4497L19.5449 10.0243L22.7773 0.238673H25.7158L28.8502 10.1039L32.0434 0.238673H35.0799Z" fill="white"/>
<path d="M37.6352 0.238673H40.8088V14.1613H37.6352V0.238673Z" fill="white"/>
<path d="M48.0204 2.82431V6.50387H54.3675V9.0895H48.0204V14.1613H44.8468V0.238673H55.2099V2.82431H48.0204Z" fill="white"/>
<path d="M61.0782 2.86409H56.69V0.238673H68.64V2.86409H64.2518V14.1613H61.0782V2.86409Z" fill="white"/>
<path d="M31.5563 28.5813H34.4832V34.2299C33.7317 34.8001 32.8615 35.2377 31.8727 35.5426C30.8839 35.8476 29.8885 36.0001 28.8865 36.0001C27.4495 36.0001 26.1574 35.6951 25.0104 35.0852C23.8634 34.462 22.9603 33.6067 22.3011 32.5194C21.655 31.4189 21.332 30.1791 21.332 28.8001C21.332 27.4211 21.655 26.1879 22.3011 25.1006C22.9603 24.0001 23.87 23.1448 25.0302 22.5349C26.1904 21.9117 27.4956 21.6001 28.9458 21.6001C30.1588 21.6001 31.2597 21.8056 32.2485 22.2167C33.2373 22.6277 34.0679 23.2244 34.7403 24.0067L32.6835 25.9161C31.6947 24.8686 30.5016 24.3448 29.1041 24.3448C28.2207 24.3448 27.4363 24.5305 26.7507 24.9018C26.0651 25.273 25.5312 25.7968 25.1488 26.473C24.7665 27.1493 24.5753 27.925 24.5753 28.8001C24.5753 29.662 24.7665 30.431 25.1488 31.1073C25.5312 31.7835 26.0585 32.3139 26.7309 32.6984C27.4165 33.0697 28.1944 33.2553 29.0645 33.2553C29.9874 33.2553 30.818 33.0564 31.5563 32.6587V28.5813Z" fill="white"/>
<path d="M38.2502 21.8388H41.4539V33.136H48.3954V35.7614H38.2502V21.8388Z" fill="white"/>
<path d="M57.4488 36.0001C56.0118 36.0001 54.7131 35.6885 53.5529 35.0653C52.4059 34.4421 51.5028 33.5868 50.8436 32.4995C50.1976 31.399 49.8746 30.1658 49.8746 28.8001C49.8746 27.4343 50.1976 26.2078 50.8436 25.1205C51.5028 24.02 52.4059 23.1581 53.5529 22.5349C54.7131 21.9117 56.0118 21.6001 57.4488 21.6001C58.8859 21.6001 60.1779 21.9117 61.325 22.5349C62.472 23.1581 63.3751 24.02 64.0343 25.1205C64.6935 26.2078 65.0231 27.4343 65.0231 28.8001C65.0231 30.1658 64.6935 31.399 64.0343 32.4995C63.3751 33.5868 62.472 34.4421 61.325 35.0653C60.1779 35.6885 58.8859 36.0001 57.4488 36.0001ZM57.4488 33.2553C58.2662 33.2553 59.0046 33.0697 59.6638 32.6984C60.323 32.3139 60.8371 31.7835 61.2063 31.1073C61.5886 30.431 61.7798 29.662 61.7798 28.8001C61.7798 27.9382 61.5886 27.1692 61.2063 26.4929C60.8371 25.8167 60.323 25.2929 59.6638 24.9216C59.0046 24.5371 58.2662 24.3448 57.4488 24.3448C56.6314 24.3448 55.8931 24.5371 55.2339 24.9216C54.5747 25.2929 54.0539 25.8167 53.6716 26.4929C53.3024 27.1692 53.1179 27.9382 53.1179 28.8001C53.1179 29.662 53.3024 30.431 53.6716 31.1073C54.0539 31.7835 54.5747 32.3139 55.2339 32.6984C55.8931 33.0697 56.6314 33.2553 57.4488 33.2553Z" fill="white"/>
<path d="M78.3868 28.5216C79.1779 28.7736 79.7975 29.1979 80.2458 29.7946C80.694 30.378 80.9182 31.1006 80.9182 31.9625C80.9182 33.1824 80.4435 34.1238 79.4943 34.7868C78.5582 35.4366 77.1871 35.7614 75.3808 35.7614H68.2219V21.8388H74.9853C76.6729 21.8388 77.9649 22.1636 78.8615 22.8134C79.7712 23.4631 80.226 24.3448 80.226 25.4587C80.226 26.1349 80.0612 26.7382 79.7316 27.2686C79.4152 27.799 78.9669 28.2167 78.3868 28.5216ZM71.4058 24.2653V27.5471H74.5898C75.3808 27.5471 75.9807 27.4078 76.3894 27.1294C76.7981 26.8509 77.0025 26.4399 77.0025 25.8962C77.0025 25.3526 76.7981 24.9482 76.3894 24.683C75.9807 24.4045 75.3808 24.2653 74.5898 24.2653H71.4058ZM75.1435 33.3349C75.9873 33.3349 76.6202 33.1957 77.042 32.9172C77.4771 32.6388 77.6947 32.2078 77.6947 31.6244C77.6947 30.4708 76.8443 29.894 75.1435 29.894H71.4058V33.3349H75.1435Z" fill="white"/>
<path d="M93.2515 32.778H86.8243L85.5982 35.7614H82.3153L88.4855 21.8388H91.6497L97.8396 35.7614H94.4777L93.2515 32.778ZM92.243 30.3316L90.0478 25.0012L87.8526 30.3316H92.243Z" fill="white"/>
<path d="M100.067 21.8388H103.271V33.136H110.212V35.7614H100.067V21.8388Z" fill="white"/>
</svg>
