<svg width="50" height="50" viewBox="0 0 50 50" fill="none" xmlns="http://www.w3.org/2000/svg">
<path d="M11.3281 28.9062C11.3281 25.9445 13.7375 23.5352 16.6992 23.5352H33.3008C34.647 23.5352 35.7422 22.44 35.7422 21.0938V7.32422C35.7422 3.2856 32.4566 0 28.418 0H21.582C17.5434 0 14.2578 3.2856 14.2578 7.32422V11.3281H25C25.8091 11.3281 26.4648 11.9839 26.4648 12.793C26.4648 13.6021 25.8091 14.2578 25 14.2578H7.32422C3.2856 14.2578 0 17.5434 0 21.582V28.418C0 32.4566 3.2856 35.7422 7.32422 35.7422H11.3281V28.9062ZM21.582 7.42188C20.7729 7.42188 20.1172 6.76613 20.1172 5.95703C20.1172 5.14793 20.7729 4.49219 21.582 4.49219C22.3911 4.49219 23.0469 5.14793 23.0469 5.95703C23.0469 6.76613 22.3911 7.42188 21.582 7.42188Z" fill="black"/>
<path d="M42.6758 14.2578H38.6719V21.0938C38.6719 24.0555 36.2625 26.4648 33.3008 26.4648H16.6992C15.353 26.4648 14.2578 27.56 14.2578 28.9062V42.6758C14.2578 46.7144 17.5434 50 21.582 50H28.418C32.4566 50 35.7422 46.7144 35.7422 42.6758V38.6719H25C24.1909 38.6719 23.5352 38.0161 23.5352 37.207C23.5352 36.3979 24.1909 35.7422 25 35.7422H42.6758C46.7144 35.7422 50 32.4566 50 28.418V21.582C50 17.5434 46.7144 14.2578 42.6758 14.2578ZM28.418 42.5781C29.2271 42.5781 29.8828 43.2339 29.8828 44.043C29.8828 44.8521 29.2271 45.5078 28.418 45.5078C27.6089 45.5078 26.9531 44.8521 26.9531 44.043C26.9531 43.2339 27.6089 42.5781 28.418 42.5781Z" fill="black"/>
</svg>
