<svg width="51" height="50" viewBox="0 0 51 50" fill="none" xmlns="http://www.w3.org/2000/svg">
<g clip-path="url(#clip0)">
<path d="M48.2615 0H24.168C24.168 6 29.0295 10.8571 35.035 10.8571H39.4676V15.1429C39.4676 21.1429 44.3291 26 50.3346 26V2.07144C50.3346 0.928562 49.4052 0 48.2615 0Z" fill="#030104"/>
<path d="M36.2739 12H12.334C12.334 18 17.1645 22.8571 23.1317 22.8571H27.5361V27.1429C27.5361 33.1429 32.3668 38 38.334 38V14.0714C38.334 12.9285 37.4103 12 36.2739 12Z" fill="#030104"/>
<path d="M24.4273 24H0.333984C0.333984 30 5.19554 34.8571 11.201 34.8571H15.6335V39.1429C15.6335 45.1429 20.4952 50 26.5007 50V26.0715C26.5007 24.9285 25.5713 24 24.4273 24Z" fill="#030104"/>
</g>
<defs>
<clipPath id="clip0">
<rect width="50" height="50" fill="white" transform="translate(0.333984)"/>
</clipPath>
</defs>
</svg>
