<svg width="51" height="50" viewBox="0 0 51 50" fill="none" xmlns="http://www.w3.org/2000/svg">
<g clip-path="url(#clip0)">
<path d="M11.9948 28.9062C11.9948 25.9445 14.4041 23.5352 17.3659 23.5352H33.9674C35.3136 23.5352 36.4088 22.44 36.4088 21.0938V7.32422C36.4088 3.2856 33.1232 0 29.0846 0H22.2487C18.2101 0 14.9245 3.2856 14.9245 7.32422V11.3281H25.6667C26.4758 11.3281 27.1315 11.9839 27.1315 12.793C27.1315 13.6021 26.4758 14.2578 25.6667 14.2578H7.99088C3.95226 14.2578 0.666656 17.5434 0.666656 21.582V28.418C0.666656 32.4566 3.95226 35.7422 7.99088 35.7422H11.9948V28.9062ZM22.2487 7.42188C21.4396 7.42188 20.7838 6.76613 20.7838 5.95703C20.7838 5.14793 21.4396 4.49219 22.2487 4.49219C23.0578 4.49219 23.7135 5.14793 23.7135 5.95703C23.7135 6.76613 23.0578 7.42188 22.2487 7.42188Z" fill="#6002FD"/>
<path d="M43.3424 14.2578H39.3385V21.0938C39.3385 24.0555 36.9292 26.4648 33.9674 26.4648H17.3659C16.0197 26.4648 14.9245 27.56 14.9245 28.9062V42.6758C14.9245 46.7144 18.2101 50 22.2487 50H29.0846C33.1232 50 36.4088 46.7144 36.4088 42.6758V38.6719H25.6667C24.8576 38.6719 24.2018 38.0161 24.2018 37.207C24.2018 36.3979 24.8576 35.7422 25.6667 35.7422H43.3424C47.3811 35.7422 50.6667 32.4566 50.6667 28.418V21.582C50.6667 17.5434 47.3811 14.2578 43.3424 14.2578ZM29.0846 42.5781C29.8937 42.5781 30.5495 43.2339 30.5495 44.043C30.5495 44.8521 29.8937 45.5078 29.0846 45.5078C28.2755 45.5078 27.6198 44.8521 27.6198 44.043C27.6198 43.2339 28.2755 42.5781 29.0846 42.5781Z" fill="#6002FD"/>
</g>
<defs>
<clipPath id="clip0">
<rect width="50" height="50" fill="white" transform="translate(0.666656)"/>
</clipPath>
</defs>
</svg>
