<svg width="224" height="112" viewBox="0 0 224 112" fill="none" xmlns="http://www.w3.org/2000/svg">
<path d="M48.6088 62.4283C52.1919 62.4283 55.0966 59.5237 55.0966 55.9406C55.0966 52.3575 52.1919 49.4529 48.6088 49.4529C45.0257 49.4529 42.1211 52.3575 42.1211 55.9406C42.1211 59.5237 45.0257 62.4283 48.6088 62.4283Z" fill="white"/>
<path fill-rule="evenodd" clip-rule="evenodd" d="M48.6089 42.7498C57.3196 42.7498 65.4116 43.9997 71.5129 46.1001C78.8641 48.631 83.3839 52.4671 83.3839 55.9407C83.3839 59.5604 78.5938 63.6358 70.6996 66.2513C64.7313 68.2286 56.8776 69.2609 48.6089 69.2609C40.1313 69.2609 32.1035 68.292 26.068 66.2296C18.432 63.6196 13.8328 59.4915 13.8328 55.9407C13.8328 52.4953 18.1483 48.6888 25.3961 46.1618C31.5202 44.0267 39.812 42.7498 48.6078 42.7498H48.6089Z" stroke="white" stroke-width="3.10374"/>
<path fill-rule="evenodd" clip-rule="evenodd" d="M37.1258 49.3832C41.4775 41.8375 46.6026 35.4521 51.4703 31.216C57.3351 26.1121 62.9162 24.1133 65.9252 25.8484C69.061 27.6568 70.1983 33.8424 68.5203 41.9874C67.2529 48.1455 64.2224 55.4644 60.0916 62.6273C55.8563 69.9713 51.0066 76.4415 46.2053 80.6383C40.1297 85.9493 34.2559 87.8713 31.1799 86.0974C28.1952 84.3774 27.0538 78.7364 28.4856 71.1952C29.6954 64.8234 32.7315 57.0027 37.1244 49.3831L37.1258 49.3832Z" stroke="white" stroke-width="3.10374"/>
<path fill-rule="evenodd" clip-rule="evenodd" d="M37.1366 62.6466C32.7726 55.1094 29.8014 47.4787 28.5612 41.146C27.0683 33.516 28.1238 27.6823 31.13 25.9421C34.2628 24.1285 40.1897 26.2323 46.4082 31.7539C51.1099 35.9284 55.9377 42.2079 60.0806 49.3641C64.3281 56.701 67.5115 64.1341 68.7499 70.3897C70.3169 78.3059 69.0486 84.3544 65.9755 86.1334C62.9937 87.8596 57.5372 86.032 51.719 81.0252C46.803 76.795 41.5436 70.2586 37.1366 62.6465V62.6466Z" stroke="white" stroke-width="3.10374"/>
<path fill-rule="evenodd" clip-rule="evenodd" d="M120.624 72.5162L112.672 60.5024C116.691 60.1477 120.312 57.2357 120.312 51.9157C120.312 46.5024 116.471 43.0378 111.081 43.0378H99.2468V72.4938H102.913V60.7898H108.787L116.295 72.4938L120.624 72.5162ZM110.643 57.5885H102.915V46.3269H110.643C114.133 46.3269 116.517 48.6229 116.517 51.9362C116.517 55.2496 114.132 57.5922 110.643 57.5922V57.5885ZM134.271 73.0445C137.762 73.0445 140.631 71.8965 142.751 69.7778L141.161 67.6125C139.481 69.3354 137.009 70.3061 134.581 70.3061C129.989 70.3061 127.161 66.9498 126.896 62.9328H144.163V62.0928C144.163 55.6901 140.364 50.6538 133.915 50.6538C127.82 50.6538 123.405 55.6453 123.405 61.8277C123.405 68.4973 127.954 73.0277 134.269 73.0277L134.271 73.0445ZM140.898 60.5005H126.898C127.075 57.2338 129.324 53.3885 133.875 53.3885C138.734 53.3885 140.853 57.3197 140.898 60.5005ZM166.161 72.5144V57.8517C166.161 52.6848 162.409 50.652 157.903 50.652C154.412 50.652 151.676 51.8 149.38 54.1856L150.925 56.4816C152.824 54.4506 154.902 53.5229 157.463 53.5229C160.554 53.5229 162.852 55.1562 162.852 58.0272V61.8688C161.129 59.8808 158.7 58.953 155.784 58.953C152.163 58.953 148.318 61.2061 148.318 65.9754C148.318 70.6122 152.159 73.0426 155.784 73.0426C158.655 73.0426 161.086 72.0272 162.852 70.084V72.5106L166.161 72.5144ZM156.977 70.6589C153.886 70.6589 151.721 68.7176 151.721 66.0221C151.721 63.2837 153.886 61.3405 156.977 61.3405C159.318 61.3405 161.569 62.2234 162.852 63.9912V68.0101C161.571 69.776 159.318 70.6608 156.977 70.6608V70.6589ZM182.177 73.0445C186.064 73.0445 188.36 71.4541 189.995 69.3354L187.787 67.3045C186.373 69.2029 184.563 70.0858 182.373 70.0858C177.824 70.0858 175 66.5522 175 61.8277C175 57.1032 177.826 53.6144 182.373 53.6144C184.581 53.6144 186.392 54.4544 187.787 56.3957L189.995 54.3648C188.361 52.2442 186.064 50.6557 182.177 50.6557C175.817 50.6557 171.533 55.5146 171.533 61.8296C171.533 68.1893 175.817 73.0296 182.177 73.0296V73.0445ZM200.023 73.0445C201.964 73.0445 203.159 72.4696 203.999 71.6762L203.028 69.2029C202.585 69.6882 201.721 70.0858 200.775 70.0858C199.319 70.0858 198.609 68.9378 198.609 67.3474V54.0978H202.94V51.184H198.609V45.3544H195.296V51.184H191.763V54.0997H195.296V68.0568C195.296 71.2376 196.887 73.0482 200.023 73.0482V73.0445Z" fill="white"/>
</svg>
