<svg width="70" height="70" viewBox="0 0 70 70" fill="none" xmlns="http://www.w3.org/2000/svg">
<path d="M15.8594 40.4688C15.8594 36.3223 19.2325 32.9492 23.3789 32.9492H46.6211C48.5058 32.9492 50.0391 31.4159 50.0391 29.5312V10.2539C50.0391 4.59984 45.4392 0 39.7852 0H30.2148C24.5608 0 19.9609 4.59984 19.9609 10.2539V15.8594H35C36.1327 15.8594 37.0508 16.7774 37.0508 17.9102C37.0508 19.0429 36.1327 19.9609 35 19.9609H10.2539C4.59984 19.9609 0 24.5608 0 30.2148V39.7852C0 45.4392 4.59984 50.0391 10.2539 50.0391H15.8594V40.4688ZM30.2148 10.3906C29.0821 10.3906 28.1641 9.47258 28.1641 8.33984C28.1641 7.20711 29.0821 6.28906 30.2148 6.28906C31.3476 6.28906 32.2656 7.20711 32.2656 8.33984C32.2656 9.47258 31.3476 10.3906 30.2148 10.3906Z" fill="white"/>
<path d="M59.7461 19.9609H54.1406V29.5312C54.1406 33.6777 50.7675 37.0508 46.6211 37.0508H23.3789C21.4942 37.0508 19.9609 38.5841 19.9609 40.4688V59.7461C19.9609 65.4002 24.5608 70 30.2148 70H39.7852C45.4392 70 50.0391 65.4002 50.0391 59.7461V54.1406H35C33.8673 54.1406 32.9492 53.2226 32.9492 52.0898C32.9492 50.9571 33.8673 50.0391 35 50.0391H59.7461C65.4002 50.0391 70 45.4392 70 39.7852V30.2148C70 24.5608 65.4002 19.9609 59.7461 19.9609ZM39.7852 59.6094C40.9179 59.6094 41.8359 60.5274 41.8359 61.6602C41.8359 62.7929 40.9179 63.7109 39.7852 63.7109C38.6524 63.7109 37.7344 62.7929 37.7344 61.6602C37.7344 60.5274 38.6524 59.6094 39.7852 59.6094Z" fill="white"/>
</svg>
