<svg width="70" height="70" viewBox="0 0 70 70" fill="none" xmlns="http://www.w3.org/2000/svg">
<path d="M4.97632 34.9986C4.97632 46.8817 11.8805 57.1529 21.8978 62.0211L7.57381 22.7806C5.91055 26.5122 4.97632 30.646 4.97632 34.9986ZM55.2683 33.4811C55.2683 29.7712 53.9372 27.2007 52.7923 25.2026C51.2722 22.7266 49.8438 20.6368 49.8438 18.1608C49.8438 15.404 51.9364 12.8335 54.8849 12.8335C55.0172 12.8335 55.1441 12.8497 55.2764 12.8551C49.9329 7.95982 42.8155 4.97351 35.0014 4.97351C24.5115 4.97351 15.2826 10.3548 9.91479 18.5091C10.6195 18.5307 11.2837 18.5442 11.8481 18.5442C14.9883 18.5442 19.8485 18.1608 19.8485 18.1608C21.4658 18.0663 21.6575 20.4451 20.0402 20.6368C20.0402 20.6368 18.412 20.8258 16.6056 20.9203L27.5383 53.4429L34.1104 33.7376L29.4338 20.9203C27.8164 20.8258 26.2828 20.6368 26.2828 20.6368C24.6627 20.5396 24.8544 18.0636 26.4718 18.1608C26.4718 18.1608 31.4292 18.5442 34.3777 18.5442C37.5179 18.5442 42.3808 18.1608 42.3808 18.1608C44.0008 18.0663 44.1898 20.4451 42.5725 20.6368C42.5725 20.6368 40.9416 20.8258 39.1379 20.9203L49.9869 53.1945L52.984 43.188C54.5069 39.2863 55.2683 36.0543 55.2683 33.4811ZM35.5279 37.6258L26.5177 63.8005C29.2097 64.5916 32.0529 65.0237 35.0014 65.0237C38.4953 65.0237 41.8515 64.4188 44.9728 63.3226C44.8945 63.193 44.8189 63.0553 44.7568 62.9095L35.5279 37.6258ZM61.3462 20.5936C61.4785 21.5494 61.5487 22.5754 61.5487 23.6825C61.5487 26.7282 60.9763 30.1519 59.2645 34.4343L50.0949 60.9492C59.0215 55.7434 65.0238 46.0744 65.0238 34.9986C65.0238 29.7766 63.6899 24.8678 61.3462 20.5936Z" fill="#6002FD"/>
<path d="M0 34.9987C0 54.2962 15.7011 70 34.9987 70C54.3016 70 70 54.2962 70 34.9987C70 15.7011 54.3016 0 35.0014 0C15.7011 0 0 15.6984 0 34.9987ZM1.60386 34.9987C1.60386 16.5867 16.584 1.60386 34.9987 1.60386C53.4133 1.60386 68.3961 16.5867 68.3961 34.9987C68.3961 53.4106 53.4133 68.3934 35.0014 68.3934C16.5894 68.3934 1.60386 53.4106 1.60386 34.9987Z" fill="#6002FD"/>
</svg>
