<svg width="32" height="50" viewBox="0 0 32 50" fill="none" xmlns="http://www.w3.org/2000/svg">
<g clip-path="url(#clip0)">
<path d="M16 25C16 22.7898 16.8429 20.6702 18.3431 19.1074C19.8434 17.5446 21.8783 16.6666 24 16.6666C26.1217 16.6666 28.1566 17.5446 29.6569 19.1074C31.1571 20.6702 32 22.7898 32 25C32 27.2101 31.1571 29.3297 29.6569 30.8925C28.1566 32.4553 26.1217 33.3333 24 33.3333C21.8783 33.3333 19.8434 32.4553 18.3431 30.8925C16.8429 29.3297 16 27.2101 16 25Z" fill="black"/>
<path d="M0 41.6667C0 39.4566 0.842855 37.337 2.34315 35.7741C3.84344 34.2113 5.87827 33.3334 8 33.3334H16V41.6667C16 43.8768 15.1571 45.9965 13.6569 47.5593C12.1566 49.1221 10.1217 50 8 50C5.87827 50 3.84344 49.1221 2.34315 47.5593C0.842855 45.9965 0 43.8768 0 41.6667H0Z" fill="black"/>
<path d="M16 0V16.6667H24C26.1217 16.6667 28.1566 15.7887 29.6569 14.2259C31.1571 12.6631 32 10.5435 32 8.33333C32 6.1232 31.1571 4.00358 29.6569 2.44078C28.1566 0.877974 26.1217 0 24 0L16 0Z" fill="black"/>
<path d="M0 8.33333C0 10.5435 0.842855 12.6631 2.34315 14.2259C3.84344 15.7887 5.87827 16.6667 8 16.6667H16V0H8C5.87827 0 3.84344 0.877974 2.34315 2.44078C0.842855 4.00358 0 6.1232 0 8.33333H0Z" fill="black"/>
<path d="M0 25C0 27.2101 0.842855 29.3297 2.34315 30.8925C3.84344 32.4553 5.87827 33.3333 8 33.3333H16V16.6666H8C5.87827 16.6666 3.84344 17.5446 2.34315 19.1074C0.842855 20.6702 0 22.7898 0 25H0Z" fill="black"/>
</g>
<defs>
<clipPath id="clip0">
<rect width="32" height="50" fill="white"/>
</clipPath>
</defs>
</svg>
