<svg width="51" height="50" viewBox="0 0 51 50" fill="none" xmlns="http://www.w3.org/2000/svg">
<g clip-path="url(#clip0)">
<path d="M48.2602 0H24.1666C24.1666 6 29.0282 10.8571 35.0337 10.8571H39.4663V15.1429C39.4663 21.1429 44.3278 26 50.3333 26V2.07144C50.3333 0.928562 49.4039 0 48.2602 0Z" fill="#6002FD"/>
<path d="M36.2732 12H12.3333C12.3333 18 17.1639 22.8571 23.1311 22.8571H27.5354V27.1429C27.5354 33.1429 32.3661 38 38.3333 38V14.0714C38.3333 12.9285 37.4096 12 36.2732 12Z" fill="#6002FD"/>
<path d="M24.4266 24H0.333313C0.333313 30 5.19487 34.8571 11.2003 34.8571H15.6328V39.1429C15.6328 45.1429 20.4945 50 26.5 50V26.0715C26.5 24.9285 25.5706 24 24.4266 24Z" fill="#6002FD"/>
</g>
<defs>
<clipPath id="clip0">
<rect width="50" height="50" fill="white" transform="translate(0.333313)"/>
</clipPath>
</defs>
</svg>
