<svg width="51" height="50" viewBox="0 0 51 50" fill="none" xmlns="http://www.w3.org/2000/svg">
<g clip-path="url(#clip0)">
<path d="M4.2207 24.999C4.2207 33.487 9.15224 40.8235 16.3075 44.3009L6.07606 16.2719C4.88801 18.9373 4.2207 21.8901 4.2207 24.999ZM40.1436 23.9151C40.1436 21.2652 39.1927 19.4291 38.375 18.0019C37.2892 16.2334 36.2689 14.7406 36.2689 12.972C36.2689 11.0029 37.7636 9.16682 39.8697 9.16682C39.9642 9.16682 40.0548 9.17839 40.1493 9.18225C36.3326 5.68563 31.2487 3.55255 25.6672 3.55255C18.1744 3.55255 11.5823 7.39633 7.74819 13.2208C8.25156 13.2363 8.72601 13.2459 9.12909 13.2459C11.3721 13.2459 14.8437 12.972 14.8437 12.972C15.9989 12.9045 16.1358 14.6037 14.9806 14.7406C14.9806 14.7406 13.8176 14.8756 12.5274 14.9431L20.3364 38.1736L25.0307 24.0984L21.6903 14.9431C20.5351 14.8756 19.4396 14.7406 19.4396 14.7406C18.2824 14.6712 18.4194 12.9026 19.5746 12.972C19.5746 12.972 23.1156 13.2459 25.2217 13.2459C27.4647 13.2459 30.9382 12.972 30.9382 12.972C32.0953 12.9045 32.2303 14.6037 31.0751 14.7406C31.0751 14.7406 29.9102 14.8756 28.6219 14.9431L36.3711 37.9961L38.5119 30.8486C39.5997 28.0617 40.1436 25.7531 40.1436 23.9151ZM26.0433 26.8756L19.6074 45.5718C21.5303 46.1369 23.5611 46.4455 25.6672 46.4455C28.1628 46.4455 30.5601 46.0135 32.7897 45.2305C32.7337 45.1379 32.6797 45.0395 32.6354 44.9354L26.0433 26.8756ZM44.4849 14.7097C44.5794 15.3925 44.6296 16.1254 44.6296 16.9161C44.6296 19.0916 44.2207 21.5371 42.9979 24.5959L36.4483 43.5352C42.8244 39.8168 47.1117 32.9103 47.1117 24.999C47.1117 21.269 46.159 17.7628 44.4849 14.7097Z" fill="#030104"/>
<path d="M0.666016 24.999C0.666016 38.783 11.8811 50 25.6651 50C39.4529 50 50.666 38.783 50.666 24.999C50.666 11.215 39.4529 0 25.667 0C11.8811 0 0.666016 11.2131 0.666016 24.999ZM1.81163 24.999C1.81163 11.8476 12.5117 1.14561 25.6651 1.14561C38.8184 1.14561 49.5204 11.8476 49.5204 24.999C49.5204 38.1504 38.8184 48.8525 25.667 48.8525C12.5156 48.8525 1.81163 38.1504 1.81163 24.999Z" fill="#030104"/>
</g>
<defs>
<clipPath id="clip0">
<rect width="50" height="50" fill="white" transform="translate(0.666016)"/>
</clipPath>
</defs>
</svg>
