<svg width="50" height="50" viewBox="0 0 50 50" fill="none" xmlns="http://www.w3.org/2000/svg">
<path d="M26.2158 22.1833V39.5167H22.9824V20.9667L26.2158 22.1833Z" fill="black"/>
<path d="M13.3008 20.5666C13.3008 16.1333 15.7174 13.7166 18.5508 13.7166C21.3841 13.7166 21.7841 14.1166 25.0008 15.7333C28.2174 17.3499 29.0341 17.7499 30.6508 17.7499C32.2674 17.7499 33.0674 16.5333 33.0674 14.1166H35.8841C36.2841 18.9499 33.4674 20.9666 30.6341 20.9666C27.8008 20.9666 27.0008 20.5666 24.1841 18.9499C21.3674 17.3333 20.5508 16.9333 18.9341 16.9333C17.3174 16.9333 16.5174 18.1499 16.1174 20.9666L13.3008 20.5666Z" fill="black"/>
<path d="M25 50C11.2167 50 0 38.7833 0 25C0 11.2167 11.2167 0 25 0C38.7833 0 50 11.2167 50 25C50 38.7833 38.7833 50 25 50ZM25 1.61667C12.1 1.61667 1.61667 12.1 1.61667 25C1.61667 37.9 12.1 48.3833 25 48.3833C37.9 48.3833 48.3833 37.9 48.3833 25C48.3833 12.1 37.9 1.61667 25 1.61667Z" fill="black"/>
</svg>
