<svg width="70" height="70" viewBox="0 0 70 70" fill="none" xmlns="http://www.w3.org/2000/svg">
<path d="M36.7034 31.0567V55.3234H32.1768V29.3534L36.7034 31.0567Z" fill="white"/>
<path d="M18.6201 28.7932C18.6201 22.5866 22.0034 19.2032 25.9701 19.2032C29.9368 19.2032 30.4968 19.7632 35.0001 22.0266C39.5034 24.2899 40.6468 24.8499 42.9101 24.8499C45.1734 24.8499 46.2934 23.1466 46.2934 19.7632H50.2368C50.7968 26.5299 46.8534 29.3532 42.8868 29.3532C38.9201 29.3532 37.8001 28.7932 33.8568 26.5299C29.9134 24.2666 28.7701 23.7066 26.5068 23.7066C24.2434 23.7066 23.1234 25.4099 22.5634 29.3532L18.6201 28.7932Z" fill="white"/>
<path d="M35 70C15.7033 70 0 54.2967 0 35C0 15.7033 15.7033 0 35 0C54.2967 0 70 15.7033 70 35C70 54.2967 54.2967 70 35 70ZM35 2.26333C16.94 2.26333 2.26333 16.94 2.26333 35C2.26333 53.06 16.94 67.7367 35 67.7367C53.06 67.7367 67.7367 53.06 67.7367 35C67.7367 16.94 53.06 2.26333 35 2.26333Z" fill="white"/>
</svg>
