<svg width="70" height="70" viewBox="0 0 70 70" fill="none" xmlns="http://www.w3.org/2000/svg">
<path d="M36.7034 31.0567V55.3234H32.1767V29.3534L36.7034 31.0567Z" fill="#6002FD"/>
<path d="M18.62 28.7932C18.62 22.5866 22.0033 19.2032 25.97 19.2032C29.9367 19.2032 30.4967 19.7632 35 22.0266C39.5033 24.2899 40.6467 24.8499 42.91 24.8499C45.1733 24.8499 46.2933 23.1466 46.2933 19.7632H50.2367C50.7967 26.5299 46.8533 29.3532 42.8867 29.3532C38.92 29.3532 37.8 28.7932 33.8567 26.5299C29.9133 24.2666 28.77 23.7066 26.5067 23.7066C24.2433 23.7066 23.1233 25.4099 22.5633 29.3532L18.62 28.7932Z" fill="#6002FD"/>
<path d="M35 70C15.7033 70 0 54.2967 0 35C0 15.7033 15.7033 0 35 0C54.2967 0 70 15.7033 70 35C70 54.2967 54.2967 70 35 70ZM35 2.26333C16.94 2.26333 2.26333 16.94 2.26333 35C2.26333 53.06 16.94 67.7367 35 67.7367C53.06 67.7367 67.7367 53.06 67.7367 35C67.7367 16.94 53.06 2.26333 35 2.26333Z" fill="#6002FD"/>
</svg>
