<svg width="44" height="70" viewBox="0 0 44 70" fill="none" xmlns="http://www.w3.org/2000/svg">
<g clip-path="url(#clip0_1555:29129)">
<path d="M22 35C22 31.9059 23.1589 28.9384 25.2218 26.7505C27.2847 24.5625 30.0826 23.3334 33 23.3334C35.9174 23.3334 38.7153 24.5625 40.7782 26.7505C42.8411 28.9384 44 31.9059 44 35C44 38.0942 42.8411 41.0617 40.7782 43.2496C38.7153 45.4376 35.9174 46.6667 33 46.6667C30.0826 46.6667 27.2847 45.4376 25.2218 43.2496C23.1589 41.0617 22 38.0942 22 35Z" fill="white"/>
<path d="M0 58.3333C0 55.2391 1.15893 52.2716 3.22183 50.0837C5.28473 47.8958 8.08262 46.6666 11 46.6666H22V58.3333C22 61.4275 20.8411 64.3949 18.7782 66.5829C16.7153 68.7708 13.9174 69.9999 11 69.9999C8.08262 69.9999 5.28473 68.7708 3.22183 66.5829C1.15893 64.3949 0 61.4275 0 58.3333H0Z" fill="white"/>
<path d="M22 0V23.3333H33C35.9174 23.3333 38.7153 22.1042 40.7782 19.9162C42.8411 17.7283 44 14.7609 44 11.6667C44 8.57247 42.8411 5.60501 40.7782 3.41709C38.7153 1.22916 35.9174 0 33 0L22 0Z" fill="white"/>
<path d="M0 11.6667C0 14.7609 1.15893 17.7283 3.22183 19.9162C5.28473 22.1042 8.08262 23.3333 11 23.3333H22V0H11C8.08262 0 5.28473 1.22916 3.22183 3.41709C1.15893 5.60501 0 8.57247 0 11.6667H0Z" fill="white"/>
<path d="M0 35C0 38.0942 1.15893 41.0617 3.22183 43.2496C5.28473 45.4376 8.08262 46.6667 11 46.6667H22V23.3334H11C8.08262 23.3334 5.28473 24.5625 3.22183 26.7505C1.15893 28.9384 0 31.9059 0 35H0Z" fill="white"/>
</g>
<defs>
<clipPath id="clip0_1555:29129">
<rect width="44" height="70" fill="white"/>
</clipPath>
</defs>
</svg>
