<svg width="70" height="70" viewBox="0 0 70 70" fill="none" xmlns="http://www.w3.org/2000/svg">
<g clip-path="url(#clip0_1555:29140)">
<path d="M67.0976 0H33.3667C33.3667 8.4 40.1728 15.2 48.5805 15.2H54.7862V21.2001C54.7862 29.6001 61.5923 36.4 70 36.4V2.90001C70 1.29999 68.6989 0 67.0976 0Z" fill="white"/>
<path d="M50.3159 16.8H16.8C16.8 25.2 23.5628 32 31.9169 32H38.083V38.0001C38.083 46.4001 44.846 53.2001 53.2001 53.2001V19.7001C53.2001 18.1 51.9069 16.8 50.3159 16.8Z" fill="white"/>
<path d="M33.7307 33.6H0C0 42 6.80618 48.7999 15.2138 48.7999H21.4193V54.8001C21.4193 63.2001 28.2257 70 36.6333 70V36.5C36.6333 34.8999 35.3322 33.6 33.7307 33.6Z" fill="white"/>
</g>
<defs>
<clipPath id="clip0_1555:29140">
<rect width="70" height="70" fill="white"/>
</clipPath>
</defs>
</svg>
